<svg xmlns="http://www.w3.org/2000/svg" width="148.457" height="148.717" viewBox="0 0 148.457 148.717">
  <g id="icons8-checked_laptop" transform="translate(-126.607 -10.946)">
    <g id="Group_2988" data-name="Group 2988" transform="translate(126.608 10.946)">
      <path id="Path_5345" data-name="Path 5345" d="M107.764,137.717A74.31,74.31,0,0,1,210.579,30.448c.742.742-2.6,9.279-1.856,10.022,2.969,2.969,9.651,6.31,11.878,7.423,1.114.371-1.856,3.712-.742,3.712.371,0,4.454-4.454,4.825-3.712a74.4,74.4,0,0,1-11.878,89.453C183.483,167.04,136.715,167.04,107.764,137.717Z" transform="translate(-86.05 -10.946)" fill="#1fd4af"/>
    </g>
    <g id="Group_2989" data-name="Group 2989" transform="translate(163.79 31.19)">
      <path id="Path_5346" data-name="Path 5346" d="M115.86,49.063A11.1,11.1,0,1,0,98.415,62.8L124.4,96.2c1.856,2.6,5.2,4.083,8.537,4.454h.371a10.635,10.635,0,0,0,8.166-3.712l56.047-63.1a64.759,64.759,0,0,0-14.1-17.445L133.677,72.076Z" transform="translate(-96.068 -16.4)" fill="#fff"/>
    </g>
  </g>
</svg>
