<svg xmlns="http://www.w3.org/2000/svg" width="20.814" height="20.814" viewBox="0 0 20.814 20.814">
  <g id="Group_70" data-name="Group 70" transform="translate(2064.784 -4807.299)">
    <rect id="Rectangle_9" data-name="Rectangle 9" width="19.814" height="19.814" rx="1.74" transform="translate(-2064.284 4807.799)" fill="none" stroke="#606060" stroke-miterlimit="10" stroke-width="1"/>
    <g id="Group_30" data-name="Group 30" transform="translate(-2060.661 4811.227)">
      <g id="Group_29" data-name="Group 29">
        <rect id="Rectangle_10" data-name="Rectangle 10" width="2.494" height="8.058" transform="translate(0.24 4.513)" fill="none" stroke="#606060" stroke-miterlimit="10" stroke-width="1"/>
        <path id="Path_623" data-name="Path 623" d="M714.265,663.322a1.487,1.487,0,1,0-1.476-1.487A1.48,1.48,0,0,0,714.265,663.322Z" transform="translate(-712.789 -660.348)" fill="none" stroke="#606060" stroke-miterlimit="10" stroke-width="1"/>
      </g>
      <path id="Path_624" data-name="Path 624" d="M718.211,667.108c0-1.133.521-1.808,1.521-1.808.917,0,1.357.648,1.357,1.808v4.229h2.483v-5.1c0-2.158-1.223-3.2-2.931-3.2a2.811,2.811,0,0,0-2.429,1.331v-1.087h-2.393v8.058h2.393Z" transform="translate(-711.005 -658.766)" fill="none" stroke="#606060" stroke-miterlimit="10" stroke-width="1"/>
    </g>
  </g>
</svg>
