<svg id="Group_7665" data-name="Group 7665" xmlns="http://www.w3.org/2000/svg" width="677.152" height="665.74" viewBox="0 0 677.152 665.74">
  <ellipse id="Ellipse_476" data-name="Ellipse 476" cx="248.5" cy="29.5" rx="248.5" ry="29.5" transform="translate(180.152 606.74)" fill="#eff1f1"/>
  <g id="Group_7642" data-name="Group 7642" transform="translate(0 0)">
    <g id="undraw_certificate_343v" transform="translate(0 104.084)">
      <path id="Path_5484" data-name="Path 5484" d="M582.256,302.285c0,74.827-41.876,141.023-106.072,181.32-41.16,25.841-91.5,41.036-145.854,41.036-72.41,0-127.645-28.668-169.194-72.585-38.3-40.468-64.963-93.9-82.731-149.771C-.916,52.81,131.591-15.25,330.331,79.929,456.869,140.536,582.256,179.484,582.256,302.285Z" transform="translate(-55.067 -38.747)" fill="#e53227"/>
      <path id="Path_5485" data-name="Path 5485" d="M572.972,263.5V576.017c-43.118,25.841-95.853,41.036-152.794,41.036-75.856,0-133.719-28.668-177.245-72.585V263.5Z" transform="translate(-140.677 -130.567)" fill="#eff1f1"/>
      <ellipse id="Ellipse_353" data-name="Ellipse 353" cx="19.991" cy="19.991" rx="19.991" ry="19.991" transform="translate(225.319 415.828)" fill="#3f3d56"/>
      <ellipse id="Ellipse_354" data-name="Ellipse 354" cx="14.787" cy="14.787" rx="14.787" ry="14.787" transform="translate(106.585 47.765)" fill="#f2f2f2"/>
      <ellipse id="Ellipse_355" data-name="Ellipse 355" cx="10.055" cy="10.055" rx="10.055" ry="10.055" transform="translate(235.524 94.491)" fill="#f2f2f2"/>
      <ellipse id="Ellipse_356" data-name="Ellipse 356" cx="10.055" cy="10.055" rx="10.055" ry="10.055" transform="translate(82.135 190.9)" fill="#f2f2f2"/>
      <rect id="Rectangle_2487" data-name="Rectangle 2487" width="1.109" height="198.286" transform="translate(50.598 126.257)" fill="#3f3d56"/>
      <ellipse id="Ellipse_357" data-name="Ellipse 357" cx="21.622" cy="49.343" rx="21.622" ry="49.343" transform="translate(29.744 208.865)" fill="#3f3d56"/>
      <ellipse id="Ellipse_358" data-name="Ellipse 358" cx="21.622" cy="49.343" rx="21.622" ry="49.343" transform="translate(29.744 96.319)" fill="#3f3d56"/>
      <path id="Path_5490" data-name="Path 5490" d="M117.936,181.9l-1.062-.318c.067-.224,6.586-22.563-4.118-36.943-6.045-8.122-16.419-12.24-30.834-12.24v-1.109c14.786,0,25.46,4.27,31.726,12.691C124.683,158.815,118,181.674,117.936,181.9Z" transform="translate(-66.038 -76.555)" fill="#3f3d56"/>
      <ellipse id="Ellipse_359" data-name="Ellipse 359" cx="13.86" cy="13.86" rx="13.86" ry="13.86" transform="translate(2.024 41.432)" fill="#3f3d56"/>
    </g>
    <g id="Group_7608" data-name="Group 7608" transform="matrix(0.995, -0.105, 0.105, 0.995, 138.406, 225.269)">
      <ellipse id="Ellipse_363" data-name="Ellipse 363" cx="12.531" cy="12.531" rx="12.531" ry="12.531" transform="translate(93.982 236.867)" fill="#e53227"/>
      <ellipse id="Ellipse_364" data-name="Ellipse 364" cx="6.265" cy="6.265" rx="6.265" ry="6.265" transform="translate(0 262.974)" fill="#e53227"/>
      <ellipse id="Ellipse_365" data-name="Ellipse 365" cx="6.237" cy="6.237" rx="6.237" ry="6.237" transform="translate(4.071 209.287)" fill="#e53227"/>
      <ellipse id="Ellipse_366" data-name="Ellipse 366" cx="6.237" cy="6.237" rx="6.237" ry="6.237" transform="translate(35.028 164.871)" fill="#e53227"/>
      <ellipse id="Ellipse_367" data-name="Ellipse 367" cx="6.237" cy="6.237" rx="6.237" ry="6.237" transform="translate(84.44 142.742)" fill="#e53227"/>
      <ellipse id="Ellipse_368" data-name="Ellipse 368" cx="6.237" cy="6.237" rx="6.237" ry="6.237" transform="translate(138.193 149.222)" fill="#e53227"/>
      <ellipse id="Ellipse_369" data-name="Ellipse 369" cx="6.237" cy="6.237" rx="6.237" ry="6.237" transform="translate(180.929 182.463)" fill="#e53227"/>
      <ellipse id="Ellipse_370" data-name="Ellipse 370" cx="6.237" cy="6.237" rx="6.237" ry="6.237" transform="translate(200.441 232.966)" fill="#e53227"/>
      <ellipse id="Ellipse_371" data-name="Ellipse 371" cx="6.237" cy="6.237" rx="6.237" ry="6.237" transform="translate(191.153 286.307)" fill="#e53227"/>
      <line id="Line_145" data-name="Line 145" y1="43.657" x2="39.533" transform="translate(106.514 205.742)" fill="none" stroke="#e53227" stroke-miterlimit="10" stroke-width="4"/>
      <ellipse id="Ellipse_372" data-name="Ellipse 372" cx="8.366" cy="8.366" rx="8.366" ry="8.366" transform="translate(156.775 0)" fill="none" stroke="#3f3d56" stroke-miterlimit="10" stroke-width="2"/>
      <ellipse id="Ellipse_373" data-name="Ellipse 373" cx="8.366" cy="8.366" rx="8.366" ry="8.366" transform="translate(204.4 97.519)" fill="#3f3d56"/>
      <ellipse id="Ellipse_374" data-name="Ellipse 374" cx="24.254" cy="24.254" rx="24.254" ry="24.254" transform="translate(47.721 59.415)" fill="#f2f2f2"/>
      <ellipse id="Ellipse_375" data-name="Ellipse 375" cx="8.366" cy="8.366" rx="8.366" ry="8.366" transform="translate(162.238 342.641)" fill="none" stroke="#3f3d56" stroke-miterlimit="10" stroke-width="1"/>
    </g>
    <g id="Group_7640" data-name="Group 7640" transform="translate(370.526)">
      <rect id="Rectangle_2591" data-name="Rectangle 2591" width="83.319" height="90.36" transform="translate(11.458 206.528)" fill="#f2f2f2"/>
      <path id="Path_6196" data-name="Path 6196" d="M421.625,434.949h85.662v-92.7H421.625Zm83.319-2.343H423.968V344.588h80.976Z" transform="translate(-421.625 -143.435)" fill="#3f3d56"/>
      <ellipse id="Ellipse_449" data-name="Ellipse 449" cx="5.868" cy="5.868" rx="5.868" ry="5.868" transform="translate(44.606 239.881)" fill="#e53227"/>
      <ellipse id="Ellipse_450" data-name="Ellipse 450" cx="5.868" cy="5.868" rx="5.868" ry="5.868" transform="translate(28.176 239.881)" fill="#e53227"/>
      <path id="Path_6197" data-name="Path 6197" d="M369.706,705.041s-42.8,23.355-41.053,30.62c.948,3.941,23.959-1.946,45.609-9.453,18.257-6.33-10.131-3.528-7.858-7.238C371.371,710.859,369.706,705.041,369.706,705.041Z" transform="translate(-185.772 -81.186)" fill="#162438"/>
      <path id="Path_6198" data-name="Path 6198" d="M437.635,699.21s-47.073,12.7-47.073,20.174,80.7,0,87.422-6.725S437.635,699.21,437.635,699.21Z" transform="translate(-356.586 -82.186)" fill="#162438"/>
      <path id="Path_6199" data-name="Path 6199" d="M453.556,418.593l-20.174,33.624s-33.624,87.422-40.349,141.22S345.96,741.381,359.409,754.831s80.7,14.2,80.7,0V479.116Z" transform="translate(-291.81 -130.335)" fill="#2f2e41"/>
      <path id="Path_6200" data-name="Path 6200" d="M453.556,418.593l-20.174,33.624s-33.624,87.422-40.349,141.22S345.96,741.381,359.409,754.831s80.7,14.2,80.7,0V479.116Z" transform="translate(-291.81 -130.335)" opacity="0.1"/>
      <path id="Path_6201" data-name="Path 6201" d="M351.113,395.633v26.9c0,6.725-40.349,6.725-40.349,6.725v-26.9Z" transform="translate(-135.569 -134.274)" fill="#bc9676"/>
      <path id="Path_6202" data-name="Path 6202" d="M351.929,408.1l19.8,6.351s20.548,39.228,13.823,60.149-26.9,135.242-26.9,135.242v73.972s40.349,67.248,20.174,80.7S318.3,792.157,311.58,784.685s-13.45-289.165-13.45-289.165V455.171l6.725-53.8Z" transform="translate(-156.559 -133.289)" fill="#3f3d56"/>
      <ellipse id="Ellipse_452" data-name="Ellipse 452" cx="39.386" cy="39.386" rx="39.386" ry="39.386" transform="translate(121.024 51.858)" fill="#162438"/>
      <ellipse id="Ellipse_453" data-name="Ellipse 453" cx="39.386" cy="39.386" rx="39.386" ry="39.386" transform="translate(163.693)" fill="#162438"/>
      <path id="Path_6203" data-name="Path 6203" d="M338.168,239.4a39.388,39.388,0,0,1-60.822-20.681,39.388,39.388,0,1,0,76.831-16.152A39.374,39.374,0,0,1,338.168,239.4Z" transform="translate(-101.118 -167.4)" fill="#162438"/>
      <ellipse id="Ellipse_454" data-name="Ellipse 454" cx="25.601" cy="20.021" rx="25.601" ry="20.021" transform="translate(121.025 66.956)" fill="#2f2e41"/>
      <ellipse id="Ellipse_455" data-name="Ellipse 455" cx="33.25" cy="33.25" rx="33.25" ry="33.25" transform="translate(121.398 66.341)" fill="#bc9676"/>
      <path id="Path_6204" data-name="Path 6204" d="M370.745,275.1s-6.725,13.449,6.725,20.174-26.9,33.624-26.9,33.624L337.121,281.82Z" transform="translate(-195.549 -154.956)" fill="#bc9676"/>
      <path id="Path_6205" data-name="Path 6205" d="M322.448,299.717s13.45-20.174,20.174-6.725,40.349,53.8,40.349,94.147,0,40.348-6.725,40.348-26.9-6.725-33.624,0-33.624,0-33.624,0l-6.725-60.523s-6.725-33.624,0-40.349S322.448,299.717,322.448,299.717Z" transform="translate(-153.977 -152.679)" fill="#162438"/>
      <path id="Path_6206" data-name="Path 6206" d="M408.738,323.969s20.174,100.871,0,107.6-80.7,32.877-80.7,26.152-6.725-13.449-6.725-13.449-6.725,6.725-6.725,0v-12.7l67.248-26.9V337.419s-13.449-33.624,0-33.624S408.738,323.969,408.738,323.969Z" transform="translate(-206.643 -150.032)" fill="#162438"/>
      <path id="Path_6207" data-name="Path 6207" d="M443.945,412.853s-46.326,0-47.073,13.449,47.073-.747,47.073-.747Z" transform="translate(-329.272 -131.32)" fill="#bc9676"/>
      <ellipse id="Ellipse_456" data-name="Ellipse 456" cx="30.261" cy="16.812" rx="30.261" ry="16.812" transform="translate(182.572 102.676) rotate(-162.515)" fill="#162438"/>
    </g>
  </g>
</svg>
