<svg xmlns="http://www.w3.org/2000/svg" xmlns:xlink="http://www.w3.org/1999/xlink" width="369.617" height="384.002" viewBox="0 0 369.617 384.002">
  <defs>
    <filter id="Path_6073" x="30.724" y="0" width="338.894" height="384.002" filterUnits="userSpaceOnUse">
      <feOffset dx="10" dy="20" input="SourceAlpha"/>
      <feGaussianBlur stdDeviation="15" result="blur"/>
      <feFlood flood-color="#162438" flood-opacity="0.149"/>
      <feComposite operator="in" in2="blur"/>
      <feComposite in="SourceGraphic"/>
    </filter>
  </defs>
  <g id="Group_7673" data-name="Group 7673" transform="translate(-894 -4696.949)">
    <g transform="matrix(1, 0, 0, 1, 894, 4696.95)" filter="url(#Path_6073)">
      <g id="Path_6073-2" data-name="Path 6073" transform="translate(65.72 25)" fill="#fff">
        <path d="M18.558,0H230.336c10.249,0,18.558,8.673,18.558,19.372V274.63c0,10.7-8.309,19.372-18.558,19.372H18.558C8.309,294,0,285.329,0,274.63V19.372C0,8.673,8.309,0,18.558,0Z" stroke="none"/>
        <path d="M 18.557861328125 1 C 13.87614440917969 1 9.4722900390625 2.90557861328125 6.1575927734375 6.36578369140625 C 2.831634521484375 9.837615966796875 0.9999847412109375 14.45675659179688 0.9999847412109375 19.3721923828125 L 0.9999847412109375 274.6298522949219 C 0.9999847412109375 279.5453186035156 2.831634521484375 284.1644897460938 6.1575927734375 287.6363220214844 C 9.4722900390625 291.0965270996094 13.87614440917969 293.0021057128906 18.557861328125 293.0021057128906 L 230.3360290527344 293.0021057128906 C 235.0177459716797 293.0021057128906 239.4216003417969 291.0965270996094 242.7362976074219 287.6363220214844 C 246.0622100830078 284.1644897460938 247.8938751220703 279.5453491210938 247.8938751220703 274.6298522949219 L 247.8938751220703 19.3721923828125 C 247.8938751220703 14.45675659179688 246.0622100830078 9.837615966796875 242.7362976074219 6.36578369140625 C 239.4216003417969 2.90557861328125 235.0177459716797 1 230.3360290527344 1 L 18.557861328125 1 M 18.557861328125 0 L 230.3360290527344 0 C 240.5852508544922 0 248.8938751220703 8.673248291015625 248.8938751220703 19.3721923828125 L 248.8938751220703 274.6298522949219 C 248.8938751220703 285.328857421875 240.5852508544922 294.0021057128906 230.3360290527344 294.0021057128906 L 18.557861328125 294.0021057128906 C 8.308639526367188 294.0021057128906 -1.52587890625e-05 285.328857421875 -1.52587890625e-05 274.6298522949219 L -1.52587890625e-05 19.3721923828125 C -1.52587890625e-05 8.673248291015625 8.308639526367188 0 18.557861328125 0 Z" stroke="none" fill="rgba(229,50,39,0.5)"/>
      </g>
    </g>
    <ellipse id="Ellipse_419" data-name="Ellipse 419" cx="78" cy="81" rx="78" ry="81" transform="translate(894 4912)" fill="#fff"/>
    <g id="undraw_chore_list_iof3" transform="translate(999.097 4777.82)">
      <path id="Path_6118" data-name="Path 6118" d="M814.48,596.845l-1.07,6.424,10.435-.559-1.338-6.983Z" transform="translate(-682.206 -429.339)" fill="#a0616a"/>
      <path id="Path_6123" data-name="Path 6123" d="M890.806,524.5l-3.211,2.409-2.141,23.845s7.759,32.4,9.9,32.679,10.97.279,10.7-.559-1.605-4.19-1.605-5.027-2.791-7.539-2.791-7.539l-3.631-15.643.8-12.289Z" transform="translate(-763.348 -413.412)" fill="#162438"/>
      <path id="Path_6115" data-name="Path 6115" d="M864.151,294.946l-5.351-5.865s-5.886-9.217-10.167-6.7,6.154,8.379,6.154,8.379l5.351,9.217Z" transform="translate(-735.623 -238.603)" fill="#bc9676"/>
      <path id="Path_6116" data-name="Path 6116" d="M923.227,735.5s4.013,8.1,1.07,8.658-17.392,1.4-17.659.559-2.408-3.631-.8-4.748,8.027-1.955,8.027-1.955L916,735.778Z" transform="translate(-777.842 -565.479)" fill="#2f2e41"/>
      <path id="Path_6117" data-name="Path 6117" d="M916.733,451.283s8.562,11.172,1.605,22.624l-1.605,19.272s2.943,26.534-.8,35.472l-.535,3.072H906.03l2.408-23.462s-.268-2.793-1.07-3.352-13.913-30.723-13.913-30.723,2.141-4.19,1.338-5.027.8-17.6,1.605-18.155S916.733,451.283,916.733,451.283Z" transform="translate(-769.208 -360.305)" fill="#121f31"/>
      <ellipse id="Ellipse_427" data-name="Ellipse 427" cx="8.027" cy="8.379" rx="8.027" ry="8.379" transform="translate(126.12 36.792)" fill="#bc9676"/>
      <path id="Path_6119" data-name="Path 6119" d="M936.214,293.5l.8,10.055-8.562,4.19s1.472-9.357.4-11.87Z" transform="translate(-794.843 -246.931)" fill="#bc9676"/>
      <path id="Path_6120" data-name="Path 6120" d="M902.771,323.04l.8-3.352,10.97-4.19s1.07,0,.8,1.955-.268,1.676-.268,1.676,3.746,1.676,4.013,4.469,4.549,3.631,4.281,7.821a15.32,15.32,0,0,1-1.605,6.424s1.338,3.352-.8,5.307c0,0-2.141,3.91-1.07,6.7s2.408,7.541-.535,6.7-23.278-2.234-23.278-2.234-2.943-11.451.268-15.641c0,0,0-2.514,2.408-7.541S902.771,323.04,902.771,323.04Z" transform="translate(-770.229 -262.786)" fill="#575a89"/>
      <path id="Path_6121" data-name="Path 6121" d="M936.032,449.733s-3.478,15.362-7.759,17.038c0,0-.8,11.172-5.351,10.614s0-10.614,0-10.614L928,447.5Z" transform="translate(-789.309 -357.918)" fill="#bc9676"/>
      <path id="Path_6122" data-name="Path 6122" d="M895.666,330.761s-4.013-6.7-5.084-5.586-6.422,4.469-6.154,6.7a2.66,2.66,0,0,0,2.676,2.234l5.619,4.469Z" transform="translate(-762.589 -269.669)" fill="#575a89"/>
      <path id="Path_6124" data-name="Path 6124" d="M887.5,733.968s11.238-3.631,11.773-2.793,4.1,9.283-.891,10.228-22.922,2.62-22.922.107.535-4.19,2.141-4.19,8.829-3.631,9.365-4.469S887.5,733.968,887.5,733.968Z" transform="translate(-756.024 -562.272)" fill="#2f2e41"/>
      <path id="Path_6125" data-name="Path 6125" d="M913.471,254.644a.854.854,0,0,0-.151-.959.768.768,0,0,0-.921-.146l-.014.008a1.472,1.472,0,0,0-.653,1.449c-.965-1.005-.254-3.02-1.3-3.937-.482-.424-1.266-.518-1.514-1.123-.144-.353-.046-.77-.174-1.13a1.562,1.562,0,0,0-1.332-.841,12.42,12.42,0,0,0-5.073.631,3.492,3.492,0,0,0-1.7.813,6.344,6.344,0,0,0-.919,1.831c-.287.625-2.172.569-2.83.48-.229-.679,1.462-.73,1.6-1.436.377-1.928-.937-3.978-.292-5.827a4.573,4.573,0,0,1,2.425-2.37,12.378,12.378,0,0,1,9.108-.811,1.988,1.988,0,0,1,.841.425c.389.379.461.987.72,1.472.59,1.105,1.989,1.368,2.933,2.162,1.429,1.2,1.59,3.374,1.636,5.29a6.778,6.778,0,0,1-.339,2.848,2.128,2.128,0,0,1-2.183,1.413C913.39,254.811,913.431,254.73,913.471,254.644Z" transform="translate(-771.713 -208.922)" fill="#2f2e41"/>
      <path id="Path_6126" data-name="Path 6126" d="M943.265,352.5a5.514,5.514,0,0,1,6.959.369c1.844,1.636,3.828,3.979,3.682,6.405-.268,4.469-1.873,22.9-4.013,23.182s-9.9-1.955-9.9-3.352,1.873-3.072,1.873-3.072l-2.274-14.243a9.615,9.615,0,0,1,3.553-9.2Z" transform="translate(-802.903 -288.69)" fill="#575a89"/>
      <path id="Path_6127" data-name="Path 6127" d="M539.62,126.771H475.24a13.829,13.829,0,0,0-13.351,11.144L429.36,288.535a11.943,11.943,0,0,0,1.984,9.526,10.931,10.931,0,0,0,8.262,4.546l66.183,3.4a14.764,14.764,0,0,0,15.1-12.52L539.34,187l1.373.409,3.531-20.184-1.413-.369,5.151-29.725a9.076,9.076,0,0,0-1.847-7.233A8.284,8.284,0,0,0,539.62,126.771Z" transform="translate(-429.089 -126.771)" fill="#162438"/>
      <path id="Path_6128" data-name="Path 6128" d="M501.543,138.4h-7.515a9.56,9.56,0,0,0-9.241,7.768l-31.224,149.39a6.329,6.329,0,0,0,1.044,4.983,5.8,5.8,0,0,0,4.3,2.425l65.969,4.513a7.662,7.662,0,0,0,7.966-6.5l26.644-154.41a7.161,7.161,0,0,0-1.442-5.681,6.539,6.539,0,0,0-5.1-2.489h-7.129a3.163,3.163,0,0,0-3.03,2.424h0a2.792,2.792,0,0,1-2.675,2.14H506.264A4.822,4.822,0,0,1,501.543,138.4Z" transform="translate(-446.916 -135.15)" fill="#e53227"/>
      <rect id="Rectangle_2526" data-name="Rectangle 2526" width="68.262" height="0.351" transform="translate(33.61 41.86)" fill="#162438"/>
      <rect id="Rectangle_2527" data-name="Rectangle 2527" width="68.934" height="0.351" transform="translate(30.92 53.268)" fill="#162438"/>
      <path id="Path_6129" data-name="Path 6129" d="M683.428,135.2l-1.551-2.159.269-.21,1.341,1.865,5.165-4.412.213.272Z" transform="translate(-585.867 -93.895)" fill="#2f2e41"/>
      <path id="Path_6130" data-name="Path 6130" d="M650.124,317.43l-1.551-2.159.269-.211,1.341,1.866,5.165-4.412.213.272Z" transform="translate(-561.474 -225.228)" fill="#2f2e41"/>
      <path id="Path_6239" data-name="Path 6239" d="M0,0H.351L.285,71.474H-.066Z" transform="translate(23.351 92.581) rotate(-88.787)" fill="#162438"/>
      <path id="Path_6240" data-name="Path 6240" d="M0,0H.351L.277,72.822H-.074Z" transform="matrix(0.023, -1, 1, 0.023, 21.165, 102.938)" fill="#162438"/>
      <path id="Path_6131" data-name="Path 6131" d="M587.593,557.378c0,9.208-7.151,16.673-15.973,16.673s-15.973-7.465-15.973-16.673c0-.209,0-.416.012-.623.162-9.207,7.446-16.531,16.265-16.359s15.836,7.775,15.671,16.982Z" transform="translate(-521.785 -424.867)" opacity="0.1"/>
      <path id="Path_6132" data-name="Path 6132" d="M586.08,581.427c0,.209,0,.416-.012.623a15.791,15.791,0,0,1-17.939,9.153,16.535,16.535,0,0,1-12.481-16.27c0-.209,0-.416.012-.623a15.791,15.791,0,0,1,17.939-9.153,16.535,16.535,0,0,1,12.481,16.27Z" transform="translate(-521.785 -442.422)" opacity="0.1"/>
      <path id="Path_6133" data-name="Path 6133" d="M481.673,444.225l-5.678-7.9,1.345-1.053,4.626,6.438,18.212-15.555,1.065,1.359Z" transform="translate(-435.071 -307.126)" fill="#f2f2f2"/>
    </g>
    <g id="Group_7637" data-name="Group 7637" transform="translate(924.791 4921.369)">
      <ellipse id="Ellipse_114" data-name="Ellipse 114" cx="60.5" cy="63" rx="60.5" ry="63" transform="translate(0.209 -0.369)" fill="#e53227" opacity="0.15"/>
      <text id="_1" data-name="1" transform="translate(60.209 76.631)" fill="#e53227" font-size="37" font-family="DINPro-Bold, DIN Pro" font-weight="700"><tspan x="-10.045" y="0">1</tspan></text>
    </g>
  </g>
</svg>
