<svg xmlns="http://www.w3.org/2000/svg" width="30.234" height="30.234" viewBox="0 0 30.234 30.234">
  <g id="surface1" transform="translate(0)">
    <path id="Path_5448" data-name="Path 5448" d="M5.669,0A5.67,5.67,0,0,0,0,5.669v18.9a5.67,5.67,0,0,0,5.669,5.669h18.9a5.67,5.67,0,0,0,5.669-5.669V5.669A5.67,5.67,0,0,0,24.565,0Zm0,2.326h18.9a3.346,3.346,0,0,1,3.343,3.343v4.8h-4.76a9.259,9.259,0,0,0-16.062,0H2.326v-4.8A3.346,3.346,0,0,1,5.669,2.326ZM23.257,3.489a1.165,1.165,0,0,0-1.163,1.163V6.977A1.165,1.165,0,0,0,23.257,8.14h2.326a1.165,1.165,0,0,0,1.163-1.163V4.651a1.165,1.165,0,0,0-1.163-1.163ZM15.117,8.14a6.952,6.952,0,0,1,5.2,2.326.274.274,0,0,1,.036.036c.055.059.1.123.145.182.141.173.273.359.4.545.05.073.1.141.145.218a7.264,7.264,0,0,1,.509.945c.027.059.05.123.073.182.059.15.1.318.145.472.041.132.077.268.109.4.023.086.055.168.073.254.009.036.027.073.036.109.036.191.055.386.073.581a6.383,6.383,0,0,1,.036.727,7.018,7.018,0,0,1-6.25,6.941c-.236.023-.486.036-.727.036A6.964,6.964,0,0,1,9.739,19.55c-.141-.173-.273-.359-.4-.545a6.9,6.9,0,0,1-1.2-3.888c0-.218.018-.441.036-.654,0-.023,0-.05,0-.073,0-.064.027-.118.036-.182.023-.168.036-.341.073-.509s.1-.336.145-.509c.014-.045.023-.1.036-.145s.018-.123.036-.182c.041-.123.1-.245.145-.363.014-.036.023-.073.036-.109a7.264,7.264,0,0,1,.509-.945c.045-.077.1-.145.145-.218a7.05,7.05,0,0,1,.545-.727l.036-.036A6.952,6.952,0,0,1,15.117,8.14Zm0,2.544a4.371,4.371,0,0,0-2.289.654,2.246,2.246,0,1,1-1.6,2.144,2.218,2.218,0,0,1,.109-.654,4.371,4.371,0,0,0-.654,2.289,4.433,4.433,0,1,0,4.433-4.433Z" fill="#88989b"/>
  </g>
</svg>
