<svg xmlns="http://www.w3.org/2000/svg" xmlns:xlink="http://www.w3.org/1999/xlink" width="356.5" height="384.002" viewBox="0 0 356.5 384.002">
  <defs>
    <filter id="Path_6073" x="17.606" y="0" width="338.894" height="384.002" filterUnits="userSpaceOnUse">
      <feOffset dx="10" dy="20" input="SourceAlpha"/>
      <feGaussianBlur stdDeviation="15" result="blur"/>
      <feFlood flood-color="#162438" flood-opacity="0.149"/>
      <feComposite operator="in" in2="blur"/>
      <feComposite in="SourceGraphic"/>
    </filter>
  </defs>
  <g id="Group_7674" data-name="Group 7674" transform="translate(-1311 -4971.3)">
    <g transform="matrix(1, 0, 0, 1, 1311, 4971.3)" filter="url(#Path_6073)">
      <g id="Path_6073-2" data-name="Path 6073" transform="translate(52.61 25)" fill="#fff">
        <path d="M18.558,0H230.336c10.249,0,18.558,8.673,18.558,19.372V274.63c0,10.7-8.309,19.372-18.558,19.372H18.558C8.309,294,0,285.329,0,274.63V19.372C0,8.673,8.309,0,18.558,0Z" stroke="none"/>
        <path d="M 18.557861328125 1 C 13.87614440917969 1 9.4722900390625 2.90557861328125 6.1575927734375 6.36578369140625 C 2.831634521484375 9.837615966796875 0.9999847412109375 14.45675659179688 0.9999847412109375 19.3721923828125 L 0.9999847412109375 274.6298522949219 C 0.9999847412109375 279.5453186035156 2.831634521484375 284.1644897460938 6.1575927734375 287.6363220214844 C 9.4722900390625 291.0965270996094 13.87614440917969 293.0021057128906 18.557861328125 293.0021057128906 L 230.3360290527344 293.0021057128906 C 235.0177459716797 293.0021057128906 239.4216003417969 291.0965270996094 242.7362976074219 287.6363220214844 C 246.0622100830078 284.1644897460938 247.8938751220703 279.5453491210938 247.8938751220703 274.6298522949219 L 247.8938751220703 19.3721923828125 C 247.8938751220703 14.45675659179688 246.0622100830078 9.837615966796875 242.7362976074219 6.36578369140625 C 239.4216003417969 2.90557861328125 235.0177459716797 1 230.3360290527344 1 L 18.557861328125 1 M 18.557861328125 0 L 230.3360290527344 0 C 240.5852508544922 0 248.8938751220703 8.673248291015625 248.8938751220703 19.3721923828125 L 248.8938751220703 274.6298522949219 C 248.8938751220703 285.328857421875 240.5852508544922 294.0021057128906 230.3360290527344 294.0021057128906 L 18.557861328125 294.0021057128906 C 8.308639526367188 294.0021057128906 -1.52587890625e-05 285.328857421875 -1.52587890625e-05 274.6298522949219 L -1.52587890625e-05 19.3721923828125 C -1.52587890625e-05 8.673248291015625 8.308639526367188 0 18.557861328125 0 Z" stroke="none" fill="rgba(22,36,56,0.5)"/>
      </g>
    </g>
    <ellipse id="Ellipse_419" data-name="Ellipse 419" cx="78" cy="81" rx="78" ry="81" transform="translate(1311 5179)" fill="#fff"/>
    <g id="undraw_referral_4ki4" transform="translate(1417.248 5042.159)">
      <path id="Path_6075" data-name="Path 6075" d="M612.948,425.725c-8.847,2.652-19.723,6-30.905,9.486-16.168,5.037-32.976,10.353-45.213,14.239l.008-.046a17.957,17.957,0,0,1,3.1-7.52c9.065-12.3,20.607-20.9,33.453-24.089h0a46.288,46.288,0,0,1,11.026-1.373A49.384,49.384,0,0,1,612.948,425.725Z" transform="translate(-477.073 -321.296)" fill="#f2f2f2"/>
      <path id="Path_6078" data-name="Path 6078" d="M524.839,67.123V239.814a7.6,7.6,0,0,1-7.435,7.755h-67.16a7.266,7.266,0,0,1-5.259-2.267,7.923,7.923,0,0,1-2.175-5.488V67.123a7.6,7.6,0,0,1,7.435-7.761h10.05v1.345a6.261,6.261,0,0,0,6.121,6.391h34.158a5.9,5.9,0,0,0,3.629-1.247,5.754,5.754,0,0,0,.6-.528,6.51,6.51,0,0,0,1.889-4.617V59.362H517.4a7.6,7.6,0,0,1,7.435,7.761Z" transform="translate(-409.136 -59.362)" fill="#162438"/>
      <path id="Path_6080" data-name="Path 6080" d="M559.459,288.789l2.24-3.271-2.246,3.63-.006.375q-.235-.005-.466-.022l.239-4.821,0-.037,0-.007.023-.456-2.255-3.637,2.262,3.3.006.1.181-3.643-1.931-3.758,1.954,3.118.186-7.552v0l-.029,5.956,1.919-2.362-1.927,2.875-.049,3.262,1.792-3.131-1.8,3.611-.027,1.814,2.6-4.358-2.611,4.991Z" transform="translate(-494.176 -215.405)" fill="#3f3d56"/>
      <path id="Path_6081" data-name="Path 6081" d="M308.981,484.7H246.2V500.97h62.783Z" transform="translate(-202.901 -386.769)" fill="#e53227"/>
      <path id="Path_6111" data-name="Path 6111" d="M308.981,484.7H246.2V500.97h62.783Z" transform="translate(-202.901 -367.164)" fill="#e53227"/>
      <path id="Path_6112" data-name="Path 6112" d="M308.981,484.7H246.2V500.97h62.783Z" transform="translate(-202.901 -347.559)" fill="#e53227"/>
      <g id="Group_7629" data-name="Group 7629" transform="translate(51.86 102.289)">
        <rect id="Rectangle_2507" data-name="Rectangle 2507" width="46.167" height="2.771" transform="translate(0)" fill="#fff"/>
        <rect id="Rectangle_2508" data-name="Rectangle 2508" width="46.167" height="2.771" transform="translate(0 4.157)" fill="#fff"/>
      </g>
      <g id="Group_7630" data-name="Group 7630" transform="translate(51.86 121.894)">
        <rect id="Rectangle_2507-2" data-name="Rectangle 2507" width="46.167" height="2.771" transform="translate(0)" fill="#fff"/>
        <rect id="Rectangle_2508-2" data-name="Rectangle 2508" width="46.167" height="2.771" transform="translate(0 4.157)" fill="#fff"/>
      </g>
      <g id="Group_7631" data-name="Group 7631" transform="translate(51.86 141.499)">
        <rect id="Rectangle_2507-3" data-name="Rectangle 2507" width="46.167" height="2.771" transform="translate(0)" fill="#fff"/>
        <rect id="Rectangle_2508-3" data-name="Rectangle 2508" width="46.167" height="2.771" transform="translate(0 4.157)" fill="#fff"/>
      </g>
      <path id="Path_6083" data-name="Path 6083" d="M480.515,205.808V254.72H543.3V205.808Zm8.09.616a1.057,1.057,0,1,1-1.011,1.056A1.034,1.034,0,0,1,488.6,206.424Zm-6.068,2.111a1.057,1.057,0,1,1,1.011-1.056,1.034,1.034,0,0,1-1.011,1.056Zm2.023-1.056a1.012,1.012,0,1,1,1.011,1.056A1.034,1.034,0,0,1,484.56,207.479Z" transform="translate(-437.218 -166.792)" fill="#f2f2f2"/>
      <path id="Path_6084" data-name="Path 6084" d="M355.045,594.882l-.559,20.429-5.964,23.931s1.3,4.086.373,5.059-5.219,2.724-5.219,2.724l3.541-50.975Z" transform="translate(-330.085 -455.478)" fill="#2f2e41"/>
      <path id="Path_6085" data-name="Path 6085" d="M335.339,778.779s-2.127,4.885.851,5.329,16.732,1.628,15.881-.888-11.2-4.885-11.2-4.885Z" transform="translate(-323.328 -590.056)" fill="#2f2e41"/>
      <path id="Path_6086" data-name="Path 6086" d="M306.431,526.794s2.237,12.646,3.728,14.787-.746,17.705-.746,17.705-3.355,22.375-1.864,25.877,1.118,2.335.932,4.28-.559,3.5,0,5.253a15.886,15.886,0,0,1,.745,2.529c.186.973,0,6.226,0,6.226s8.014,2.918,9.319-1.362c0,0-1.864-2.724-1.3-4.864a26.967,26.967,0,0,0,.932-6.615v-4.086l8.574-33.465L328.8,541s-.559-12.257-2.609-13.425S306.431,526.794,306.431,526.794Z" transform="translate(-302.346 -405.484)" fill="#2f2e41"/>
      <path id="Path_6087" data-name="Path 6087" d="M316.753,809.441s-2.8,6.42,1.118,7,21.993,2.14,20.875-1.167-14.724-6.421-14.724-6.421Z" transform="translate(-309.314 -612.446)" fill="#2f2e41"/>
      <ellipse id="Ellipse_424" data-name="Ellipse 424" cx="7.455" cy="7.782" rx="7.455" ry="7.782" transform="translate(3.527 49.72)" fill="#bc9676"/>
      <path id="Path_6088" data-name="Path 6088" d="M312.932,299.43l.139,9.939,9.14.032s-2.32-7.78-1.281-9.407S312.932,299.43,312.932,299.43Z" transform="translate(-307.188 -238.489)" fill="#bc9676"/>
      <path id="Path_6089" data-name="Path 6089" d="M312.468,341.833s-6.523-8.755-11.556-5.059-6.9,12.452-6.9,12.452l1.118,24.515s2.8,3.5,1.118,5.837-2.609,1.751-1.3,3.5,2.8,3.113,2.237,3.7.559.973.559.973l19.757.584s-.559-.778,1.118-3.113-.373-5.448,0-6.615.746.195.932-2.529S312.468,341.833,312.468,341.833Z" transform="translate(-293.1 -265.467)" fill="#3f3d56"/>
      <path id="Path_6090" data-name="Path 6090" d="M359.011,541.326s.373,4.864,3.169,5.642a2.157,2.157,0,0,0,2.408-1.074,4.952,4.952,0,0,0,.146-5.361l-.691-1.153Z" transform="translate(-341.508 -414.763)" fill="#bc9676"/>
      <path id="Path_6091" data-name="Path 6091" d="M290.691,319.464a35.514,35.514,0,0,0,0,4.475,1.933,1.933,0,0,1,0,1.751c-.373.584-.186,2.529.186,2.724s-.746,1.946-.373,3.113a8.579,8.579,0,0,0,.932,1.946c.186.389.487,1.086.487,1.086s5.478-12.176,9.951-9.258a31.747,31.747,0,0,0,8.014,3.891S307.465,315.573,290.691,319.464Z" transform="translate(-290.427 -252.923)" fill="#3f3d56"/>
      <path id="Path_6092" data-name="Path 6092" d="M305.278,355.218s-5.964.584-5.591,8.755-.559,21.013-.559,21.013,10.251,16.343,11.929,17.511,1.864.973,1.677,1.946-.373,1.751.373,2.529a6.467,6.467,0,0,0,1.491,1.167s5.964-2.14,5.405-4.086-3.168-5.059-3.168-5.059-4.473-7.588-4.66-8.755-.186-.973-.746-1.556-2.05-2.918-2.05-4.086v-3.7l1.563-19.755a5.884,5.884,0,0,0-1.455-4.435A4.635,4.635,0,0,0,305.278,355.218Z" transform="translate(-296.907 -279.63)" fill="#3f3d56"/>
      <path id="Path_6093" data-name="Path 6093" d="M310.488,248.769a2.944,2.944,0,0,0,2.815-.673,2.477,2.477,0,0,0,.455-2.874,3.618,3.618,0,0,0-2.147-1.426,18.272,18.272,0,0,0-5.645-.9,4.89,4.89,0,0,0-2.646.574c-.386.244-.714.579-1.1.83a13.325,13.325,0,0,1-2.317.937,6.1,6.1,0,0,0-3.388,3.745,7.769,7.769,0,0,0-.329,1.759A10.011,10.011,0,0,0,297,255.52c1.04,2.367,3.019,4.357,3.3,6.945,1.065-.934,1.378-2.5,2.2-3.669a4.556,4.556,0,0,1,2.488-1.763,1.42,1.42,0,0,0,.753-.352,1.341,1.341,0,0,0,.236-.709l.512-3.845a3.393,3.393,0,0,1,.82-2.151,2.855,2.855,0,0,1,1.221-.553,18.94,18.94,0,0,1,3.188-.543" transform="translate(-294.697 -197.269)" fill="#2f2e41"/>
      <path id="Path_6094" data-name="Path 6094" d="M302.68,477.514l10.463,14.174S303.508,483.28,302.68,477.514Z" transform="translate(-299.552 -369.379)" opacity="0.1"/>
      <path id="Path_6095" data-name="Path 6095" d="M98.424,359.249l-.1,13.386,6.077,9.515L99.43,371.482Z" transform="translate(-85.254 -266.806)" opacity="0.1"/>
      <path id="Path_6096" data-name="Path 6096" d="M780.607,749.037,779.4,748.1s-.8,4.674.093,5.374,4.249,1.867,4.249,3.268,7.6,3.268,7.826,1.167a4.779,4.779,0,0,0-.671-3.268s-3.578-3.735-4.025-4.435-1.565-2.1-1.565-2.1Z" transform="translate(-657.486 -564.607)" fill="#2f2e41"/>
      <path id="Path_6097" data-name="Path 6097" d="M797.893,526.389s-.034.205-.092.581c-.054.334-.127.805-.217,1.386-.939,5.983-3.678,23.595-3.493,24.176.224.7,1.789,3.268,0,3.968a1.427,1.427,0,0,0-.557.633,13.9,13.9,0,0,0-.946,2.33,106.037,106.037,0,0,0-2.867,11.982c-.288,1.573-.485,2.838-.543,3.5a1.988,1.988,0,0,0-.007.462c.224.934-1.342,4.2-2.012,5.135s-1.789,1.867-1.565,2.8-5.59,3.5-6.261,1.867a30.754,30.754,0,0,1-.894-3.034c-.224-.467-.447-3.735.671-4.2s.447-8.637,1.565-10.271a23.073,23.073,0,0,0,1.541-4.6c.235-.868.472-1.793.7-2.719.944-3.8,1.78-7.619,1.78-7.619l-.224-27.311,12.3-1.634.315.726.628,1.44Z" transform="translate(-656.883 -400.082)" fill="#2f2e41"/>
      <path id="Path_6098" data-name="Path 6098" d="M850.648,699.4s1.789-1.867,2.683,0,1.789,9.1,3.354,10.737,3.578,9.8,1.342,10.271-4.7-.7-4.919-2.1-4.919-8.637-4.919-9.337,3.13-3.268,3.13-3.268Z" transform="translate(-708.967 -528.272)" fill="#2f2e41"/>
      <path id="Path_6099" data-name="Path 6099" d="M750.058,483.5s2.907,27.311,3.578,29.878,4.249,12.371,5.367,14.005,8.274,14.939,9.168,15.64,2.683,2.568,2.683,2.568,3.354,3.5,3.8,4.2,4.249-1.4,4.472-2.8a14.991,14.991,0,0,0-.447-4.668c-.224-.934.447-2.334-.224-3.034s-4.025-4.2-4.025-5.836-5.814-11.2-8.05-13.305-1.789-5.6-1.789-5.6V500.312l12.3-3.968s-.671-11.2-2.236-11.2S752.518,481.4,750.058,483.5Z" transform="translate(-635.882 -370.036)" fill="#2f2e41"/>
      <ellipse id="Ellipse_425" data-name="Ellipse 425" cx="7.379" cy="7.703" rx="7.379" ry="7.703" transform="translate(124.909 59.081)" fill="#bc9676"/>
      <path id="Path_6100" data-name="Path 6100" d="M804.944,321.875s-.894,3.5-2.013,4.435,2.907,4.9,2.907,4.9l7.6.467,1.342-4.435s-2.46-5.135-1.789-8.4S804.944,321.875,804.944,321.875Z" transform="translate(-675.115 -249.021)" fill="#bc9676"/>
      <path id="Path_6101" data-name="Path 6101" d="M764.433,347.713s2.013.233,2.46.934,3.578,2.8,6.038,2.334,4.025-1.167,4.472-.934,1.342,5.135,1.342,5.135l-2.46,7.47.447,20.541.671,5.6s1.342-1.867-4.025-.7-12.3-.934-14.535-1.167-6.037-.934-6.261-2.334.671-6.536.671-6.536l3.578-15.639,2.236-8.4Z" transform="translate(-637.735 -270.892)" fill="#3f3d56"/>
      <path id="Path_6102" data-name="Path 6102" d="M753.624,342.379s-1.892-1.047-2.562-.114-9.168,2.334-9.168,3.035-1.789,19.608-1.342,21.242-.895,3.5-.895,3.5l-1.565,7s-4.249,13.305-2.46,13.772a11.161,11.161,0,0,0,4.025,0c.671,0,.447-8.87,2.236-11.2s4.249-8.17,4.7-9.337S752.627,353,752.4,351.136,753.624,342.379,753.624,342.379Z" transform="translate(-624.811 -266.611)" fill="#d0cde1"/>
      <path id="Path_6103" data-name="Path 6103" d="M829.846,347.713s1.789,0,2.013.467a25.339,25.339,0,0,0,3.354,4.2c.894.7,4.025,3.735,4.025,4.435s-6.485,5.836-6.485,5.836-2.683,13.772-1.342,18.44,3.354,15.873,2.46,16.573-2.907.934-2.907,0-1.342-10.971-2.46-13.072-4.472-15.406-3.13-19.141S829.846,347.713,829.846,347.713Z" transform="translate(-691.744 -270.892)" fill="#d0cde1"/>
      <path id="Path_6104" data-name="Path 6104" d="M728.138,434.453s-.224,7.236,2.236,10.971a45.055,45.055,0,0,1,4.025,7.936s4.025-1.167,4.7-2.568,4.919-.233,4.919-.7-5.143-2.8-5.59-3.268-2.013-.467-2.907-1.4a6.352,6.352,0,0,1-1.118-3.035l-.894-6.069Z" transform="translate(-619.553 -334.522)" fill="#bc9676"/>
      <path id="Path_6105" data-name="Path 6105" d="M793.188,272.354a4.105,4.105,0,0,1-1.655-.4,2.374,2.374,0,0,1-.566-3.425,4.278,4.278,0,0,1,.786-.66l1.7-1.208a8.2,8.2,0,0,1,2.4-1.329,7.179,7.179,0,0,1,2.451-.151,15.944,15.944,0,0,1,4.7.891,7.889,7.889,0,0,1,3.8,2.906,9.067,9.067,0,0,1,.666,7.615,26.13,26.13,0,0,1-3.782,6.836l-.77-3.921a1.472,1.472,0,0,0-.435-.939c-.692-.514-1.537.541-2.386.534a1.442,1.442,0,0,1-1.21-1,5.921,5.921,0,0,1-.268-1.677c-.1-1.2-.5-2.872-1.593-3.535C796.009,272.28,794.329,272.462,793.188,272.354Z" transform="translate(-665.982 -210.319)" fill="#2f2e41"/>
      <path id="Path_6106" data-name="Path 6106" d="M802.735,533.969s.755,22.8,1.2,23.5,0-23.576,0-23.576Z" transform="translate(-675.115 -407.473)" opacity="0.1"/>
      <path id="Path_6107" data-name="Path 6107" d="M733.506,354.722h-1.789s-7.6,10.737-6.708,11.438,0,2.568,0,2.568l-1.789,3.5s-2.236,2.1-1.565,2.568a8.555,8.555,0,0,1,1.565,2.334s4.472-.7,5.814,2.1l2.9-3.822Z" transform="translate(-614.634 -276.033)" fill="#d0cde1"/>
      <path id="Path_6108" data-name="Path 6108" d="M767.254,394.908a19.078,19.078,0,0,1-10.51-3.5l-5.59-2.568s-4.919-7.936-5.367-6.536.671,4.2.671,4.2-7.326,1.457-6.922,3.69c.083.46,3.791-.656,3.791-.656s-.671,4.435,3.131,4.668,4.919-.7,4.919-.7,16.1,14.005,18.783,9.57S767.254,394.908,767.254,394.908Z" transform="translate(-628.034 -296.145)" fill="#bc9676"/>
      <path id="Path_6109" data-name="Path 6109" d="M850.655,378.379l2.46.934v7l.894,1.4s-.224,2.8-.894,3.5-2.013.467-1.565,2.1a9.222,9.222,0,0,1,.224,3.268s-4.025,5.369-4.249,4.669-3.354-9.337-3.8-9.337,4.472-13.539,4.472-13.539Z" transform="translate(-705.621 -293.387)" fill="#d0cde1"/>
      <path id="Path_6110" data-name="Path 6110" d="M751.435,499.936s-2.312-2.334-1.156-2.451,5.181-2.451,5.852-1.284S751.435,499.936,751.435,499.936Z" transform="translate(-635.805 -379.581)" fill="#2f2e41"/>
      <g id="Group_7632" data-name="Group 7632" transform="translate(47.205 60.188)">
        <rect id="Rectangle_2524" data-name="Rectangle 2524" width="54.021" height="5.206" rx="2.603" fill="none" stroke="#e53227" stroke-width="0.25"/>
        <path id="icons8-find_user_male" d="M14.237,13a1.292,1.292,0,0,0,0,2.582,1.29,1.29,0,0,0,.693-.207l.445.465.346-.362-.445-.465a1.435,1.435,0,0,0,.2-.723A1.253,1.253,0,0,0,14.237,13Zm0,.516a.775.775,0,1,1-.742.775A.745.745,0,0,1,14.237,13.516Z" transform="translate(35.846 -11.798)" fill="#e53227"/>
      </g>
    </g>
    <g id="Group_7636" data-name="Group 7636" transform="translate(1328.674 5195.72)">
      <ellipse id="Ellipse_114" data-name="Ellipse 114" cx="60.5" cy="62.5" rx="60.5" ry="62.5" transform="translate(0.326 0.28)" fill="#162438" opacity="0.15"/>
      <text id="_2" data-name="2" transform="translate(60.326 76.28)" fill="#162438" font-size="37" font-family="DINPro-Bold, DIN Pro" font-weight="700"><tspan x="-10.045" y="0">2</tspan></text>
    </g>
  </g>
</svg>
