<svg xmlns="http://www.w3.org/2000/svg" width="82.162" height="36.835" viewBox="0 0 82.162 36.835">
  <g id="Group_2822" data-name="Group 2822" transform="translate(-81 -239.979)">
    <g id="Rectangle_2356" data-name="Rectangle 2356" transform="translate(81 245.607)" fill="none" stroke="#3fb583" stroke-width="1">
      <rect width="82.162" height="31.207" rx="6" stroke="none"/>
      <rect x="0.5" y="0.5" width="81.162" height="30.207" rx="5.5" fill="none"/>
    </g>
    <rect id="Rectangle_2358" data-name="Rectangle 2358" width="31.356" height="26.532" transform="translate(102.057 239.979)" fill="#fff"/>
    <g id="start-up" transform="translate(106.077 245.607)">
      <path id="Path_1825" data-name="Path 1825" d="M20.015.606a.589.589,0,0,0-.52-.52c-4.66-.518-8.633,1.347-11.873,4.682A24.3,24.3,0,0,0,5.2,7.708,4.676,4.676,0,0,0,1.84,9.1L.174,10.766a.589.589,0,0,0,.569.985A8.2,8.2,0,0,1,2.36,11.5a4.548,4.548,0,0,1,.556,0c-.368.707-.649,1.3-.743,1.447a.589.589,0,0,0,.082.73l.964.964c-1.4,1.913-1.426,2.893-1.421,3.032a.592.592,0,0,0,.619.569c.329,0,1.272-.14,2.988-1.414L6.42,17.845a.589.589,0,0,0,.735.079c.159-.1.716-.372,1.384-.721a14.385,14.385,0,0,1-.2,2.222.589.589,0,0,0,1,.5L11,18.261a4.651,4.651,0,0,0,1.32-3.331,24.317,24.317,0,0,0,3.094-2.543C18.719,9.147,20.526,5.2,20.015.606Zm-1.127.606a11.76,11.76,0,0,1-.3,3.692,5.186,5.186,0,0,1-2.075-1.318A5.18,5.18,0,0,1,15.194,1.5,11.873,11.873,0,0,1,18.888,1.212Zm-16.6,9.109.389-.389a3.719,3.719,0,0,1,1.689-.96c-.318.5-.6.985-.85,1.43A4.73,4.73,0,0,0,2.284,10.322ZM3.4,13.157c.127-.251.282-.567.564-1.1l.775.775q-.433.464-.783.882Zm2.88-.225a1.741,1.741,0,0,1,1.352-.518,1.761,1.761,0,0,1-.519,1.351A15.233,15.233,0,0,1,3.28,16.774,15.086,15.086,0,0,1,6.278,12.932ZM6.94,16.7l-.607-.607q.416-.353.879-.786l.825.825C7.5,16.421,7.269,16.53,6.94,16.7Zm3.228.729L9.7,17.9a5.747,5.747,0,0,0-.029-1.309c.433-.244.9-.52,1.4-.83A3.473,3.473,0,0,1,10.168,17.429ZM9.11,15.538,8.054,14.482a3.4,3.4,0,0,0,.752-2.656.589.589,0,0,0-.589-.589,3.408,3.408,0,0,0-2.656.752L4.553,10.981C7.306,6.153,10.489,3.1,14.065,1.837a6.342,6.342,0,0,0,1.617,2.582,6.346,6.346,0,0,0,2.57,1.613C16.985,9.588,13.929,12.769,9.11,15.538Zm0,0" transform="translate(-0.001 0)"/>
      <path id="Path_1826" data-name="Path 1826" d="M255.219,112.695a2.945,2.945,0,1,0,0,4.164A2.948,2.948,0,0,0,255.219,112.695Zm-.833,3.331a1.767,1.767,0,1,1,0-2.5A1.769,1.769,0,0,1,254.386,116.026Zm0,0" transform="translate(-240.371 -107.444)"/>
    </g>
    <text id="Boast" transform="translate(140.178 264.863)" fill="#3fb583" font-size="11" font-family="DIN-Light, DIN Light" font-weight="300"><tspan x="-13.97" y="0">Boast</tspan></text>
  </g>
</svg>
