<svg xmlns="http://www.w3.org/2000/svg" xmlns:xlink="http://www.w3.org/1999/xlink" width="272.815" height="269.973" viewBox="0 0 272.815 269.973">
  <defs>
    <linearGradient id="linear-gradient" y1="0.5" x2="1" y2="0.5" gradientUnits="objectBoundingBox">
      <stop offset="0" stop-color="gray" stop-opacity="0.251"/>
      <stop offset="0.54" stop-color="gray" stop-opacity="0.122"/>
      <stop offset="1" stop-color="gray" stop-opacity="0.102"/>
    </linearGradient>
  </defs>
  <g id="undraw_personalization_triu" transform="translate(-18.422 -6.119)">
    <ellipse id="Ellipse_394" data-name="Ellipse 394" cx="100.282" cy="13.566" rx="100.282" ry="13.566" transform="translate(56.48 243.177)" fill="#eff1f1"/>
    <path id="Path_5628" data-name="Path 5628" d="M428.24,688.531s6.928-1.108,11.085,3.787c0,0-3.048,2.4-9.607-.924Z" transform="translate(-321.122 -472.176)" fill="#e53227"/>
    <path id="Path_5629" data-name="Path 5629" d="M420.208,688.42s-4.421,5.47-2.253,11.5c0,0,3.6-1.442,4-8.786Z" transform="translate(-313.83 -472.173)" fill="#e53227"/>
    <path id="Path_5630" data-name="Path 5630" d="M414,657.739s2.771-5.081,13.856,2.032c0,0-1.478,3.418-6.374,3.141S415.277,660.418,414,657.739Z" transform="translate(-311.58 -450.436)" fill="#e53227"/>
    <path id="Path_5631" data-name="Path 5631" d="M398.978,660.189s-5.75-.66-6.308,12.5c0,0,3.645.759,6.235-3.408S400.423,662.789,398.978,660.189Z" transform="translate(-297.287 -453.252)" fill="#e53227"/>
    <path id="Path_5632" data-name="Path 5632" d="M401.63,618.472s3.233-8.964,14.968-2.59c0,0-2.679,8.225-13.767,5.638Z" transform="translate(-303.291 -422.033)" fill="#e53227"/>
    <path id="Path_5633" data-name="Path 5633" d="M390.71,579.186s6.1-9.053,16.908-.66c0,0-3.787,8.5-15.984,3.88Z" transform="translate(-295.974 -396.144)" fill="#e53227"/>
    <path id="Path_5634" data-name="Path 5634" d="M386.79,541.625s7.113-8.314,17.815,0c0,0-6.747,7.3-17.815,2.125Z" transform="translate(-293.347 -371.331)" fill="#e53227"/>
    <path id="Path_5635" data-name="Path 5635" d="M383.43,503.483s7.205-8.687,17.462-.462c0,0-8.132,7.667-17.462,2.494Z" transform="translate(-291.095 -345.567)" fill="#e53227"/>
    <path id="Path_5636" data-name="Path 5636" d="M385.39,465.615s7.588-11.177,17.185-3.6c0,0-8.132,9.61-17.185,5.727Z" transform="translate(-292.409 -318.695)" fill="#e53227"/>
    <path id="Path_5637" data-name="Path 5637" d="M390.71,427.594s8.037-11.085,17.37-2.586c0,0-9.518,9.607-17.37,4.619Z" transform="translate(-295.974 -293.514)" fill="#e53227"/>
    <path id="Path_5638" data-name="Path 5638" d="M398,389.857s9.511-10.415,17.815-6.268c0,0-9.917,11.062-18.231,9.03Z" transform="translate(-300.577 -267.254)" fill="#e53227"/>
    <path id="Path_5639" data-name="Path 5639" d="M407.335,352.571s11-12.751,17.37-8.5c0,0-8.089,9.9-18.145,10.9Z" transform="translate(-306.595 -240.846)" fill="#e53227"/>
    <path id="Path_5640" data-name="Path 5640" d="M420.84,316.594s9.614-10.419,16.634-7.832c0,0-8.221,10.811-17.924,11.088Z" transform="translate(-315.299 -217.491)" fill="#e53227"/>
    <path id="Path_5641" data-name="Path 5641" d="M435.7,280.441s10.623-9.976,15.242-8.221c0,0-7.667,11.085-15.7,10.438Z" transform="translate(-325.813 -193.142)" fill="#e53227"/>
    <path id="Path_5642" data-name="Path 5642" d="M449.52,242.089s9.145-11.916,14.133-10.993c0,0-5.542,10.623-14.133,12.207Z" transform="translate(-335.382 -165.69)" fill="#e53227"/>
    <path id="Path_5643" data-name="Path 5643" d="M462.82,201.485s8.086-9.138,12.451-9.115c0,0-6.38,12.207-12.781,12.094Z" transform="translate(-344.073 -139.774)" fill="#e53227"/>
    <path id="Path_5644" data-name="Path 5644" d="M469.756,151.659l7.806-19.029s.393,17.2-8.8,22.559Z" transform="translate(-348.274 -99.743)" fill="#e53227"/>
    <path id="Path_5645" data-name="Path 5645" d="M481.273,91.8s1.293-15.888.462-17.182c0,0,5.585,13.2-.515,24.2Z" transform="translate(-356.624 -60.871)" fill="#e53227"/>
    <path id="Path_5646" data-name="Path 5646" d="M373.628,625.668s-8.1-5.018-13.338,7.258c0,0,7.205,4.784,14.288-4.127Z" transform="translate(-275.589 -429.443)" fill="#e53227"/>
    <path id="Path_5647" data-name="Path 5647" d="M359.97,584.642s-9.93-4.529-14.75,8.287c0,0,7.674,5.279,15.654-5.048Z" transform="translate(-265.491 -402.112)" fill="#e53227"/>
    <path id="Path_5648" data-name="Path 5648" d="M349.205,543.935s-7.113-8.314-17.815,0c0,0,6.743,7.3,17.815,2.125Z" transform="translate(-256.224 -372.879)" fill="#e53227"/>
    <path id="Path_5649" data-name="Path 5649" d="M347.232,503.483s-7.209-8.687-17.462-.462c0,0,8.129,7.667,17.462,2.494Z" transform="translate(-255.138 -345.567)" fill="#e53227"/>
    <path id="Path_5650" data-name="Path 5650" d="M352.81,462.014s-5.054-12.52-16.04-7.136c0,0,5.938,11.1,15.595,9.214Z" transform="translate(-259.829 -314.778)" fill="#e53227"/>
    <path id="Path_5651" data-name="Path 5651" d="M359.806,422.119s-5.021-12.738-16.165-6.832c0,0,6.822,11.676,15.671,8.8Z" transform="translate(-264.433 -288.102)" fill="#e53227"/>
    <path id="Path_5652" data-name="Path 5652" d="M379.33,373.859s-1.979-13.968-11.2-15.219c0,0,1.956,14.727,9.97,17.733Z" transform="translate(-280.843 -251.19)" fill="#e53227"/>
    <path id="Path_5653" data-name="Path 5653" d="M392.543,336.309s-.775-16.825-8.413-17.409c0,0,.257,12.767,7.552,19.794Z" transform="translate(-291.564 -224.561)" fill="#e53227"/>
    <path id="Path_5654" data-name="Path 5654" d="M406.437,299.99s-2.28-13.988-9.567-15.7c0,0,.9,13.549,8.845,19.135Z" transform="translate(-300.101 -201.369)" fill="#e53227"/>
    <path id="Path_5655" data-name="Path 5655" d="M428.766,263.916s-.079-14.575-4.533-16.716c0,0-2.761,13.2,3.243,18.577Z" transform="translate(-318.012 -176.515)" fill="#e53227"/>
    <path id="Path_5656" data-name="Path 5656" d="M439.544,229.216s-.627-15.011-5.236-17.126c0,0-1.58,11.877,4.543,18.105Z" transform="translate(-325.066 -152.988)" fill="#e53227"/>
    <path id="Path_5657" data-name="Path 5657" d="M456.519,192.99s-.03-12.207-3.322-15.07c0,0-3.273,13.374,1.6,17.525Z" transform="translate(-337.125 -130.091)" fill="#e53227"/>
    <path id="Path_5658" data-name="Path 5658" d="M461.61,147.219l-3.2-20.319s-4.355,16.65,3.352,23.984Z" transform="translate(-340.518 -95.903)" fill="#e53227"/>
    <path id="Path_5659" data-name="Path 5659" d="M456.138,96.456S447.913,82.8,448.085,81.28c0,0,.871,14.318,11.217,21.444Z" transform="translate(-334.418 -65.334)" fill="#e53227"/>
    <path id="Path_5660" data-name="Path 5660" d="M452.53,72.462s-7.759-19.4-11.27-20.972c0,0,11.085,5.635,11.916,20.418Z" transform="translate(-329.847 -45.372)" fill="#e53227"/>
    <path id="Path_5661" data-name="Path 5661" d="M461.281,150.246l-.531-.162c6.549-21.355,8.185-34.97,4.6-38.382l.383-.4C469.529,114.9,467.991,128.356,461.281,150.246Z" transform="translate(-342.907 -85.45)" fill="#444053"/>
    <path id="Path_5662" data-name="Path 5662" d="M406.112,276.148l-.782-.277c.693-1.956,1.442-3.942,2.227-5.9,6.836-17.036,12.655-32.882,16.387-45.049l.683-.33c-3.738,12.19-9.452,28.646-16.3,45.7C407.547,272.232,406.8,274.212,406.112,276.148Z" transform="translate(-305.77 -161.365)" fill="#444053"/>
    <path id="Path_5663" data-name="Path 5663" d="M406.344,494.707c-.106-.119-10.722-12.068-18.119-32.476a120.228,120.228,0,0,1-7.159-37.2c-.508-15.878,2.824-33.608,8.531-49.711l.62.726c-12.81,36.145-7.72,67.12-.97,85.776,7.324,20.22,17.815,32.044,17.921,32.159Z" transform="translate(-289.478 -262.368)" fill="#444053"/>
    <rect id="Rectangle_2492" data-name="Rectangle 2492" width="2.923" height="24.09" rx="1.461" transform="translate(209.32 94.702)" fill="#3a3768"/>
    <rect id="Rectangle_2493" data-name="Rectangle 2493" width="1.64" height="7.931" rx="0.82" transform="translate(112.185 75.828)" fill="#3a3768"/>
    <rect id="Rectangle_2494" data-name="Rectangle 2494" width="1.847" height="13.803" rx="0.924" transform="translate(112.126 90.35)" fill="#3a3768"/>
    <rect id="Rectangle_2495" data-name="Rectangle 2495" width="1.758" height="13.922" rx="0.879" transform="translate(112.156 108.984)" fill="#3a3768"/>
    <rect id="Rectangle_2496" data-name="Rectangle 2496" width="97.785" height="198.734" rx="11" transform="translate(113.112 49.62)" fill="#3a3768"/>
    <path id="Path_5664" data-name="Path 5664" d="M542.671,199H531.454v1.349a6.394,6.394,0,0,1-6.4,6.394H489.384a6.394,6.394,0,0,1-6.4-6.394V199h-10.5a7.766,7.766,0,0,0-7.766,7.766V379.628a7.766,7.766,0,0,0,7.766,7.766h70.185a7.766,7.766,0,0,0,7.766-7.766V206.779A7.766,7.766,0,0,0,542.671,199Z" transform="translate(-345.567 -144.217)" fill="#e53227"/>
    <rect id="Rectangle_2497" data-name="Rectangle 2497" width="13.655" height="2.771" rx="1.386" transform="translate(152.573 55.555)" fill="#e6e8ec"/>
    <circle id="Ellipse_395" data-name="Ellipse 395" cx="1.574" cy="1.574" r="1.574" transform="translate(168.293 55.367)" fill="#e6e8ec"/>
    <path id="Path_5665" data-name="Path 5665" d="M795.111,156.857s-27.778-1.676-24.506,17.789a4.73,4.73,0,0,0,2.468,5s.05-1.442,2.85-.95a13.029,13.029,0,0,0,3.019.145,6.288,6.288,0,0,0,3.688-1.508h0s7.809-3.226,10.844-15.987c0,0,2.247-2.784,2.158-3.5l-4.688,2s1.6,3.382.33,6.192c0,0-.152-6.07-1.052-5.938-.181.026-2.435,1.171-2.435,1.171s2.755,5.889.676,10.171c0,0,.789-7.258-1.537-9.745l-3.3,1.927s3.22,6.084,1.036,11.049c0,0,.561-7.614-1.732-10.58l-2.989,2.332s3.025,5.994,1.181,10.112c0,0-.241-8.861-1.828-9.531,0,0-2.616,2.309-3.015,3.253,0,0,2.072,4.355.785,6.651,0,0-.789-5.905-1.435-5.938,0,0-2.606,3.913-2.877,6.6A14.216,14.216,0,0,1,775,170.6a7.854,7.854,0,0,0-3.992,2.065s.406-2.765,4.635-3.009c0,0,2.154-2.969,2.728-3.147,0,0-4.2-.353-6.753.779,0,0,2.243-2.61,7.525-1.422l2.953-2.412s-5.536-.756-7.885.079c0,0,2.7-2.309,8.68-.627l3.213-1.92s-4.721-1.016-7.532-.66c0,0,2.969-1.6,8.475.135l2.309-1.033s-3.457-.68-4.47-.788-1.066-.386-1.066-.386a11.993,11.993,0,0,1,6.5.723S795.194,157.163,795.111,156.857Z" transform="translate(-550.359 -115.953)" fill="#e53227"/>
    <path id="Path_5666" data-name="Path 5666" d="M736.33,130.657s-12.537-.755-11.072,8.04a2.145,2.145,0,0,0,1.115,2.26s.023-.66,1.29-.432a5.778,5.778,0,0,0,1.363.066,2.824,2.824,0,0,0,1.666-.686h0s3.53-1.458,4.9-7.225c0,0,1.013-1.257.973-1.58l-2.118.9a3.807,3.807,0,0,1,.155,2.8s-.069-2.742-.475-2.679c-.082,0-1.1.531-1.1.531s1.247,2.662.307,4.6c0,0,.356-3.279-.7-4.4l-1.491.884s1.455,2.748.468,4.992c0,0,.254-3.441-.782-4.78L729.484,135s1.366,2.709.534,4.569c0,0-.112-4.005-.828-4.309a8.27,8.27,0,0,0-1.362,1.471s.937,1.979.356,3.005c0,0-.356-2.669-.66-2.682a8.881,8.881,0,0,0-1.3,2.969,6.439,6.439,0,0,1,1.016-3.147,3.55,3.55,0,0,0-1.8.934s.185-1.25,2.095-1.359a9.025,9.025,0,0,1,1.234-1.425,7.736,7.736,0,0,0-3.052.353s1.013-1.178,3.4-.643l1.32-1.089a11.385,11.385,0,0,0-3.563.036s1.221-1.043,3.923-.284l1.452-.868a13.219,13.219,0,0,0-3.4-.294,5.229,5.229,0,0,1,3.83.059l1.039-.465s-1.564-.307-2.022-.356-.482-.175-.482-.175a5.407,5.407,0,0,1,2.936.33A13.428,13.428,0,0,0,736.33,130.657Z" transform="translate(-520.072 -98.41)" fill="#e53227"/>
    <rect id="Rectangle_2498" data-name="Rectangle 2498" width="68.275" height="144.909" transform="translate(127.869 73.707)" opacity="0.1"/>
    <path id="Path_5667" data-name="Path 5667" d="M557.362,565.534s-1.61-3.748-2.329-5.476a1.575,1.575,0,0,0-1.616-1.132l.03-.33.129-1.56.026-.33c1.244-.261,2.309-.465,2.309-.465l-.775-40.025a12.9,12.9,0,0,1-1.128-2.969c-.4-1.27-2.309-2.831-4.1-4.074-.28-.195-.554-.379-.825-.558a20.563,20.563,0,0,1,2.049-1.511c1.016-.591,1.353-3.959,1.353-3.959l-.168.33c.168-.33,0-8.931,0-8.931l-.594-8.927S551.3,475,548,472.223a20.175,20.175,0,0,0-7.466-3.754l-2.309-.594h0l-4.256-1.092a5.443,5.443,0,0,1-.33-.614c-.043-.082-.082-.168-.122-.254a9.963,9.963,0,0,0,4.206-8.132,9.792,9.792,0,0,0-.129-1.6,1.6,1.6,0,0,0-.056-.3,8.308,8.308,0,0,0,.99-.8,4.5,4.5,0,0,0,1.207-1.481h0a2.486,2.486,0,0,0,.112-.346.2.2,0,0,1,.02-.1,1.316,1.316,0,0,0,.04-.264v-.462a2.3,2.3,0,0,0-.033-.33.045.045,0,0,0,0-.02h0a5.688,5.688,0,0,0-.3-1.122,13.419,13.419,0,0,1-.914-2.557c-.191-1.072.03-2.243-.482-3.207a2.861,2.861,0,0,0-2.009-1.382,4.733,4.733,0,0,0-2.481.284,3.53,3.53,0,0,1-1.224.33,2.556,2.556,0,0,1-.894-.218,13.258,13.258,0,0,1-2.771-1.488,13.273,13.273,0,0,0-1.979-1.293,2.679,2.679,0,0,0-2.283-.092c-1.221.62-1.452,2.349-2.587,3.111a5.128,5.128,0,0,1-2.745.508,2.845,2.845,0,0,0-2.478,1.085,3.133,3.133,0,0,0-.188,1.907l.02.224a.991.991,0,0,0,.02.241,6.059,6.059,0,0,1-.373,2.494c-.455,1.207-1.32,2.4-1.29,3.629h0a2.527,2.527,0,0,0,.076.581,2.776,2.776,0,0,0,.092.281h0a12.3,12.3,0,0,0,.61,1.191l.03.053c.023.046.046.092.066.138s.059.125.083.188.026.063.036.092.043.122.059.185a1.767,1.767,0,0,1,.069.574,5.355,5.355,0,0,0-.063.756.554.554,0,0,0,.442.538.736.736,0,0,0,.383-.119,6.124,6.124,0,0,0,.841-.577,1.929,1.929,0,0,0,.02.33,9.984,9.984,0,0,0,3,6.212,1.682,1.682,0,0,1-.023.33,2.645,2.645,0,0,0-.023.36h0l-3.7,1.161s.02.066.059.178l-.389.155h0a27.789,27.789,0,0,0-5.245,2.613c-.528.383-1.01.7-1.442.957a8.248,8.248,0,0,0-3.418,4.14l-.049.125c-.33.756-1.946,5.9-1.946,5.9a21.4,21.4,0,0,0-1.356,4.718s-1.946,6.146-1.438,10.191c0,0-1.524,5.813-.93,6.737,0,0-.607,2.5,2.059,5.018-.195.119-.406.247-.627.389-2.065,1.3-5.044,3.408-5.552,5.034a12.746,12.746,0,0,1-1.128,2.969l-.8,39.962s1.066.2,2.309.462l.026.33.129,1.557.03.33a1.6,1.6,0,0,0-1.617,1.135c-.723,1.725-2.309,5.47-2.309,5.47s-3.553,3.3-1.4,6.361a2.209,2.209,0,0,0,.33.383c1.547,1.405,4.846.5,7.192-.412a7.012,7.012,0,0,0,2.969-2.4,1.129,1.129,0,0,1,.792-.439,3.232,3.232,0,0,0,1.475-.643,1.979,1.979,0,0,0,.812-1.65.258.258,0,0,1,0-.049l-.208-4.694s-.254-3.279-1.062-3.068l-.208.049-.056-.33h0l-.109-.637-.056-.33h.449a19.648,19.648,0,0,1,1.468-6.625c1.356-2.916,2.247-26.475,2.247-26.475s16.782.274,17.343-1.3h0c.33,0,.689,0,1.033-.023.564,1.574,16.4,1.65,16.4,1.65s.9,23.585,2.253,26.5a13.481,13.481,0,0,1,.709,1.933h0a21.585,21.585,0,0,1,.762,4.688h.449l-.059.33-.109.633-.056.33-.214-.05c-.8-.208-1.056,3.072-1.056,3.072l-.214,4.724a1.917,1.917,0,0,0,.785,1.649,3.3,3.3,0,0,0,1.5.66,1.1,1.1,0,0,1,.792.435,7.033,7.033,0,0,0,2.969,2.4c2.534.99,6.176,1.956,7.529.033C560.915,568.82,557.362,565.534,557.362,565.534ZM514.7,506.7Zm26.508-13.487a7.147,7.147,0,0,0,1.184,2.441c.759.841.383,6.067.383,6.067a4.691,4.691,0,0,0-.884.142C541.312,498.388,540.774,494.531,541.213,493.212Z" transform="translate(-363.31 -306.465)" fill="url(#linear-gradient)"/>
    <path id="Path_5668" data-name="Path 5668" d="M422.479,757.621l-6.635.66-.185-2.22-.129-1.527-.182-2.234,6.268.33.5,2.867.106.623h0Z" transform="translate(-281.067 -505.022)" fill="#8e6f7f"/>
    <path id="Path_5669" data-name="Path 5669" d="M568.922,753.31l-.181,2.23-.125,1.527-.188,2.22-6.638-.66.264-1.5.1-.62.5-2.867Z" transform="translate(-379.196 -505.699)" fill="#8e6f7f"/>
    <path id="Path_5670" data-name="Path 5670" d="M573.508,655.778l-19.728.927q-1.346.066-2.692,0l-18.848-.924V640.85h41.268Z" transform="translate(-390.812 -440.297)" fill="#5f5570"/>
    <path id="Path_5671" data-name="Path 5671" d="M573.508,655.778l-19.728.927q-1.346.066-2.692,0l-18.848-.924V640.85h41.268Z" transform="translate(-390.812 -440.297)" opacity="0.1"/>
    <path id="Path_5672" data-name="Path 5672" d="M546.135,518.91s-6.572,2.207-9.046,4.022c-.515.376-.99.686-1.405.94a8.05,8.05,0,0,0-3.322,4.051c-.017.046-.033.086-.049.122-.33.742-1.9,5.773-1.9,5.773a20.939,20.939,0,0,0-1.32,4.619c-.165,1.814,9.4,6.681,9.4,6.681s-4.619,10.062-2.557,12.619,32.166,3.794,31.506,0-1.814-10.062-1.237-11.794l10.227-7.423s-.412-10.392-3.629-13.114a20.049,20.049,0,0,0-7.258-3.711l-6.4-1.65s-2.257,5.608-4.731,6.351S546.521,523.71,546.135,518.91Z" transform="translate(-388.703 -358.586)" fill="#eaeaf2"/>
    <path id="Path_5673" data-name="Path 5673" d="M593.3,547.54s-2.791,2.329-4.256,0c0,0-1.32,3.939,0,5.259l-.049.267-.234,1.174-3.055,25.4,2.514,4.338,4.576-5.74-.369-23.753-.165-1.363-.039-.33h.782S595.083,549.209,593.3,547.54Z" transform="translate(-426.641 -377.771)" opacity="0.1"/>
    <path id="Path_5674" data-name="Path 5674" d="M595.3,547.54s-2.791,2.329-4.256,0c0,0-1.32,3.939,0,5.259l-.049.267-.234,1.174-3.055,25.4,2.514,4.338,4.576-5.74-.37-23.753-.165-1.363-.039-.33h.782S597.083,549.209,595.3,547.54Z" transform="translate(-427.981 -377.771)" opacity="0.1"/>
    <path id="Path_5675" data-name="Path 5675" d="M498.556,555.575l-4.576,5.73-2.521-4.315,3.058-25.416.234-1.174.053-.271.412-1.069,2.765,1.069.04.33.165,1.363Z" transform="translate(-332.068 -355.431)" fill="#e53227"/>
    <path id="Path_5676" data-name="Path 5676" d="M517.347,785.667a22.415,22.415,0,0,1-4.24-.432c-.689-.172-1.554-.363-2.342-.531l-.185-2.234,6.268.33Z" transform="translate(-376.297 -535.195)" opacity="0.1"/>
    <path id="Path_5677" data-name="Path 5677" d="M534.011,656.7c-.548,1.541-16.9,1.27-16.9,1.27s-.878,23.094-2.2,25.954a19.4,19.4,0,0,0-1.432,6.486,24.375,24.375,0,0,1-4.619-.439c-1.762-.439-4.619-.99-4.619-.99l.772-39.177a12,12,0,0,0,1.1-2.89c.495-1.593,3.4-3.659,5.407-4.949,1.122-.706,1.96-1.168,1.96-1.168l9.759.4,6.024.244S534.562,655.161,534.011,656.7Z" transform="translate(-372.049 -440.263)" fill="#162438"/>
    <path id="Path_5678" data-name="Path 5678" d="M518.336,795.431l-6.638.66-.188-2.22a1.978,1.978,0,0,1,.723.158c1.211.871,4.672.178,5.843-.1h0Z" transform="translate(-376.921 -542.834)" opacity="0.1"/>
    <path id="Path_5679" data-name="Path 5679" d="M507.728,802.492a1.937,1.937,0,0,1-.8,1.613,3.149,3.149,0,0,1-1.435.63,1.072,1.072,0,0,0-.769.429,6.885,6.885,0,0,1-2.9,2.346c-2.286.9-5.5,1.778-7.01.4a2.08,2.08,0,0,1-.33-.373c-2.1-3.009,1.362-6.229,1.362-6.229s1.564-3.669,2.267-5.358a1.649,1.649,0,0,1,2.266-.95c1.32.95,5.322.039,6.1-.162s1.033,3.005,1.033,3.005l.211,4.6a.252.252,0,0,0,0,.049Z" transform="translate(-365.059 -543.479)" fill="#bc8487"/>
    <path id="Path_5680" data-name="Path 5680" d="M664.906,783.48l-.185,2.23c-.789.168-1.65.36-2.346.531a22.478,22.478,0,0,1-4.236.435l.5-2.867Z" transform="translate(-475.176 -535.872)" opacity="0.1"/>
    <path id="Path_5681" data-name="Path 5681" d="M626.34,690.017s-2.857.551-4.619.99a24.381,24.381,0,0,1-4.619.439,19.341,19.341,0,0,0-1.429-6.486c-1.32-2.857-2.2-25.954-2.2-25.954s-15.433-.089-15.984-1.63,6.727-14.846,6.727-14.846l4.437-.231,8.449-.449a39.8,39.8,0,0,1,3.378,2.108c1.729,1.211,3.606,2.748,3.992,3.992a12,12,0,0,0,1.1,2.89Z" transform="translate(-434.515 -440.967)" fill="#162438"/>
    <path id="Path_5682" data-name="Path 5682" d="M663.846,794.87l-.185,2.22-6.641-.66.264-1.5c1.171.28,4.619.97,5.839.1A1.979,1.979,0,0,1,663.846,794.87Z" transform="translate(-474.426 -543.504)" opacity="0.1"/>
    <path id="Path_5683" data-name="Path 5683" d="M660.606,796a1.65,1.65,0,0,1,2.27.95c.7,1.689,2.266,5.361,2.266,5.361s3.464,3.216,1.362,6.225c-1.32,1.887-4.869.94-7.337-.03a6.842,6.842,0,0,1-2.9-2.346,1.076,1.076,0,0,0-.772-.429,3.236,3.236,0,0,1-1.465-.66,1.887,1.887,0,0,1-.762-1.61l.208-4.619s.247-3.21,1.029-3.009S659.286,796.947,660.606,796Z" transform="translate(-471.908 -544.143)" fill="#bc8487"/>
    <path id="Path_5684" data-name="Path 5684" d="M593.6,515.363l-6.661,7.06-.185.2-.241-.142c-1.392-.825-8.357-5.028-7.76-6.291a12.945,12.945,0,0,0,.627-3.507c0-.155.02-.307.033-.455.066-1.019.083-1.811.083-1.811s12.536-2.144,12.042,0a4.19,4.19,0,0,0,.525,2.7c.125.248.264.482.4.7A10.892,10.892,0,0,0,593.6,515.363Z" transform="translate(-421.958 -352.254)" fill="#bc9676"/>
    <path id="Path_5685" data-name="Path 5685" d="M593.479,513.113a9.782,9.782,0,0,1-12.649-.888c.066-1.019.082-1.811.082-1.811s12.536-2.144,12.042,0A4.246,4.246,0,0,0,593.479,513.113Z" transform="translate(-423.371 -352.254)" opacity="0.1"/>
    <path id="Path_5686" data-name="Path 5686" d="M591.463,475.758a9.788,9.788,0,0,1-19.544.93q-.04-.462-.04-.93a9.788,9.788,0,1,1,19.575,0Z" transform="translate(-417.374 -323.111)" fill="#bc9676"/>
    <path id="Path_5687" data-name="Path 5687" d="M591.394,474.013a2.342,2.342,0,0,1-1.841.5c-1.511-.33-2.029-2.639-3.573-2.8s-2.57,1.979-4.134,1.937a4.79,4.79,0,0,1-1.861-.749,5.9,5.9,0,0,0-3.959-.449c-1.725.591-2.309,2.187-3.411,3.457a5.018,5.018,0,0,1-.617.6q-.04-.462-.04-.93a9.788,9.788,0,0,1,19.465-1.564Z" transform="translate(-417.427 -322.93)" opacity="0.1"/>
    <path id="Path_5688" data-name="Path 5688" d="M574.589,459.521a4.761,4.761,0,0,0,1.861.749c1.561.04,2.58-2.108,4.13-1.94s2.062,2.458,3.579,2.8c1.02.231,1.979-.531,2.742-1.241a4.365,4.365,0,0,0,1.178-1.448,3.66,3.66,0,0,0-.148-2.593,14.689,14.689,0,0,1-.891-2.5c-.185-1.049.03-2.2-.468-3.141a2.781,2.781,0,0,0-1.96-1.353,4.618,4.618,0,0,0-2.418.274,3.422,3.422,0,0,1-1.191.33,2.52,2.52,0,0,1-.874-.214,12.908,12.908,0,0,1-2.7-1.455,12.666,12.666,0,0,0-1.923-1.267,2.593,2.593,0,0,0-2.224-.089c-1.188.607-1.415,2.309-2.52,3.045a5.032,5.032,0,0,1-2.672.5,2.756,2.756,0,0,0-2.415,1.059,4.157,4.157,0,0,0-.145,2.326,5.971,5.971,0,0,1-.366,2.441c-.511,1.366-1.551,2.712-1.181,4.124.241.927,1.072,1.7,1.023,2.639a5.043,5.043,0,0,0-.063.736.544.544,0,0,0,.432.528.659.659,0,0,0,.369-.119,5.518,5.518,0,0,0,1.455-1.178c1.115-1.273,1.692-2.867,3.418-3.457A5.966,5.966,0,0,1,574.589,459.521Z" transform="translate(-412.03 -309.876)" fill="#1d1419"/>
    <path id="Path_5689" data-name="Path 5689" d="M600.552,651.987l-1.781.485-4.114,1.132a9.939,9.939,0,0,1-3.164,1.574c-2.517.637-4.144-.749-5.5-2.893a1.408,1.408,0,0,1,.442-2.082c1.716-1.3,5.958-1.719,7.258-1.547a5.43,5.43,0,0,0,2.5-.389,9.7,9.7,0,0,0,1.62-.765Z" transform="translate(-426.64 -444.753)" fill="#bc9676"/>
    <path id="Path_5690" data-name="Path 5690" d="M621.888,651.967l-1.782.485c-.511-1.541-1.353-3.474-2.557-4.216a9.7,9.7,0,0,0,1.62-.765Z" transform="translate(-447.977 -444.733)" opacity="0.1"/>
    <path id="Path_5691" data-name="Path 5691" d="M635.3,643.958c-.739.6-1.366,1.141-1.366,1.141s-8.578,2.689-10.227,6.07c0,0-1.32-6.6-4.124-6.681,0,0,3.019-1.184,3.89-2.2l8.456-.442A39.114,39.114,0,0,1,635.3,643.958Z" transform="translate(-449.337 -440.967)" opacity="0.1"/>
    <path id="Path_5692" data-name="Path 5692" d="M633.828,569.85l1.9,2.8.577,8.743s.165,8.413,0,8.743l.165-.33s-.33,3.3-1.32,3.876a34.671,34.671,0,0,0-3.217,2.507s-8.578,2.689-10.227,6.07c0,0-1.32-6.6-4.124-6.681,0,0,4.206-1.65,4.124-2.722,0,0,3.217-2.887,3.464-3.629s1.854-.825,1.854-.825.373-5.114-.37-5.938a6.968,6.968,0,0,1-1.155-2.392Z" transform="translate(-447.997 -392.72)" fill="#eaeaf2"/>
    <path id="Path_5693" data-name="Path 5693" d="M591.492,660.635c-2.517.637-4.144-.749-5.5-2.893a1.408,1.408,0,0,1,.442-2.082l.257.1S591.232,657.729,591.492,660.635Z" transform="translate(-426.64 -450.221)" opacity="0.1"/>
    <path id="Path_5694" data-name="Path 5694" d="M574.027,661.053c-2.969,4.124-8.5-1.61-8.908-2.765a2.533,2.533,0,0,0-1.363-1.092,14.692,14.692,0,0,0-2.557-.848l4.909-4,.94.376,2.893,1.158S577,656.929,574.027,661.053Z" transform="translate(-410.218 -448.003)" fill="#bc9676"/>
    <path id="Path_5695" data-name="Path 5695" d="M567.036,652.726c-2.705,1.287-3.283,3.138-3.3,4.47a14.692,14.692,0,0,0-2.557-.848l4.909-4Z" transform="translate(-410.204 -448.003)" opacity="0.1"/>
    <path id="Path_5696" data-name="Path 5696" d="M539.361,652.149s-7.918-6.268-11.712-8.99a9.275,9.275,0,0,1-1.32-1.141c1.122-.706,1.96-1.168,1.96-1.168l9.759.4c.261.452.416.759.416.759l5.278,3.464C537.382,647.531,539.361,652.149,539.361,652.149Z" transform="translate(-386.851 -440.297)" opacity="0.1"/>
    <path id="Path_5697" data-name="Path 5697" d="M525.686,575.35l-1.567.907s-1.9,6.021-1.4,9.98c0,0-1.485,5.691-.907,6.6,0,0-.742,3.052,3.052,5.773s11.712,8.99,11.712,8.99-1.979-4.619,4.371-6.681l-5.278-3.464s-1.772-3.517-3.464-4.289c0,0-1.32-1.32-.495-2.227a4.7,4.7,0,0,0,1.485-2.8c0-.907.33-5.2.33-5.2l.99-4.619Z" transform="translate(-383.733 -396.406)" fill="#eaeaf2"/>
    <path id="Path_5698" data-name="Path 5698" d="M599.939,560.629h-3.217a.427.427,0,0,1-.053-.059l.053-.271.412-1.069L599.9,560.3Z" transform="translate(-433.986 -385.604)" opacity="0.1"/>
    <path id="Path_5699" data-name="Path 5699" d="M599.894,546.54s-2.791,2.329-4.256,0c0,0-1.32,3.939,0,5.259H599.6S601.673,548.209,599.894,546.54Z" transform="translate(-432.902 -377.101)" fill="#e53227"/>
    <path id="Path_5700" data-name="Path 5700" d="M609.718,523.35l4.157,1.072s-3.939,10.227-4.807,10.227l-4.988-2.392Z" transform="translate(-438.951 -361.561)" opacity="0.1"/>
    <path id="Path_5701" data-name="Path 5701" d="M609.436,523.765l-6.661,7.06-.185.2-.241-.142L608.173,522l.142.234a10.875,10.875,0,0,0,1.122,1.531Z" transform="translate(-437.792 -360.657)" opacity="0.1"/>
    <path id="Path_5702" data-name="Path 5702" d="M608.718,522.35l4.157,1.072s-3.939,10.227-4.807,10.227l-4.988-2.392Z" transform="translate(-438.281 -360.891)" fill="#eaeaf2"/>
    <path id="Path_5703" data-name="Path 5703" d="M572.433,519.91l-3.6,1.135s3.547,10.722,4.536,11.3l6.433-2.392Z" transform="translate(-415.33 -359.256)" opacity="0.1"/>
    <path id="Path_5704" data-name="Path 5704" d="M586.942,528.553l-.185.2s-8.66-5.031-8-6.433a12.94,12.94,0,0,0,.627-3.507v-.2Z" transform="translate(-421.958 -358.385)" opacity="0.1"/>
    <path id="Path_5705" data-name="Path 5705" d="M573.433,518.91l-3.6,1.135s3.547,10.722,4.536,11.3l6.433-2.392Z" transform="translate(-416 -358.586)" fill="#eaeaf2"/>
    <path id="Path_5706" data-name="Path 5706" d="M554.74,571.444a2.618,2.618,0,0,1,2.131,2.639c-.04,2.253.894-2.913.894-2.913Z" transform="translate(-405.889 -393.605)" opacity="0.1"/>
    <path id="Path_5707" data-name="Path 5707" d="M555.7,593a20.444,20.444,0,0,0,0,6.489c.6,3.081.551,4.124,1.019,4.289S555.7,593,555.7,593Z" transform="translate(-406.349 -408.233)" opacity="0.1"/>
    <path id="Path_5708" data-name="Path 5708" d="M638.119,592a1.194,1.194,0,0,0-.99,1.541C637.407,594.92,638.119,592,638.119,592Z" transform="translate(-461.061 -407.563)" opacity="0.1"/>
    <path id="Path_5709" data-name="Path 5709" d="M525.91,626.707s7.07-.6,8.248.66S525.91,626.707,525.91,626.707Z" transform="translate(-386.57 -430.723)" opacity="0.1"/>
    <path id="Path_5710" data-name="Path 5710" d="M650.24,628s5.17-.637,6.381.244" transform="translate(-469.882 -431.536)" opacity="0.1"/>
    <path id="Path_5711" data-name="Path 5711" d="M656.58,631a16.493,16.493,0,0,1,3.794.495" transform="translate(-474.131 -433.697)" opacity="0.1"/>
    <path id="Path_5712" data-name="Path 5712" d="M658.41,634.326s2.8-.109,3.19.33" transform="translate(-475.357 -435.917)" opacity="0.1"/>
    <path id="Path_5713" data-name="Path 5713" d="M538.54,681.35s2.4,1.25,2.158,2.527S538.54,681.35,538.54,681.35Z" transform="translate(-395.033 -467.436)" opacity="0.1"/>
    <path id="Path_5714" data-name="Path 5714" d="M532.24,683.19s3.665,4.754,3.167,6.321S532.24,683.19,532.24,683.19Z" transform="translate(-390.812 -468.669)" opacity="0.1"/>
    <path id="Path_5715" data-name="Path 5715" d="M647.743,685.58s-1.815,1.495-1.765,2.728" transform="translate(-467.026 -470.27)" opacity="0.1"/>
    <path id="Path_5716" data-name="Path 5716" d="M524.33,774.85s0,1.4,2.6,3.464" transform="translate(-385.511 -530.089)" opacity="0.1"/>
    <path id="Path_5717" data-name="Path 5717" d="M657.544,764.85a6.253,6.253,0,0,1-2.8,4.427" transform="translate(-472.898 -523.388)" opacity="0.1"/>
    <g id="Group_7613" data-name="Group 7613" transform="translate(151.876 141.783)" opacity="0.1">
      <path id="Path_5718" data-name="Path 5718" d="M568.663,463.4c0-.228-.04-.462-.059-.693a6.65,6.65,0,0,0,.046,1.511A6.121,6.121,0,0,0,568.663,463.4Z" transform="translate(-567.038 -462.71)"/>
      <path id="Path_5719" data-name="Path 5719" d="M565.007,487.115c.049-.957-.782-1.725-1.023-2.639a.9.9,0,0,1-.026-.135,2.542,2.542,0,0,0,.026,1.125c.195.756.782,1.4.967,2.135C564.967,487.428,565,487.273,565.007,487.115Z" transform="translate(-563.907 -477.204)"/>
      <path id="Path_5720" data-name="Path 5720" d="M590.213,479.228a4.4,4.4,0,0,1-1.178,1.448c-.769.709-1.722,1.471-2.742,1.24-1.514-.33-2.036-2.639-3.579-2.8s-2.57,1.98-4.13,1.937a4.792,4.792,0,0,1-1.861-.749,5.9,5.9,0,0,0-3.959-.449c-1.725.591-2.309,2.187-3.418,3.457a5.567,5.567,0,0,1-1.452,1.181.7.7,0,0,1-.373.115.459.459,0,0,1-.369-.3v.023a5.045,5.045,0,0,0-.063.739.544.544,0,0,0,.432.525.7.7,0,0,0,.373-.115,5.563,5.563,0,0,0,1.452-1.181c1.115-1.27,1.692-2.867,3.418-3.457a5.878,5.878,0,0,1,3.959.449,4.712,4.712,0,0,0,1.861.749c1.56.04,2.58-2.108,4.13-1.936s2.065,2.454,3.579,2.8c1.019.231,1.979-.531,2.742-1.24a4.4,4.4,0,0,0,1.178-1.448,2.784,2.784,0,0,0,.142-1.5A2.329,2.329,0,0,1,590.213,479.228Z" transform="translate(-566.04 -473.438)"/>
    </g>
    <path id="Path_5721" data-name="Path 5721" d="M500,814.035s2.7-.831,3.814.746" transform="translate(-369.208 -556.2)" opacity="0.1"/>
    <path id="Path_5722" data-name="Path 5722" d="M680.549,815.432s-4.464-.261-4.289.947" transform="translate(-487.315 -557.267)" opacity="0.1"/>
    <ellipse id="Ellipse_396" data-name="Ellipse 396" cx="8.884" cy="1.501" rx="8.884" ry="1.501" transform="translate(273.468 252.718)" fill="#e53227" opacity="0.1"/>
    <ellipse id="Ellipse_397" data-name="Ellipse 397" cx="8.884" cy="1.501" rx="8.884" ry="1.501" transform="translate(18.422 265.037)" fill="#e53227" opacity="0.1"/>
    <ellipse id="Ellipse_398" data-name="Ellipse 398" cx="8.884" cy="1.501" rx="8.884" ry="1.501" transform="translate(52.789 273.09)" fill="#e53227" opacity="0.1"/>
    <ellipse id="Ellipse_399" data-name="Ellipse 399" cx="13.266" cy="2.243" rx="13.266" ry="2.243" transform="translate(249.638 268.062)" fill="#e53227"/>
    <path id="Path_5723" data-name="Path 5723" d="M892.159,828.741a3.864,3.864,0,0,0,1.263-1.91,1.7,1.7,0,0,0-.884-1.943c-.812-.31-1.679.254-2.336.821a3.12,3.12,0,0,1-2.273,1.1A3.457,3.457,0,0,0,889,823.568a1.362,1.362,0,0,0-.3-.66c-.449-.482-1.267-.277-1.8.106-1.715,1.2-2.194,3.537-2.2,5.632a10.594,10.594,0,0,1-.033-2.309,2.386,2.386,0,0,0-.871-2.055,2.62,2.62,0,0,0-1.32-.31,2.747,2.747,0,0,0-2.158.614,2.126,2.126,0,0,0,.086,2.639,8.4,8.4,0,0,0,2.234,1.788,4.947,4.947,0,0,1,1.593,1.521,1.369,1.369,0,0,1,.119.274h4.82A13.549,13.549,0,0,0,892.159,828.741Z" transform="translate(-623.768 -562.104)" fill="#e53227"/>
    <path id="Path_5724" data-name="Path 5724" d="M281.746,753.45s1.814,2.372-.835,5.938-4.833,6.6-3.959,8.832c0,0,4-6.648,7.258-6.74S285.325,757.449,281.746,753.45Z" transform="translate(-219.614 -515.749)" fill="#e53227"/>
    <path id="Path_5725" data-name="Path 5725" d="M281.963,753.45a2.912,2.912,0,0,1,.37.746c3.174,3.728,4.866,7.208,1.814,7.294-2.84.082-6.248,5.163-7.067,6.446.026.1.059.195.1.294,0,0,4-6.648,7.258-6.74S285.542,757.449,281.963,753.45Z" transform="translate(-219.831 -515.749)" opacity="0.1"/>
    <path id="Path_5726" data-name="Path 5726" d="M301.246,761.525c0,.835-.092,1.511-.208,1.511s-.208-.676-.208-1.511.116-.442.231-.442S301.246,760.69,301.246,761.525Z" transform="translate(-235.746 -520.802)" fill="#ffd037"/>
    <path id="Path_5727" data-name="Path 5727" d="M302.7,764.465c-.732.4-1.372.64-1.425.538s.492-.508,1.224-.907.445-.109.5,0S303.43,764.066,302.7,764.465Z" transform="translate(-236.04 -522.746)" fill="#ffd037"/>
    <path id="Path_5728" data-name="Path 5728" d="M254.594,753.45s-1.814,2.372.835,5.938,4.833,6.6,3.959,8.832c0,0-4-6.648-7.258-6.74S251.008,757.449,254.594,753.45Z" transform="translate(-202.033 -515.749)" fill="#e53227"/>
    <path id="Path_5729" data-name="Path 5729" d="M254.58,753.45a2.969,2.969,0,0,0-.373.746c-3.174,3.728-4.863,7.208-1.815,7.294,2.844.082,6.252,5.163,7.07,6.446a2.547,2.547,0,0,1-.1.294s-4-6.648-7.258-6.74S250.994,757.449,254.58,753.45Z" transform="translate(-202.019 -515.749)" opacity="0.1"/>
    <path id="Path_5730" data-name="Path 5730" d="M252.65,761.525c0,.835.1,1.511.211,1.511s.208-.676.208-1.511-.116-.442-.231-.442S252.65,760.69,252.65,761.525Z" transform="translate(-203.461 -520.802)" fill="#ffd037"/>
    <path id="Path_5731" data-name="Path 5731" d="M248.243,764.465c.732.4,1.369.64,1.425.538s-.495-.508-1.227-.907-.442-.109-.5,0S247.511,764.066,248.243,764.465Z" transform="translate(-200.209 -522.746)" fill="#ffd037"/>
    <path id="Path_5732" data-name="Path 5732" d="M254.4,791.746s5.067-.158,6.6-1.244,7.8-2.389,8.172-.643,7.618,8.673,1.9,8.719-13.3-.891-14.819-1.818S254.4,791.746,254.4,791.746Z" transform="translate(-204.633 -539.575)" fill="#a8a8a8"/>
    <path id="Path_5733" data-name="Path 5733" d="M271.166,803.522c-5.721.046-13.3-.891-14.82-1.818-1.158-.709-1.623-3.246-1.778-4.414H254.4s.33,4.084,1.844,5.015,9.1,1.864,14.819,1.818c1.65,0,2.22-.6,2.191-1.471C273.023,803.185,272.393,803.512,271.166,803.522Z" transform="translate(-204.633 -545.126)" opacity="0.2"/>
  </g>
</svg>
