<svg id="Group_70" data-name="Group 70" xmlns="http://www.w3.org/2000/svg" width="36.499" height="36.5" viewBox="0 0 36.499 36.5">
  <g id="Ellipse_32" data-name="Ellipse 32" fill="none" stroke="#fff" stroke-width="1">
    <circle cx="18.25" cy="18.25" r="18.25" stroke="none"/>
    <circle cx="18.25" cy="18.25" r="17.75" fill="none"/>
  </g>
  <path id="Path_5" data-name="Path 5" d="M15.577,11.8A9.09,9.09,0,0,0,12.11,9.622a5.275,5.275,0,1,0-5.97,0A9.139,9.139,0,0,0,0,18.25H1.426a7.7,7.7,0,0,1,15.4,0H18.25A9.065,9.065,0,0,0,15.577,11.8ZM9.125,9.125a3.85,3.85,0,1,1,3.85-3.85A3.854,3.854,0,0,1,9.125,9.125Z" transform="translate(9.125 9.125)" fill="#fff" opacity="0.636"/>
</svg>
