<svg xmlns="http://www.w3.org/2000/svg" xmlns:xlink="http://www.w3.org/1999/xlink" width="550.195" height="339.647" viewBox="0 0 550.195 339.647">
  <defs>
    <clipPath id="clip-path">
      <path id="Path_5419" data-name="Path 5419" d="M550.2,1.005v246.08a453.135,453.135,0,0,1-276.473,93.566A453.074,453.074,0,0,1,0,249.165V1.005Z" transform="translate(0 -1.005)" fill="none"/>
    </clipPath>
    <linearGradient id="linear-gradient" x1="0.5" y1="0.731" x2="0.5" y2="0.233" gradientUnits="objectBoundingBox">
      <stop offset="0" stop-color="#c8421b"/>
      <stop offset="1" stop-color="#fff" stop-opacity="0"/>
    </linearGradient>
    <linearGradient id="linear-gradient-2" x1="0.5" y1="0.708" x2="0.5" y2="0.211" xlink:href="#linear-gradient"/>
    <linearGradient id="linear-gradient-3" x1="0.5" y1="-0.011" x2="0.5" y2="0.57" gradientUnits="objectBoundingBox">
      <stop offset="0" stop-color="#cfa58b"/>
      <stop offset="1" stop-color="#f2cfb2"/>
    </linearGradient>
    <linearGradient id="linear-gradient-4" x1="0.5" y1="0.178" x2="0.5" y2="0.834" xlink:href="#linear-gradient-3"/>
    <linearGradient id="linear-gradient-5" y1="0.5" x2="1" y2="0.5" gradientUnits="objectBoundingBox">
      <stop offset="0" stop-color="#d59a74"/>
      <stop offset="1" stop-color="#e6ae8a"/>
    </linearGradient>
    <linearGradient id="linear-gradient-6" x1="8.828" y1="-39.608" x2="9.797" y2="-39.608" xlink:href="#linear-gradient-5"/>
    <linearGradient id="linear-gradient-7" x1="0.5" y1="0.095" x2="0.5" y2="0.511" xlink:href="#linear-gradient-3"/>
    <linearGradient id="linear-gradient-9" x1="22.871" y1="-53.297" x2="23.858" y2="-53.297" xlink:href="#linear-gradient-5"/>
    <linearGradient id="linear-gradient-10" x1="0.5" y1="1.035" x2="0.5" y2="0.076" gradientUnits="objectBoundingBox">
      <stop offset="0" stop-color="#fff" stop-opacity="0"/>
      <stop offset="1" stop-color="#fea5ab"/>
    </linearGradient>
  </defs>
  <g id="Group_3036" data-name="Group 3036" transform="translate(0 -1.005)">
    <g id="Group_3035" data-name="Group 3035" transform="translate(0 1.005)" clip-path="url(#clip-path)">
      <g id="Group_3025" data-name="Group 3025" transform="translate(67.544 49.443)">
        <path id="Path_5356" data-name="Path 5356" d="M318.549,186.423c-1.515-4.161-3.479-8.479-2.677-12.834s6.033-8.1,9.685-5.594c2.256,1.549,2.871,4.69,4.941,6.481,3.2,2.766,8.652.861,10.7-2.837s1.488-8.3.15-12.316-3.389-7.8-4.234-11.94-.2-8.965,3.023-11.7,9.307-1.75,10.37,2.343c.42,1.621.063,3.486,1,4.869,1.535,2.255,5.372,1.262,6.806-1.059s1.283-5.233,1.394-7.959a36.956,36.956,0,0,1,18.682-30.25c3.346-1.848,7.517-3.143,10.909-1.381,4.936,2.563,5.017,9.616,3.5,14.969a50.314,50.314,0,0,1-12.017,20.988c-2.392,2.5-5.061,4.768-7.027,7.613s-3.177,6.471-2.2,9.789,4.707,5.887,7.969,4.734c3.583-1.267,5.473-6.234,9.273-6.172,4.033.064,5.347,5.722,4.008,9.526a17.393,17.393,0,0,1-13.693,11.2c-3.056.428-6.259.034-9.162,1.081s-5.364,4.419-3.931,7.151,5.233,2.681,8.1,3.777c5.985,2.289,7.5,11.645,2.542,15.7-6.324,5.18-16.355.317-23.767,3.762-4.88,2.268-7.515,7.672-8.707,12.921s-1.342,10.741-3.123,15.82-5.8,9.921-11.161,10.428c-12.869,1.22-10.45-13.647-8.933-21.534C323.407,211.384,322.979,198.593,318.549,186.423Z" transform="translate(-35.853 -40.368)" fill="#e3a096"/>
        <path id="Path_5357" data-name="Path 5357" d="M360.35,240.6c18.524-17.742,41.406-31.675,66.655-36.19,6.9-1.234,15.242-1.216,19.442,4.4,3.33,4.448,2.565,10.951-.34,15.688s-7.535,8.107-12.047,11.349l-29.125,20.936L363,286.921c-12.661,9.1-26.541,22.953-40.936,28.952-8.714,3.631-20.3-1.546-16-11.737,3.572-8.454,14.2-14.922,19.947-21.911C337.542,268.205,347.124,253.265,360.35,240.6Z" transform="translate(-36.911 -30.094)" fill="#df6f62"/>
        <path id="Path_5358" data-name="Path 5358" d="M164.142,199.092c-14.481-33.238-26.5-69.5-20.416-105.238,1.263-7.423,3.383-14.888,7.8-20.982s11.487-10.646,19.015-10.5c7.7.145,14.677,5.144,19.093,11.458s6.687,13.85,8.737,21.277c11.346,41.115,18.011,83.646,18.407,126.335.2,21.4-.741,43.316-4.42,64.439-3.891,22.332-16.976-11.387-19.313-18.366C185.173,244,174.028,221.781,164.142,199.092Z" transform="translate(-53.278 -44.288)" fill="#df6f62"/>
        <path id="Path_5359" data-name="Path 5359" d="M188.67,214.236c-13.118-22.042-31.451-41.574-54.58-52.663-6.321-3.032-14.364-5.24-19.91-.952-4.395,3.4-5.394,9.87-3.859,15.21s5.1,9.824,8.583,14.153q11.24,13.976,22.482,27.949,16.184,20.121,32.368,40.239c9.771,12.149,19.453,29.2,31.724,38.826,7.43,5.825,19.98,3.927,18.549-7.042-1.185-9.1-9.7-18.171-13.376-26.44C203.284,246.93,198.035,229.974,188.67,214.236Z" transform="translate(-56.537 -34.664)" fill="#df6f62"/>
        <path id="Path_5360" data-name="Path 5360" d="M249.933,236.164c1.812-25.586,9.411-51.274,25.089-71.575,4.285-5.548,10.478-11.137,17.359-9.8,5.455,1.061,9.254,6.393,10.283,11.853s-.141,11.068-1.306,16.5q-3.76,17.534-7.522,35.071L283,268.709c-3.269,15.245-4.253,34.83-10.891,48.941-4.02,8.543-16.082,12.488-19.736,2.047-3.032-8.664.5-20.594.067-29.631C251.57,271.938,248.639,254.432,249.933,236.164Z" transform="translate(-42.486 -35.029)" fill="#df6f62"/>
        <path id="Path_5361" data-name="Path 5361" d="M299.554,234.418c9.976-23.63,25.462-45.489,46.856-59.641,5.846-3.868,13.512-7.157,19.592-3.669,4.82,2.765,6.695,9.039,5.9,14.539s-3.706,10.43-6.563,15.194L346.9,231.606,320.347,275.9c-8.016,13.372-15.271,31.591-26.11,42.8-6.562,6.788-19.252,6.628-19.338-4.435-.072-9.178,7.124-19.328,9.63-28.023C289.555,268.8,292.433,251.29,299.554,234.418Z" transform="translate(-39.947 -33.519)" fill="#df6f62"/>
        <path id="Path_5362" data-name="Path 5362" d="M172.514,245.717a261.368,261.368,0,0,1-53.991-22.632,10.265,10.265,0,0,1-3.747-2.966,3.612,3.612,0,0,1,.1-4.448c.809-.8,2.06-1.012,2.876-1.8,1.19-1.155,1.023-3.212.073-4.572a10.15,10.15,0,0,0-3.957-2.93c-10.441-5.265-22.5-10.114-27.358-20.748-1.242-2.717-1.921-5.67-3.251-8.346-4.867-9.8-28.139-17.683-20.269-25.283,6.676-6.447,17.256,7.2,23.981,13.592,4.344,4.131,8.877,9.328,14.868,9.159,2.419-.068,4.792-1.056,7.193-.761,4.3.527,7,4.812,8.825,8.743s3.807,8.372,7.856,9.918c2.892,1.1,6.134.412,9.21.761,7.189.82,12.384,7.026,16.79,12.766l22.189,28.905c3.641,4.744,7.488,10.657,5.411,16.265l-15.211-9.681" transform="translate(-61.382 -35.46)" fill="#bd493e"/>
        <g id="Group_3017" data-name="Group 3017" transform="translate(280.758 58.243)">
          <path id="Path_5363" data-name="Path 5363" d="M386.314,232.931c22.825-28.168,44.082-59.905,47.758-95.974.763-7.49.713-15.25-1.921-22.3s-8.23-13.326-15.523-15.2c-7.464-1.916-15.517,1.041-21.459,5.949s-10.139,11.562-14.1,18.174c-21.907,36.6-39.68,75.806-51.452,116.841-5.9,20.576-10.845,41.942-12.935,63.282-2.21,22.561,19.4-6.444,23.513-12.547C354.061,270.6,370.732,252.16,386.314,232.931Z" transform="translate(-316.526 -98.866)" fill="#df6f62"/>
          <path id="Path_5364" data-name="Path 5364" d="M416.892,151.981l-.032-.16a.515.515,0,0,0-.5-.379,1.147,1.147,0,0,0-.835.332c-1.007.8-1.585,2.706-2.523,3.725a58.044,58.044,0,0,1-8.276,6.959,55.306,55.306,0,0,1-8.141,5.244,20.048,20.048,0,0,1-5.053,1.818,35.89,35.89,0,0,1-3.678.253A291.137,291.137,0,0,0,400.2,141.228c4.18-11.189,7.628-22.682,14.324-32.706.272-.406-.366-.758-.646-.377-6.007,8.206-9.431,17.827-12.908,27.287q-1.411,3.839-2.885,7.651c-2.481-2.544-3.265-6.926-3.867-10.359a44.8,44.8,0,0,1-.453-10.645.511.511,0,0,0,.421-.864l-.54-.65c-.381-.457-1-.035-1.053.437a41.956,41.956,0,0,0,.648,13.02c.6,2.911,1.268,7.73,3.94,9.508a.48.48,0,0,0,.489,0l.313-.187c-2.739,7.069-5.664,14.062-8.921,20.916a216.851,216.851,0,0,1-16.5,28.88c-.662-1.983-1.752-3.837-2.478-5.807a47.836,47.836,0,0,1-1.771-6,45.2,45.2,0,0,1-1.018-6.986c-.047-.73-.22-7.625.7-7.3.332.117.59-.29.437-.569-.08-.145-.162-.292-.242-.438a.588.588,0,0,0-.649-.264c-1.7.391-1.459,2.3-1.515,3.755a46.431,46.431,0,0,0,.442,8.328c.727,5.139,2.189,11.9,5.616,15.985A199.785,199.785,0,0,1,354.5,215.968c-7.911,8.618-17.007,16.744-23.475,26.549-.21.319.265.68.527.406,7.414-7.784,14.521-15.9,21.847-23.774,3.374-3.626,6.655-7.322,9.806-11.124a.437.437,0,0,0,.342.589,42.552,42.552,0,0,0,17.158-.511.518.518,0,0,0-.136-1.013c-2.8-.03-5.621.441-8.43.528s-5.644-.136-8.456-.009a.52.52,0,0,0-.162.04c3.258-3.949,6.371-8.017,9.291-12.248a212.333,212.333,0,0,0,14.524-24.6c2.065.83,4.778.142,6.786-.525a35.563,35.563,0,0,0,8.881-4.84,101.5,101.5,0,0,0,8.08-6.228,26.77,26.77,0,0,0,3.472-3.385,16.975,16.975,0,0,0,1.822-3.178.449.449,0,0,0,.252-.1l.146-.121A.458.458,0,0,0,416.892,151.981Z" transform="translate(-315.076 -97.951)" fill="#e3a096"/>
        </g>
        <g id="Group_3018" data-name="Group 3018" transform="translate(278.576 216.51)">
          <path id="Path_5365" data-name="Path 5365" d="M322.393,317.377a261.336,261.336,0,0,0,57.214-12.4,10.272,10.272,0,0,0,4.224-2.232,3.614,3.614,0,0,0,.711-4.393c-.649-.933-1.841-1.371-2.5-2.3-.958-1.353-.42-3.345.763-4.508a10.145,10.145,0,0,1,4.426-2.16c11.225-3.273,23.963-5.84,30.683-15.409,1.717-2.445,2.924-5.226,4.718-7.615,6.573-8.746,30.892-12.253,24.541-21.161-5.388-7.557-18.28,3.927-26.058,8.989-5.024,3.269-10.428,7.553-16.289,6.294-2.366-.508-4.52-1.914-6.935-2.062-4.325-.265-7.761,3.454-10.271,6.986s-5.271,7.538-9.533,8.319c-3.046.558-6.106-.715-9.195-.931-7.217-.506-13.458,4.648-18.836,9.488q-13.545,12.186-27.091,24.374c-4.446,4-9.306,9.112-8.286,15l16.72-6.744" transform="translate(-314.543 -242.695)" fill="#bd493e"/>
          <path id="Path_5366" data-name="Path 5366" d="M440.573,246.557c-15.714,5.1-28.8,15.348-42.184,24.675a157.337,157.337,0,0,1-21.607,13.1c-7.762,3.731-15.887,6.616-23.849,9.88,1.611-1.912,2.65-4.694,4.119-6.674a42.449,42.449,0,0,1,3.344-3.968c1.06-1.111,3.1-3.687,4.68-3.854a.369.369,0,0,0,.185-.681l-.464-.3a.563.563,0,0,0-.565,0c-2.956,1.631-5.505,4.858-7.531,7.5-1.72,2.24-4.449,5.443-4.738,8.379-8.19,3.394-16.473,7.191-23.2,13.062-.4.352.133,1.063.579.749a116.872,116.872,0,0,1,22.176-12.158c1.808-.758,3.626-1.492,5.447-2.216,4.88,2.03,11.08,5.3,16.28,2.723.32-.158.073-.567-.221-.526a20.386,20.386,0,0,1-8.9-.7c-2.079-.628-4.07-1.4-6.173-1.888,5.424-2.147,10.875-4.227,16.2-6.611,15.129-6.774,27.894-17.192,41.538-26.4,7.882-5.323,16.117-10.106,25.11-13.3C441.287,247.178,441.082,246.392,440.573,246.557Z" transform="translate(-313.131 -242.309)" fill="#e3a096"/>
        </g>
        <g id="Group_3019" data-name="Group 3019" transform="translate(103.891 138.31)">
          <path id="Path_5367" data-name="Path 5367" d="M194.966,184.65c-3.655-4.513-7.948-8.684-13.239-11.08s-11.724-2.791-16.793.043c-8.541,4.773-10.282,16.484-8.518,26.109,5.635,30.742,32.753,52,39.075,82.711,1.567,7.611,1.082,15.481,10.424,16.3,5.86.515,10.011-2.749,12.067-7.841,4.692-11.623-1.229-34.1-2.122-46.3C214.3,223.289,208.636,201.532,194.966,184.65Z" transform="translate(-155.795 -171.629)" fill="#bd493e"/>
          <path id="Path_5368" data-name="Path 5368" d="M200.965,256.229c-2.514-8.574-5.433-17.025-8.589-25.383-.479-1.265-.972-2.524-1.46-3.785,3.924-3.549,6.353-10.3,6.359-15.354,0-.493-.793-.634-.886-.12a37.239,37.239,0,0,1-2.138,8.35,41.965,41.965,0,0,1-3.7,6.181c-2.538-6.509-5.2-12.966-7.925-19.4-.374-.885-.757-1.764-1.135-2.646a.8.8,0,0,0,.227-.118c5.165-4.026,5.928-13.807,5.686-19.758a.7.7,0,0,0-1.4,0c-.752,6.225-.4,13.6-5.119,18.46q-1.781-4.135-3.584-8.258c-1.7-3.9-3.226-8.217-5.955-11.535-.252-.306-.659.084-.514.4,1.033,2.213,2.025,4.449,3.034,6.675-.57-.335-1.284-.448-1.923-.738a13.778,13.778,0,0,1-3.629-2.408c-.916-.845-1.532-2.229-2.489-2.948a1.036,1.036,0,0,0-1.375-.12.616.616,0,0,0-.276.677c.119.376.195.491.581.6a.343.343,0,0,0,.418-.418c.631,2,2.716,3.609,4.437,4.687,1.119.7,3.284,2.1,4.658,1.545q9.205,20.395,17.1,41.378c3.014,8.043,5.808,16.171,8.225,24.415,2.508,8.552,4,17.4,6.563,25.918.088.292.568.251.549-.075C206.2,273.63,203.44,264.666,200.965,256.229Z" transform="translate(-154.956 -170.512)" fill="#e3a096"/>
        </g>
        <path id="Path_5369" data-name="Path 5369" d="M181.293,166.414a56.769,56.769,0,0,1-13.066-9.686c-3.463-3.585-6.576-7.611-9.727-11.412-.325-.392-.883.169-.559.559,1.435,1.731,2.7,3.948,4.163,5.757a77.9,77.9,0,0,0,5.884,6.576c3.663,3.593,8.1,7.226,13.114,8.661A.25.25,0,0,0,181.293,166.414Z" transform="translate(-51.699 -35.974)" fill="#e3a096"/>
        <g id="Group_3021" data-name="Group 3021" transform="translate(241.47 5.996)">
          <path id="Path_5370" data-name="Path 5370" d="M300.539,291.058a437.811,437.811,0,0,0,41.025-89.05c.845-2.558,1.678-5.239,1.268-7.9s-2.47-5.274-5.162-5.374c-1.9-.07-3.689,1.083-5.591,1.028-2.778-.079-4.9-2.806-5.266-5.561s.584-5.5,1.567-8.1c6.926-18.317,16.32-37.948,10.283-56.577-1.542-4.76-4.048-9.175-5.436-13.983-5.084-17.6,14.717-53.679-3.6-54.151-15.539-.4-13.154,28.416-14.215,43.923-.686,10.016-.4,21.562-7.984,28.136-3.062,2.653-7.112,4.12-9.743,7.2-4.711,5.52-3.193,13.865-1,20.781s4.778,14.644,1.531,21.134c-2.32,4.637-7.105,7.451-10.505,11.366-7.947,9.149-7.334,22.69-6.276,34.761l5.331,60.8c.875,9.977,2.82,21.63,11.733,26.2q3.907-14.583,7.815-29.167" transform="translate(-280.823 -51.386)" fill="#bd493e"/>
          <g id="Group_3020" data-name="Group 3020" transform="translate(10.908 6.749)">
            <path id="Path_5371" data-name="Path 5371" d="M326.673,211.67c-2.526,6.448-7.947,11.008-12.987,15.5A78.973,78.973,0,0,1,298.542,238.1q.626-5.63,1.481-11.232a279.257,279.257,0,0,1,10.062-41.462c4.159-13.226,6-26.438,6.764-40.252q.177-3.189.308-6.382a.668.668,0,0,0,.4-.138,38.337,38.337,0,0,0,7.794-8.3c1.838-2.61,4.442-6.206,4.616-9.486a.434.434,0,0,0-.734-.3c-2.032,2.5-3.024,5.975-4.874,8.692a45.5,45.5,0,0,1-7.132,7.945c.468-11.4.706-22.822,1.694-34.2a177.891,177.891,0,0,1,3.4-23.363c1.605-7.2,4.79-14.42,4.593-21.888-.005-.235-.39-.311-.43-.058-1.111,6.849-3.49,13.349-5.116,20.072a163.234,163.234,0,0,0-3.382,19.561c-1.622,13.977-1.761,28.076-2.38,42.12-.629,14.246-1.765,28.316-5.888,42.034-4.07,13.54-8.1,26.873-10.475,40.845q-1.406,8.271-2.292,16.621c-.1.051-.2.106-.3.156a.451.451,0,0,0,.189.829q-.3,2.839-.535,5.682c-.68,8.1-1.369,16.4-.756,24.52a.5.5,0,0,0,.989,0c.539-7.1.5-14.225,1.018-21.328.231-3.161.525-6.318.862-9.471,6.222-2.565,11.507-7.189,16.464-11.617,5.115-4.569,10.383-9.178,12.944-15.715C328.106,211.271,326.952,210.961,326.673,211.67Z" transform="translate(-290.276 -57.52)" fill="#e3a096"/>
            <path id="Path_5372" data-name="Path 5372" d="M313.56,148.694c-7.146-4.486-10.272-11.916-13.394-19.4-.278-.668-1.38-.4-1.11.306,2.871,7.484,6.563,16,14.018,19.927A.482.482,0,0,0,313.56,148.694Z" transform="translate(-289.905 -50.353)" fill="#e3a096"/>
            <path id="Path_5373" data-name="Path 5373" d="M300.3,204.553a27.14,27.14,0,0,1-6.536-11.771c-1.084-4-1.271-8.1-1.988-12.157-.1-.589-1.06-.449-1.039.141.3,8.673,2.473,18.229,8.98,24.37A.413.413,0,0,0,300.3,204.553Z" transform="translate(-290.736 -45.199)" fill="#e3a096"/>
          </g>
        </g>
        <path id="Path_5374" data-name="Path 5374" d="M385.9,263.535a15.682,15.682,0,0,0-2.021,11.29c.068.326.629.261.591-.08a17.238,17.238,0,0,1,2.069-10.837A.37.37,0,0,0,385.9,263.535Z" transform="translate(-29.039 -24.11)" fill="#e3a096"/>
        <g id="Group_3022" data-name="Group 3022" transform="translate(16.34 81.945)">
          <path id="Path_5375" data-name="Path 5375" d="M187.56,223.683c-1.148-6.232-8.635-11.594-13.858-8.005-3.227,2.217-4.109,6.712-7.07,9.275-4.575,3.959-12.381,1.231-15.316-4.059s-2.129-11.884-.215-17.623,4.849-11.158,6.06-17.086.293-12.828-4.327-16.737-13.318-2.5-14.838,3.353c-.6,2.317-.09,4.987-1.438,6.967-2.2,3.226-7.687,1.806-9.738-1.514s-1.837-7.49-2-11.389a52.879,52.879,0,0,0-26.735-43.286c-4.787-2.645-10.756-4.5-15.61-1.977-7.065,3.668-7.179,13.761-5.009,21.42a72.025,72.025,0,0,0,17.2,30.032c3.423,3.574,7.243,6.824,10.056,10.895s4.546,9.259,3.146,14.006-6.737,8.425-11.4,6.775c-5.128-1.812-7.831-8.92-13.27-8.833-5.77.092-7.65,8.188-5.734,13.632a24.888,24.888,0,0,0,19.594,16.034c4.373.612,8.957.047,13.111,1.545s7.675,6.324,5.624,10.234c-2.041,3.89-7.488,3.836-11.593,5.405-8.563,3.275-10.73,16.662-3.637,22.471,9.049,7.411,23.4.453,34.01,5.382,6.984,3.246,10.752,10.98,12.461,18.489s1.92,15.371,4.468,22.639,8.3,14.2,15.972,14.923c18.415,1.745,14.953-19.529,12.782-30.814-3.477-18.071-2.864-36.373,3.475-53.787C185.9,236.094,188.707,229.916,187.56,223.683Z" transform="translate(-76.231 -120.406)" fill="#e3a096"/>
          <path id="Path_5376" data-name="Path 5376" d="M155.991,270.207c.748-.6,1.426-1.367,1.838-1.743a48.213,48.213,0,0,0,9.161-11.588c5.432-9.425,7.749-20.041,9.174-30.716.055-.409-.655-.508-.726-.1-1.471,8.5-3.521,17.032-7.118,24.906a55.009,55.009,0,0,1-5.557,9.6,46.56,46.56,0,0,1-3.832,4.615q-.913.962-1.885,1.868-.647.6-1.32,1.178a2.824,2.824,0,0,0-.45.33c-5.084-11.634-10.819-22.972-16.08-34.526-3.348-7.356-6.359-14.853-9.271-22.391a72.162,72.162,0,0,0,12.219-16.056c3.236-5.554,5.459-11.423,5.384-17.912a.331.331,0,0,0-.661,0c-.5,12.96-9.571,23.148-17.486,32.55-5.829-15.166-11.309-30.474-18.351-45.128-5.918-12.312-13.05-24.134-22.312-34.235-.638-.7-1.653.332-1.033,1.033,16.466,18.608,25.981,41.552,34.709,64.507,3.331,8.762,6.607,17.549,10.173,26.218-8.315-2.245-16.784-3.893-25.057-6.3a95.616,95.616,0,0,1-12.226-4.365,63.646,63.646,0,0,1-5.839-2.971c-1.644-.947-3.174-2.275-5-2.792a.417.417,0,0,0-.465.606c1.966,2.915,6.543,4.744,9.622,6.192a91.439,91.439,0,0,0,12.093,4.577c9,2.763,18.306,5.016,27.521,6.929a.8.8,0,0,0,.144,0c.69,1.652,1.368,3.309,2.085,4.95,3.812,8.726,7.993,17.281,12.065,25.887-2.8,1.23-5.3,2.644-8.419,3.231a46,46,0,0,1-11.114.474,69.538,69.538,0,0,1-11.9-1.714c-3.982-.935-7.748-2.557-11.7-3.529a.44.44,0,0,0-.338.8c3.444,2.179,7.7,3.3,11.621,4.252a69.655,69.655,0,0,0,12.827,1.883c5.875.3,14.908.33,19.665-4.038,1.324,2.809,2.635,5.625,3.914,8.457.576,1.274,1.126,2.553,1.677,3.832l-.114.029a.681.681,0,0,0-.475.476,1.1,1.1,0,0,0,.741,1.48,1.385,1.385,0,0,0,.7-.007,218.142,218.142,0,0,1,12.011,37.4c.138.616,1.2.5,1.123-.152-1.582-12.838-6.3-25.28-11.343-37.112C156.252,270.8,156.119,270.5,155.991,270.207Z" transform="translate(-75.46 -119.379)" fill="#df6f62"/>
        </g>
        <g id="Group_3023" data-name="Group 3023" transform="translate(99.566)">
          <path id="Path_5377" data-name="Path 5377" d="M259.572,164.479a11.793,11.793,0,0,0-13.516-3.718c-2.911,1.2-5.4,3.61-8.537,3.867-5.494.449-9.238-6.437-7.794-11.758s6.1-9.062,10.633-12.206,9.419-6.333,11.79-11.31.771-12.286-4.53-13.8c-4.829-1.377-9.4,2.481-13.219,5.739s-9.441,6.247-13.531,3.335c-4.45-3.169-2.81-10-1.038-15.172a125.073,125.073,0,0,0,6.756-40.368c.007-5.67-.453-11.6-3.419-16.437s-9.135-8.125-14.438-6.118c-3.978,1.505-6.523,5.584-7.359,9.755s-.248,8.48.342,12.692l3.651,26.057c.616,4.4.27,10.328-4.042,11.388-5.547,1.362-8.187-7.133-13.436-9.386-5.789-2.485-12.066,4.459-11.395,10.723a17.142,17.142,0,0,0,3.86,8.706c-.213.734-.369,1.489-.6,2.243a28.291,28.291,0,0,1-2.131,5.139,33.052,33.052,0,0,1-5.759,7.445,172.269,172.269,0,0,1-4-24.469c-.8-9.271-.482-18.454-.162-27.732.015-.416-.679-.529-.743-.1a119.543,119.543,0,0,0-.744,26.569c-.3-1.363-1.32-1.972-2.29-2.98q-2.129-2.215-4.037-4.624a76.524,76.524,0,0,1-6.822-10.545c-.42-.738-1.5-.088-1.129.66A57.6,57.6,0,0,0,158.683,98.5a61.81,61.81,0,0,0,4.4,4.926c1.008,1.015,1.7,2.04,3.143,2.208h0a175.786,175.786,0,0,0,4.652,28.183c.179.732.372,1.46.555,2.191a7.005,7.005,0,0,0-4.18-.1c-3.2.943-5.257,4.343-5.392,7.682s1.324,6.559,3.247,9.29c3.64,5.166,8.784,8.822,14.116,12.319l2.587,9.63c1.19,4.428,1.919,9.475,3.958,13.59a.507.507,0,0,0,.938-.254c-.276-4.254-2-8.6-3.109-12.71l-2.413-8.976a111.35,111.35,0,0,1,9.354,6.532c18.032,14.548,24.676,41.582,15.442,62.831l6.8-11.035c-3.332,7.142-6.747,14.926-5.115,22.635s10.926,14.076,17.547,9.8c4.512-2.912,5.564-8.943,6.2-14.275q1.961-16.456,3.923-32.913c.955-8.017,2.353-16.873,8.629-21.954,4.735-3.836,11.59-4.854,15.394-9.615A11.8,11.8,0,0,0,259.572,164.479ZM190.9,151.358c-4.974,0-8.469-4.665-11.434-8.659a21.206,21.206,0,0,0-6.235-5.9c-.157-.613-.321-1.225-.476-1.839-.194-.764-.376-1.528-.561-2.294a26.492,26.492,0,0,0,6.388-7.737,26.8,26.8,0,0,0,2.941-7.047,52.1,52.1,0,0,0,5.352,5.1c4.809,4.069,10.08,8.254,12,14.254S197.2,151.361,190.9,151.358Z" transform="translate(-151.864 -45.937)" fill="#e3a096"/>
          <path id="Path_5378" data-name="Path 5378" d="M250.428,168.3c-.99,3.232-4.071,5.028-6.668,6.871-2.654,1.885-5.328,3.75-8.118,5.43a77.282,77.282,0,0,1-16.155,7.11c-.7-3.728-1.547-7.427-2.5-11.112a.817.817,0,0,0-.106-.424c-.783-2.993-1.631-5.977-2.514-8.964a183.464,183.464,0,0,1-5.31-21.463c6.181-.329,13.009-3.959,18.092-7.15a51.472,51.472,0,0,0,14.7-13.6c.25-.352-.317-.792-.6-.463a63.142,63.142,0,0,1-14.762,12.938,55.076,55.076,0,0,1-9.134,4.5c-2.774,1.059-5.723,1.62-8.487,2.662a81.552,81.552,0,0,1-1.055-14.023c.026-1.591.091-3.178.184-4.763a.785.785,0,0,0,.054-.717c.667-10.348,2.589-20.587,4.046-30.843,1.838-12.945,2.8-25.92-.4-38.728-.131-.527-.931-.3-.812.223,5.123,22.769-2.611,45.595-4.31,68.31a74.384,74.384,0,0,1-11.866-8.317,123.637,123.637,0,0,1-10.453-10.888.492.492,0,0,0-.769.594c5.392,8.578,14.151,15.569,22.966,20.434-.007.106-.015.21-.021.316-.681,11.87,1.184,23.178,4.4,34.574,1.372,4.856,2.816,9.677,4.14,14.521-18.251-5.958-30.118-21.475-46.3-30.995-.78-.46-1.416.689-.7,1.2,8.268,5.823,15.829,12.441,23.785,18.663,7.14,5.583,14.912,10.726,23.745,13.13.953,3.6,1.818,7.222,2.518,10.884a.743.743,0,0,0,.268,1.42c.443,2.486.8,4.994,1.052,7.531,1.4,14.3-.2,28.214-3.517,42.133a.705.705,0,0,0,1.359.374,111.787,111.787,0,0,0,2.583-50.406,65.681,65.681,0,0,0,18.3-8.575c2.96-1.959,5.853-4.068,8.634-6.273,2.063-1.636,3.737-3.315,4.381-5.924A.34.34,0,0,0,250.428,168.3Z" transform="translate(-150.278 -45.002)" fill="#df6f62"/>
        </g>
        <g id="Group_3024" data-name="Group 3024" transform="translate(269.791 172.958)">
          <path id="Path_5379" data-name="Path 5379" d="M441.531,214.161c-8.327,1.7-15.944,5.347-23.291,9.518-1.3.736-2.585,1.487-3.874,2.236a21.681,21.681,0,0,1,2.671-5.745c1.453-2.158,3.478-3.554,5.112-5.5a.423.423,0,0,0-.511-.661c-4.541,1.92-7.572,8.131-8.6,12.669-5.215,3.049-10.38,6.189-15.533,9.336-.058-.033-.114-.069-.173-.1-.312-.179-.786.208-.536.534l-.883.537q-5.1,3.12-10.154,6.335a68.192,68.192,0,0,0,4.583-7.981c4.27-8.805,5.717-20.556-1.241-27.436-4.13-4.082-10.435-5.418-16.172-4.521s-10.989,3.771-15.715,7.145c-17.681,12.623-28.947,32.077-36.132,52.192-4.115,11.519-15.821,31.605-14.4,44.06.622,5.455,3.751,9.709,9.537,10.776,9.222,1.7,10.855-6.013,14.4-12.931,12.345-24.115,37.758-37.292,53.238-58.567,4.539-2.955,9.13-5.831,13.742-8.674,3.991,4.273,11.386,6.832,16.941,6.806.649,0,.843-1.06.158-1.173a40.121,40.121,0,0,1-9.207-2.269,46.811,46.811,0,0,1-6.827-4.025q7.936-4.877,15.929-9.653c8.538-5.131,17.332-10.023,27.1-12.352C442.046,214.629,441.892,214.087,441.531,214.161Z" transform="translate(-306.56 -203.116)" fill="#e3a096"/>
          <path id="Path_5380" data-name="Path 5380" d="M358.07,238.767c.014-.088.021-.177.034-.265,1.2-1.527,2.414-3.047,3.658-4.54,5.753-6.906,11.949-14.569,19.536-19.5a.292.292,0,0,0-.295-.5c-4.157,1.78-7.373,5.291-10.482,8.465-3.13,3.2-6.12,6.529-9.008,9.944-1.079,1.276-2.129,2.578-3.18,3.88.168-2.914-.05-5.92.214-8.809a116.789,116.789,0,0,1,2.158-12.9.43.43,0,0,0-.829-.229A59.414,59.414,0,0,0,357.3,226.42c-.421,3.585-1.043,7.891-.35,11.534-3.577,4.52-6.982,9.177-10.248,13.927-.092,0-.185,0-.277-.009a.631.631,0,0,0-.454,1.073c-.227.333-.459.661-.684.995q-5.581,8.269-10.826,16.847c-.09-.774-.124-1.556-.206-2.247q-.337-2.86-.472-5.739c-.174-3.668,0-7.312.119-10.976.017-.511-.836-.65-.911-.124a64.561,64.561,0,0,0-.412,12.146q.15,3.136.544,6.251c.1.768.142,1.6.308,2.379-5.877,9.679-11.424,19.581-16.591,29.575a.619.619,0,0,0,1.069.625c5.559-9.444,10.8-19.038,16.31-28.487a.735.735,0,0,0,.543.1l.362-.072a.436.436,0,0,0,.26-.637,3.573,3.573,0,0,1-.4-.692c3.309-5.643,6.717-11.231,10.357-16.694.67-1.007,1.355-2.006,2.037-3.005a36,36,0,0,0,14.224-2.371c4.676-1.844,8.775-4.782,13.287-6.954.387-.186.049-.742-.333-.571-4.479,2-8.659,4.694-13.263,6.406a36.191,36.191,0,0,1-13.063,2.233q4.506-6.536,9.381-12.806A.432.432,0,0,0,358.07,238.767Z" transform="translate(-305.536 -202.031)" fill="#df6f62"/>
        </g>
      </g>
      <g id="Group_3026" data-name="Group 3026" transform="translate(68.645 49.443)">
        <path id="Path_5381" data-name="Path 5381" d="M269.656,164.479a11.793,11.793,0,0,0-13.516-3.718c-2.911,1.2-5.4,3.61-8.537,3.867-5.494.449-9.238-6.437-7.794-11.758s6.1-9.062,10.633-12.206,9.419-6.333,11.79-11.31.771-12.286-4.53-13.8c-4.829-1.377-9.4,2.481-13.219,5.739s-9.441,6.247-13.531,3.335c-4.45-3.169-2.81-10-1.038-15.172A125.073,125.073,0,0,0,236.67,69.09c.007-5.67-.453-11.6-3.419-16.437s-9.135-8.125-14.438-6.118c-3.978,1.505-6.523,5.584-7.359,9.755s-.248,8.48.342,12.692l3.651,26.057c.616,4.4.27,10.328-4.042,11.388a4.826,4.826,0,0,1-1.325.139c-.841-3.279-1.7-6.553-2.6-9.814-2.05-7.428-4.321-14.962-8.737-21.277S187.354,64.162,179.65,64.016c-7.528-.142-14.593,4.409-19.015,10.5s-6.541,13.559-7.8,20.982c-5.556,32.65,3.993,65.73,16.725,96.545-.208.351-.4.71-.591,1.075q-4.394-4.169-9.16-7.892a13.875,13.875,0,0,0-4.481-8.307,10.475,10.475,0,0,0-10.31-1.458q-2.5-1.375-5.081-2.619c-4.019-1.927-8.732-3.515-13.057-3.319a53.026,53.026,0,0,0-26.3-38.474c-4.787-2.645-10.756-4.5-15.61-1.977-7.065,3.668-7.179,13.761-5.009,21.42a72.026,72.026,0,0,0,17.2,30.032c1.516,1.583,3.107,3.1,4.658,4.659-5.489-.406-9.748-5.24-13.841-9.131-6.724-6.4-17.3-20.039-23.981-13.592-7.87,7.6,15.4,15.484,20.269,25.283,1.329,2.676,2.008,5.63,3.251,8.346,3.33,7.283,10.034,11.851,17.283,15.7a7.7,7.7,0,0,1-5.84.412c-5.128-1.812-7.831-8.92-13.27-8.833-5.77.092-7.65,8.188-5.734,13.632a24.89,24.89,0,0,0,19.594,16.034c4.373.612,8.957.047,13.111,1.545s7.675,6.324,5.624,10.234c-2.041,3.89-7.488,3.836-11.593,5.405-8.563,3.275-10.73,16.662-3.637,22.471,9.049,7.411,23.4.453,34.01,5.382,6.984,3.246,10.752,10.98,12.461,18.489s1.92,15.371,4.468,22.639,8.3,14.2,15.972,14.923c18.415,1.745,14.953-19.529,12.782-30.814a108.334,108.334,0,0,1-1.55-31.833c8.4,10.867,16.838,24.837,27.017,34.129,1.231,3.094,3.439,5.33,8.182,5.747a12.972,12.972,0,0,0,2.255,0c6.23.858,12.237-2.354,11.224-10.128-.07-.541-.171-1.083-.291-1.623,2.366-12.045-2.293-30.86-3.2-41.885a9.353,9.353,0,0,0,8.915-.469c4.512-2.912,5.564-8.943,6.2-14.275q1.961-16.456,3.923-32.913c.955-8.017,2.353-16.873,8.629-21.954,4.735-3.836,11.59-4.854,15.394-9.615A11.8,11.8,0,0,0,269.656,164.479Z" transform="translate(-62.382 -45.937)" fill="url(#linear-gradient)"/>
        <path id="Path_5382" data-name="Path 5382" d="M454.693,264.4c-5.388-7.557-18.28,3.927-26.058,8.989-5.024,3.269-10.428,7.553-16.289,6.294-2.366-.508-4.52-1.914-6.935-2.062a7.069,7.069,0,0,0-1.8.127l7.9-5.677,29.125-20.936c4.512-3.243,9.143-6.613,12.047-11.349s3.67-11.24.34-15.688c-4.2-5.613-12.541-5.631-19.442-4.4a113.806,113.806,0,0,0-33.374,11.786c-.083-.4-.18-.8-.288-1.2,20.489-26.3,38.515-55.626,41.872-88.569.763-7.49.713-15.25-1.921-22.3s-8.23-13.326-15.523-15.2c-7.464-1.916-15.517,1.041-21.459,5.949q-1.119.924-2.16,1.93a7.719,7.719,0,0,0-3.788-4.827c-3.392-1.762-7.563-.467-10.909,1.381a36.956,36.956,0,0,0-18.682,30.25c-.111,2.726.04,5.64-1.394,7.959s-5.271,3.313-6.806,1.059c-.942-1.383-.584-3.249-1-4.869-1.063-4.092-7.143-5.074-10.37-2.343s-3.868,7.554-3.023,11.7,2.9,7.929,4.234,11.94,1.9,8.618-.15,12.316-7.506,5.6-10.7,2.837c-1.942-1.681-2.621-4.535-4.559-6.162,6.771-17.518,14.958-36.117,9.223-53.812-1.542-4.76-4.048-9.175-5.436-13.983-5.084-17.6,14.717-53.679-3.6-54.151-15.539-.4-13.154,28.416-14.215,43.923-.686,10.016-.4,21.562-7.984,28.136-3.062,2.653-7.112,4.12-9.743,7.2-4.711,5.52-3.193,13.865-1,20.781s4.778,14.644,1.531,21.134c-.029.057-.063.111-.092.168-1.78-3.733-4.882-6.806-8.879-7.583-6.881-1.339-13.074,4.25-17.359,9.8-15.678,20.3-23.277,45.989-25.089,71.575-1.294,18.268,1.637,35.774,2.512,53.9.435,9.038-3.1,20.967-.067,29.631,3.653,10.442,15.716,6.5,19.736-2.047,6.638-14.111,7.621-33.7,10.891-48.941q2.436-11.353,4.87-22.705,1.015,11.562,2.028,23.127c.16,1.82.357,3.7.624,5.575-1.085,4.346-2.205,8.7-3.459,13.048-2.506,8.694-9.7,18.844-9.63,28.023.086,11.062,12.777,11.223,19.338,4.435,10.456-10.816,17.578-28.139,25.265-41.356-4.169,9.3-9.029,20.158-9.683,28.729-.26.49-.5.985-.713,1.488-3.051,7.222,1.881,11.921,8.114,12.757a12.945,12.945,0,0,0,2.174.6c.408.076.8.127,1.177.165a11.142,11.142,0,0,0-1.911,7.914l11.7-4.721a261.451,261.451,0,0,0,53.221-11.966,10.272,10.272,0,0,0,4.224-2.232,3.614,3.614,0,0,0,.711-4.393c-.649-.933-1.841-1.371-2.5-2.3-.958-1.353-.42-3.345.763-4.508a10.145,10.145,0,0,1,4.426-2.16c11.225-3.273,23.963-5.84,30.683-15.409,1.717-2.445,2.924-5.226,4.718-7.615C436.725,276.819,461.045,273.312,454.693,264.4Zm-69.086,28.527a10.521,10.521,0,0,1-3.159.034l13.965-10.039c-.447.557-.874,1.122-1.273,1.686C392.63,288.144,389.869,292.149,385.607,292.931Z" transform="translate(-43.486 -45.39)" fill="url(#linear-gradient-2)"/>
      </g>
      <g id="Group_3027" data-name="Group 3027" transform="translate(135.391 90.919)">
        <path id="Path_5383" data-name="Path 5383" d="M296.231,243.2c-17.32-6.888-19.24-10.067-20.565-23.315s4.5-27.1,4.5-27.1-26.229-2.309-27.289-2.309-27.288,2.309-27.288,2.309,5.829,13.853,4.5,27.1-3.245,16.427-20.566,23.315-26.593,9.8-26.593,9.8,39.74,32.323,69.943,32.588c30.2-.265,69.943-32.588,69.943-32.588S313.552,250.089,296.231,243.2Z" transform="translate(-117.026 -72.903)" fill="url(#linear-gradient-3)"/>
        <path id="Path_5384" data-name="Path 5384" d="M293.691,157.323l0-.035c.052-.866.086-1.738.086-2.618,0-23.924-1.776-50.07-42.025-50.864-29.484-.582-44.61,26.941-44.61,50.864,0,.883.035,1.757.087,2.626l0,.028c-1.9,25.171,19.9,67.026,42.687,67.026h.548C273.241,224.349,295.6,182.495,293.691,157.323Z" transform="translate(-114.6 -81.605)" fill="url(#linear-gradient-4)"/>
        <path id="Path_5385" data-name="Path 5385" d="M253.915,119.586c-14.017-.837-28.817-11.225-37.933,22.842a99.741,99.741,0,0,0,.569,52.708s-6.065-.109-8.55-8.322-17.194-49.234-5.133-62.525c12.982-14.306,9.5-24.862,23.81-31.485,10.545-4.882,25.166,2.574,34.438-2.99,12.4-7.438,26.8,1.888,30.617,11.105,2.732,6.59-2.76,19.4,2.968,26.285,5.923,7.122,9.638,29.805,4.605,42.323a129.982,129.982,0,0,1-11.324,21.835s2.817-25.649,2.117-42.566C288.5,110.113,271.665,120.645,253.915,119.586Z" transform="translate(-115.496 -83.28)" fill="#162438"/>
        <path id="Path_5386" data-name="Path 5386" d="M333.286,249.79c-10.067-4.5-46.856-16.746-46.856-16.746s-5.337,10.917-31.035,10.917-31.034-10.917-31.034-10.917S187.571,245.286,177.5,249.79s-19.34,30.2-19.606,43.98,57.491,33.117,97.5,33.117,97.762-19.34,97.5-33.117S343.355,254.295,333.286,249.79Z" transform="translate(-119.54 -68.63)" fill="#162438"/>
        <path id="Path_5387" data-name="Path 5387" d="M269.955,137.81l-13.92,3.691a4.064,4.064,0,0,1-1.877.193c-1.622-.349-2.156-2.611-1.351-4.062s2.416-2.229,3.954-2.852c3.969-1.609,8.24-2.788,12.5-2.357s8.519,2.723,10.4,6.57a2.125,2.125,0,0,1,.042,2.322,1.631,1.631,0,0,1-1.787.255,6.741,6.741,0,0,1-1.576-1.088A11.066,11.066,0,0,0,267,138.435" transform="translate(-110.049 -78.74)" fill="#88989b"/>
        <path id="Path_5388" data-name="Path 5388" d="M228.427,137.81l13.92,3.691a4.063,4.063,0,0,0,1.877.193c1.621-.349,2.156-2.611,1.351-4.062s-2.418-2.229-3.954-2.852c-3.969-1.609-8.24-2.788-12.5-2.357s-8.519,2.723-10.4,6.57a2.125,2.125,0,0,0-.042,2.322,1.631,1.631,0,0,0,1.787.255,6.741,6.741,0,0,0,1.576-1.088,11.066,11.066,0,0,1,9.348-2.047" transform="translate(-113.471 -78.74)" fill="#88989b"/>
        <path id="Path_5389" data-name="Path 5389" d="M267.627,137.487c-3.251,1.648-9.068,8.287-17.911,8.287s-14.7-6.364-17.963-8.672c-2.977-2.1-7.161,27.656-1.935,26.41s13.738-4.922,19.9-4.922,14.108,3.676,19.335,4.922S270.879,135.838,267.627,137.487Z" transform="translate(-112.569 -78.272)" fill="#162438"/>
        <path id="Path_5390" data-name="Path 5390" d="M240.451,150.279A14.346,14.346,0,1,1,226.1,135.933,14.346,14.346,0,0,1,240.451,150.279Z" transform="translate(-114.133 -78.379)" fill="#5e9abb"/>
        <path id="Path_5391" data-name="Path 5391" d="M242.492,175.306c1.115-.435,4.371,1.093,5.463,1.192s3.577-1.1,4.769-1.2,3.08.5,0,2.093c-1.239.639-3.836,2.185-5.265,1.688S240.7,176,242.492,175.306Z" transform="translate(-111.084 -74.434)" fill="url(#linear-gradient-5)"/>
        <path id="Path_5392" data-name="Path 5392" d="M260.49,186.8q-6.381.6-12.781.932c-3,.158-6.58-.254-9.468.562a41.015,41.015,0,0,0,12.207,1.987,18.2,18.2,0,0,0,5.433-.8C257.2,189.053,259.393,186.9,260.49,186.8Z" transform="translate(-111.474 -73.272)" fill="url(#linear-gradient-6)"/>
        <path id="Path_5393" data-name="Path 5393" d="M237.546,142.236c-.653-.324-33.235-38.431-33.235-38.431L186.233,181.68l47.712-14.835Z" transform="translate(-116.695 -81.604)" fill="#5e9abb"/>
        <path id="Path_5394" data-name="Path 5394" d="M137.129,124.73c-9.28,9.818,10.315,35.483,16.734,46.383,11.856,20.136,13.653,20.932,18.024,38.418s-14.749,104.482-12.761,107.662,29.457,14.029,41.331,13.114,4.225-30.556,2.163-71.233c-2.914-57.492,4.688-63.721,11.746-72.894s18.75-17,23.58-31.262c4.667-13.781-3.709-21.725-7.287-9.406s-19.6,28.747-31.615,31.961c-13.064,3.5-38.328,4.866-51.492-12.818A54.411,54.411,0,0,1,137.129,124.73Z" transform="translate(-121.871 -79.503)" fill="url(#linear-gradient-7)"/>
        <circle id="Ellipse_310" data-name="Ellipse 310" cx="46.298" cy="46.298" r="46.298" transform="translate(0 90.026) rotate(-76.47)" fill="#5eb7bb"/>
        <circle id="Ellipse_311" data-name="Ellipse 311" cx="30.402" cy="30.402" r="30.402" transform="translate(20.735 80.661) rotate(-80.254)" fill="#3a5a88"/>
        <path id="Path_5395" data-name="Path 5395" d="M257,150.279a14.346,14.346,0,1,0,14.347-14.346A14.346,14.346,0,0,0,257,150.279Z" transform="translate(-109.59 -78.379)" fill="#5e9abb"/>
        <path id="Path_5396" data-name="Path 5396" d="M261.125,143.039c.653-.325,34.167-39.234,34.167-39.234l18.077,77.875-47.711-14.835Z" transform="translate(-109.177 -81.604)" fill="#5e9abb"/>
        <path id="Path_5397" data-name="Path 5397" d="M367.254,124.73c9.28,9.818-10.315,35.483-16.733,46.383-11.856,20.136-13.654,20.932-18.026,38.418s14.749,104.482,12.761,107.662-29.457,14.029-41.33,13.114-4.225-30.556-2.164-71.233c2.915-57.492-4.688-63.721-11.746-72.894s-18.748-17-23.579-31.262c-4.667-13.781,3.709-21.725,7.286-9.406s19.606,28.747,31.616,31.961c13.063,3.5,38.328,4.866,51.491-12.818A54.4,54.4,0,0,0,367.254,124.73Z" transform="translate(-108.782 -79.503)" fill="url(#linear-gradient-7)"/>
        <path id="Path_5420" data-name="Path 5420" d="M46.3,0A46.3,46.3,0,1,1,0,46.3,46.3,46.3,0,0,1,46.3,0Z" transform="translate(166.329 15.487) rotate(-6.947)" fill="#5eb7bb"/>
        <circle id="Ellipse_313" data-name="Ellipse 313" cx="30.402" cy="30.402" r="30.402" transform="translate(182.972 30.755) rotate(-9.298)" fill="#3a5a88"/>
        <path id="Path_5398" data-name="Path 5398" d="M253.545,194.994c-.346.066-1.278,1.292-1.751,1.534a5.742,5.742,0,0,1-2.857.539c-1.374-.067-4.462-.7-3.986-2.579C247.892,194.76,250.489,195.576,253.545,194.994Z" transform="translate(-110.805 -72.5)" fill="url(#linear-gradient-9)"/>
        <path id="Path_5399" data-name="Path 5399" d="M351.658,136.93a28.641,28.641,0,0,1-.352,4.468,27.659,27.659,0,0,1-3.06,8.966,28.055,28.055,0,1,1-35.234-39.4,27.669,27.669,0,0,1,9.241-2.05c.443-.015.888-.031,1.347-.031A28.054,28.054,0,0,1,351.658,136.93Z" transform="translate(-105.72 -81.094)" fill="#d7d8f4"/>
        <path id="Path_5400" data-name="Path 5400" d="M349.714,141.4a27.659,27.659,0,0,1-3.06,8.966l-35.234-39.4a27.669,27.669,0,0,1,9.241-2.05Z" transform="translate(-104.128 -81.091)" fill="#f7f7f9"/>
        <path id="Path_5401" data-name="Path 5401" d="M204.4,136.93a28.772,28.772,0,0,1-.351,4.468,27.684,27.684,0,0,1-3.06,8.966,28.055,28.055,0,1,1-35.235-39.4,27.663,27.663,0,0,1,9.241-2.05c.443-.015.887-.031,1.346-.031A28.053,28.053,0,0,1,204.4,136.93Z" transform="translate(-120.503 -81.094)" fill="#d7d8f4"/>
        <path id="Path_5402" data-name="Path 5402" d="M202.456,141.4a27.684,27.684,0,0,1-3.06,8.966l-35.235-39.4a27.663,27.663,0,0,1,9.241-2.05Z" transform="translate(-118.911 -81.091)" fill="#f7f7f9"/>
      </g>
      <g id="Group_3034" data-name="Group 3034" transform="translate(115.889 254.692)">
        <g id="Group_3028" data-name="Group 3028" transform="translate(181.187)">
          <path id="Path_5403" data-name="Path 5403" d="M325.182,269.308c18.524-17.742,41.4-31.675,66.654-36.189,6.9-1.235,15.243-1.217,19.443,4.4,3.33,4.448,2.565,10.951-.34,15.688s-7.537,8.107-12.047,11.349l-29.125,20.936-41.933,30.143c-12.66,9.1-26.54,22.952-40.935,28.951-8.715,3.631-20.3-1.546-16-11.736,3.572-8.455,14.2-14.923,19.947-21.912C302.374,296.915,311.956,281.975,325.182,269.308Z" transform="translate(-269.973 -232.461)" fill="#df6f62"/>
          <path id="Path_5404" data-name="Path 5404" d="M405.081,240.837c-9.734-.834-18.7,3.97-26.237,9.688-1.909,1.449-3.768,2.969-5.594,4.527a23.787,23.787,0,0,1,.678-6.037c.156-.615,2.492-7.566,3.428-7.09.178.09.457-.064.372-.286l-.1-.262a.382.382,0,0,0-.352-.268c-1.95-.041-2.907,3.617-3.449,5.079a23.523,23.523,0,0,0-1.4,9.561c-6.028,5.221-11.66,10.943-17.184,16.648-8.449,8.723-16.627,17.76-25.195,26.384-.039-2.131-.491-4.271-.615-6.406a61.28,61.28,0,0,1-.032-6.592c.242-4.9,1.379-9.533,2.291-14.325a.5.5,0,0,0-.953-.263,44.729,44.729,0,0,0-2.751,14.082c-.275,4.47-.578,10.053,1.041,14.29a.567.567,0,0,0,.087.146,226.142,226.142,0,0,1-20.57,18.48c-.7.544-1.409,1.068-2.114,1.6,3.784-5.619,7.545-12.732,6.344-19.443-.083-.457-.725-.3-.76.1a33.192,33.192,0,0,1-2.785,11.625c-1.483,3.177-3.463,6.047-5.215,9.069a.576.576,0,0,0-.065.482c-3.437,2.483-6.973,4.827-10.631,6.971-5.108,2.992-10.5,5.228-15.8,7.835-.547.27-.163,1.138.41.974,9.414-2.679,18.379-8.5,26.26-14.152a200.606,200.606,0,0,0,22.935-19.531c13.116-12.774,25.08-26.686,38.19-39.456,4.285,2.192,10.03,2.513,14.732,2.253,3.478-.194,8.794-.359,10.8-3.715.268-.45-.318-.822-.682-.527-3.35,2.71-7.969,2.982-12.132,3.005s-8.019-1.038-12.068-1.651c2.485-2.407,5-4.786,7.586-7.091,8.863-7.9,19.133-15.3,31.525-15.089C405.485,241.463,405.473,240.871,405.081,240.837Z" transform="translate(-269.242 -231.629)" fill="#e3a096"/>
          <path id="Path_5405" data-name="Path 5405" d="M347.059,251.732a60.116,60.116,0,0,0-3.905,13.242c-.6,3.611-1.749,8.443-.624,11.972a.334.334,0,0,0,.638,0,21.61,21.61,0,0,0,.416-5.206,68.471,68.471,0,0,1,.821-7.478,89.364,89.364,0,0,1,2.96-12.445C347.428,251.616,347.134,251.549,347.059,251.732Z" transform="translate(-262.737 -230.537)" fill="#e3a096"/>
        </g>
        <g id="Group_3029" data-name="Group 3029" transform="translate(0 17.589)">
          <path id="Path_5406" data-name="Path 5406" d="M191.613,272.975c-15.338-15.06-36-25.092-61.142-24.506-6.871.161-15.5,1.974-21.052,8.9-4.4,5.492-5.008,12.308-3.024,16.767s6.05,7.081,10.017,9.591l25.614,16.207L178.9,323.269c11.134,7.045,22.507,18.927,36.1,22.27,8.231,2.024,21.328-6.027,19.069-16.039-1.874-8.308-11.475-12.964-15.913-19.229C209.26,297.7,202.564,283.726,191.613,272.975Z" transform="translate(-105.316 -248.445)" fill="#bd493e"/>
          <path id="Path_5407" data-name="Path 5407" d="M204.006,325.722c-4.534-4.94-9.319-9.725-14.275-14.351a29.319,29.319,0,0,0,2.308-14.138.237.237,0,0,0-.473,0A52.031,52.031,0,0,1,189.12,310.8c-4.93-4.575-10.025-9-15.217-13.251,2.83-10.154,4.244-22.931-3.313-31.459-.481-.542-1.2.234-.778.778,7,9.035,5.216,19.717,3.487,30.184q-5.287-4.311-10.677-8.4-5.5-4.171-11.207-8.056a47.158,47.158,0,0,0,.2-9.639,11.871,11.871,0,0,0-2.309-6.875l0,0,0,0c-.025-.031-.046-.064-.072-.095l-.009.011a.47.47,0,0,0-.737.566c2.608,4.968,1.885,10.07,1.973,15.411-3.506-2.347-7.069-4.608-10.712-6.734q-1.578-.921-3.174-1.812a21.79,21.79,0,0,0-.9-9.4c-.846-2.692-2.166-6.068-4.487-7.789-.282-.209-.757.144-.618.476,1.1,2.657,2.947,4.837,3.844,7.66a26.36,26.36,0,0,1,1.039,8.438c-2.732-1.5-5.5-2.947-8.3-4.307-4.208-2.039-8.67-4.165-13.317-4.907a.538.538,0,0,0-.286,1.037A132.538,132.538,0,0,1,143.3,276.683a21.31,21.31,0,0,1-6.433,6.059c-2.369,1.326-5.166,1.341-7.446,2.565a.364.364,0,0,0,.086.659c2.577.84,6.185-.98,8.361-2.306a16.419,16.419,0,0,0,6.27-6.459q3.224,2.014,6.365,4.143a.475.475,0,0,0,.523.354c3.763,2.561,7.44,5.222,11.027,7.927,1.69,1.274,3.35,2.578,5,3.9-2.218,2.69-4.15,4.833-7.513,6.173a43.616,43.616,0,0,1-8.311,2.116.438.438,0,0,0-.462.066l-.166.131a.451.451,0,0,0-.117.443l.044.189a.622.622,0,0,0,.442.443c1.381.261,3.038-.371,4.393-.682a28.633,28.633,0,0,0,5.95-1.969c2.6-1.242,5.608-3.388,6.552-6.263,7.181,5.8,13.991,11.979,20.758,18.221a.357.357,0,0,0,.283.261c4.876,4.5,9.733,9.032,14.69,13.484A.292.292,0,0,0,204.006,325.722Z" transform="translate(-104.529 -247.869)" fill="#e3a096"/>
        </g>
        <path id="Path_5408" data-name="Path 5408" d="M255.518,298a46.225,46.225,0,0,1,23.444-28.275c3.409-1.75,8.121-3.157,12.685-1.238a9.414,9.414,0,0,1,5.942,7.412c.213,2.712-1.081,5.078-2.357,7.365l-8.242,14.756q-5.932,10.623-11.864,21.245c-3.582,6.414-5.994,15.264-11.768,20.518-3.495,3.181-12.056,2.721-13.612-2.787-1.292-4.57,2.174-9.405,2.683-13.656C253.448,314.809,253.011,306.179,255.518,298Z" transform="translate(-90.846 -228.937)" fill="#df6f62"/>
        <g id="Group_3030" data-name="Group 3030" transform="translate(73.341 8.102)">
          <path id="Path_5409" data-name="Path 5409" d="M231.208,282.654c-4.94-16.128-15.435-30.785-32.993-39.792-4.8-2.462-11.43-4.442-17.853-1.742-5.09,2.14-8.061,6.612-8.363,10.432s1.521,7.148,3.318,10.365q5.8,10.384,11.6,20.768l16.7,29.9c5.041,9.028,8.437,21.481,16.561,28.876,4.919,4.476,16.967,3.828,19.157-3.923,1.818-6.432-3.06-13.237-3.775-19.221C234.12,306.315,234.736,294.169,231.208,282.654Z" transform="translate(-171.966 -239.823)" fill="#df6f62"/>
          <path id="Path_5410" data-name="Path 5410" d="M223.222,324.643c-3.227-6.934-6.927-13.639-10.493-20.4-3.5-6.645-6.462-13.4-9.4-20.305A124.254,124.254,0,0,0,192.517,263.9c4.24-1.965,7.531-10.048,6.3-14.405a.346.346,0,0,0-.662,0c-.748,2.694-.719,5.313-1.928,7.921-1.041,2.245-2.883,3.866-4.056,5.961a99.29,99.29,0,0,0-10.683-13.362c-.213-.222-.632.079-.439.339,4.062,5.469,8.345,10.717,12.02,16.47a122.417,122.417,0,0,1,9.872,18.942c1.151,2.767,2.359,5.517,3.6,8.255a9.1,9.1,0,0,1-4.059-1.18c-1.175-.68-1.95-1.878-3.116-2.5a.348.348,0,0,0-.505.388c.3,1.472,1.994,2.565,3.237,3.241a10.452,10.452,0,0,0,4.886,1.232.488.488,0,0,0,.084-.015,322.172,322.172,0,0,0,15.626,29.767C222.894,325.3,223.389,325,223.222,324.643Z" transform="translate(-171.06 -238.877)" fill="#e3a096"/>
          <path id="Path_5411" data-name="Path 5411" d="M197.779,274.4a29.681,29.681,0,0,1-11.1-7.249c-.294-.374-.924.114-.661.511a19.769,19.769,0,0,0,11.511,7.633A.464.464,0,0,0,197.779,274.4Z" transform="translate(-170.561 -237.093)" fill="#e3a096"/>
        </g>
        <g id="Group_3031" data-name="Group 3031" transform="translate(109.462 2.767)">
          <path id="Path_5412" data-name="Path 5412" d="M255.495,301.578c1.461-2.812,3.257-5.691,3.092-8.856s-3.527-6.309-6.349-4.869c-1.745.889-2.474,3.06-4.109,4.139-2.525,1.666-6.217-.194-7.329-3.007s-.284-6.03,1.038-8.75,3.13-5.217,4.114-8.077.978-6.342-1.057-8.579-6.439-2.106-7.574.7c-.449,1.109-.369,2.466-1.165,3.361-1.3,1.456-3.928.4-4.731-1.384s-.424-3.832-.249-5.776a26.437,26.437,0,0,0-10.442-23.2c-2.2-1.623-5.041-2.929-7.611-2-3.74,1.359-4.453,6.356-3.874,10.294a36,36,0,0,0,6.575,16.005,46.8,46.8,0,0,1,4.277,6.054c1.131,2.2,1.653,4.886.65,7.148s-3.888,3.739-6.094,2.619c-2.424-1.232-3.3-4.932-6-5.241-2.867-.329-4.325,3.562-3.728,6.386a12.445,12.445,0,0,0,8.672,9.221c2.128.588,4.438.605,6.4,1.618s3.395,3.633,2.124,5.439-3.963,1.415-6.1,1.927c-4.459,1.066-6.4,7.563-3.263,10.9,4,4.262,11.573,1.745,16.51,4.877,3.252,2.063,4.618,6.142,4.977,9.976s-.046,7.745.744,11.513,3.2,7.577,6.949,8.437c9.017,2.061,8.682-8.711,8.339-14.446A50.133,50.133,0,0,1,255.495,301.578Z" transform="translate(-204.792 -234.975)" fill="#e3a096"/>
          <path id="Path_5413" data-name="Path 5413" d="M234.2,305.657q-1.651-5.208-3.117-10.471c-.388-1.39-.759-2.785-1.128-4.182a44.721,44.721,0,0,0,8.907-20.859c.039-.242-.325-.35-.373-.1a48.006,48.006,0,0,1-8.908,19.566q-2.086-8.03-3.76-16.161c-2.3-11.158-2.6-25.6-11.563-33.869a.434.434,0,0,0-.614.614c4.406,4.716,6.535,10.648,7.831,16.872,1.333,6.4,2.243,12.882,3.592,19.283.977,4.63,2.075,9.233,3.265,13.813-.976-.62-2.071-1.065-3.1-1.614q-2.57-1.367-5.041-2.907c-3.259-2.026-6.225-4.718-9.587-6.532a.363.363,0,0,0-.438.568c2.388,2.946,6.117,5.214,9.286,7.227,2.48,1.576,5.6,3.953,8.619,4.7-.211.509.385,1.083.822.717q.632,2.369,1.3,4.729,1.36,4.792,2.874,9.539c-1.4-.968-3.669-1.258-5.025-1.667-2.729-.822-5.589-2.1-8.41-1.085a.285.285,0,0,0,.076.557c4.531.085,9.6,2.2,13.666,4.051a.577.577,0,0,0,.285.042,52.526,52.526,0,0,0,3.072,8.471c.287.566,1.1.157.982-.414C236.919,312.858,235.341,309.256,234.2,305.657Z" transform="translate(-204.262 -234.525)" fill="#df6f62"/>
        </g>
        <g id="Group_3032" data-name="Group 3032" transform="translate(138.109 25.048)">
          <path id="Path_5414" data-name="Path 5414" d="M256.17,288.884c9.149-13.687,21.556-25.589,36.752-31.918,4.153-1.73,9.383-2.875,12.793.059,2.7,2.326,3.125,6.508,1.961,9.878s-3.6,6.125-5.976,8.783l-15.348,17.156-22.1,24.7c-6.672,7.457-13.45,18.062-21.638,23.817-4.957,3.484-12.937,1.846-11.652-5.137,1.066-5.794,6.83-11.32,9.462-16.5C245.7,309.346,249.638,298.655,256.17,288.884Z" transform="translate(-230.826 -255.223)" fill="#df6f62"/>
          <path id="Path_5415" data-name="Path 5415" d="M297.322,264.589a89.386,89.386,0,0,0-12.314,11.369c.32-1.68.427-3.412.8-5.089.463-2.068,1.184-4.053,1.732-6.1a.25.25,0,0,0-.456-.191c-2.009,3.359-3.65,8.475-3.157,12.417a.434.434,0,0,0,.035.114c-6.37,7.162-11.991,15.12-17.395,22.755q-.805,1.137-1.605,2.276c.008-.164.018-.327.031-.491a.232.232,0,0,0,.078-.081c1.2-2.635.772-6.212,1.1-9.08.419-3.644,1.19-7.247,1.544-10.9.036-.368-.5-.388-.607-.083a49.584,49.584,0,0,0-2.206,10.366c-.379,2.855-1.38,6.789-.4,9.559a3.564,3.564,0,0,0,.037,1.3c-3.669,5.207-7.334,10.419-11.163,15.51a19.889,19.889,0,0,0,.029-4.86c-.07-1.878-.174-3.755-.174-5.634a.271.271,0,0,0-.541,0c-.207,3.251-.984,7.407.067,10.545a.335.335,0,0,0,.438.194c-.261.346-.515.7-.778,1.04a81.772,81.772,0,0,1-8.528,9.93,64.863,64.863,0,0,1-10.872,7.884c-.25.154-.09.607.208.5,7.486-2.822,13.2-8.889,18.038-15.043,3.03-3.854,5.915-7.819,8.756-11.816a.451.451,0,0,0,.239.263c2.037.8,4.965-1.06,6.52-2.23.241-.18.027-.583-.242-.416a11.192,11.192,0,0,1-3.4,1.378,20.852,20.852,0,0,0-2.752.5q2.486-3.5,4.953-7.019c3.5-4.985,7.028-9.96,10.694-14.827,3.66.447,7.769-1.542,10.723-3.467a.2.2,0,0,0-.2-.349,32.917,32.917,0,0,1-5.652,2.048c-1.342.357-2.742.464-4.093.745,1.186-1.56,2.385-3.112,3.609-4.645a173.4,173.4,0,0,1,17.135-18.075C297.7,264.743,297.5,264.458,297.322,264.589Z" transform="translate(-230.617 -254.296)" fill="#e3a096"/>
        </g>
        <g id="Group_3033" data-name="Group 3033" transform="translate(176.839 12.245)">
          <path id="Path_5416" data-name="Path 5416" d="M298.93,306.805c10.763-13.283,20.786-28.247,22.52-45.256a23.312,23.312,0,0,0-.906-10.516c-1.242-3.327-3.881-6.284-7.32-7.167-3.52-.9-7.318.491-10.118,2.8s-4.781,5.452-6.649,8.57a232.575,232.575,0,0,0-24.261,55.1,169.059,169.059,0,0,0-6.1,29.84c-1.042,10.639,9.148-3.039,11.088-5.917C283.722,324.568,291.583,315.873,298.93,306.805Z" transform="translate(-266.022 -243.588)" fill="#e3a096"/>
          <path id="Path_5417" data-name="Path 5417" d="M307.8,281.449c-2.474,2.65-4.758,5.407-7.465,7.839-2.431,2.183-5.372,3.819-7.826,5.936q2.035-3.4,4.073-6.8c3.847-6.4,8.008-12.726,11.124-19.528,2.634-5.75,4.828-12.457,3.357-18.81a.207.207,0,0,0-.4.055,44.332,44.332,0,0,1-5.273,20.791c-3.409,6.578-7.5,12.825-11.332,19.158-3.938,6.5-7.917,12.978-11.847,19.485-.624,1.031-1.263,2.06-1.909,3.09a25.135,25.135,0,0,1-1.1-4.936,53.685,53.685,0,0,1,.08-5.389.371.371,0,0,0-.725-.1,16.221,16.221,0,0,0,.993,11.626,178.061,178.061,0,0,0-9.327,15.736.654.654,0,0,0,1.128.659c4.725-6.539,8.524-13.966,12.69-20.878q3.892-6.459,7.749-12.936a.324.324,0,0,0,.362.09c3.137-1.177,6.129-4,8.581-6.219a41.865,41.865,0,0,0,7.531-8.515A.29.29,0,0,0,307.8,281.449Z" transform="translate(-265.61 -242.951)" fill="#df6f62"/>
        </g>
      </g>
      <path id="Path_5418" data-name="Path 5418" d="M427.809,237.515c-4.2-5.613-12.541-5.631-19.443-4.4-25.25,4.514-48.13,18.447-66.654,36.189-2.7,2.587-5.244,5.273-7.689,8.022a57.764,57.764,0,0,0,3.561-14.663,23.312,23.312,0,0,0-.906-10.516c-1.242-3.327-3.881-6.284-7.32-7.167-3.52-.9-7.318.491-10.118,2.8s-4.781,5.452-6.647,8.57c-.239.4-.471.8-.709,1.2a21.742,21.742,0,0,0-6.361,1.691c-15.2,6.329-27.6,18.231-36.752,31.918-.138.206-.267.415-.4.622-.8-2.7-3.676-4.944-6.143-3.685-1.745.889-2.474,3.06-4.109,4.139-2.525,1.666-6.217-.194-7.329-3.007s-.284-6.03,1.038-8.75,3.13-5.217,4.114-8.077.978-6.342-1.057-8.579-6.439-2.106-7.574.7c-.449,1.11-.369,2.467-1.165,3.361-1.3,1.457-3.928.4-4.731-1.383s-.424-3.832-.249-5.776a26.437,26.437,0,0,0-10.442-23.2c-2.2-1.623-5.041-2.929-7.611-2-3.74,1.359-4.453,6.356-3.874,10.294a35.98,35.98,0,0,0,3.662,11.281A65.133,65.133,0,0,0,204.906,243.6c-4.8-2.462-11.43-4.442-17.853-1.742-5.09,2.139-8.061,6.612-8.363,10.432s1.521,7.148,3.318,10.365q1.837,3.291,3.676,6.583a82.219,82.219,0,0,0-55.213-19.163c-6.871.161-15.5,1.974-21.052,8.9-4.4,5.492-5.008,12.308-3.024,16.767s6.05,7.081,10.017,9.591l25.614,16.207L178.9,324.874c11.134,7.045,22.507,18.927,36.1,22.27,4.191,1.03,9.642-.556,13.687-3.679,4.38,2.338,11.338,2.069,15.084-1.49,1.492,3.958,7.444,4.479,11.439,1.671a53.689,53.689,0,0,0,9.271-8.772,10.313,10.313,0,0,0-.27,5.643c1.556,5.509,10.117,5.969,13.612,2.787a25.938,25.938,0,0,0,4.925-6.425c-.2,1.471-.38,2.942-.524,4.415-.62,6.329,2.736,4.051,5.965.561,3.06,3.793,9.72,5.025,15.234,2.728,14.394-6,28.275-19.851,40.935-28.951L386.3,285.489l29.125-20.936c4.511-3.243,9.143-6.613,12.047-11.349S431.138,241.963,427.809,237.515Zm-185.94,77.87a16.066,16.066,0,0,1,2.364,7.381c.118,1.257.151,2.522.174,3.789a36.281,36.281,0,0,1-2.161-7.5C242.1,317.834,241.979,316.609,241.869,315.385Z" transform="translate(10.573 22.231)" opacity="0.67" fill="url(#linear-gradient-10)"/>
    </g>
  </g>
</svg>
