<svg xmlns="http://www.w3.org/2000/svg" width="162.862" height="38" viewBox="0 0 162.862 38">
  <g id="Group_2823" transform="translate(0 -7)">
    <g id="Group_2900">
      <g id="Layer_2" transform="translate(0 16.442)">
        <g id="Layer_1">
          <path id="Path_28" d="M54.231,26.45V21.963h1.83c1.41,0,2.11-.225,2.605-1.678l.711-1.83L52.588,0h5.244L61.95,12.282,65.9,0h5.245L62.618,22.458a7.052,7.052,0,0,1-1.487,2.559,5.617,5.617,0,0,1-4.275,1.434Zm-13.588-6.4a9.159,9.159,0,0,1-4.47-2.15l3.083-3.386A5.647,5.647,0,0,0,41.092,15.6a9.079,9.079,0,0,0,3.15.5c1.708,0,3.5-.577,3.5-2.057,0-1-.5-1.68-2.1-1.831L42.434,11.9c-3.5-.32-5.717-1.905-5.717-5.566C36.717,2.175,40.353,0,44.4,0c3.118,0,5.675.585,7.58,2.333L48.9,5.416a6.808,6.808,0,0,0-4.61-1.335c-1.958,0-2.8.9-2.8,1.905s.572,1.592,2.057,1.714l3.13.309c3.921.379,5.9,2.436,5.913,5.828,0,4.394-3.759,6.486-8.422,6.486q-.175,0-.35,0A18.353,18.353,0,0,1,40.643,20.05ZM8.859,20.3C4.237,20.279,0,17.965,0,10.021,0,3.622,3.462,0,8.544,0c5.444,0,7.9,3.922,7.9,9.494v2.069l-11.621,0c0,2.558,1.3,4.568,4.08,4.568a5.555,5.555,0,0,0,4.441-1.841l2.973,2.913a9.219,9.219,0,0,1-6.9,3.106Q9.137,20.313,8.859,20.3ZM24.8,20.281a6.723,6.723,0,0,1-5.071-1.748,6.413,6.413,0,0,1-1.656-4.464c0-3.165,2.169-5.759,6.86-5.759h4.616V7.322c0-2.175-1.066-3.124-3.7-3.124-1.79,0-3.014-.2-4.5,2.745L18.068,4.566C20.037.23,22.729,0,26.052,0c5.607,0,8.462,2.366,8.462,6.994v13.29H29.67V18.375A6.036,6.036,0,0,1,25.254,20.3Q25.026,20.3,24.8,20.281Z" transform="translate(0 0.748)" fill="#162438"/>
        </g>
      </g>
      <g id="event" transform="translate(70.862 7)">
        <text id="event-2" data-name="event" transform="translate(0 29)" fill="#162438" font-size="37.5" font-family="Helvetica"><tspan x="0" y="0">event</tspan></text>
      </g>
    </g>
  </g>
</svg>
