<svg xmlns="http://www.w3.org/2000/svg" xmlns:xlink="http://www.w3.org/1999/xlink" width="336.387" height="251.245" viewBox="0 0 336.387 251.245">
  <defs>
    <linearGradient id="linear-gradient" y1="0.5" x2="1" y2="0.5" gradientUnits="objectBoundingBox">
      <stop offset="0" stop-color="gray" stop-opacity="0.251"/>
      <stop offset="0.54" stop-color="gray" stop-opacity="0.122"/>
      <stop offset="1" stop-color="gray" stop-opacity="0.102"/>
    </linearGradient>
    <linearGradient id="linear-gradient-2" x1="0.5" y1="1" x2="0.5" y2="0" xlink:href="#linear-gradient"/>
    <linearGradient id="linear-gradient-3" x1="6.195" y1="1" x2="6.195" y2="0" xlink:href="#linear-gradient"/>
  </defs>
  <g id="undraw_refreshing_ncum" transform="translate(-10.814 -16.647)">
    <ellipse id="Ellipse_400" data-name="Ellipse 400" cx="56.683" cy="10.399" rx="56.683" ry="10.399" transform="translate(103.273 237.953)" fill="#e53227" opacity="0.1"/>
    <path id="Path_5739" data-name="Path 5739" d="M623.26,647.311s-9.254,13.258-16.912,13.365-12.169,5.583-8.531,9.005,43.32-1.954,43.32-1.954.366-16.3-3.059-18.688S623.26,647.311,623.26,647.311Z" transform="translate(-414.57 -437.482)" fill="#444176"/>
    <path id="Path_5740" data-name="Path 5740" d="M974.014,686.315s1.417,10.5-2.944,17.658,7.9,9.918,7.9,9.918,8.914,2.706,9.549-6.888.438-16.948-.406-17.715-1.534-6.178-1.534-6.178Z" transform="translate(-665.956 -460.572)" fill="#444176"/>
    <path id="Path_5741" data-name="Path 5741" d="M554.31,545.62s-.327-33.953,30.507-47.746l7.141-14.855,7.465-19.807,15.9-3.889,4.544-20.87s17.527-6.72,28.884-4.242l2.283,4.242s29.212-.357,30.507,16.977c0,0,2.921,15.918,7.141,18.748,0,0,7.141-1.782,14.279,9.547l7.789,29.005S731.179,533.6,725.019,552.7c0,0-8.44,13.084-51.279,4.242,0,0-45.761,15.208-70.1-5.658C603.642,551.282,563.073,559.77,554.31,545.62Z" transform="translate(-386.156 -300.052)" fill="#a8a8a8"/>
    <path id="Path_5742" data-name="Path 5742" d="M616.82,658.294s6.49-9.9,6.166-16.977S624.514,617,624.514,617" transform="translate(-428.218 -418.03)" fill="none" stroke="#000" stroke-miterlimit="10" stroke-width="1" opacity="0.1"/>
    <path id="Path_5743" data-name="Path 5743" d="M689.24,599.58s6.49-13.084,5.842-20.16c0,0,6.814-13.44,12.008-12.378" transform="translate(-476.949 -385.844)" fill="none" stroke="#000" stroke-miterlimit="10" stroke-width="1" opacity="0.1"/>
    <path id="Path_5744" data-name="Path 5744" d="M798.37,531.264s17.851-7.073,18.826-12.734" transform="translate(-550.38 -354.665)" fill="none" stroke="#000" stroke-miterlimit="10" stroke-width="1" opacity="0.1"/>
    <path id="Path_5745" data-name="Path 5745" d="M818.22,578.822s18.822-9.2,18.822-11.672h9.411s13.631,19.454,12.009,27.943" transform="translate(-563.737 -385.952)" fill="none" stroke="#000" stroke-miterlimit="10" stroke-width="1" opacity="0.1"/>
    <path id="Path_5746" data-name="Path 5746" d="M764.218,639.282s-18.175-1.426-24.665,4.246-18.175,8.488-18.175,8.488-6.814,15.914-9.395,18.745S705.17,683.5,705.17,683.5" transform="translate(-487.668 -432.266)" fill="none" stroke="#000" stroke-miterlimit="10" stroke-width="1" opacity="0.1"/>
    <path id="Path_5747" data-name="Path 5747" d="M885.68,692.16s1.963,7.426,4.544,11.672,6.49,19.451,6.49,19.451" transform="translate(-609.13 -466.395)" fill="none" stroke="#000" stroke-miterlimit="10" stroke-width="1" opacity="0.1"/>
    <path id="Path_5748" data-name="Path 5748" d="M978.94,752.67s4.118,12.478,7.74,12.613" transform="translate(-671.883 -505.334)" fill="none" stroke="#000" stroke-miterlimit="10" stroke-width="1" opacity="0.1"/>
    <path id="Path_5749" data-name="Path 5749" d="M896.45,602.28s10.7,3.151,15.175,10.788,18.155,14.567,18.155,14.567" transform="translate(-616.377 -408.558)" fill="none" stroke="#000" stroke-miterlimit="10" stroke-width="1" opacity="0.1"/>
    <path id="Path_5750" data-name="Path 5750" d="M910.48,496.71s0,16.271,4.22,16.271,13.631,1.782,13.631,1.782" transform="translate(-625.817 -340.624)" fill="none" stroke="#000" stroke-miterlimit="10" stroke-width="1" opacity="0.1"/>
    <path id="Path_5751" data-name="Path 5751" d="M833.745,442.55s-1.08,28.1-6.595,35.376" transform="translate(-569.746 -305.772)" fill="none" stroke="#000" stroke-miterlimit="10" stroke-width="1" opacity="0.1"/>
    <g id="Group_7614" data-name="Group 7614" transform="translate(188.903 133.258)" opacity="0.05">
      <path id="Path_5752" data-name="Path 5752" d="M883.6,511.739l-7.789-29c-7.141-11.319-14.279-9.551-14.279-9.551-4.22-2.827-7.141-18.745-7.141-18.745-1.308-17.33-30.507-16.977-30.507-16.977l-2.283-4.246a31.559,31.559,0,0,0-9.431-.357c.785.086,1.551.207,2.29.357l2.27,4.246s29.208-.356,30.507,16.977c0,0,2.921,15.918,7.141,18.745,0,0,7.141-1.782,14.279,9.551l7.789,29s20.448,20.87,14.282,39.967c0,0-4.164,6.456-21.485,7.237,23.35.934,28.623-7.237,28.623-7.237C904.034,532.612,883.6,511.739,883.6,511.739Z" transform="translate(-748.569 -432.676)"/>
      <path id="Path_5753" data-name="Path 5753" d="M638.532,762.6a139.7,139.7,0,0,1-20.792,2.453,122.584,122.584,0,0,0,22.038-1.426C639.359,763.288,638.94,762.949,638.532,762.6Z" transform="translate(-617.74 -644.981)"/>
      <path id="Path_5754" data-name="Path 5754" d="M832.564,778.47a123.33,123.33,0,0,1-30.644,5.28c14.959.592,29.13-2.806,34.972-4.442C835.489,779.055,834.05,778.776,832.564,778.47Z" transform="translate(-741.672 -655.194)"/>
    </g>
    <path id="Path_5755" data-name="Path 5755" d="M466.417,301.06V426.774c0,14.176-10.545,25.668-23.552,25.668H396.548C380.221,452.432,366.993,438,367,420.207V296.547a21.969,21.969,0,0,1,5.561-14.77,19.836,19.836,0,0,1,3.965-3.372,18.034,18.034,0,0,1,9.781-2.895H442.97C455.918,275.51,466.416,286.949,466.417,301.06Z" transform="translate(-260.119 -198.282)" fill="#162438"/>
    <path id="Path_5756" data-name="Path 5756" d="M728.413,134.7a14.165,14.165,0,0,1-.654-1.946c.029-.406-.759-.93-.981-1.255a.842.842,0,0,1,0-.77l-.756-.16a2.086,2.086,0,0,1,.376-1.38c.491-.813-.383-2.909-.383-2.909l-2.244-2.139v.453a4.358,4.358,0,0,0-.052-.453c-.016-.153-.023-.239-.033-.357a.886.886,0,0,0,.327-.26.859.859,0,0,0,.245-.378.184.184,0,0,1,.026-.114h0a1.463,1.463,0,0,0,.036-.164h0a1.879,1.879,0,0,1,.036-.2,1.135,1.135,0,0,1,.2-.406.977.977,0,0,1,.3-.207c.5-.217,1.171-.021,1.544-.446a.565.565,0,0,0,.039-.057c.023-.021.052-.039.075-.064a.8.8,0,0,0,.18-.4,1.012,1.012,0,0,0,.036-.168h-.02a2.519,2.519,0,0,0-.167-.888,1.762,1.762,0,0,1-.062-1.465c.062-.1.147-.178.216-.271a1.291,1.291,0,0,0,.219-.545v-.032h0a2.32,2.32,0,0,0,.033-.5,3.328,3.328,0,0,0-.576-1.783.925.925,0,0,0,.1-.228,8.429,8.429,0,0,0,.3-2.178v-.121a7.427,7.427,0,0,0-2.571-5.872,5.041,5.041,0,0,0-3.036-1.223,6.543,6.543,0,0,1-.949-.1c-1.557-.3-6.716-.734-8.868,6.018v1.219s-4.828,1.344-4.632,1.708l.026.039c-.026.029-.039.061-.026.082.2.356.54-.242,1.223.638a7.116,7.116,0,0,0,3.157,1.939,7.261,7.261,0,0,0,4.55,6.652v.25a8.361,8.361,0,0,1-.1,1.005c-.023-.05-.069-.078-.131-.146a8.188,8.188,0,0,0-4.871-.98c-2.349.289-8.178,4.2-8.178,4.2s-.049.289-.131.759c-.841.852-1.76,1.783-2.061,2.164a38.215,38.215,0,0,0-2.038,3.244,3.033,3.033,0,0,0-1.021,1.979,1.076,1.076,0,0,1-.245.738,4.173,4.173,0,0,0-1.835-.681h-.046l.029-.029-.948-1.016-.03.029h0l-.059.064h0l-.059.064h0l-.059.064h0l-.052.053-.183.2h0l-.059.064h0l-.18.189h0l-.056.064h0l-.1.111h0l-.062.064h0l-.056.061h0l-.062.064h0l-.029.032a3.678,3.678,0,0,0-1.187.51l-1.665-1.194-1.963-1.761s-2.493-3.18-6.385,0,6.284,3.782,6.284,3.782,2.617,3.4,3.337,4.335a14.661,14.661,0,0,0,3.163,2.257c-.232.745-.379,1.458-.471,1.836a4.8,4.8,0,0,1-.376,1.3c-.262.61-.795.567-.491,1.661l-4.351,2.157c-5.541-.5-20.095,2.353-20.095,2.353-4.347.777-5.257,1.59-5.4,2.852s-3.055,6.774-3.055,6.774l-4.23,8.2s-3.17,7.223-3.356,8.278-3.212,4.3-3.212,4.3l.53.324-.3.061a10.244,10.244,0,0,1-4.089-.5l-2.617-2.157a3.5,3.5,0,0,0-1.92-.809,2.428,2.428,0,0,0-.824.061c-1.59.414-1.753,2.47-1.753,2.47s5.155,8.709,7.314,8.556a2.8,2.8,0,0,1,2.764,2.1s2.578,3.526,5.038,3.276a2.415,2.415,0,0,0,1.436-.98c1.387-1.654,2.679-4.991,3.33-6.827.023-.071.046-.139.072-.207a5.589,5.589,0,0,0,1.115.517c.53,0,1.963-4.381,1.963-4.381s0-1.946.752-2.6a17.814,17.814,0,0,0,2.113-3.693,11.793,11.793,0,0,1,1.282-3.611c1.132-2.232,3.435-7.1,3.435-7.1l.3-1.743.795-.488v-.713l.68-.774c1.1,1.094,6.542,1.069,6.542,1.069,1.551.524,14.76,2.328,14.76,2.328,1.25,1.458.1,22.221.406,23.112a17.016,17.016,0,0,1,.422,3.041l1.521,7.337s2.323,11.351,2.817,12.2a5.469,5.469,0,0,1,.569,2.064s-.1,3.565,1.341,5.194l-.075.157a10.877,10.877,0,0,1-1.217,1.733l-2.686,2.289a5.871,5.871,0,0,0-.72,1.205,2.527,2.527,0,0,0,.121,2.688c1.289,1.579,9.876-.257,10.177-1.03a2.555,2.555,0,0,1,1.286-1.176s2.2.766,3.137-.9a3.182,3.182,0,0,0,.327-1.85,6.807,6.807,0,0,0-.654-2.242l-.88-4.189-.033-.157a4.774,4.774,0,0,0,.222-2.264s-1.547.652-1.027-4.214-2.663-12.852-2.663-12.852c.488-1.947-1.707-4.171-1.707-4.171a5.189,5.189,0,0,0-.573-2.11c-.494-.731,0-4.135,0-4.135s.37-5.879,2.143-9.248.373-3.921,1.508-5.191,1.243-4.827,1.243-4.827,2.113-4.1,1.92-5.561a6.639,6.639,0,0,1,.15-1.975l.226.071a1.167,1.167,0,0,1,.049-.264l.065.021a4.309,4.309,0,0,1,.327-1.141,4.37,4.37,0,0,1,1.142-1.426c.981.471,1.488.046,1.488.046l3.922-2.428a1.094,1.094,0,0,0,.327.2c.157.107.265.153.3.114.327-.324,2.944-3.141,2.944-3.141h0c.17.082.291.121.327.1a2.337,2.337,0,0,0,1.02-.891.715.715,0,0,0,0-.61,7.14,7.14,0,0,1,1.636-1.34c.615-.246,1.606-2.6,1.606-2.6s1.381-.357,1.606-.41.756-.692,2.568-3.693S728.488,135.1,728.413,134.7Zm-13.085-8.424c-.069.275-.144.549-.226.82h0c.1-.335.167-.6.236-.82Z" transform="translate(-442.867 -88.932)" fill="url(#linear-gradient)"/>
    <path id="Path_5757" data-name="Path 5757" d="M782.411,194.068a19.528,19.528,0,0,1-3.955-2.731l-3.255-4.3s-9.935-.588-6.133-3.754,6.215,0,6.215,0l1.93,1.75,4.989,3.6,1.636-1.736,1.112,4.225Z" transform="translate(-530.08 -138.027)" fill="#fbbebe"/>
    <path id="Path_5758" data-name="Path 5758" d="M782.411,194.068a19.528,19.528,0,0,1-3.955-2.731l-3.255-4.3s-9.935-.588-6.133-3.754,6.215,0,6.215,0l1.93,1.75,4.989,3.6,1.636-1.736,1.112,4.225Z" transform="translate(-530.08 -138.027)" opacity="0.1"/>
    <path id="Path_5759" data-name="Path 5759" d="M641.88,319.011s5.034,8.645,7.138,8.481,2.7,2.089,2.7,2.089,2.516,3.5,4.907,3.255a2.372,2.372,0,0,0,1.4-.977c1.354-1.643,2.617-4.941,3.248-6.774.275-.791.435-1.312.435-1.312s-6.323-5.062-7.985-4.132a2.794,2.794,0,0,1-.916.3,9.882,9.882,0,0,1-3.994-.5l-2.555-2.139a3.365,3.365,0,0,0-1.874-.806,2.409,2.409,0,0,0-.8.061C642.04,316.972,641.88,319.011,641.88,319.011Z" transform="translate(-445.081 -224.653)" fill="#b07473"/>
    <path id="Path_5760" data-name="Path 5760" d="M641.88,319.12s5.034,8.645,7.138,8.481,2.7,2.089,2.7,2.089,2.516,3.5,4.907,3.255a2.372,2.372,0,0,0,1.4-.977c-1.21-.439-3.51-1.426-4.2-2.945-.942-2.071-1.776-3.679-3.18-3.565s-2.787-.075-3.085-.578-3.458-4.424-3.458-4.424a27.214,27.214,0,0,0-.527-3.8C642.04,317.081,641.88,319.12,641.88,319.12Z" transform="translate(-445.081 -224.762)" opacity="0.1"/>
    <path id="Path_5761" data-name="Path 5761" d="M808.7,427.718c1.256,1.569,9.637-.257,9.931-1.023a2.507,2.507,0,0,1,1.253-1.166s2.146.759,3.065-.891a3.184,3.184,0,0,0,.327-1.836,6.842,6.842,0,0,0-.628-2.228l-.857-4.157-.327-1.6s-7.972,2.909-8.011,3.957a2.674,2.674,0,0,1-.36,1.069,10.781,10.781,0,0,1-1.187,1.722l-2.617,2.271a5.706,5.706,0,0,0-.7,1.194A2.559,2.559,0,0,0,808.7,427.718Z" transform="translate(-557.032 -287.928)" fill="#b07473"/>
    <path id="Path_5762" data-name="Path 5762" d="M808.7,442.126c1.256,1.569,9.637-.257,9.931-1.023a2.507,2.507,0,0,1,1.253-1.166s2.146.759,3.065-.891a3.184,3.184,0,0,0,.327-1.836c-.821.556-2.2,1.283-2.944.51,0,0-.887-.317-1.963,2.1,0,0-.533,1.29-1.636,1.069a2.7,2.7,0,0,0-1.865.264s-3.121.167-3.621-.556a2.518,2.518,0,0,0-2.643-1.137A2.492,2.492,0,0,0,808.7,442.126Z" transform="translate(-557.037 -302.336)" opacity="0.1"/>
    <path id="Path_5763" data-name="Path 5763" d="M860.878,109.594l-2.188-2.114,0,2.749.157,1.087Z" transform="translate(-578.731 -72.223)" fill="#7b7bdb"/>
    <path id="Path_5764" data-name="Path 5764" d="M860.878,109.594l-2.188-2.114,0,2.749.157,1.087Z" transform="translate(-578.731 -72.223)" opacity="0.1"/>
    <path id="Path_5765" data-name="Path 5765" d="M862.85,155.974l7.105,1.426s7.736-1.519,5.45-4.171c-1-1.162-1.492-3.5-1.73-5.768-.095-.923-.151-1.832-.177-2.645-.062-1.754,0-3.055,0-3.055s-9.64.556-8.05,3.754a4.254,4.254,0,0,1,.353,2.089C865.643,151.115,862.85,155.974,862.85,155.974Z" transform="translate(-593.768 -112.214)" fill="#fbbebe"/>
    <path id="Path_5766" data-name="Path 5766" d="M870.4,145.544a4.257,4.257,0,0,1,.353,2.089,6.235,6.235,0,0,0,2.2.4,6.516,6.516,0,0,0,5.5-3.191c-.062-1.754,0-3.055,0-3.055S868.806,142.346,870.4,145.544Z" transform="translate(-598.726 -112.234)" opacity="0.1"/>
    <ellipse id="Ellipse_403" data-name="Ellipse 403" cx="6.647" cy="7.244" rx="6.647" ry="7.244" transform="translate(267.571 21.072)" fill="#fbbebe"/>
    <path id="Path_5767" data-name="Path 5767" d="M823,419.9l.1.121c1.443,1.608,6.5-.852,7.828-2.264a3.584,3.584,0,0,0,.769-1.3l-.327-1.6s-7.972,2.909-8.011,3.957A2.678,2.678,0,0,1,823,419.9Z" transform="translate(-566.953 -287.954)" opacity="0.1"/>
    <path id="Path_5768" data-name="Path 5768" d="M675.32,325.417c1.122.713,6.14,3.829,8.466,5.141.275-.791.435-1.312.435-1.312s-6.323-5.062-7.985-4.132A2.79,2.79,0,0,1,675.32,325.417Z" transform="translate(-467.582 -230.129)" opacity="0.1"/>
    <path id="Path_5769" data-name="Path 5769" d="M674.62,262.185s9.352,5.861,9.869,5.861S686.4,263.7,686.4,263.7s0-1.932.736-2.578a17.737,17.737,0,0,0,2.064-3.665,11.864,11.864,0,0,1,1.25-3.583c1.1-2.214,3.353-7.052,3.353-7.052l.294-1.729.775-.485v-.713l.654-.766c1.073,1.07,6.392,1.07,6.392,1.07,1.515.52,14.393,2.314,14.393,2.314,1.22,1.447.1,22.057.4,22.941a17.074,17.074,0,0,1,.412,3.016l1.485,7.283s2.267,11.265,2.748,12.121a5.561,5.561,0,0,1,.556,2.053s-.1,3.565,1.338,5.191,6.5-.856,7.828-2.267a4.359,4.359,0,0,0,.955-3.462s-1.515.645-1-4.185-2.617-12.756-2.617-12.756c.478-1.932-1.668-4.142-1.668-4.142a5.208,5.208,0,0,0-.556-2.093c-.481-.724,0-4.1,0-4.1s.36-5.836,2.094-9.18.363-3.9,1.469-5.155,1.259-4.806,1.259-4.806,2.064-4.068,1.874-5.515a11.619,11.619,0,0,1,.654-3.921l-15.78-10.2-4.74,2.4c-5.391-.556-19.607,2.285-19.607,2.285-4.253.77-5.129,1.576-5.276,2.823s-2.983,6.727-2.983,6.727l-4.125,8.135s-3.095,7.169-3.271,8.217S674.62,262.185,674.62,262.185Z" transform="translate(-467.111 -167.278)" fill="#65617d"/>
    <path id="Path_5770" data-name="Path 5770" d="M817.73,237.585a4.365,4.365,0,0,0-1.636,2.873,9.7,9.7,0,0,0-2.182-.481c-.592.039-5.505-3.048-5.505-3.048s-7.648-3.533-7.723-4.577-2.944-2.474-2.944-2.474l2.29-1.148L813,235.111Z" transform="translate(-549.956 -168.179)" opacity="0.1"/>
    <path id="Path_5771" data-name="Path 5771" d="M818.077,236.906a4.376,4.376,0,0,0-1.636,2.873,9.508,9.508,0,0,0-2.179-.478c-.592.043-5.505-3.052-5.505-3.052s-7.648-3.529-7.723-4.577-2.944-2.471-2.944-2.471l2.29-1.151,12.941,6.4Z" transform="translate(-550.192 -167.742)" fill="#444053"/>
    <path id="Path_5772" data-name="Path 5772" d="M820.7,275.569a5.092,5.092,0,0,0-3.14-1.487c-1.694,0-5.394-1.522-5.394-1.522s3.991,2.25,4.907,2.25A23.638,23.638,0,0,1,820.7,275.569Z" transform="translate(-559.666 -196.384)" opacity="0.1"/>
    <path id="Path_5773" data-name="Path 5773" d="M827.961,291.568c-.111-.118-4.177-1.8-4.141-2.688Z" transform="translate(-567.505 -206.886)" opacity="0.1"/>
    <path id="Path_5774" data-name="Path 5774" d="M794.4,232.82s.674,11.547,1.109,12.51C795.511,245.33,793.764,234.838,794.4,232.82Z" transform="translate(-547.616 -170.811)" opacity="0.1"/>
    <path id="Path_5775" data-name="Path 5775" d="M726.059,253.07s1.963,6.734,2.705,7.294C728.781,260.364,724.623,255.394,726.059,253.07Z" transform="translate(-501.521 -183.842)" opacity="0.1"/>
    <path id="Path_5776" data-name="Path 5776" d="M825.707,253.44a10.673,10.673,0,0,1-.219,1.248l-6.248-3.005s-.886-1.408-1.439-1.608-.982-1.964-.654-2.189a10.162,10.162,0,0,0,1.057-1.365l1.047.374-.628,1.33s-1.511.631-.553,1.141a4.949,4.949,0,0,1,1.636,1.715Z" transform="translate(-562.938 -179.627)" opacity="0.1"/>
    <ellipse id="Ellipse_404" data-name="Ellipse 404" cx="0.353" cy="0.385" rx="0.353" ry="0.385" transform="translate(263.037 67.31)" fill="#dde1eb"/>
    <ellipse id="Ellipse_405" data-name="Ellipse 405" cx="0.353" cy="0.385" rx="0.353" ry="0.385" transform="translate(262.589 68.33)" fill="#dde1eb"/>
    <ellipse id="Ellipse_406" data-name="Ellipse 406" cx="0.353" cy="0.385" rx="0.353" ry="0.385" transform="translate(262.059 69.435)" fill="#dde1eb"/>
    <path id="Path_5777" data-name="Path 5777" d="M876.225,130a1.681,1.681,0,0,1-.249,1.07c-.065.093-.147.171-.209.267a1.729,1.729,0,0,0,.062,1.451c.16.471.285,1.069-.033,1.426-.363.421-1.014.225-1.5.438a1.093,1.093,0,0,0-.6.734c-.039.153-.046.317-.092.467a.829.829,0,0,1-.831.588c-.507-.05-.854-.627-.906-1.18a6.4,6.4,0,0,1,.19-1.647,2.225,2.225,0,0,0-.216-1.6.653.653,0,0,0-.438-.31.754.754,0,0,0-.628.328,3.976,3.976,0,0,1-.484.581c-.327.26-.772.278-1.109.524-.235.171-.435.456-.716.449a.589.589,0,0,1-.491-.474,1.8,1.8,0,0,1,0-.759.776.776,0,0,0,0-.321.508.508,0,0,0-.131-.21c-.3-.31-.739-.414-1.03-.734-.2-.217-.3-.521-.507-.738a2.2,2.2,0,0,0-1.021-.492,6.511,6.511,0,0,1-2.486-1.462,2.164,2.164,0,0,1-.478-.588,1.953,1.953,0,0,1-.183-.809,3.24,3.24,0,0,1,.35-1.59.66.66,0,0,1,.226-.282.684.684,0,0,1,.38-.05,60.236,60.236,0,0,1,9.048,1.07C874,126.583,876.156,127.646,876.225,130Z" transform="translate(-593.286 -101.473)" opacity="0.1"/>
    <path id="Path_5778" data-name="Path 5778" d="M876.565,129.668a1.7,1.7,0,0,1-.249,1.069c-.065.093-.147.171-.213.267a1.751,1.751,0,0,0,.066,1.455c.16.474.284,1.07-.033,1.426-.363.421-1.014.225-1.508.442a1.072,1.072,0,0,0-.6.731c-.039.153-.046.317-.095.467a.816.816,0,0,1-.827.588c-.51-.05-.854-.627-.906-1.18a6.4,6.4,0,0,1,.19-1.647,2.24,2.24,0,0,0-.216-1.6.652.652,0,0,0-.442-.31.754.754,0,0,0-.625.328,4.019,4.019,0,0,1-.487.581c-.327.26-.769.278-1.106.524-.235.171-.435.456-.716.449a.585.585,0,0,1-.491-.474,1.837,1.837,0,0,1,0-.756.727.727,0,0,0,0-.324.533.533,0,0,0-.131-.21c-.3-.31-.743-.414-1.03-.734-.2-.217-.3-.521-.507-.738a2.227,2.227,0,0,0-1.021-.492,6.489,6.489,0,0,1-2.486-1.462,2.169,2.169,0,0,1-.478-.588,1.947,1.947,0,0,1-.183-.809,3.241,3.241,0,0,1,.35-1.59.631.631,0,0,1,.226-.278.651.651,0,0,1,.379-.054,60.233,60.233,0,0,1,9.048,1.07C874.34,126.257,876.48,127.326,876.565,129.668Z" transform="translate(-593.514 -101.26)" fill="#585268"/>
    <path id="Path_5779" data-name="Path 5779" d="M828.688,161.3s3.36-.289,3.88.517,4.253-1.968,4.253-1.968.854,2.082.373,2.888a2.1,2.1,0,0,0-.366,1.369l.739.157a.847.847,0,0,0,0,.766c.222.321.981.845.962,1.248a15.234,15.234,0,0,0,.631,1.929c.075.4,2.26,6.235.491,9.216s-2.29,3.626-2.506,3.668-1.567.4-1.567.4-.981,2.339-1.57,2.581a7.1,7.1,0,0,0-1.587,1.33.724.724,0,0,1,0,.6,2.342,2.342,0,0,1-1,.888c-.406.2-6.8-4.5-6.8-4.5s-1.963,8.938-2.646,9.223-3.755-1.718-3.755-1.718-2.659.931-3.952-.075-7.17-3.922-7.393-5.02-1.773-.923-2.071-2.011.219-1.045.478-1.651a4.608,4.608,0,0,0,.366-1.287c.219-.93.772-3.864,2.1-4.349a7.751,7.751,0,0,0,4.1-4.474c.736-2.257,1.871-9.1,1.871-9.1s5.682-3.886,7.972-4.171a7.915,7.915,0,0,1,4.753.973c.223.239.222,0-.291,1.932C825.81,161.956,828.688,161.3,828.688,161.3Z" transform="translate(-554.65 -122.478)" fill="#7b7bdb"/>
    <g id="Group_7615" data-name="Group 7615" transform="translate(269.008 23.596)" opacity="0.1">
      <path id="Path_5780" data-name="Path 5780" d="M904.51,140.535a.844.844,0,0,1,.128-.357c.056-.086.128-.16.19-.239a1.235,1.235,0,0,1-.2.453C904.592,140.439,904.549,140.489,904.51,140.535Z" transform="translate(-890.808 -134.639)"/>
      <path id="Path_5781" data-name="Path 5781" d="M862.968,125.17a.924.924,0,0,1,.056-.1,3.262,3.262,0,0,0-.183,1.2,1.955,1.955,0,0,0,.183.809,2.166,2.166,0,0,0,.478.588,6.489,6.489,0,0,0,2.486,1.462,2.2,2.2,0,0,1,1.021.492c.2.217.307.521.507.738.288.321.733.421,1.027.734a.483.483,0,0,1,.134.21.778.778,0,0,1,0,.321,1.855,1.855,0,0,0,0,.759.582.582,0,0,0,.491.474c.281,0,.481-.278.713-.449.327-.246.785-.264,1.109-.528a4,4,0,0,0,.487-.578.753.753,0,0,1,.625-.328.675.675,0,0,1,.442.31,2.225,2.225,0,0,1,.213,1.6,6.7,6.7,0,0,0-.19,1.647c.056.553.4,1.13.906,1.18a.778.778,0,0,0,.654-.267.666.666,0,0,1-.036.16.826.826,0,0,1-.831.592c-.507-.053-.854-.627-.906-1.18a6.442,6.442,0,0,1,.19-1.651,2.225,2.225,0,0,0-.216-1.6.678.678,0,0,0-.438-.31.751.751,0,0,0-.628.332,3.954,3.954,0,0,1-.484.578c-.327.264-.772.282-1.109.524-.235.171-.435.456-.716.453a.592.592,0,0,1-.491-.474,1.8,1.8,0,0,1,0-.759.777.777,0,0,0,0-.324.533.533,0,0,0-.131-.21c-.3-.31-.739-.414-1.03-.731-.2-.221-.3-.524-.507-.738a2.158,2.158,0,0,0-1.021-.492,6.558,6.558,0,0,1-2.486-1.462,2.223,2.223,0,0,1-.478-.588,1.96,1.96,0,0,1-.183-.813A3.226,3.226,0,0,1,862.968,125.17Z" transform="translate(-862.622 -125.07)"/>
      <path id="Path_5782" data-name="Path 5782" d="M898.54,149.947a1.1,1.1,0,0,1,.6-.734c.478-.207,1.106-.032,1.472-.4a.8.8,0,0,1-.186.446c-.363.424-1.014.228-1.508.442a1.009,1.009,0,0,0-.386.307Z" transform="translate(-886.784 -140.347)"/>
    </g>
    <g id="Group_7616" data-name="Group 7616" transform="translate(263.296 16.971)" opacity="0.1">
      <path id="Path_5783" data-name="Path 5783" d="M850.268,124.22l-.579.991s-4.714,1.337-4.521,1.7.527-.242,1.191.631,3.023,2.353,4.187,1.957,5.561-1.879,5.528-2.332S850.268,124.22,850.268,124.22Z" transform="translate(-845.162 -117.899)"/>
      <path id="Path_5784" data-name="Path 5784" d="M867.666,106.625c-1.521-.3-6.542-.713-8.656,5.975v1.2l6.088,2.139s8.008,2.31,8.669,0a8.426,8.426,0,0,0,.291-2.16,7.431,7.431,0,0,0-2.506-5.832,4.893,4.893,0,0,0-2.964-1.212A5.759,5.759,0,0,1,867.666,106.625Z" transform="translate(-854.48 -106.489)"/>
    </g>
    <path id="Path_5785" data-name="Path 5785" d="M850.281,123.88l-.576,1s-4.714,1.337-4.517,1.7.527-.242,1.191.631,3.023,2.353,4.187,1.957,5.561-1.879,5.528-2.332S850.281,123.88,850.281,123.88Z" transform="translate(-581.879 -100.708)" fill="#65617d"/>
    <path id="Path_5786" data-name="Path 5786" d="M867.666,106.285c-1.521-.3-6.542-.713-8.656,5.975v1.209l6.091,2.139s8.008,2.31,8.668,0a8.416,8.416,0,0,0,.291-2.16,7.423,7.423,0,0,0-2.509-5.832,4.874,4.874,0,0,0-2.964-1.212A5.759,5.759,0,0,1,867.666,106.285Z" transform="translate(-591.184 -89.298)" fill="#65617d"/>
    <ellipse id="Ellipse_407" data-name="Ellipse 407" cx="0.553" cy="0.602" rx="0.553" ry="0.602" transform="translate(278.987 24.637)" fill="#dde1eb"/>
    <ellipse id="Ellipse_408" data-name="Ellipse 408" cx="0.553" cy="0.602" rx="0.553" ry="0.602" transform="translate(275.356 23.856)" fill="#dde1eb"/>
    <path id="Path_5787" data-name="Path 5787" d="M865.1,128.809s-4.907-.656-6.091-2.139" transform="translate(-591.184 -102.504)" opacity="0.1"/>
    <ellipse id="Ellipse_409" data-name="Ellipse 409" cx="0.33" cy="0.36" rx="0.33" ry="0.36" transform="translate(276.452 16.797)" opacity="0.1"/>
    <ellipse id="Ellipse_410" data-name="Ellipse 410" cx="0.33" cy="0.36" rx="0.33" ry="0.36" transform="translate(276.452 16.676)" fill="#65617d"/>
    <path id="Path_5788" data-name="Path 5788" d="M882.117,106.67a8.932,8.932,0,0,0-1.586.474" transform="translate(-605.664 -89.634)" opacity="0.1"/>
    <path id="Path_5789" data-name="Path 5789" d="M887.4,106.67s.981.467.981.67" transform="translate(-610.287 -89.634)" opacity="0.1"/>
    <path id="Path_5790" data-name="Path 5790" d="M886.208,107.68s.078.692-.088.813" transform="translate(-609.426 -90.284)" opacity="0.1"/>
    <path id="Path_5791" data-name="Path 5791" d="M879.643,174.028a9.852,9.852,0,0,0-5,0c-2.061.781-6.258-.9-6.258-.9" transform="translate(-597.489 -132.401)" opacity="0.1"/>
    <path id="Path_5792" data-name="Path 5792" d="M820.969,167.16s-2.987,3.023-3.579,3.747q-1.068,1.549-1.989,3.209a3.032,3.032,0,0,0-.981,1.964,1.06,1.06,0,0,1-1.07,1.1s1.446,4.788.821,5.957,3.468-3.027,4.253-3.248.514-1.932.981-3.815S820.969,167.16,820.969,167.16Z" transform="translate(-560.46 -128.559)" fill="#7b7bdb"/>
    <path id="Path_5793" data-name="Path 5793" d="M828.256,177.79c-.092.242-3.5,3.629-3.206,4.955s-3.121,6.528-3.121,6.528" transform="translate(-566.233 -135.399)" opacity="0.1"/>
    <path id="Path_5794" data-name="Path 5794" d="M738.56,271.61c1.073,1.07,6.392,1.07,6.392,1.07,1.514.52,14.393,2.314,14.393,2.314s-4.769-2.852-7.373-3.048S738.56,271.61,738.56,271.61Z" transform="translate(-510.135 -195.772)" opacity="0.1"/>
    <path id="Path_5795" data-name="Path 5795" d="M466.384,439.844V471.12c-6.49-2.995-14.043-3.733-18.4,5.176-8.77,17.918-23.991-6.774-23.991-6.774s-5.967-8.5-21.557,1.33c-10.795,6.8-26.7,3.807-35.482,1.319V433.73c7.625,5.754,20.608,13.943,26.595,8.324,5.339-5.012,15.155-.816,22.012,3.23a5.229,5.229,0,0,0,5.03.161,6.074,6.074,0,0,0,3.148-4.279c.981-4.963,3.4-9.444,9.257-6.146C440.623,439.309,456.924,439.887,466.384,439.844Z" transform="translate(-260.085 -300.096)" opacity="0.1"/>
    <path id="Path_5796" data-name="Path 5796" d="M466.384,435.844V467.12c-6.49-2.995-14.043-3.732-18.4,5.176-8.77,17.918-23.991-6.773-23.991-6.773s-5.967-8.5-21.557,1.33c-10.795,6.795-26.7,3.807-35.482,1.319V429.73c7.625,5.754,20.608,13.943,26.595,8.324,5.339-5.012,15.155-.816,22.012,3.23a5.23,5.23,0,0,0,5.03.161,6.074,6.074,0,0,0,3.148-4.279c.981-4.962,3.4-9.444,9.257-6.146C440.623,435.309,456.924,435.887,466.384,435.844Z" transform="translate(-260.085 -297.522)" opacity="0.1"/>
    <path id="Path_5797" data-name="Path 5797" d="M466.384,437.844V469.12c-6.49-2.995-14.043-3.733-18.4,5.176-8.77,17.918-23.991-6.773-23.991-6.773s-5.967-8.5-21.557,1.33c-10.795,6.795-26.7,3.807-35.482,1.319V431.73c7.625,5.754,20.608,13.943,26.595,8.324,5.339-5.012,15.155-.816,22.012,3.23a5.23,5.23,0,0,0,5.03.161,6.075,6.075,0,0,0,3.148-4.279c.981-4.963,3.4-9.444,9.257-6.146C440.623,437.309,456.924,437.887,466.384,437.844Z" transform="translate(-260.085 -298.809)" fill="#e53227"/>
    <path id="Path_5798" data-name="Path 5798" d="M377.232,420.213V296.554c0-11.617,8.641-21.034,19.3-21.034H386.3c-10.659,0-19.3,9.417-19.3,21.034v123.66c0,17.8,13.239,32.223,29.568,32.221h10.249C390.481,452.446,377.232,438.017,377.232,420.213Z" transform="translate(-260.119 -198.289)" fill="#fff" opacity="0.1"/>
    <path id="Path_5799" data-name="Path 5799" d="M469.717,285.876l-.023.692s-14.027,6.061-42.525,6.863-43.179-6.863-43.179-6.863l-.049-.66a19.84,19.84,0,0,1,3.965-3.372c5.234,2.667,16.336,5.761,39.31,5.119,20.563-.574,31.3-3.291,36.866-5.725A23.257,23.257,0,0,1,469.717,285.876Z" transform="translate(-271.517 -202.413)" opacity="0.1"/>
    <ellipse id="Ellipse_411" data-name="Ellipse 411" cx="39.604" cy="10.984" rx="39.604" ry="10.984" transform="translate(114.712 66.123)" fill="#c8cbd8"/>
    <path id="Path_5800" data-name="Path 5800" d="M540.67,267.322s22.571-3.383,18.358,4.877-18.358,1.7-18.358,1.7Z" transform="translate(-376.978 -192.571)" fill="#535461"/>
    <path id="Path_5801" data-name="Path 5801" d="M432.2,248.058c19.9-.806,36.523,3.112,39.519,8.966a4.251,4.251,0,0,0,.36-1.814c-.235-6.82-18.142-11.633-40-10.749s-39.392,7.13-39.159,13.953a4.219,4.219,0,0,0,.481,1.782C395.993,254.115,412.3,248.864,432.2,248.058Z" transform="translate(-277.555 -178.235)" opacity="0.1"/>
    <path id="Path_5802" data-name="Path 5802" d="M382.35,249.621s1.917-13.736,41.74-12.741c0,0,37.618-2.688,44.838,11.148l-4.436,5.836s2.254-14.684-40.127-11.6-37.046,10.848-37.046,10.848l-.769,1.5Z" transform="translate(-270.448 -173.288)" fill="#dde1eb"/>
    <path id="Path_5803" data-name="Path 5803" d="M517.2,262.4a5.637,5.637,0,1,0,6.12,5.615A5.881,5.881,0,0,0,517.2,262.4Zm0,8.884a3.281,3.281,0,1,1,3.562-3.269A3.427,3.427,0,0,1,517.2,271.284Z" transform="translate(-357.068 -189.846)" fill="#e8eaf1"/>
    <path id="Path_5804" data-name="Path 5804" d="M412.214,210.178l-.039.007-.16.028-.092.018-.069.011-.092.018-.164.029-.066.014-.164.029-.092.018-.069.011-.092.018-.069.011-.092.018-.16.029-.069.014-.16.029-.092.018-.069.011-.092.018-.069.011-.092.018-.069.014-.092.014-.069.014-.16.029-.095.018-.065.011-.095.018-.065.011-.095.018-.069.014-.092.014-.069.014-.092.018-.069.011-.092.018-.069.011-.092.018-.069.014-.092.014-.069.014-.092.014-.069.014-.092.018-.069.011-.092.018-.069.011-.092.018-.069.014-.092.014-.069.014-.095.018-.065.011-.095.018-.065.011-.095.018-.069.014-.092.014-.069.014-.092.014-.069.014-.092-.6-.124-.809.079-.014.082-.014.079-.014.082-.014.079-.014.406-.075.079-.014.082-.014.079-.014.082-.014.078-.014.242-.046.078-.014.082-.014.078-.014.082-.014.078-.014.082-.014.078-.014.242-.046.079-.014.082-.014.078-.014.082-.014.082-.014.242-.046.078-.014.082-.014.079-.014.082-.014.078-.014.082-.014.078-.014.242-.046.078-.014.082-.014.078-.014.082-.014.078-.014.082-.014.079-.014.082-.018.078-.014.082-.014.078-.014.082-.014.082-.014.082-.014.079-.014.242-.046.078-.014.082-.014.039-.007.124.809Z" transform="translate(-274.568 -137.403)" fill="#535461"/>
    <path id="Path_5805" data-name="Path 5805" d="M406.945,212.868l-.069.014-.092-.6-.124-.809.079-.014.118.813Z" transform="translate(-274.568 -139.134)" opacity="0.1"/>
    <path id="Path_5806" data-name="Path 5806" d="M407.435,212.788l-.069.014-.092-.6-.124-.809.078-.014.118.809Z" transform="translate(-274.898 -139.082)" opacity="0.1"/>
    <path id="Path_5807" data-name="Path 5807" d="M407.925,212.708l-.069.014-.092-.6-.124-.809.079-.014.118.809Z" transform="translate(-275.227 -139.031)" opacity="0.1"/>
    <path id="Path_5808" data-name="Path 5808" d="M408.219,211.22l.206,1.408-.069.014-.216-1.408Z" transform="translate(-275.564 -138.98)" opacity="0.1"/>
    <path id="Path_5809" data-name="Path 5809" d="M408.709,211.14l.206,1.408-.069.011-.216-1.4Z" transform="translate(-275.893 -138.928)" opacity="0.1"/>
    <path id="Path_5810" data-name="Path 5810" d="M409.4,212.458l-.069.014-.092-.6-.124-.809.079-.014.118.809Z" transform="translate(-276.223 -138.87)" opacity="0.1"/>
    <path id="Path_5811" data-name="Path 5811" d="M409.895,212.378l-.069.014-.092-.6-.124-.809.078-.014.118.809Z" transform="translate(-276.553 -138.819)" opacity="0.1"/>
    <path id="Path_5812" data-name="Path 5812" d="M410.385,212.3l-.069.011-.092-.6-.124-.809.078-.014.118.809Z" transform="translate(-276.883 -138.767)" opacity="0.1"/>
    <path id="Path_5813" data-name="Path 5813" d="M410.668,210.81l.206,1.408-.069.014-.216-1.408Z" transform="translate(-277.212 -138.716)" opacity="0.1"/>
    <path id="Path_5814" data-name="Path 5814" d="M411.365,212.128l-.069.014-.092-.6-.124-.809.078-.014.118.813Z" transform="translate(-277.542 -138.658)" opacity="0.1"/>
    <path id="Path_5815" data-name="Path 5815" d="M411.855,212.048l-.069.014-.092-.6-.124-.809.078-.014.118.809Z" transform="translate(-277.872 -138.606)" opacity="0.1"/>
    <path id="Path_5816" data-name="Path 5816" d="M412.345,211.968l-.069.014-.092-.6-.124-.809.078-.014.118.809Z" transform="translate(-278.201 -138.555)" opacity="0.1"/>
    <path id="Path_5817" data-name="Path 5817" d="M412.835,211.888l-.069.011-.092-.6-.124-.809.079-.014.118.809Z" transform="translate(-278.531 -138.503)" opacity="0.1"/>
    <path id="Path_5818" data-name="Path 5818" d="M413.129,210.4l.2,1.408-.065.011-.216-1.4Z" transform="translate(-278.868 -138.452)" opacity="0.1"/>
    <path id="Path_5819" data-name="Path 5819" d="M413.815,211.718l-.069.014-.092-.6-.124-.809.078-.014.118.813Z" transform="translate(-279.191 -138.394)" opacity="0.1"/>
    <path id="Path_5820" data-name="Path 5820" d="M414.3,211.638l-.069.014-.092-.6-.124-.809.078-.014.118.809Z" transform="translate(-279.52 -138.342)" opacity="0.1"/>
    <path id="Path_5821" data-name="Path 5821" d="M414.795,211.558l-.065.011-.092-.6-.128-.809.082-.014.118.809Z" transform="translate(-279.85 -138.291)" opacity="0.1"/>
    <path id="Path_5822" data-name="Path 5822" d="M415.089,210.07l.206,1.408-.069.014-.216-1.408Z" transform="translate(-280.186 -138.24)" opacity="0.1"/>
    <path id="Path_5823" data-name="Path 5823" d="M415.785,211.388l-.069.014-.092-.6-.124-.809.078-.014.118.813Z" transform="translate(-280.516 -138.182)" opacity="0.1"/>
    <path id="Path_5824" data-name="Path 5824" d="M416.275,211.308l-.069.014-.092-.6-.124-.809.079-.014.118.809Z" transform="translate(-280.846 -138.13)" opacity="0.1"/>
    <path id="Path_5825" data-name="Path 5825" d="M416.765,211.228l-.069.014-.092-.6-.124-.809.079-.014.118.809Z" transform="translate(-281.176 -138.079)" opacity="0.1"/>
    <path id="Path_5826" data-name="Path 5826" d="M417.255,211.148l-.069.011-.092-.6-.124-.806.078-.014.118.809Z" transform="translate(-281.505 -138.027)" opacity="0.1"/>
    <path id="Path_5827" data-name="Path 5827" d="M417.539,209.66l.206,1.408-.069.014-.216-1.408Z" transform="translate(-281.835 -137.976)" opacity="0.1"/>
    <path id="Path_5828" data-name="Path 5828" d="M418.235,210.978l-.069.014-.092-.6-.124-.809.079-.014.118.809Z" transform="translate(-282.165 -137.918)" opacity="0.1"/>
    <path id="Path_5829" data-name="Path 5829" d="M418.725,210.9l-.069.014-.092-.6-.124-.809.078-.014.118.809Z" transform="translate(-282.494 -137.866)" opacity="0.1"/>
    <path id="Path_5830" data-name="Path 5830" d="M419.215,210.818l-.069.011-.092-.6-.124-.809.078-.014.118.809Z" transform="translate(-282.824 -137.815)" opacity="0.1"/>
    <path id="Path_5831" data-name="Path 5831" d="M419.7,210.738l-.069.011-.092-.6-.124-.806.079-.014.118.809Z" transform="translate(-283.154 -137.763)" opacity="0.1"/>
    <path id="Path_5832" data-name="Path 5832" d="M420.195,210.652l-.069.011-.092-.6-.124-.809.078-.014.118.809Z" transform="translate(-283.484 -137.705)" opacity="0.1"/>
    <path id="Path_5833" data-name="Path 5833" d="M420.685,210.568l-.069.014-.092-.6-.124-.809.078-.014.118.809Z" transform="translate(-283.813 -137.654)" opacity="0.1"/>
    <path id="Path_5834" data-name="Path 5834" d="M421.175,210.488l-.065.014-.095-.6-.124-.809.082-.014.118.809Z" transform="translate(-284.143 -137.602)" opacity="0.1"/>
    <path id="Path_5835" data-name="Path 5835" d="M421.675,210.408l-.069.011-.092-.6-.124-.806.079-.014.118.809Z" transform="translate(-284.479 -137.551)" opacity="0.1"/>
    <path id="Path_5836" data-name="Path 5836" d="M421.959,208.92l.206,1.408-.069.014-.216-1.408Z" transform="translate(-284.809 -137.499)" opacity="0.1"/>
    <path id="Path_5837" data-name="Path 5837" d="M422.655,210.238l-.069.014-.092-.6-.124-.809.078-.014.118.809Z" transform="translate(-285.139 -137.442)" opacity="0.1"/>
    <path id="Path_5838" data-name="Path 5838" d="M423.115,210.178l-.039.007-.092-.6-.124-.809.039-.007.124.809Z" transform="translate(-285.469 -137.403)" opacity="0.1"/>
    <path id="Path_5839" data-name="Path 5839" d="M470.13,249.98s-21.551-14.028-25.921-4.189,19.882,11.989,22.735,11.226C466.944,257.018,464.756,251.906,470.13,249.98Zm-7.013,4.278c-1.763.471-16.745-.859-14.046-6.941s16.029,2.588,16.029,2.588a3.168,3.168,0,0,0-1.982,4.342Z" transform="translate(-311.718 -176.906)" fill="#e8eaf1"/>
    <path id="Path_5840" data-name="Path 5840" d="M382.919,277.252s14.684,7.658,43.179,6.863,42.525-6.863,42.525-6.863l.3-8.691a2.921,2.921,0,0,0-.494.5c-1.681,1.993-9.467,8.364-42.29,9.269-39.136,1.1-43.794-8.659-43.794-8.659Z" transform="translate(-270.448 -193.81)" fill="#e8eaf1"/>
    <path id="Path_5841" data-name="Path 5841" d="M412.035,210.562l.039-.007-.216-1.4-.605.111h0l-.043.007-.6.111h0l-.059.011-.1.018h0l-.013,0-.307.054h0l-.007,0-.154.029h0l-.075.011-.088.018h0l-.026,0-.294.053h0l-.02,0-.141.025h0l-.078.018h0l-.082.014h0l-.043.007-.186.032-.01,0h0l-.082.014h0l-.036.007-.124.021h0l-.079.014h0l-.082.014h0l-.029.007-.164.032-.046.007h0l-.082.014h0l-.056.011-.1.018h0l-.079.014h0l-.082.014h0l-.049.011-.115.021h0l-.078.014h0l-.082.014h0l-.069.011-.092.018h0l-.079.014h0l-.082.014h0l-.062.011-.1.018h0l-.078.018h0l-.082.014h0l-.079.014h0l-.082.014h0l-.078.014h0l-.082.014h0l-.079.014.216,1.408.2-.039.026,0h0l.092-.018h0l.039-.007.17-.029.02,0h0l.092-.018h0l.013,0,.177-.032.039-.007h0l.095-.018h0l.059-.011.134-.021.033-.007h0l.095-.018h0l.02,0,.154-.029.056-.011h0l.092-.018h0l.043-.007.137-.025.049-.007h0l.092-.018h0l.033-.007.128-.021h0l.069-.014h0l.092-.014h0l.069-.014h0l.1-.018.062-.011h0l.092-.018h0l.036-.007.124-.021h0l.069-.011h0l.092-.018h0l.069-.014h0l.092-.018h0l.069-.011h0l.095-.018h0l.043-.007.118-.021h0l.065-.011h0l.095-.018h0l.069-.014h0l.092-.014h0l.069-.014h0l.092-.018h0l.052-.007.108-.021h0l.069-.011h0l.092-.018h0l.069-.011h0l.092-.018h0l.069-.014h0l.092-.014h0l.059-.011.1-.021h0l.069-.011h0l.092-.018h0l.069-.011h0l.092-.018h0l.069-.014h0l.092-.014h0l.069-.014.095-.018Z" transform="translate(-274.474 -137.648)" opacity="0.1"/>
    <path id="Path_6068" data-name="Path 6068" d="M.02.081,5.468,0l-.02,1.429L0,1.51Z" transform="translate(132.963 71.635) rotate(-9.744)" fill="#535461"/>
    <path id="Path_5842" data-name="Path 5842" d="M406.6,210.84l.206,1.408-.069.014-.216-1.408Z" transform="translate(-274.474 -138.735)" opacity="0.1"/>
    <path id="Path_5843" data-name="Path 5843" d="M407.089,210.76l.206,1.408-.069.014-.216-1.408Z" transform="translate(-274.803 -138.684)" opacity="0.1"/>
    <path id="Path_5844" data-name="Path 5844" d="M407.579,210.68l.206,1.408-.069.011-.216-1.4Z" transform="translate(-275.133 -138.632)" opacity="0.1"/>
    <path id="Path_5845" data-name="Path 5845" d="M408.068,210.59l.206,1.412-.069.011-.216-1.4Z" transform="translate(-275.463 -138.574)" opacity="0.1"/>
    <path id="Path_5846" data-name="Path 5846" d="M408.558,210.51l.206,1.408-.069.014-.216-1.408Z" transform="translate(-275.792 -138.523)" opacity="0.1"/>
    <path id="Path_5847" data-name="Path 5847" d="M409.048,210.43l.206,1.408-.069.014-.216-1.408Z" transform="translate(-276.122 -138.471)" opacity="0.1"/>
    <path id="Path_5848" data-name="Path 5848" d="M409.539,210.35l.206,1.408-.065.011-.219-1.4Z" transform="translate(-276.452 -138.42)" opacity="0.1"/>
    <path id="Path_5849" data-name="Path 5849" d="M410.028,210.27l.206,1.408-.065.011-.219-1.4Z" transform="translate(-276.782 -138.368)" opacity="0.1"/>
    <path id="Path_5850" data-name="Path 5850" d="M410.529,210.18l.2,1.408-.065.014-.216-1.408Z" transform="translate(-277.118 -138.31)" opacity="0.1"/>
    <path id="Path_5851" data-name="Path 5851" d="M411.019,210.1l.206,1.408-.069.014-.216-1.408Z" transform="translate(-277.448 -138.259)" opacity="0.1"/>
    <path id="Path_5852" data-name="Path 5852" d="M411.508,210.02l.206,1.408-.069.011-.216-1.4Z" transform="translate(-277.778 -138.207)" opacity="0.1"/>
    <path id="Path_5853" data-name="Path 5853" d="M412,209.94l.206,1.408-.069.011-.216-1.4Z" transform="translate(-278.107 -138.156)" opacity="0.1"/>
    <path id="Path_5854" data-name="Path 5854" d="M412.488,209.85l.206,1.412-.069.011-.216-1.4Z" transform="translate(-278.437 -138.098)" opacity="0.1"/>
    <path id="Path_5855" data-name="Path 5855" d="M412.978,209.77l.206,1.408-.069.014-.216-1.408Z" transform="translate(-278.767 -138.046)" opacity="0.1"/>
    <path id="Path_5856" data-name="Path 5856" d="M413.469,209.69l.206,1.408-.069.014-.216-1.408Z" transform="translate(-279.096 -137.995)" opacity="0.1"/>
    <path id="Path_5857" data-name="Path 5857" d="M413.958,209.61l.206,1.408-.069.011-.216-1.4Z" transform="translate(-279.426 -137.943)" opacity="0.1"/>
    <path id="Path_5858" data-name="Path 5858" d="M414.448,209.53l.206,1.408-.069.011-.216-1.4Z" transform="translate(-279.756 -137.892)" opacity="0.1"/>
    <path id="Path_5859" data-name="Path 5859" d="M414.939,209.44l.206,1.412-.069.011-.216-1.4Z" transform="translate(-280.085 -137.834)" opacity="0.1"/>
    <path id="Path_5860" data-name="Path 5860" d="M415.428,209.36l.206,1.408-.069.014-.216-1.408Z" transform="translate(-280.415 -137.783)" opacity="0.1"/>
    <path id="Path_5861" data-name="Path 5861" d="M415.918,209.28l.206,1.408-.069.011-.216-1.4Z" transform="translate(-280.745 -137.731)" opacity="0.1"/>
    <path id="Path_5862" data-name="Path 5862" d="M416.409,209.2l.206,1.408-.065.011-.219-1.4Z" transform="translate(-281.075 -137.68)" opacity="0.1"/>
    <path id="Path_5863" data-name="Path 5863" d="M416.908,209.12l.2,1.408-.065.011-.216-1.4Z" transform="translate(-281.411 -137.628)" opacity="0.1"/>
    <path id="Path_5864" data-name="Path 5864" d="M417.4,209.03l.206,1.408-.069.014-.216-1.408Z" transform="translate(-281.741 -137.57)" opacity="0.1"/>
    <path id="Path_5865" data-name="Path 5865" d="M417.889,208.95l.206,1.408-.069.014-.216-1.408Z" transform="translate(-282.071 -137.519)" opacity="0.1"/>
    <path id="Path_5866" data-name="Path 5866" d="M418.378,208.87l.206,1.408-.069.011-.216-1.4Z" transform="translate(-282.4 -137.467)" opacity="0.1"/>
    <path id="Path_5867" data-name="Path 5867" d="M418.869,208.79l.206,1.408-.069.011-.216-1.4Z" transform="translate(-282.73 -137.416)" opacity="0.1"/>
    <path id="Path_5868" data-name="Path 5868" d="M419.359,208.7l.206,1.412-.069.011-.216-1.4Z" transform="translate(-283.06 -137.358)" opacity="0.1"/>
    <path id="Path_5869" data-name="Path 5869" d="M419.849,208.62l.206,1.408-.069.014-.216-1.408Z" transform="translate(-283.389 -137.306)" opacity="0.1"/>
    <path id="Path_5870" data-name="Path 5870" d="M420.338,208.54l.206,1.408-.069.014-.216-1.408Z" transform="translate(-283.719 -137.255)" opacity="0.1"/>
    <path id="Path_5871" data-name="Path 5871" d="M420.828,208.46l.206,1.408-.069.011-.216-1.4Z" transform="translate(-284.049 -137.204)" opacity="0.1"/>
    <path id="Path_5872" data-name="Path 5872" d="M421.318,208.38l.206,1.408-.069.011-.216-1.4Z" transform="translate(-284.378 -137.152)" opacity="0.1"/>
    <path id="Path_5873" data-name="Path 5873" d="M421.809,208.29l.206,1.408-.069.014-.216-1.408Z" transform="translate(-284.708 -137.094)" opacity="0.1"/>
    <path id="Path_5874" data-name="Path 5874" d="M422.3,208.21l.206,1.408-.069.014-.216-1.408Z" transform="translate(-285.038 -137.043)" opacity="0.1"/>
    <path id="Path_6069" data-name="Path 6069" d="M.02,0h.04L.04,1.429H0Z" transform="translate(138.291 70.717) rotate(-9.744)" opacity="0.1"/>
    <path id="Path_5875" data-name="Path 5875" d="M412.123,209.579l-.039.007L412,209.6l-.072.014-.088.018-.072.011-.088.018-.072.011-.088.018-.075.014-.088.014-.072.014-.088.014-.072.014-.088.018-.072.011-.088.018-.072.014-.088.014-.072.014-.088.014-.072.014-.088.014-.072.014-.088.018-.072.011-.088.018-.062.011-.01,0-.088.014-.072.014-.088.018-.065.011h-.007l-.088.018-.072.014-.088.014-.072.014-.092.014-.072.014-.088.018-.072.011-.088.018-.072.014-.088.014-.072.014-.088.014-.072.014-.088.014-.072.014-.088.018-.072.011-.088.018-.072.014-.088.014-.072.014-.088.014-.072.014-.088.014-.072.014-.088.018-.072.011-.092.018-.069.014-.092.014-.072.014-.088.014-.072.014-.088.018-.072.011-.124-.809.079-.014.082-.014.079-.014.082-.014.079-.014.406-.075.079-.014.082-.014.079-.014.082-.014.078-.014.242-.046.078-.014.082-.014.078-.014.082-.014.078-.014.082-.014.078-.014.242-.046.079-.014.082-.014.078-.014.082-.014.082-.014.242-.046.078-.014.082-.014.079-.014.082-.014.078-.014.082-.014.078-.014.242-.046.078-.014.082-.014.078-.014.082-.014.078-.014.082-.014.079-.014.082-.018.078-.014.082-.014.078-.014.082-.014.082-.014.082-.014.079-.014.242-.046.078-.014.082-.014.039-.007Z" transform="translate(-274.568 -137.403)" opacity="0.1"/>
    <path id="Path_5876" data-name="Path 5876" d="M561.924,198.49l.216,1.4L443.517,221.552l-.141-.909a.538.538,0,0,1,.448-.592Z" transform="translate(-311.51 -148.72)" fill="#535461"/>
    <path id="Path_5877" data-name="Path 5877" d="M445.031,258.34l-.016,1.451-1.518.275-.151-.98a.458.458,0,0,1,.386-.506Z" transform="translate(-311.49 -187.233)" opacity="0.1"/>
    <path id="Path_5878" data-name="Path 5878" d="M418.4,206.21l-.016,1.451-1.515.275-.219-1.4Z" transform="translate(-281.29 -135.756)" opacity="0.1"/>
    <path id="Path_5879" data-name="Path 5879" d="M429.307,204.39l-.013,1.447-1.518.278-.216-1.408Z" transform="translate(-288.631 -134.584)" opacity="0.1"/>
    <path id="Path_5880" data-name="Path 5880" d="M440.217,202.56l-.016,1.447-1.515.278-.216-1.408Z" transform="translate(-295.972 -133.407)" opacity="0.1"/>
    <path id="Path_5881" data-name="Path 5881" d="M451.12,200.73l-.016,1.451-1.518.275-.216-1.4Z" transform="translate(-303.307 -132.229)" opacity="0.1"/>
    <path id="Path_5882" data-name="Path 5882" d="M462.03,198.9l-.016,1.451-1.518.278-.216-1.408Z" transform="translate(-310.648 -131.052)" opacity="0.1"/>
    <path id="Path_5883" data-name="Path 5883" d="M472.937,197.08l-.013,1.447-1.518.278-.216-1.408Z" transform="translate(-317.989 -129.88)" opacity="0.1"/>
    <path id="Path_5884" data-name="Path 5884" d="M483.847,195.25l-.016,1.447-1.515.278-.216-1.4Z" transform="translate(-325.33 -128.703)" opacity="0.1"/>
    <path id="Path_5885" data-name="Path 5885" d="M494.75,193.42l-.016,1.451-1.518.275-.216-1.4Z" transform="translate(-332.665 -127.525)" opacity="0.1"/>
    <path id="Path_5886" data-name="Path 5886" d="M505.66,191.59l-.016,1.451-1.518.278-.216-1.408Z" transform="translate(-340.006 -126.348)" opacity="0.1"/>
    <path id="Path_5887" data-name="Path 5887" d="M516.56,189.77l-.013,1.447-1.518.278-.219-1.408Z" transform="translate(-347.34 -125.177)" opacity="0.1"/>
    <path id="Path_5888" data-name="Path 5888" d="M527.474,187.94l-.013,1.447-1.515.278-.216-1.4Z" transform="translate(-354.688 -123.999)" opacity="0.1"/>
    <path id="Path_5889" data-name="Path 5889" d="M538.38,186.11l-.02,1.451-1.515.278-.216-1.408Z" transform="translate(-362.022 -122.821)" opacity="0.1"/>
    <path id="Path_5890" data-name="Path 5890" d="M549.29,184.29l-.016,1.447-1.518.278-.216-1.408Z" transform="translate(-369.364 -121.65)" opacity="0.1"/>
    <path id="Path_5891" data-name="Path 5891" d="M560.19,182.46l-.013,1.447-1.521.278-.216-1.408Z" transform="translate(-376.698 -120.473)" opacity="0.1"/>
    <path id="Path_5892" data-name="Path 5892" d="M571.1,180.63l-.013,1.451-1.515.274-.216-1.4Z" transform="translate(-384.046 -119.295)" opacity="0.1"/>
    <path id="Path_5893" data-name="Path 5893" d="M582.01,178.81l-.02,1.447-1.515.278-.216-1.408Z" transform="translate(-391.38 -118.124)" opacity="0.1"/>
    <path id="Path_5894" data-name="Path 5894" d="M592.92,176.98l-.016,1.447-1.518.278-.216-1.408Z" transform="translate(-398.721 -116.946)" opacity="0.1"/>
    <path id="Path_5895" data-name="Path 5895" d="M603.82,175.15l-.013,1.447-1.521.278-.216-1.4Z" transform="translate(-406.056 -115.769)" opacity="0.1"/>
    <path id="Path_5896" data-name="Path 5896" d="M614.727,173.32l-.013,1.451-1.518.275-.216-1.4Z" transform="translate(-413.397 -114.591)" opacity="0.1"/>
    <path id="Path_5897" data-name="Path 5897" d="M625.63,171.5l-.016,1.447-1.515.278-.219-1.408Z" transform="translate(-420.731 -113.42)" opacity="0.1"/>
    <path id="Path_5898" data-name="Path 5898" d="M636.55,169.67l-.02,1.447-1.515.278-.216-1.408Z" transform="translate(-428.079 -112.242)" opacity="0.1"/>
    <path id="Path_5899" data-name="Path 5899" d="M647.45,167.84l-.013,1.447-1.521.278-.216-1.4Z" transform="translate(-435.414 -111.065)" opacity="0.1"/>
    <path id="Path_5900" data-name="Path 5900" d="M658.357,166.01l-.013,1.451-1.518.275-.216-1.4Z" transform="translate(-442.755 -109.887)" opacity="0.1"/>
    <path id="Path_5901" data-name="Path 5901" d="M669.26,164.19l-.016,1.447-1.518.278-.216-1.408Z" transform="translate(-450.089 -108.716)" opacity="0.1"/>
    <path id="Path_5902" data-name="Path 5902" d="M680.177,162.36l-.016,1.447-1.515.278-.216-1.408Z" transform="translate(-457.437 -107.538)" opacity="0.1"/>
    <path id="Path_5903" data-name="Path 5903" d="M691.08,160.53l-.016,1.447-1.518.278-.216-1.4Z" transform="translate(-464.772 -106.361)" opacity="0.1"/>
    <path id="Path_5904" data-name="Path 5904" d="M701.987,158.71l-.013,1.447-1.518.275-.216-1.4Z" transform="translate(-472.113 -105.189)" opacity="0.1"/>
    <path id="Path_5905" data-name="Path 5905" d="M712.89,156.88l-.016,1.447-1.518.278-.216-1.408Z" transform="translate(-479.447 -104.012)" opacity="0.1"/>
    <path id="Path_5906" data-name="Path 5906" d="M723.8,155.05l-.016,1.447-1.515.278-.219-1.408Z" transform="translate(-486.788 -102.834)" opacity="0.1"/>
    <path id="Path_5907" data-name="Path 5907" d="M734.707,153.22l-.013,1.451-1.518.274-.216-1.4Z" transform="translate(-494.129 -101.657)" opacity="0.1"/>
    <path id="Path_5908" data-name="Path 5908" d="M745.617,151.4l-.016,1.447-1.514.278-.216-1.408Z" transform="translate(-501.471 -100.485)" opacity="0.1"/>
    <path id="Path_5909" data-name="Path 5909" d="M756.52,149.57l-.016,1.447-1.518.278-.216-1.4Z" transform="translate(-508.805 -99.308)" opacity="0.1"/>
    <path id="Path_6070" data-name="Path 6070" d="M.019.013.911,0,.892,1.423,0,1.436Z" transform="translate(249.515 49.921) rotate(-9.51)" opacity="0.1"/>
    <path id="Path_5910" data-name="Path 5910" d="M823.442,210.039l-1.053,1.75-3.853,2.442s-1.142,1.009-3.474-1.807c-1.116-1.348-2.421-2.7-3.474-3.736a21.509,21.509,0,0,1-3.425-4.392,22.081,22.081,0,0,0-2.617-3.811,13.742,13.742,0,0,1-1.963-2.25s-8.126-1.155-6.431-4.217a3.9,3.9,0,0,1,4.171-1.736,4.222,4.222,0,0,1,2.82,1.651,14.549,14.549,0,0,0,1.609,1.847,5.15,5.15,0,0,1,1.259,1.889l3.153,2.734a59.238,59.238,0,0,1,5.682,4.175,7.679,7.679,0,0,0,2.659,1.608Z" transform="translate(-549.404 -144.693)" fill="#fbbebe"/>
    <path id="Path_5911" data-name="Path 5911" d="M868.7,205.127l-.546,1.889s-2.548,2.795-2.882,3.116-4.907-4.9-5.1-6.31.958-1.251,1.328-1.733a7.786,7.786,0,0,0,1.4-2.014,6.265,6.265,0,0,1,1.521-2.178,4.034,4.034,0,0,0,.949-1.85c.258-.806,1.07-.688,1.328-.713s3.242-6.524,5.532-6.007a12.014,12.014,0,0,1,3.4,1.205Z" transform="translate(-591.945 -142.805)" opacity="0.1"/>
    <path id="Path_5912" data-name="Path 5912" d="M869.406,205.407l-.546,1.875s-2.548,2.8-2.882,3.119-4.907-4.9-5.1-6.31.959-1.251,1.325-1.733a7.884,7.884,0,0,0,1.4-2.014,6.3,6.3,0,0,1,1.518-2.178,4.083,4.083,0,0,0,.952-1.85c.259-.8,1.07-.688,1.328-.713s3.242-6.528,5.532-6.007a12.238,12.238,0,0,1,3.389,1.194Z" transform="translate(-592.423 -142.978)" fill="#7b7bdb"/>
    <path id="Path_6071" data-name="Path 6071" d="M.059.243,5.712,0,5.653,1.367,0,1.61Z" transform="matrix(0.708, -0.706, 0.706, 0.708, 246.916, 50.557)" fill="#535461"/>
    <path id="Path_5913" data-name="Path 5913" d="M758.426,150.65l.916,1.02-.049.053-.923-1.012Z" transform="translate(-511.227 -100.003)" opacity="0.1"/>
    <path id="Path_5914" data-name="Path 5914" d="M758.776,150.3l.916,1.016-.049.053-.922-1.009Z" transform="translate(-511.463 -99.778)" opacity="0.1"/>
    <path id="Path_5915" data-name="Path 5915" d="M759.125,149.95l.916,1.016-.049.053-.923-1.009Z" transform="translate(-511.698 -99.552)" opacity="0.1"/>
    <path id="Path_5916" data-name="Path 5916" d="M759.479,149.6l.916,1.016-.049.053-.926-1.009Z" transform="translate(-511.934 -99.327)" opacity="0.1"/>
    <path id="Path_5917" data-name="Path 5917" d="M759.836,149.25l.916,1.016-.049.053-.923-1.009Z" transform="translate(-512.176 -99.102)" opacity="0.1"/>
    <path id="Path_5918" data-name="Path 5918" d="M760.186,148.89l.916,1.02-.049.053-.922-1.012Z" transform="translate(-512.412 -98.87)" opacity="0.1"/>
    <path id="Path_5919" data-name="Path 5919" d="M760.535,148.54l.919,1.02-.052.053-.923-1.012Z" transform="translate(-512.647 -98.645)" opacity="0.1"/>
    <path id="Path_5920" data-name="Path 5920" d="M760.889,148.19l.916,1.02-.049.053-.926-1.012Z" transform="translate(-512.883 -98.42)" opacity="0.1"/>
    <path id="Path_5921" data-name="Path 5921" d="M761.246,147.84l.916,1.02-.049.05-.922-1.009Z" transform="translate(-513.125 -98.195)" opacity="0.1"/>
    <path id="Path_5922" data-name="Path 5922" d="M761.6,147.49l.916,1.016-.049.053-.922-1.009Z" transform="translate(-513.36 -97.969)" opacity="0.1"/>
    <path id="Path_5923" data-name="Path 5923" d="M761.946,147.14l.916,1.016-.049.053-.923-1.009Z" transform="translate(-513.596 -97.744)" opacity="0.1"/>
    <path id="Path_5924" data-name="Path 5924" d="M762.3,146.79l.916,1.016-.049.053-.926-1.009Z" transform="translate(-513.832 -97.519)" opacity="0.1"/>
    <path id="Path_5925" data-name="Path 5925" d="M762.656,146.43l.916,1.02-.049.053-.922-1.009Z" transform="translate(-514.074 -97.287)" opacity="0.1"/>
    <path id="Path_5926" data-name="Path 5926" d="M763.006,146.08l.916,1.02-.049.053-.922-1.012Z" transform="translate(-514.309 -97.062)" opacity="0.1"/>
    <path id="Path_5927" data-name="Path 5927" d="M763.356,145.73l.916,1.02-.049.053-.922-1.012Z" transform="translate(-514.545 -96.837)" opacity="0.1"/>
    <path id="Path_5928" data-name="Path 5928" d="M763.709,145.38l.916,1.02-.049.053-.926-1.012Z" transform="translate(-514.78 -96.612)" opacity="0.1"/>
    <path id="Path_5929" data-name="Path 5929" d="M764.059,145.03l.916,1.016-.049.053L764,145.091Z" transform="translate(-515.016 -96.386)" opacity="0.1"/>
    <path id="Path_5930" data-name="Path 5930" d="M764.416,144.68l.916,1.016-.049.053-.923-1.009Z" transform="translate(-515.258 -96.161)" opacity="0.1"/>
    <path id="Path_5931" data-name="Path 5931" d="M764.766,144.33l.916,1.016-.049.053-.923-1.009Z" transform="translate(-515.493 -95.936)" opacity="0.1"/>
    <path id="Path_5932" data-name="Path 5932" d="M765.119,143.98l.916,1.016-.049.053-.926-1.009Z" transform="translate(-515.729 -95.711)" opacity="0.1"/>
    <path id="Path_5933" data-name="Path 5933" d="M765.469,143.62l.916,1.02-.049.053-.926-1.009Z" transform="translate(-515.964 -95.479)" opacity="0.1"/>
    <path id="Path_5934" data-name="Path 5934" d="M765.826,143.27l.916,1.02-.049.053-.922-1.012Z" transform="translate(-516.207 -95.254)" opacity="0.1"/>
    <path id="Path_5935" data-name="Path 5935" d="M766.176,142.92l.916,1.02-.049.053-.922-1.012Z" transform="translate(-516.442 -95.029)" opacity="0.1"/>
    <path id="Path_5936" data-name="Path 5936" d="M766.526,142.57l.919,1.02-.049.053-.926-1.012Z" transform="translate(-516.678 -94.803)" opacity="0.1"/>
    <path id="Path_5937" data-name="Path 5937" d="M766.886,142.22l.916,1.016-.049.053-.922-1.009Z" transform="translate(-516.92 -94.578)" opacity="0.1"/>
    <path id="Path_5938" data-name="Path 5938" d="M767.236,141.87l.916,1.016-.049.053-.922-1.009Z" transform="translate(-517.156 -94.353)" opacity="0.1"/>
    <path id="Path_5939" data-name="Path 5939" d="M767.586,141.52l.916,1.016-.049.053-.922-1.009Z" transform="translate(-517.391 -94.128)" opacity="0.1"/>
    <path id="Path_5940" data-name="Path 5940" d="M767.936,141.16l.919,1.02-.049.053-.926-1.009Z" transform="translate(-517.627 -93.896)" opacity="0.1"/>
    <path id="Path_5941" data-name="Path 5941" d="M768.3,140.81l.916,1.02-.049.053-.922-1.009Z" transform="translate(-517.869 -93.671)" opacity="0.1"/>
    <path id="Path_5942" data-name="Path 5942" d="M768.646,140.46l.916,1.02-.049.053-.922-1.012Z" transform="translate(-518.104 -93.446)" opacity="0.1"/>
    <path id="Path_5943" data-name="Path 5943" d="M769,140.11l.916,1.02-.049.053-.922-1.012Z" transform="translate(-518.34 -93.22)" opacity="0.1"/>
    <path id="Path_5944" data-name="Path 5944" d="M769.349,139.76l.916,1.02-.049.05-.926-1.009Z" transform="translate(-518.575 -92.995)" opacity="0.1"/>
    <path id="Path_5945" data-name="Path 5945" d="M769.7,139.41l.916,1.016-.049.053-.926-1.009Z" transform="translate(-518.811 -92.77)" opacity="0.1"/>
    <path id="Path_6072" data-name="Path 6072" d="M.059,0,.1,0,.041,1.367,0,1.369Z" transform="matrix(0.708, -0.706, 0.706, 0.708, 250.892, 46.595)" opacity="0.1"/>
    <path id="Path_5946" data-name="Path 5946" d="M591.174,244.032c-.507,2.684-3.153,5.872-3.153,5.872a20.434,20.434,0,0,1-.406-6.67c.507-2.684,1.43-2.774,2.411-2.553S591.681,241.347,591.174,244.032Z" transform="translate(-408.463 -175.82)" fill="#e53227"/>
    <path id="Path_5947" data-name="Path 5947" d="M595.11,244.28s1.024.8.288,1.6Z" transform="translate(-413.61 -178.186)" fill="#fff" opacity="0.2"/>
    <path id="Path_5948" data-name="Path 5948" d="M571.813,201.813c-.507,2.684-3.157,5.872-3.157,5.872a20.482,20.482,0,0,1-.4-6.67c.507-2.681,1.426-2.774,2.411-2.553S572.32,199.128,571.813,201.813Z" transform="translate(-395.435 -148.652)" fill="#e53227"/>
    <path id="Path_5949" data-name="Path 5949" d="M575.74,202.06s1.024.8.288,1.6Z" transform="translate(-400.576 -151.017)" fill="#fff" opacity="0.2"/>
    <path id="Path_5950" data-name="Path 5950" d="M529.418,209.091c1.2,2.41,1.057,6.706,1.057,6.706a18.189,18.189,0,0,1-4.253-4.816c-1.2-2.406-.546-3.123.327-3.643S528.221,206.685,529.418,209.091Z" transform="translate(-366.816 -154.213)" fill="#e53227"/>
    <path id="Path_5951" data-name="Path 5951" d="M530.68,210.656s1.256-.1,1.168,1.027Z" transform="translate(-370.256 -156.547)" fill="#fff" opacity="0.2"/>
    <path id="Path_5952" data-name="Path 5952" d="M533.788,156.921c1.2,2.41,1.06,6.706,1.06,6.706a18.131,18.131,0,0,1-4.253-4.816c-1.2-2.406-.546-3.123.327-3.643S532.577,154.515,533.788,156.921Z" transform="translate(-369.759 -120.641)" fill="#e53227" opacity="0.6"/>
    <path id="Path_5953" data-name="Path 5953" d="M535.05,158.486s1.256-.1,1.164,1.027Z" transform="translate(-373.197 -122.975)" fill="#fff" opacity="0.2"/>
    <path id="Path_5954" data-name="Path 5954" d="M513.642,289.389c2.417-.752,6.238.328,6.238.328s-2.82,2.727-5.234,3.479-2.915-.093-3.193-1.144S511.228,290.149,513.642,289.389Z" transform="translate(-357.242 -207.042)" fill="#e53227"/>
    <path id="Path_5955" data-name="Path 5955" d="M514.83,293.972s.18-1.358,1.174-1.02Z" transform="translate(-359.591 -209.471)" fill="#fff" opacity="0.2"/>
    <path id="Path_5956" data-name="Path 5956" d="M358.26,237.869c2.417-.752,6.235.328,6.235.328s-2.82,2.727-5.234,3.48-2.918-.093-3.193-1.144S355.849,238.625,358.26,237.869Z" transform="translate(-252.687 -173.889)" fill="#e53227" opacity="0.6"/>
    <path id="Path_5957" data-name="Path 5957" d="M359.47,242.452s.18-1.358,1.171-1.02Z" transform="translate(-255.052 -176.318)" fill="#fff" opacity="0.2"/>
    <path id="Path_5958" data-name="Path 5958" d="M324.964,270.218c2.417-.752,6.235.324,6.235.324s-2.82,2.727-5.234,3.483-2.915-.093-3.189-1.144S322.546,270.974,324.964,270.218Z" transform="translate(-230.284 -194.705)" fill="#e53227" opacity="0.8"/>
    <path id="Path_5959" data-name="Path 5959" d="M326.15,274.8s.177-1.362,1.171-1.023Z" transform="translate(-232.632 -197.129)" fill="#fff" opacity="0.2"/>
    <path id="Path_5960" data-name="Path 5960" d="M440.425,174.185c2.417-.756,6.235.324,6.235.324s-2.816,2.727-5.234,3.483-2.915-.1-3.193-1.144S438.008,174.938,440.425,174.185Z" transform="translate(-307.973 -132.907)" fill="#e53227" opacity="0.8"/>
    <path id="Path_5961" data-name="Path 5961" d="M441.62,178.762s.18-1.358,1.174-1.02Z" transform="translate(-310.329 -135.334)" fill="#fff" opacity="0.2"/>
    <path id="Path_5962" data-name="Path 5962" d="M324.573,348.674c-.095-2.738,1.776-6.524,1.776-6.524a19.99,19.99,0,0,1,1.855,6.374c.095,2.738-.779,3.062-1.78,3.105S324.668,351.412,324.573,348.674Z" transform="translate(-231.568 -241.165)" fill="#e53227" opacity="0.6"/>
    <path id="Path_5963" data-name="Path 5963" d="M328.009,362.653s-1.171-.513-.631-1.483Z" transform="translate(-233.362 -253.404)" fill="#fff" opacity="0.2"/>
    <path id="Path_5964" data-name="Path 5964" d="M202.6,348.674c-.095-2.738,1.779-6.524,1.779-6.524a20.02,20.02,0,0,1,1.851,6.374c.095,2.738-.779,3.062-1.779,3.105S202.7,351.412,202.6,348.674Z" transform="translate(-149.496 -241.165)" fill="#e53227" opacity="0.6"/>
    <path id="Path_5965" data-name="Path 5965" d="M206.039,362.653s-1.171-.513-.631-1.483Z" transform="translate(-151.29 -253.404)" fill="#fff" opacity="0.2"/>
    <path id="Path_5966" data-name="Path 5966" d="M244.438,305.29c1.858-1.843,5.721-2.72,5.721-2.72s-1.416,3.807-3.271,5.651-2.653,1.323-3.327.513S242.576,307.133,244.438,305.29Z" transform="translate(-176.706 -215.695)" fill="#e53227" opacity="0.3"/>
    <path id="Path_5967" data-name="Path 5967" d="M246.658,314.51s-.393-1.3.635-1.479Z" transform="translate(-179.093 -222.426)" fill="#fff" opacity="0.2"/>
    <path id="Path_5968" data-name="Path 5968" d="M546.835,311.554c1.963-1.729,5.849-2.374,5.849-2.374s-1.606,3.715-3.539,5.447-2.715,1.162-3.35.314S544.892,313.283,546.835,311.554Z" transform="translate(-380.111 -219.949)" fill="#e53227" opacity="0.5"/>
    <path id="Path_5969" data-name="Path 5969" d="M548.949,320.206s-.327-1.326.71-1.426Z" transform="translate(-382.516 -226.126)" fill="#fff" opacity="0.2"/>
    <path id="Path_5970" data-name="Path 5970" d="M477.037,358.824c1.963-1.729,5.852-2.374,5.852-2.374s-1.609,3.715-3.559,5.444-2.715,1.166-3.346.317S475.088,360.568,477.037,358.824Z" transform="translate(-333.14 -250.367)" fill="#e53227"/>
    <path id="Path_5971" data-name="Path 5971" d="M479.169,367.476s-.327-1.326.71-1.426Z" transform="translate(-335.563 -256.544)" fill="#fff" opacity="0.2"/>
    <path id="Path_5972" data-name="Path 5972" d="M419.1,347.35c1.308-2.353,4.756-4.41,4.756-4.41a20.231,20.231,0,0,1-1.636,6.442c-1.289,2.353-2.188,2.1-3.049,1.54S417.809,349.7,419.1,347.35Z" transform="translate(-294.647 -241.673)" fill="#e53227" opacity="0.5"/>
    <path id="Path_5973" data-name="Path 5973" d="M421.7,359.215s-.723-1.123.216-1.615Z" transform="translate(-296.749 -251.107)" fill="#fff" opacity="0.2"/>
    <path id="Path_5974" data-name="Path 5974" d="M151.172,367.925c-.815-.289-5.6-4.335-5.96-6.164s2.529-18.87,2.529-18.87a5.712,5.712,0,0,1-.69-.057v-.275l.592-22.392s2.437-15.019-2.169-14.153-1.714,14.153-1.714,14.153-.527,6.741-.9,8.763c-.357,1.946-1.963,9.889-.864,12.356a1.831,1.831,0,0,0,.134.257h0s.18,8.471-1.806,9.626c-1.9,1.105-2.686,6.642-2.754,7.13l-.1-.046h0A5.688,5.688,0,0,1,136,356.827c-.039-.057-.072-.118-.108-.178a8.68,8.68,0,0,0-.209-11.219c-.062-.068-.124-.135-.19-.2a1.457,1.457,0,0,0,.327-.6c.353-1.152-.86-2.075-1.485-2.8-1.462-1.683-2.771-3.754-4.8-4.7a8.324,8.324,0,0,1,1.609,1.3,6.682,6.682,0,0,0-2.067-1.333,6.843,6.843,0,0,0-6.418,1.233A18.911,18.911,0,0,0,118.2,343.7l-.608.98a15.516,15.516,0,0,0-1.724-1.782,34.89,34.89,0,0,1-3.523-4.143s-7.314-8.086-7.851-10.3S96.638,312.956,95,315.27s5.6,12.421,5.6,12.421a23.2,23.2,0,0,0,2.44,4.913c1.083,1.251,9.12,13.768,9.12,13.768l.68,1.5.128.282a.413.413,0,0,1-.085-.05v1.829l.749.075a7.75,7.75,0,0,0-.913,1.069,7.174,7.174,0,0,0-.893,2.121,21.569,21.569,0,0,0,.824,13.062,11.1,11.1,0,0,1,.772,2.61,13.442,13.442,0,0,1-.484,3.783,8.16,8.16,0,0,0,.5,5.262,5.5,5.5,0,0,0,5.738,2.788,6.273,6.273,0,0,0,2.79-1.29,7.944,7.944,0,0,0,2.427-3.077c.415-.92.654-1.911,1.083-2.834.079-.175.167-.357.255-.517.936,1.119,1.783,2.164,1.783,2.164s1.986,10.4.271,13.287a17.32,17.32,0,0,1-3.271,3.85,6.833,6.833,0,0,0-.873.955c-.17.132-.272.2-.272.2s-.043.139-.111.357a6.939,6.939,0,0,0-.86,2.139,1.523,1.523,0,0,0-.062.6c.121.267-.883,1.369-.589,1.832-2.509,3.134-2.983,7.893-2.983,7.893l-4.576,7.383c-2.349,6.592-5.868,7.269-5.868,7.269s-8.263-5.911-8.489-6.2a31.279,31.279,0,0,0-3.392-1.736,3.677,3.677,0,0,0-1.636-1.586c-1.086-.481-1.174-2.264-1.174-2.264-.134-4.189-2.437-4.524-2.437-4.524a7.1,7.1,0,0,0-4.37.831l-.327.029c-1.6.135-3.53.292-5.643.438-5.888.417-7.269,4.478-7.269,4.478a1.3,1.3,0,0,0,.222,1.8c.945.938,7.007.018,7.262-.021a3.478,3.478,0,0,1-1.377-.1c.955-.036,2.267-.071,3.382-.075h.281a16.77,16.77,0,0,0-.1,1.907c0,1.205,3.117,1.975,3.117,1.975l9.486,9a37.666,37.666,0,0,1,9.755,6.93c3.795,4.078,7.134.578,7.134.578,4.014-1.07,15.564-15.968,15.574-15.982h0c0,.456.242,14.937.71,17.846h0a2.079,2.079,0,0,0,.121.439c.543,1.251-.183,4.67-.5,6.114a17.942,17.942,0,0,0-.226,3.658s-4.351,17.679-3.991,19.222-2.345,8.763-2.345,8.763v6.014s.17,0,.471-.021a2.484,2.484,0,0,0-.17.3.41.41,0,0,0-.029.064,18.74,18.74,0,0,0,4.828.481c1.94-.193,5.283,1.6,5.283,1.6a14,14,0,0,0,4.606.809c3.477.242,3.477-1.64,3.477-1.64-.4-2.56-5.888-3.415-6.062-3.437-.442-.3-.86-.624-1.2-.9l-.075-.061a.9.9,0,0,0,.062-.171c.589-2.553-2.663-3.661-2.663-3.661v-.624c2.123-1.159,2.529-9.1,2.529-9.1s3.163-9.818,3.6-11.454a11.8,11.8,0,0,0,0-4.1l.327-2.114a10.923,10.923,0,0,0,.677-1.736,4.451,4.451,0,0,1,.769-2.021c.5-.627-.543-2.118-.543-2.118l.9-2.5v-2.745l2.123-9.982s2.211-11.593,1.449-15.38.9-5.733.9-5.733c-.16.089-.327.164-.465.228a15.075,15.075,0,0,0,.546-1.6l4.746.631v.071H149.9s-.543-7.13-.543-10.011,1.809-13.191,1.809-13.191S151.983,368.214,151.172,367.925Zm-21.086-8.463v.118c0,.282-.026.574-.043.87l-.095.157-.173-.157-.219.357h0a1.474,1.474,0,0,1,.37-1.255,1.141,1.141,0,0,1,.16-.089Zm15.8,33.358h.1l-.17.471c.02-.143.043-.3.065-.456Zm-17.337,85.2-.654-.175.36-.064.327.232.043.029Zm6.614-1.012c-.216-.121-.432-.257-.654-.4a7.624,7.624,0,0,1,.648.4Z" transform="translate(-62.508 -217.889)" fill="url(#linear-gradient-2)"/>
    <path id="Path_5975" data-name="Path 5975" d="M248.1,479.09l-4.141,11.758h1l-3.893,3.383,7.03.955Z" transform="translate(-163.145 -311.353)" fill="#f86d70"/>
    <path id="Path_5976" data-name="Path 5976" d="M248.1,479.09l-4.141,11.758-1.043-.307-1.845,3.69,7.03.955Z" transform="translate(-163.145 -311.353)" opacity="0.1"/>
    <path id="Path_5977" data-name="Path 5977" d="M242.71,461.619H249.2l2.381-21.369H242.71Z" transform="translate(-164.249 -286.36)" fill="#f86d70"/>
    <path id="Path_5978" data-name="Path 5978" d="M242.71,461.619H249.2l2.381-21.369H242.71Z" transform="translate(-164.249 -286.36)" opacity="0.1"/>
    <path id="Path_5979" data-name="Path 5979" d="M240.009,462.586l1.4-.26,3.222-.6s9.673-2.374,11.678-2.563a11.632,11.632,0,0,0,3.5-1.087c.523-.246.854-.435.854-.435l-3.484-6.934-5.4-4.367s-3.418-.791-4.868-2.959a3.773,3.773,0,0,1-.448-3.308c.883-2.984-5.267,2.852-5.267,2.852s.059,1.4,0,3.18c0,.356-.029.713-.052,1.087,0,.246-.036.492-.056.741a12.842,12.842,0,0,1-1.066,4.677C238.527,455.271,240.009,462.586,240.009,462.586Z" transform="translate(-174.227 -303.634)" fill="#714246"/>
    <path id="Path_5980" data-name="Path 5980" d="M245,446.479h.137c.245,0,.445-.567.684-.6,1.923-.2,3.68-.642,4.907-2.139a3.773,3.773,0,0,1-.445-3.308c.88-2.984-5.27,2.852-5.27,2.852S245.049,444.7,245,446.479Z" transform="translate(-178.027 -303.865)" opacity="0.1"/>
    <path id="Path_5981" data-name="Path 5981" d="M222.06,420.48a8.554,8.554,0,0,0,2.2,5.779,7.194,7.194,0,0,0,5.306,2.388,6.174,6.174,0,0,0,.729-.039c4.022-.431,7.006-4.261,6.742-8.656s-3.678-7.77-7.718-7.628-7.247,3.752-7.249,8.156Z" transform="translate(-162.591 -286.319)" fill="#714246"/>
    <path id="Path_5982" data-name="Path 5982" d="M222.06,420.482a8.554,8.554,0,0,0,2.2,5.779,7.194,7.194,0,0,0,5.306,2.388,6.194,6.194,0,0,0,.729-.039.912.912,0,0,0,.347-.267,1.286,1.286,0,0,0,.134-.995c-.294-1.6-1.636-2.742-2.1-4.278a5.691,5.691,0,0,1,.54-4.168,15.643,15.643,0,0,1,2.538-3.323,1.6,1.6,0,0,1,.582-.456c.8-.274,2.005.492,2.637-.289a7.062,7.062,0,0,0-8.2-1.923,8.2,8.2,0,0,0-4.7,7.577Z" transform="translate(-162.591 -286.32)" opacity="0.1"/>
    <path id="Path_5983" data-name="Path 5983" d="M209.906,404.013a1.562,1.562,0,0,0-.582.456,15.535,15.535,0,0,0-2.538,3.319,5.7,5.7,0,0,0-.54,4.171c.478,1.544,1.806,2.688,2.1,4.278a1.286,1.286,0,0,1-.134.995c-.255.339-.726.357-1.05.617a1.511,1.511,0,0,0-.376,1.522,6.861,6.861,0,0,0,.687,1.5,4.8,4.8,0,0,1,.239,4.417,6.831,6.831,0,0,1-1.253,1.426,20.572,20.572,0,0,0-2.182,2.5,12.373,12.373,0,0,0-1.456,2.428c-.4.909-.654,1.886-1.047,2.8a6.971,6.971,0,0,1-4.907,4.2,5.269,5.269,0,0,1-5.538-2.752,8.3,8.3,0,0,1-.487-5.187,13.668,13.668,0,0,0,.471-3.733,11.074,11.074,0,0,0-.746-2.574,21.732,21.732,0,0,1-.8-12.888,7.18,7.18,0,0,1,.864-2.089A12.125,12.125,0,0,1,192,407.856a34.173,34.173,0,0,0,3.925-5.7,18.628,18.628,0,0,1,4.315-5.3,6.482,6.482,0,0,1,6.186-1.212c2.143.852,3.464,3.03,4.949,4.781.605.713,1.776,1.622,1.436,2.759C212.33,404.811,210.845,403.692,209.906,404.013Z" transform="translate(-140.434 -275.36)" fill="#453034"/>
    <path id="Path_5984" data-name="Path 5984" d="M205.137,438.939a7.015,7.015,0,0,0,4.907-4.2c.4-.906.654-1.886,1.047-2.8a12.477,12.477,0,0,1,1.456-2.428,20.54,20.54,0,0,1,2.182-2.5,6.848,6.848,0,0,0,1.253-1.426,4.764,4.764,0,0,0-.236-4.417,6.623,6.623,0,0,1-.69-1.494,1.511,1.511,0,0,1,.376-1.526c.327-.257.8-.278,1.05-.617a1.289,1.289,0,0,0,.137-.991c-.3-1.6-1.636-2.741-2.1-4.278a5.694,5.694,0,0,1,.536-4.167,15.341,15.341,0,0,1,2.538-3.319,1.562,1.562,0,0,1,.582-.456c.939-.324,2.424.777,2.9-.834.327-1.137-.831-2.046-1.436-2.759-1.279-1.508-2.44-3.33-4.105-4.353,1.963.934,3.222,2.977,4.629,4.634.605.713,1.776,1.622,1.436,2.759-.481,1.611-1.963.51-2.9.834a1.536,1.536,0,0,0-.582.456,15.447,15.447,0,0,0-2.538,3.319,5.7,5.7,0,0,0-.54,4.168c.478,1.544,1.806,2.688,2.1,4.278a1.282,1.282,0,0,1-.134.995c-.255.339-.726.357-1.05.617a1.511,1.511,0,0,0-.376,1.526,6.76,6.76,0,0,0,.687,1.494,4.8,4.8,0,0,1,.239,4.417,6.847,6.847,0,0,1-1.253,1.426,20.26,20.26,0,0,0-2.182,2.5,12.543,12.543,0,0,0-1.459,2.428c-.4.909-.654,1.889-1.044,2.795a6.971,6.971,0,0,1-4.907,4.2,5.245,5.245,0,0,1-3.66-.713A5.216,5.216,0,0,0,205.137,438.939Z" transform="translate(-149.093 -276.062)" opacity="0.1"/>
    <path id="Path_5985" data-name="Path 5985" d="M235.9,779.7l1.308.941.2.146.039.028,1.547,1.116,3.615.663,3.183-.239s.913-2.085-.523-2.039a2.854,2.854,0,0,1-1.308-.41l-.2-.111h0c-.206-.121-.415-.257-.622-.4h0c-.425-.292-.831-.613-1.155-.888-.478-.4-.795-.713-.795-.713Z" transform="translate(-171.904 -521.505)" fill="#714246"/>
    <path id="Path_5986" data-name="Path 5986" d="M239.9,784.444l.2.146.039.029,1.547,1.116,3.615.663,3.183-.239s.913-2.085-.523-2.039a2.854,2.854,0,0,1-1.308-.41,1.245,1.245,0,0,1,.487.649c.056.531-2.355,1.5-2.355,1.5l-3.405-.973s-.576-.182-1.371-.4l-.075-.021Z" transform="translate(-174.595 -525.308)" opacity="0.1"/>
    <path id="Path_5987" data-name="Path 5987" d="M222.18,784.427a17.785,17.785,0,0,0,4.661.474c1.871-.189,5.093,1.579,5.093,1.579a13.2,13.2,0,0,0,4.442.795c3.353.235,3.356-1.615,3.356-1.615-.386-2.524-5.682-3.365-5.849-3.391h0c.069.039.327.193.622.4h0c.376.267.782.617.815.9.056.535-2.355,1.5-2.355,1.5l-3.4-.977s-.576-.182-1.371-.4l-.075-.021a26.979,26.979,0,0,0-3.562-.809,2.465,2.465,0,0,0-2.368,1.5Z" transform="translate(-162.672 -524.381)" fill="#b07473"/>
    <path id="Path_5988" data-name="Path 5988" d="M87.92,592.677l1.482,1.233s.429-.021,1.07-.043h.206c.922-.036,2.188-.075,3.271-.075a9.874,9.874,0,0,1,2.084.125c.739.285,2.044-4.6,2.044-4.6l-1.485-.381-.491-.125-.327-.089-1.21-.31-3.674.446-2.571,1.8Z" transform="translate(-72.331 -399.633)" fill="#714246"/>
    <path id="Path_5989" data-name="Path 5989" d="M87.92,592.722l1.482,1.234s.429-.021,1.07-.043a1.356,1.356,0,0,1-.677-.667c-.958-2.9,3.788-4.132,3.788-4.132l2.215-.093.429-.018h.36l-.491-.125-.327-.089-1.21-.31-3.667.421-2.571,1.8Z" transform="translate(-72.331 -399.678)" opacity="0.1"/>
    <path id="Path_5990" data-name="Path 5990" d="M78.03,591.3c.9.906,6.762,0,7.01-.021a3.462,3.462,0,0,1-1.331-.1,1.48,1.48,0,0,1-1.014-.8c-.958-2.9,3.791-4.132,3.791-4.132l2.211-.107h.429l5.375-.257.262-1.615s-1.747.185-4.488.421c-1.544.135-3.405.289-5.447.435-5.666.41-7.013,4.417-7.013,4.417A1.28,1.28,0,0,0,78.03,591.3Z" transform="translate(-65.358 -396.969)" fill="#b07473"/>
    <path id="Path_5991" data-name="Path 5991" d="M279.379,345.007a2.21,2.21,0,0,0,.128.253l1.308,2.089,3.4.382.036-1.469.572-22.085s2.352-14.816-2.09-13.961-1.655,13.961-1.655,13.961-.507,6.649-.864,8.642C279.87,334.739,278.319,342.557,279.379,345.007Z" transform="translate(-200.914 -220.592)" fill="#714246"/>
    <path id="Path_5992" data-name="Path 5992" d="M256.81,559.109l.981,1.8,2.166,4.036s3.925,1.565,4.926.378c.553-.652,1.145-2.927,1.567-4.834.327-1.547.569-2.852.569-2.852Z" transform="translate(-185.974 -379.832)" fill="#714246"/>
    <path id="Path_5993" data-name="Path 5993" d="M256.81,559.109l.981,1.8a1.506,1.506,0,0,0,.167-.193c1.093-1.522,5.908-.321,8.505-.228.327-1.547.569-2.852.569-2.852Z" transform="translate(-185.974 -379.832)" opacity="0.1"/>
    <path id="Path_5994" data-name="Path 5994" d="M106.33,591.115a9.882,9.882,0,0,1,2.084.125c.739.285,2.044-4.6,2.044-4.6l-1.963-.506,5.375-.257.262-1.615s-1.747.185-4.488.421a5.707,5.707,0,0,0-1.492,1.362l-.085.107A10.269,10.269,0,0,0,106.33,591.115Z" transform="translate(-84.718 -396.962)" opacity="0.1"/>
    <path id="Path_5995" data-name="Path 5995" d="M235.9,779.655l1.508,1.069c2.251-.442,4.3-1.141,4.547-2.228a.322.322,0,0,0,0-.054c-.478-.4-.795-.713-.795-.713Z" transform="translate(-171.904 -521.46)" opacity="0.1"/>
    <path id="Path_5996" data-name="Path 5996" d="M222.27,785.4a47.431,47.431,0,0,0,5.931-.692,26.988,26.988,0,0,0-3.562-.809A2.454,2.454,0,0,0,222.27,785.4Z" transform="translate(-162.732 -525.422)" opacity="0.1"/>
    <path id="Path_5997" data-name="Path 5997" d="M106.83,575.811c0,1.187,3.006,1.946,3.006,1.946l9.159,8.88a35.989,35.989,0,0,1,9.411,6.838c3.66,4.036,6.869.57,6.869.57,3.876-1.044,15.031-15.765,15.031-15.765s.262,16.809.785,18.043-.173,4.606-.478,6.032a18.025,18.025,0,0,0-.219,3.608s-4.184,17.426-3.834,18.948-2.267,8.642-2.267,8.642v5.936s10.239-.428,10.795-2.945-2.552-3.611-2.552-3.611v-.617c2.048-1.141,2.437-8.977,2.437-8.977s3.052-9.686,3.487-11.3a11.452,11.452,0,0,0,0-4.036l.3-2.089a10.876,10.876,0,0,0,.654-1.711,4.445,4.445,0,0,1,.743-1.993c.478-.617-.523-2.089-.523-2.089l.87-2.471v-2.706l2.048-9.829s2.136-11.444,1.394-15.194.873-5.654.873-5.654c-3.5,2-5.26-2.442-5.839-4.357-.147-.492-.219-.816-.219-.816a22.652,22.652,0,0,0-9.274-1.472,10.051,10.051,0,0,0-2.663.617c-4.969,1.947-5.751,10.018-5.751,10.018l-4.4,7.315c-2.264,6.5-5.662,7.169-5.662,7.169s-7.975-5.84-8.178-6.125a28.556,28.556,0,0,0-3.271-1.711,3.589,3.589,0,0,0-1.57-1.565c-1.047-.474-1.132-2.235-1.132-2.235-.131-4.128-2.352-4.46-2.352-4.46C106.787,565.936,106.83,574.624,106.83,575.811Z" transform="translate(-85.055 -379.775)" fill="#444053"/>
    <rect id="Rectangle_2504" data-name="Rectangle 2504" width="4.707" height="15.907" transform="translate(70.836 172.817) rotate(180)" fill="#f86d70"/>
    <rect id="Rectangle_2505" data-name="Rectangle 2505" width="4.707" height="15.907" transform="translate(70.836 172.817) rotate(180)" opacity="0.1"/>
    <path id="Path_5998" data-name="Path 5998" d="M280.119,407.78a.246.246,0,0,0,0,.032,2.191,2.191,0,0,0,.128.253l1.308,2.089,3.4.381.036-1.469A12.91,12.91,0,0,1,280.119,407.78Z" transform="translate(-201.658 -283.397)" opacity="0.1"/>
    <path id="Path_5999" data-name="Path 5999" d="M271.463,408.58s.173,8.356-1.743,9.494-2.659,7.084-2.659,7.084,5.8,4.168,7.105,6,4.269,6.2,3.66,7.248,1.482,5.793,1.482,5.793-3.834,8.556-2.964,11.765.958,11.765.958,11.765h1.655s-.523-7.027-.523-9.875,1.744-13.012,1.744-13.012.785-9.982,0-10.257-5.4-4.278-5.751-6.078,2.427-18.592,2.427-18.592S273.295,409.717,271.463,408.58Z" transform="translate(-192.871 -283.912)" fill="#f86d70"/>
    <path id="Path_6000" data-name="Path 6000" d="M242.16,469.118a8.573,8.573,0,0,0,1.135,3.255l3.222-.6s9.673-2.374,11.678-2.563a11.635,11.635,0,0,0,3.5-1.087,17.12,17.12,0,0,0-4.328-7.733l-1.227-1.241a20.694,20.694,0,0,0-6.183-4.314c.144.135,10.291,9.576,8.067,11.429s-8.194-2.659-8.194-2.659l-6.8-6.371-.249-.232-.393.667a6.3,6.3,0,0,1,.586.307,10.79,10.79,0,0,1,4.773,6.485C249.137,469.588,242.16,469.118,242.16,469.118Z" transform="translate(-176.116 -313.681)" opacity="0.1"/>
    <path id="Path_6001" data-name="Path 6001" d="M235.77,558.962s6.448,3.893,8.018,1.708a2.541,2.541,0,0,1,1.963-.749c-.147-.492-.219-.816-.219-.816a22.65,22.65,0,0,0-9.274-1.472C235.956,558.431,235.77,558.962,235.77,558.962Z" transform="translate(-171.816 -379.782)" fill="#444053"/>
    <path id="Path_6002" data-name="Path 6002" d="M238.7,457.008l7.049,6.6s5.963,4.524,8.2,2.659-8.067-11.429-8.067-11.429h0a20.69,20.69,0,0,1,6.189,4.335l1.227,1.241c3.229,3.258,3.958,3.258,4.066,8.05a7.306,7.306,0,0,1-.625,3.184c-1.047,1.126-1.779,9.233-1.636,10.185s-1.963,9.144-1.256,11.408-8.541-1.137-10.108,1.045-8.018-1.708-8.018-1.708,3.572-9.982,4.442-10.638,1.917-5.793,0-8.167a9.072,9.072,0,0,1-2.061-4.656s6.977.471,5.561-4.652a10.542,10.542,0,0,0-5.358-6.773Z" transform="translate(-171.783 -313.681)" fill="#e8e8f0"/>
    <path id="Path_6003" data-name="Path 6003" d="M258.547,508.08s-2.705,5.554-6.215,7c-.108.046-.219.086-.327.125C248.35,516.411,258.805,509.788,258.547,508.08Z" transform="translate(-182.218 -347.94)" opacity="0.1"/>
    <path id="Path_6004" data-name="Path 6004" d="M146.387,347.612a23.1,23.1,0,0,0,2.352,4.841c1.044,1.234,8.8,13.583,8.8,13.583l.654,1.479.566,1.273,4.962-.578.35-2.182-.193-.253a24.561,24.561,0,0,0-2.771-3.169,34.306,34.306,0,0,1-3.4-4.082s-7.056-7.975-7.579-10.16-7.583-15.29-9.159-13.012S146.387,347.612,146.387,347.612Z" transform="translate(-107.874 -236.62)" fill="#714246"/>
    <path id="Path_6005" data-name="Path 6005" d="M194.08,422.91l.566,1.273,4.969-.578.35-2.182-.193-.253C199.235,421.466,195.264,423.541,194.08,422.91Z" transform="translate(-143.764 -292.014)" opacity="0.1"/>
    <path id="Path_6006" data-name="Path 6006" d="M213.047,437.665s-1.22-2.089-1.917-1.519-.981-1.711-1.354-1.333-1.564,1.426-2.044-.043c-.379-1.176-4.508-8.62-6.183-11.622l-.7-1.248s-4.707,2.563-5.839,1.708v1.8l.958.1,5.142,10.445s1.613,2.8,1.5,3.772,2.067,5.251,2.417,5.536,4.1,5.034,4.1,5.034,1.917,10.257.258,13.1a18.677,18.677,0,0,1-4.531,4.938,17.053,17.053,0,0,0-.736,3.041c.128.285-1.008,1.519-.484,1.9s1.22,3.037,1.22,3.037,2.44-4.278,3.749-4.938,3.009-9.4,3.009-9.4.478-5.155.52-8.478S212.017,437.665,213.047,437.665Z" transform="translate(-144.39 -292.484)" opacity="0.1"/>
    <path id="Path_6007" data-name="Path 6007" d="M212.247,437.665s-1.22-2.089-1.917-1.519-.981-1.711-1.354-1.333-1.564,1.426-2.044-.043c-.379-1.176-4.508-8.62-6.183-11.622l-.7-1.248s-4.707,2.563-5.839,1.708v1.8l.958.1,5.142,10.445s1.613,2.8,1.5,3.772,2.067,5.251,2.417,5.536,4.1,5.034,4.1,5.034,1.917,10.257.262,13.1a16.961,16.961,0,0,1-3.167,3.811,6.766,6.766,0,0,0-2.041,3.565,1.546,1.546,0,0,0-.062.6c.128.285-1,1.519-.484,1.9s1.22,3.037,1.22,3.037,2.44-4.278,3.749-4.938,3.009-9.4,3.009-9.4.481-5.155.52-8.478S211.2,437.665,212.247,437.665Z" transform="translate(-143.851 -292.484)" fill="#f86d70"/>
    <path id="Path_6008" data-name="Path 6008" d="M211.965,587.33s3.66.759,5.142,1.9-5.577-1.807-5.577-1.807Z" transform="translate(-155.506 -398.938)" opacity="0.1"/>
    <path id="Path_6009" data-name="Path 6009" d="M239.76,615.7s3.837,3.465,3.137,6.6l-2.45,11.019Z" transform="translate(-174.501 -417.194)" opacity="0.1"/>
    <path id="Path_6010" data-name="Path 6010" d="M127.281,597s-5.381.642-5.034,1.4,5.034-.713,5.034-.713Z" transform="translate(-95.418 -405.16)" opacity="0.1"/>
    <path id="Path_6011" data-name="Path 6011" d="M258.43,674.406s.347.474-1.658,0-.52-1.936-.52-1.936Z" transform="translate(-185.242 -453.725)" opacity="0.1"/>
    <path id="Path_6012" data-name="Path 6012" d="M252.729,695.9a11.681,11.681,0,0,1-4.2,0C247.067,695.425,252.729,695.9,252.729,695.9Z" transform="translate(-180.238 -468.666)" opacity="0.1"/>
    <path id="Path_6013" data-name="Path 6013" d="M230.345,767.929s-.478-.57-2.875.474-3.353,1.091-4.053.759S230.345,767.929,230.345,767.929Z" transform="translate(-163.474 -515.053)" opacity="0.1"/>
    <path id="Path_6014" data-name="Path 6014" d="M245.829,594.72l-3.4,5.151S244.252,595.362,245.829,594.72Z" transform="translate(-176.298 -403.693)" opacity="0.1"/>
    <path id="Path_6015" data-name="Path 6015" d="M222.376,461.86a2.987,2.987,0,0,1-2.339,2.374c-2.195.667-2.617,1.2-2.617,1.2" transform="translate(-159.469 -318.198)" opacity="0.1"/>
    <path id="Path_6016" data-name="Path 6016" d="M203.054,427.08s-2.892,2.239-5.914,1.761" transform="translate(-145.823 -295.817)" opacity="0.1"/>
    <path id="Path_6017" data-name="Path 6017" d="M222,557.83s.844.578,2.872-1.95" transform="translate(-162.551 -378.7)" opacity="0.1"/>
    <path id="Path_6018" data-name="Path 6018" d="M281.045,480.727a1.69,1.69,0,0,0-.491-1.251l-.569-.738a2.535,2.535,0,0,0-.37-.417c-.327-.285-.782-.357-1.135-.631" transform="translate(-200.555 -328.384)" opacity="0.1"/>
    <path id="Path_6019" data-name="Path 6019" d="M964.84,466.332c1.5,3.879,1.377,11.568,1.377,11.568s.864,1.426,1.217,1.034-.124,1.472-.128,1.483h0l.026.1-.026.1h.056c.38,1.426,2.617,9.469,4.779,7.237h0c-.527,4.609-.981,9.665-.981,9.665s-2.146,9.415-1.224,10.339.815,3.971.815,3.971c-1.374,2.852-.576,8.143-.576,8.143l-.128,15.33a13.253,13.253,0,0,1,1.793,6.588h.255l-1.793,2.93s-.406,1.472-3.144,3.048a3.2,3.2,0,0,0-1.724,2.061,1.963,1.963,0,0,0,.193,1.3,1.427,1.427,0,0,0,.8.713h.059a46.841,46.841,0,0,0,5.139.232s4.128-3.437,5.378-3.515a2.606,2.606,0,0,0,1.92-1.244s-.026-.8-.1-1.733a7.134,7.134,0,0,0-.566-2.717c-.3-.339-.425-.631-.654-.856l.677.029c1.567-1.137.445-4.31.445-4.31v-7.875s.981-7.722.514-9.864,2.018-6.1,2.018-6.1l.35-4.31c1.217-1.726,1.792-11.244,1.792-11.244l1.308-4.784c-.036.207-.716,4.217,0,4.955s.981,4,.981,4-.707,9.037,0,10.866a2.809,2.809,0,0,1-.193,2.852l-.128,9.38a15.727,15.727,0,0,1-.065,6.06,37.059,37.059,0,0,0,0,9.037h.723a6.2,6.2,0,0,1-.579,1.708,8.692,8.692,0,0,0-.285,2.631,14.469,14.469,0,0,0,0,1.48.983.983,0,0,0,.936.905c2.591.439,3.144,1.529,3.144,1.529a7.966,7.966,0,0,0,6.241,2.274c3.189-.332,2.879-.945,2.715-2.078a4.744,4.744,0,0,1-.049-.638c0-1.551-1.106-1.993-2.833-3.155s-1.682-2.139-2.4-3a3.793,3.793,0,0,1-.687-1.683l-.033-3.8,1.119-3.244s.769-13.38,1.377-16.278a7.766,7.766,0,0,0-.654-5.069,9.059,9.059,0,0,0,1.217-3.758,17.3,17.3,0,0,1,.982-4.52l1.488-10.9a23.05,23.05,0,0,1,.245-3.843c1.508.5,4.1-4.178,4.8-5.5.115-.218.177-.357.177-.357h0l.193-1.312s.416-.242,1.377-.688,1.6-5.932,1.6-5.932.929-2.759,2.529-7.59-.481-11.586-.481-11.586l-1.665-7.968a14.539,14.539,0,0,0-1.776-8.388l-9.486-8.307a.781.781,0,0,0-.89-.1l-.095.053c-.056-.866-.059-1.783-.036-2.649V428.8a.341.341,0,0,0,.249.11h.062a1.75,1.75,0,0,0,1.364-.57l-.118.05a2.921,2.921,0,0,0,.406-.463,12.65,12.65,0,0,0,.945-1.932,18.53,18.53,0,0,1,1.531-2.535l1.22-1.8a3.544,3.544,0,0,1,.615-.749,7.677,7.677,0,0,0,.654-.5,2,2,0,0,0,.327-1.8,16.649,16.649,0,0,0-.654-1.8,2.469,2.469,0,0,1,.02-1.872,2.738,2.738,0,0,0,.389-.749,1.3,1.3,0,0,0-.389-1.027,12.439,12.439,0,0,0-3.926-2.563,15.112,15.112,0,0,0-2.231-1.13,7.681,7.681,0,0,0-8.649,3.665,1.933,1.933,0,0,0,.141,2.139c-.111.089-.222.175-.327.267a8.143,8.143,0,0,0-2.773,5.8,8.3,8.3,0,0,0,2.181,6.089,2.02,2.02,0,0,1-.049.357,4.593,4.593,0,0,1-.906,2.139l-.16-.029a.845.845,0,0,1,.213-.221l-10.314,2.4s-2.879.688-4.959,8.485c-.065.239-.124.481-.173.713h0s-2.944,8.2-3.412,11.722C965.517,453.034,963.335,462.457,964.84,466.332Zm8.2-9.4-.213,8.97h0l-.229,9.519c-.327-1.512-.615-2.795-.615-2.795s-.265-10.021-.042-14.716v.021Zm27.877.1s-.514.759.255,2.535a10.9,10.9,0,0,1,.654,4.193c0,.107-1.057,4.449-.7,6.1.272,1.28-.491,3.7-.85,4.724a11.905,11.905,0,0,0-.782-2.93c-1.089-2.139,0-16.969,0-16.969.779-.549,1.42,2.346,1.42,2.346Z" transform="translate(-662.038 -284.292)" fill="url(#linear-gradient-3)"/>
    <path id="Path_6020" data-name="Path 6020" d="M1063.444,617.252c.946,4.542,4.714-2.328,5.561-3.975l.173-.339-.409-2.089-2.159-.959a5.96,5.96,0,0,0-.981.684A6.663,6.663,0,0,0,1063.444,617.252Z" transform="translate(-728.628 -413.455)" fill="#f899a5"/>
    <path id="Path_6021" data-name="Path 6021" d="M974.39,607.6a.319.319,0,0,0,.026.1c.026.068,0,.068.03.111.37,1.426,2.568,9.4,4.688,7.184,2.326-2.431,1.2-8.014,1.2-8.014h0l-4.887-.546-.981,1.07h0Z" transform="translate(-668.821 -411.228)" fill="#f899a5"/>
    <path id="Path_6022" data-name="Path 6022" d="M982.052,647.987l-.124,15.233a13.422,13.422,0,0,1,1.76,6.542l6.313.275c1.541-1.13.438-4.278.438-4.278v-7.843s.981-7.668.5-9.793,1.963-6.061,1.963-6.061l.347-4.278c1.194-1.711,1.76-11.162,1.76-11.162l1.286-4.749c-.036.2-.7,4.185,0,4.92s.981,3.971.981,3.971-.69,8.97,0,10.784a2.878,2.878,0,0,1-.187,2.852l-.128,9.312a15.8,15.8,0,0,1-.062,6.025,37.192,37.192,0,0,0,0,8.97h6.784l-.033-3.8,1.1-3.208s.756-13.28,1.351-16.157a7.79,7.79,0,0,0-.625-5.034,9.054,9.054,0,0,0,1.191-3.733,17.234,17.234,0,0,1,.958-4.481l1.462-10.82a22.806,22.806,0,0,1,.723-6.164c.847-3.08,2.1-7.13,2.1-7.13l-1.416.135-7.161.713s-17.4-1.276-18.181-.214a3.694,3.694,0,0,0-.327,1.105c-.782,3.825-1.815,15.807-1.815,15.807s-2.1,9.348-1.2,10.271.792,3.922.792,3.922C981.28,642.75,982.052,647.987,982.052,647.987Z" transform="translate(-673.667 -412.355)" fill="#444053"/>
    <path id="Path_6023" data-name="Path 6023" d="M1028,781.057a.974.974,0,0,0,.919.9c2.545.435,3.085,1.515,3.085,1.515a7.79,7.79,0,0,0,6.127,2.26c3.131-.331,2.826-.938,2.666-2.064a4.716,4.716,0,0,1-.049-.635c0-1.54-1.086-1.979-2.78-3.134s-1.636-2.139-2.355-2.977a4.862,4.862,0,0,1-.779-2.5c-.8-1.519-2.829.228-2.829.228-.095.538-3.108.463-3.108.463a7.8,7.8,0,0,1-.605,1.847,9.74,9.74,0,0,0-.281,2.613C1028,780.205,1028,780.765,1028,781.057Z" transform="translate(-704.894 -518.937)" fill="#b07473"/>
    <path id="Path_6024" data-name="Path 6024" d="M1028,791.476a.974.974,0,0,0,.919.9c2.545.435,3.085,1.515,3.085,1.515a7.791,7.791,0,0,0,6.127,2.26c3.131-.332,2.826-.938,2.666-2.064-1.4.378-4.073.906-5.633-.018-2.169-1.283-3.726-2.185-3.726-2.185L1028,790Z" transform="translate(-704.894 -529.356)" opacity="0.1"/>
    <path id="Path_6025" data-name="Path 6025" d="M968.923,787.4a1.39,1.39,0,0,0,.782.713h.062a45.025,45.025,0,0,0,5.041.232s4.053-3.415,5.28-3.49a2.559,2.559,0,0,0,1.884-1.234s-.026-.795-.1-1.718a7.062,7.062,0,0,0-.556-2.7c-.543-.617-.654-1.462-1.884-.923,0,0-1.74-3.344-3.791-.759l-2.123,3.508s-.4,1.462-3.088,3.027a3.164,3.164,0,0,0-1.691,2.043A1.967,1.967,0,0,0,968.923,787.4Z" transform="translate(-664.989 -520.694)" fill="#b07473"/>
    <path id="Path_6026" data-name="Path 6026" d="M968.923,797.077c.239.221.5.46.782.713h.062a45.036,45.036,0,0,0,5.041.232s4.053-3.415,5.28-3.49a2.559,2.559,0,0,0,1.884-1.233s-.026-.8-.1-1.718c-1.246.406-3.137,1.123-3.644,1.9a15.738,15.738,0,0,1-3.134,2.82s-4.4-.46-6.356-.524A1.967,1.967,0,0,0,968.923,797.077Z" transform="translate(-664.989 -530.372)" opacity="0.1"/>
    <path id="Path_6027" data-name="Path 6027" d="M1021.74,457.35l5.793,6.674s7.023-.563,5.8-2.823c-.625-1.152-.723-3.565-.654-5.654.052-2.021.242-3.743.242-3.743s-9.846-5.348-9.094-.357a8.939,8.939,0,0,1,.029,2.852A3.686,3.686,0,0,1,1021.74,457.35Z" transform="translate(-700.682 -310.126)" fill="#f899a5"/>
    <path id="Path_6028" data-name="Path 6028" d="M1027.986,451.449a8.945,8.945,0,0,1,.029,2.852,6.941,6.941,0,0,0,5.156,2.342c1.338,0,2.771-1.194,3.847-1.882.053-2.021.062-2.945.062-2.945S1027.233,446.469,1027.986,451.449Z" transform="translate(-704.857 -310.133)" opacity="0.1"/>
    <path id="Path_6029" data-name="Path 6029" d="M1021.74,432.217c0,4.368,3.248,7.909,7.256,7.911s7.255-3.543,7.255-7.911S1033,424.31,1029,424.31,1021.74,427.85,1021.74,432.217Z" transform="translate(-700.682 -294.035)" fill="#f899a5"/>
    <path id="Path_6030" data-name="Path 6030" d="M991.56,610.149c1.806,4.688,13.412,4.784,13.412,4.784v-5.116l.707-.05c-.3,1.462.425,5.034.425,5.034,9.185,1.426,11.426-4.278,11.426-4.278l-.327-1.954-7.161.713s-17.4-1.276-18.181-.214A3.694,3.694,0,0,0,991.56,610.149Z" transform="translate(-680.374 -412.606)" opacity="0.1"/>
    <path id="Path_6031" data-name="Path 6031" d="M1004.521,524.577v-5.112l.707-.05c-.3,1.465.425,5.034.425,5.034,6.915,1.07,9.892-1.9,10.942-3.437a4.723,4.723,0,0,0,.484-.852l-2.8-17.216-.654-25.312-1.014-4.442-.232-2.139v-.025h-.023l-.713.335-4.279,2.014-4.861-4-.072-.057-.242-.2-.4.356-1,.873L997.58,492.9s-5.561,17.362-6.588,24.367c-.043.278-.075.538-.1.784C990.2,524.456,1004.521,524.577,1004.521,524.577Z" transform="translate(-679.907 -322.87)" fill="#e1e7ef"/>
    <ellipse id="Ellipse_412" data-name="Ellipse 412" cx="0.412" cy="0.449" rx="0.412" ry="0.449" transform="translate(326.511 150.575)" fill="#67647e"/>
    <ellipse id="Ellipse_413" data-name="Ellipse 413" cx="0.412" cy="0.449" rx="0.412" ry="0.449" transform="translate(326.321 154.682)" fill="#67647e"/>
    <ellipse id="Ellipse_414" data-name="Ellipse 414" cx="0.412" cy="0.449" rx="0.412" ry="0.449" transform="translate(325.909 161.33)" fill="#67647e"/>
    <ellipse id="Ellipse_415" data-name="Ellipse 415" cx="0.412" cy="0.449" rx="0.412" ry="0.449" transform="translate(325.225 168.496)" fill="#67647e"/>
    <ellipse id="Ellipse_416" data-name="Ellipse 416" cx="0.412" cy="0.449" rx="0.412" ry="0.449" transform="translate(324.813 175.223)" fill="#67647e"/>
    <ellipse id="Ellipse_417" data-name="Ellipse 417" cx="0.412" cy="0.449" rx="0.412" ry="0.449" transform="translate(324.401 182.385)" fill="#67647e"/>
    <ellipse id="Ellipse_418" data-name="Ellipse 418" cx="0.412" cy="0.449" rx="0.412" ry="0.449" transform="translate(324.565 189.473)" fill="#67647e"/>
    <path id="Path_6032" data-name="Path 6032" d="M1054.433,508.787s.461,6.588,1.309,8.506,1.227,7.29,1.227,7.29l1.963-.242a4.724,4.724,0,0,0,.484-.852l-2.8-17.216-.654-25.312-1.014-4.442-.232-2.139h-.026a.74.74,0,0,0-.7,0l-.095.053c.026.089.056.178.082.271a44.793,44.793,0,0,1,1.053,7.447s-1.1,8.834-1.227,12.941S1054.433,508.787,1054.433,508.787Z" transform="translate(-722.246 -326.198)" opacity="0.1"/>
    <path id="Path_6033" data-name="Path 6033" d="M1070.56,610.575q.034.082.075.16a7.14,7.14,0,0,0,3.271,2.542l.173-.339-.409-2.089-2.159-.959A5.962,5.962,0,0,0,1070.56,610.575Z" transform="translate(-733.532 -413.455)" opacity="0.1"/>
    <path id="Path_6034" data-name="Path 6034" d="M1075.374,517.51l1.789,1.162,1.635,7.911s2.045,6.709.471,11.5-2.479,7.533-2.479,7.533-.628,5.444-1.57,5.89-1.351.685-1.351.685l-.19,1.3s-2.555-.948-3.461-2.613.654-5.811.654-5.811,1.351-3.526,1.007-5.169.69-5.957.69-6.06a11.156,11.156,0,0,0-.654-4.157c-.749-1.761-.252-2.517-.252-2.517l.471-5.034Z" transform="translate(-733.112 -354.009)" fill="#162438"/>
    <path id="Path_6035" data-name="Path 6035" d="M991.1,519.268s4.743,1.954,6.251.242,1.351-9.725,1.351-9.725,1.446-14.788,2.359-17.219.438-19.964.438-19.964a11.09,11.09,0,0,1,1.148-2.852.672.672,0,0,1,.111-.1l-.183.043-.654.153-1,.873-3.206,22.545s-5.561,17.362-6.588,24.367Z" transform="translate(-680.065 -323.211)" opacity="0.1"/>
    <path id="Path_6036" data-name="Path 6036" d="M974.39,607.786h.056c.6.086,5.868.777,5.888-.417a3.369,3.369,0,0,0-.02-.414l-4.887-.545-.981,1.07h0c-.016.068-.03.132-.043.178Z" transform="translate(-668.821 -411.216)" opacity="0.1"/>
    <path id="Path_6037" data-name="Path 6037" d="M973.412,495.29l-3.467,1.968s-2.875,8.142-3.346,11.636c0,0-2.136,9.354-.654,13.19s1.351,11.483,1.351,11.483.847,1.4,1.194,1.027-.127,1.472-.127,1.472,5.921.856,5.947-.414a70.188,70.188,0,0,0-1.367-7.312s-.376-14.41.157-16.67S973.412,495.29,973.412,495.29Z" transform="translate(-662.786 -339.71)" fill="#162438"/>
    <path id="Path_6038" data-name="Path 6038" d="M1021.016,538.35s1.963,5.2,2.574,5.544-.124,1.715-.124,1.715S1019.917,540.2,1021.016,538.35Z" transform="translate(-700.053 -367.419)" opacity="0.1"/>
    <path id="Path_6039" data-name="Path 6039" d="M1025,487.155c-.023-.1,2.326,2.5,2.944,2.9S1025.654,490.032,1025,487.155Z" transform="translate(-702.875 -334.473)" opacity="0.1"/>
    <path id="Path_6040" data-name="Path 6040" d="M1045,537.19s3.579,2.528,3.108,3.522S1045,537.19,1045,537.19Z" transform="translate(-716.333 -366.673)" opacity="0.1"/>
    <path id="Path_6041" data-name="Path 6041" d="M1009.072,640.52a18.193,18.193,0,0,1-7.792,2.67Z" transform="translate(-686.915 -433.165)" opacity="0.1"/>
    <path id="Path_6042" data-name="Path 6042" d="M1038.6,654.93s-2.826,3.868-4.115,3.971S1038.6,654.93,1038.6,654.93Z" transform="translate(-709.122 -442.438)" opacity="0.1"/>
    <path id="Path_6043" data-name="Path 6043" d="M1035.37,697.47c.128.068,1.6,3.49,3.111,3.594S1035.37,697.47,1035.37,697.47Z" transform="translate(-709.853 -469.813)" opacity="0.1"/>
    <path id="Path_6044" data-name="Path 6044" d="M988.285,718.317s-2.8-.684-3.425,1.5C984.86,719.822,985.05,719.137,988.285,718.317Z" transform="translate(-675.866 -483.162)" opacity="0.1"/>
    <path id="Path_6045" data-name="Path 6045" d="M992.474,753.166s-3.392-.756-4.115.271S992.474,753.166,992.474,753.166Z" transform="translate(-678.171 -505.48)" opacity="0.1"/>
    <path id="Path_6046" data-name="Path 6046" d="M1029.386,758.54c0,.036,3.454.756,3.32,1.234s-3.687.41-3.811-.357a.769.769,0,0,1,.074-.552A.66.66,0,0,1,1029.386,758.54Z" transform="translate(-705.483 -509.111)" opacity="0.1"/>
    <path id="Path_6047" data-name="Path 6047" d="M993.57,767.276s-5.676-.756-5.322.545S993.57,767.276,993.57,767.276Z" transform="translate(-678.135 -514.592)" opacity="0.1"/>
    <path id="Path_6048" data-name="Path 6048" d="M1086.643,553.9c-.033.1-3.739.652-4.253,1.954A30.911,30.911,0,0,1,1086.6,554" transform="translate(-741.492 -377.425)" opacity="0.1"/>
    <path id="Path_6049" data-name="Path 6049" d="M1079.45,583.58s3.078,1.069,2.859,2.67S1082.623,585.512,1079.45,583.58Z" transform="translate(-739.514 -396.525)" opacity="0.1"/>
    <path id="Path_6050" data-name="Path 6050" d="M1078.9,603.891s-1.122-1.676-2.188-1.369S1078.9,603.891,1078.9,603.891Z" transform="translate(-737.525 -408.69)" opacity="0.1"/>
    <path id="Path_6051" data-name="Path 6051" d="M1030.08,426.036a1.974,1.974,0,0,0,.363.292,4.53,4.53,0,0,1,1.56,2.435,5.042,5.042,0,0,0,1.636,2.406c1.021.674,2.368.424,3.431,1.012a2.979,2.979,0,0,1,1.423,2.852,9.029,9.029,0,0,1-.3,1.308,10.166,10.166,0,0,0-.327,2.852.372.372,0,0,0,0,.086,8.235,8.235,0,0,0-.14-14.209,6.774,6.774,0,0,0-7.636.958Z" transform="translate(-706.294 -294.031)" opacity="0.1"/>
    <path id="Path_6052" data-name="Path 6052" d="M1030.127,415.383a6.794,6.794,0,0,1,4.315-3.544,6.682,6.682,0,0,1,4.187-.1,14.656,14.656,0,0,1,2.192,1.123,12.291,12.291,0,0,1,3.837,2.542,1.306,1.306,0,0,1,.383,1.023,2.712,2.712,0,0,1-.38.741,2.477,2.477,0,0,0-.02,1.857c.193.6.488,1.166.628,1.782a2.006,2.006,0,0,1-.327,1.782,7.222,7.222,0,0,1-.631.5,3.488,3.488,0,0,0-.605.745l-1.2,1.782a18.1,18.1,0,0,0-1.5,2.5,12.4,12.4,0,0,1-.929,1.918,1.961,1.961,0,0,1-1.681.98.317.317,0,0,1-.265-.135.44.44,0,0,1-.036-.185,10.147,10.147,0,0,1,.327-2.852,8.625,8.625,0,0,0,.3-1.312,2.987,2.987,0,0,0-1.42-2.852c-1.067-.585-2.414-.339-3.435-1.009a5.312,5.312,0,0,1-1.635-2.41c-.428-1-.654-1.872-1.56-2.435A1.743,1.743,0,0,1,1030.127,415.383Z" transform="translate(-706.151 -285.76)" fill="#585268"/>
    <path id="Path_6053" data-name="Path 6053" d="M1038.815,785.07s-1.106,1.54-.821,2.414S1038.815,785.07,1038.815,785.07Z" transform="translate(-711.587 -526.183)" opacity="0.1"/>
    <path id="Path_6054" data-name="Path 6054" d="M985.83,792.055s-.245-2.064-1.236-2.086a3.021,3.021,0,0,0-1.789.207c-.752.317-1.462.809-1.24.881s1.308-1.18,2.4-.538A8,8,0,0,1,985.83,792.055Z" transform="translate(-673.621 -529.318)" opacity="0.1"/>
    <path id="Path_6055" data-name="Path 6055" d="M1044.348,479.505l-3.1-2.378s4.547-2.927,5.09-2.5.916,4.11.916,4.11Z" transform="translate(-713.81 -326.389)" opacity="0.1"/>
    <path id="Path_6056" data-name="Path 6056" d="M1044.361,478.95l-3.111-2.424s4.547-2.927,5.09-2.517.916,4.317.916,4.317Z" transform="translate(-713.81 -325.99)" fill="#e1e7ef"/>
    <path id="Path_6057" data-name="Path 6057" d="M1044.361,478.95l-3.111-2.424s4.547-2.927,5.09-2.517.916,4.317.916,4.317Z" transform="translate(-713.81 -325.99)" opacity="0.03"/>
    <path id="Path_6058" data-name="Path 6058" d="M1055.03,473.891l.095-.054a.754.754,0,0,1,.873.1l9.323,8.242a14.588,14.588,0,0,1,1.744,8.328l-5.5,8.492s-.628-2.877-1.381-2.328c0,0-1.07,14.72,0,16.845s1.537,10.064,1.537,10.064l-3.6.446s-.376-5.376-1.223-7.294-1.308-8.5-1.308-8.5-.762-9.572-.654-13.679,1.227-12.941,1.227-12.941A42.354,42.354,0,0,0,1055.03,473.891Z" transform="translate(-723.014 -325.844)" fill="#162438"/>
    <path id="Path_6059" data-name="Path 6059" d="M1023.378,474.825l3.873-1.562s-4.933-5.889-5.561-2.624Z" transform="translate(-700.648 -323.213)" opacity="0.1"/>
    <path id="Path_6060" data-name="Path 6060" d="M1023.378,474.252l3.873-1.565s-4.933-5.889-5.561-2.62Z" transform="translate(-700.648 -322.843)" fill="#e1e7ef"/>
    <path id="Path_6061" data-name="Path 6061" d="M1023.378,474.252l3.873-1.565s-4.933-5.889-5.561-2.62Z" transform="translate(-700.648 -322.843)" opacity="0.03"/>
    <path id="Path_6062" data-name="Path 6062" d="M1026.9,469.532a.2.2,0,0,0-.16.036Z" transform="translate(-704.047 -323.132)" opacity="0.1"/>
    <path id="Path_6063" data-name="Path 6063" d="M993.885,468.382,983.607,470.8s-2.83.685-4.871,8.421,2.8,17.216,2.8,17.216l1.066-.987-.517,22.6s4.743,1.95,6.251.239,1.351-9.722,1.351-9.722,1.446-14.788,2.355-17.219.442-19.964.442-19.964S993.313,468.243,993.885,468.382Z" transform="translate(-671.408 -322.392)" fill="#162438"/>
    <path id="Path_6064" data-name="Path 6064" d="M993.007,508.587a67.36,67.36,0,0,1-.327,12.189,71.824,71.824,0,0,1-1.779,9.38l.932-20.848S992.568,508.141,993.007,508.587Z" transform="translate(-679.93 -348.201)" opacity="0.1"/>
    <path id="Path_6065" data-name="Path 6065" d="M999.175,492.25c-.252.171-1.351,3.012-.85,4.178S999.175,492.25,999.175,492.25Z" transform="translate(-684.839 -337.754)" opacity="0.1"/>
    <path id="Path_6066" data-name="Path 6066" d="M1030.306,417.828a5.948,5.948,0,0,1,2.257-2.578,5.714,5.714,0,0,0-1.691,2.168,1.8,1.8,0,0,0,.549,2.467,4.544,4.544,0,0,1,1.561,2.435,5.179,5.179,0,0,0,1.616,2.41c1.024.67,2.372.424,3.435,1.009a2.986,2.986,0,0,1,1.423,2.852,8.64,8.64,0,0,1-.3,1.312,10.156,10.156,0,0,0-.327,2.852.472.472,0,0,0,.033.182.318.318,0,0,0,.265.139,1.43,1.43,0,0,0,.776-.157,1.725,1.725,0,0,1-1.338.567.317.317,0,0,1-.265-.135.446.446,0,0,1-.036-.185,10.156,10.156,0,0,1,.327-2.852,8.624,8.624,0,0,0,.3-1.312,2.987,2.987,0,0,0-1.42-2.852c-1.066-.585-2.414-.339-3.435-1.009a5.31,5.31,0,0,1-1.635-2.41c-.429-1-.654-1.872-1.56-2.435A1.776,1.776,0,0,1,1030.306,417.828Z" transform="translate(-706.268 -288.205)" opacity="0.1"/>
  </g>
</svg>
