<svg xmlns="http://www.w3.org/2000/svg" xmlns:xlink="http://www.w3.org/1999/xlink" width="355.793" height="384.002" viewBox="0 0 355.793 384.002">
  <defs>
    <clipPath id="clip-path">
      <rect width="355.793" height="384.002" fill="none"/>
    </clipPath>
    <filter id="Path_6073" x="16.899" y="0" width="338.894" height="384.002" filterUnits="userSpaceOnUse">
      <feOffset dx="10" dy="20" input="SourceAlpha"/>
      <feGaussianBlur stdDeviation="15" result="blur"/>
      <feFlood flood-color="#162438" flood-opacity="0.149"/>
      <feComposite operator="in" in2="blur"/>
      <feComposite in="SourceGraphic"/>
    </filter>
  </defs>
  <g id="Repeat_Grid_21" data-name="Repeat Grid 21" clip-path="url(#clip-path)">
    <g id="Group_7675" data-name="Group 7675" transform="translate(-947 -5324.232)">
      <g transform="matrix(1, 0, 0, 1, 947, 5324.23)" filter="url(#Path_6073)">
        <g id="Path_6073-2" data-name="Path 6073" transform="translate(51.9 25)" fill="#fff">
          <path d="M18.558,0H230.336c10.249,0,18.558,8.673,18.558,19.372V274.63c0,10.7-8.309,19.372-18.558,19.372H18.558C8.309,294,0,285.329,0,274.63V19.372C0,8.673,8.309,0,18.558,0Z" stroke="none"/>
          <path d="M 18.557861328125 1 C 13.87614440917969 1 9.4722900390625 2.90557861328125 6.1575927734375 6.36578369140625 C 2.831634521484375 9.837615966796875 0.9999847412109375 14.45675659179688 0.9999847412109375 19.3721923828125 L 0.9999847412109375 274.6298522949219 C 0.9999847412109375 279.5453186035156 2.831634521484375 284.1644897460938 6.1575927734375 287.6363220214844 C 9.4722900390625 291.0965270996094 13.87614440917969 293.0021057128906 18.557861328125 293.0021057128906 L 230.3360290527344 293.0021057128906 C 235.0177459716797 293.0021057128906 239.4216003417969 291.0965270996094 242.7362976074219 287.6363220214844 C 246.0622100830078 284.1644897460938 247.8938751220703 279.5453491210938 247.8938751220703 274.6298522949219 L 247.8938751220703 19.3721923828125 C 247.8938751220703 14.45675659179688 246.0622100830078 9.837615966796875 242.7362976074219 6.36578369140625 C 239.4216003417969 2.90557861328125 235.0177459716797 1 230.3360290527344 1 L 18.557861328125 1 M 18.557861328125 0 L 230.3360290527344 0 C 240.5852508544922 0 248.8938751220703 8.673248291015625 248.8938751220703 19.3721923828125 L 248.8938751220703 274.6298522949219 C 248.8938751220703 285.328857421875 240.5852508544922 294.0021057128906 230.3360290527344 294.0021057128906 L 18.557861328125 294.0021057128906 C 8.308639526367188 294.0021057128906 -1.52587890625e-05 285.328857421875 -1.52587890625e-05 274.6298522949219 L -1.52587890625e-05 19.3721923828125 C -1.52587890625e-05 8.673248291015625 8.308639526367188 0 18.557861328125 0 Z" stroke="none" fill="rgba(229,50,39,0.5)"/>
        </g>
      </g>
      <ellipse id="Ellipse_419" data-name="Ellipse 419" cx="78" cy="81" rx="78" ry="81" transform="translate(947 5530)" fill="#fff"/>
      <g id="Group_7634" data-name="Group 7634" transform="translate(1041.429 5390.235)">
        <path id="Path_6136" data-name="Path 6136" d="M321.691,233.581V333.645L296.357,361.2H166.746V256.3l37.818-22.72Z" transform="translate(-166.746 -160.251)" fill="#162438"/>
        <path id="Path_6137" data-name="Path 6137" d="M321.691,233.581v.377l-9.095,7.536-16.24,13.45H166.746l37.818-21.363Z" transform="translate(-166.746 -160.251)" opacity="0.08"/>
        <path id="Path_6139" data-name="Path 6139" d="M436.8,265.9h-105l7.814-4.091h100.6Z" transform="translate(-305.503 -179.621)" fill="#0a101a"/>
        <g id="Group_7633" data-name="Group 7633" transform="translate(85.523)">
          <path id="Path_6151" data-name="Path 6151" d="M683.826,184.047s-2.445-7.231-4.21-4.962,2.716,6.1,2.716,6.1Z" transform="translate(-677.439 -155.906)" fill="#bc9676"/>
          <path id="Path_6152" data-name="Path 6152" d="M700.433,173.273l-1.471.569s-.7,3.259-.431,3.826.407.142,0,1.276-1.63,4.112-1.766,4.537-7.877-2.694-7.877-4.253a14.111,14.111,0,0,1-2.445,2.41s8.964,6.805,10.186,7.656,1.9.425,2.988-.567,5.7-9.216,5.7-9.216Z" transform="translate(-682.503 -152.221)" fill="#575a89"/>
          <path id="Path_6153" data-name="Path 6153" d="M687.33,331.607s.136,1.56.407,1.7,2.309,3.686,0,4.4-3.667.425-4.21.709-10.051.851-10.186-.709,4.618-1.843,4.618-1.843,4.346-2.977,5.025-4.537S687.33,331.607,687.33,331.607Z" transform="translate(-673.338 -260.223)" fill="#2f2e41"/>
          <path id="Path_6154" data-name="Path 6154" d="M789.786,342.628s3.26,5.813,2.445,6.522-8.751,3.292-9.915,3.4c-1.494.142-2.581-1.134-1.358-1.843s3.8-3.686,3.8-4.679v-2.552Z" transform="translate(-748.223 -268.409)" fill="#2f2e41"/>
          <path id="Path_6155" data-name="Path 6155" d="M738.558,221.6s2.852,3.686-1.63,9.641l-7.47,9.924s4.618,7.656,4.754,11.626,1.086,3.119,1.358,4.82,1.494.851.543,2.127-4.482,2.41-5.569,1.418a3.6,3.6,0,0,1-1.087-2.836c0-.567-1.9-3.828-2.037-4.82s-5.161-9.074-5.161-9.074-1.63-4.82.272-7.514a29.02,29.02,0,0,0,3.158-6.514s-5.6,7.081-9.541,8.783c0,0-1.494.284-1.222.992s0,1.134-.407,1.843-3.26,8.932-4.21,11.059-.543,3.4-1.63,4.112-5.976.142-5.976-.567a14.909,14.909,0,0,1,1.087-3.544c.407-.992,3.667-12.476,3.4-14.461s.136-4.679,2.173-5.813,12.359-10.35,12.9-10.35S738.558,221.6,738.558,221.6Z" transform="translate(-693.871 -185.373)" fill="#162438"/>
          <ellipse id="Ellipse_432" data-name="Ellipse 432" cx="5.704" cy="5.955" rx="5.704" ry="5.955" transform="translate(11.683 2.054)" fill="#bc9676"/>
          <path id="Path_6156" data-name="Path 6156" d="M733.615,133.531s1.766,3.261,3.939,3.686-5.7,6.947-5.7,6.947-1.9-6.238-3.531-6.522S733.615,133.531,733.615,133.531Z" transform="translate(-711.61 -124.955)" fill="#bc9676"/>
          <path id="Path_6157" data-name="Path 6157" d="M727.993,153.222c0,1.843,5.3,7.089,5.3,7.089l5.025,4.4s.136,1.56.679,1.7,1.222.142.679.992-1.9,2.694-.679,2.977a9.579,9.579,0,0,0,1.112.111c.326.02.709.038,1.14.055,1.005.037,2.263.061,3.625.051q.581,0,1.182-.014c5.135-.106,11.084-.723,10.6-2.755-.815-3.4-.272-4.537-2.037-6.38s-4.618-8.223-4.618-8.223-5.7-10.066-10.458-10.066l-.987-.271a2.217,2.217,0,0,0-2.468.99,26,26,0,0,1-3.336,4.527c-1.358,1.134-1.57.32-1.57.32S727.993,151.379,727.993,153.222Z" transform="translate(-711.556 -131.319)" fill="#575a89"/>
          <path id="Path_6158" data-name="Path 6158" d="M762.852,244.628s-3.939,6.38-1.494,7.514,3.8-6.664,3.8-6.664Z" transform="translate(-734.328 -201.175)" fill="#bc9676"/>
          <path id="Path_6159" data-name="Path 6159" d="M720.644,113.549c-.219-.029-.288-.317-.325-.544a2.681,2.681,0,0,0-3.562-2.454,4.965,4.965,0,0,0-1.706.877,2.8,2.8,0,0,1-.853.559c-.214.066-1.123.487-1.335.559-.467.157-.853.667-1.334.566-.46-.1-.635-.676-.709-1.16a6.29,6.29,0,0,1,1.037-3.669,3.721,3.721,0,0,1,2-1.366,13.83,13.83,0,0,1,2.772-.575,8.6,8.6,0,0,1,3.8.17,3.716,3.716,0,0,1,2.55,2.723c.047.273.056.553.114.825a12.55,12.55,0,0,0,.805,1.845,3.7,3.7,0,0,1-.1,2.881c-.339.711-.928,1.394-.8,2.177l-1.048-.863a.81.81,0,0,1-.35-.93l.152-1.37a1.256,1.256,0,0,0-.068-.741C721.212,112.209,721.009,113.6,720.644,113.549Z" transform="translate(-699.527 -106.213)" fill="#162438"/>
          <path id="Path_6160" data-name="Path 6160" d="M766.068,169.78l-1.279,5.553c1.29.048,3,.074,4.807.037.456-1.429.892-2.919,1.226-4.314,1.222-5.1-.815-12.9-1.9-16.588a6.991,6.991,0,0,0-3.8-4.679,12.212,12.212,0,0,0-3.124,1.7C760.228,152.767,766.068,169.78,766.068,169.78Z" transform="translate(-735.099 -136.109)" opacity="0.1"/>
          <path id="Path_6161" data-name="Path 6161" d="M768.149,175.711l-1.332,5.782c.326.02.709.038,1.139.055,1.005.037,2.263.061,3.625.051.49-1.518.964-3.121,1.322-4.612,1.222-5.1-.815-12.9-1.9-16.588s-3.463.354-3.463.354.951-2.41-.815-1.134S768.149,175.711,768.149,175.711Z" transform="translate(-738.266 -142.324)" opacity="0.1"/>
          <path id="Path_6162" data-name="Path 6162" d="M763.311,148.886a6.992,6.992,0,0,1,3.8,4.679c1.087,3.686,3.124,11.484,1.9,16.588a98.385,98.385,0,0,1-3.8,11.484s-2.58-1.985-3.531-1.56l2.581-11.2s-5.84-17.013-4.075-18.289A12.209,12.209,0,0,1,763.311,148.886Z" transform="translate(-733.836 -135.489)" fill="#575a89"/>
        </g>
        <path id="Path_6163" data-name="Path 6163" d="M402.027,90.568,364.451,8.828,301.62,40.3l23.108,50.265Z" transform="translate(-285.004 -6.057)" fill="#e53227"/>
        <path id="Path_6231" data-name="Path 6231" d="M0,0,37.319-.634,37.28,1.746-.039,2.379Z" transform="translate(33.36 51.574) rotate(-25.635)" fill="#3f3d56"/>
        <path id="Path_6232" data-name="Path 6232" d="M0,0,37.319-.634,37.28,1.746-.039,2.379Z" transform="translate(42.195 70.794) rotate(-25.635)" fill="#3f3d56"/>
        <path id="Path_6233" data-name="Path 6233" d="M0,0,9.265-.157,9.108,9.36l-9.265.157Z" transform="translate(73.351 27.698) rotate(-25.635)" fill="#3f3d56"/>
        <path id="Path_6234" data-name="Path 6234" d="M0,0,9.265-.157,9.108,9.36l-9.265.157Z" transform="translate(82.186 46.919) rotate(-25.635)" fill="#3f3d56"/>
        <path id="Path_6164" data-name="Path 6164" d="M499.625,55.924l-3.412,10.134-4.6-1.688-.629,1.869,6.385,2.342,4.047-12Z" transform="translate(-417.419 -38.367)" fill="#fff"/>
        <path id="Path_6165" data-name="Path 6165" d="M529.005,117.146l-3.412,10.134-4.6-1.687-.629,1.869,6.384,2.342,4.048-12Z" transform="translate(-437.963 -80.37)" fill="#fff"/>
        <path id="Path_6166" data-name="Path 6166" d="M20266.063,12002.607l-.492-106.229,25.281-20.918-.023,99.347Z" transform="translate(-20136.016 -11801.658)" opacity="0.273"/>
      </g>
      <g id="Group_7635" data-name="Group 7635" transform="translate(963.966 5548.652)">
        <ellipse id="Ellipse_114" data-name="Ellipse 114" cx="60.5" cy="62.5" rx="60.5" ry="62.5" transform="translate(0.034 0.348)" fill="#e53227" opacity="0.15"/>
        <text id="_3" data-name="3" transform="translate(60.034 76.348)" fill="#e53227" font-size="37" font-family="DINPro-Bold, DIN Pro" font-weight="700"><tspan x="-10.045" y="0">3</tspan></text>
      </g>
    </g>
  </g>
</svg>
