<svg xmlns="http://www.w3.org/2000/svg" width="193.088" height="189.066" viewBox="0 0 193.088 189.066">
  <g id="Group_7645" data-name="Group 7645" transform="translate(-1362.999 -2638.429)">
    <g id="Group_7643" data-name="Group 7643" transform="translate(1362.999 2642.279)">
      <path id="Path_5491" data-name="Path 5491" d="M812.938,655.4l-4.664,49.658h32.183l1.4-3.778,1.866,3.778h30.317s-2.332-51.277-6.53-52.9S812.938,655.4,812.938,655.4Z" transform="translate(-777.084 -519.841)" fill="#252433"/>
      <ellipse id="Ellipse_360" data-name="Ellipse 360" cx="16.325" cy="16.325" rx="16.325" ry="16.325" transform="translate(47.048 8.208)" fill="#bc9676"/>
      <path id="Path_5492" data-name="Path 5492" d="M894.019,276.18s1.4,14.925,0,15.858,22.388.466,22.388.466-3.265-13.526,0-20.056Z" transform="translate(-838.105 -241.386)" fill="#bc9676"/>
      <path id="Path_5493" data-name="Path 5493" d="M836.626,328.67s12,1.869,13-1.864l6.126,8.394.466,83.955s-49.907,6.063-51.772-3.731,19.123-87.22,19.123-87.22l5.284-.342S835.693,328.67,836.626,328.67Z" transform="translate(-774.186 -281.283)" fill="#f0f0f0"/>
      <path id="Path_5494" data-name="Path 5494" d="M777.707,316.375l-8,2.773-22.854,5.6.933,55.97s-19.589,55.97-10.728,60.168,21.455-5.6,25.187-12.593,16.791-104.011,16.791-105.877A30.376,30.376,0,0,0,777.707,316.375Z" transform="translate(-720.143 -273.627)" fill="#3f3d56"/>
      <path id="Path_5495" data-name="Path 5495" d="M969.87,316.375l3.161,2.773,22.388,10.261-11.194,56.437s14.925,51.306,9.328,54.1-13.992,10.728-15.858,6.063S964.843,321.531,969.87,316.375Z" transform="translate(-894.733 -273.627)" fill="#3f3d56"/>
      <path id="Path_5496" data-name="Path 5496" d="M962.958,585.129s-20.989-8.862-21.455-.933,23.787,13.526,23.787,11.194S962.958,585.129,962.958,585.129Z" transform="translate(-874.865 -467.779)" fill="#bc9676"/>
      <path id="Path_5497" data-name="Path 5497" d="M811.3,584.528s24.254,18.19,14.925,22.854-21.455-16.325-21.455-16.325Z" transform="translate(-771.676 -470.443)" fill="#bc9676"/>
      <path id="Path_5498" data-name="Path 5498" d="M883.58,156.3a.9.9,0,0,1,.866-.514c-7.474-.447-15.346.424-21.6,4.543-1.751,1.153-3.386,2.564-5.38,3.214l1.618,1.269-1.934.589L860,167.245a2.466,2.466,0,0,1-2.349.787,4.274,4.274,0,0,1,2.609,2.664,12.646,12.646,0,0,1,.624,3.8c.478-1.855,2.5-2.948,4.416-3.059a19.423,19.423,0,0,1,5.64.974,31.2,31.2,0,0,0,12.383.476c-1.4,2.806-.219,6.154.968,9.056l2.37,5.794c1.316.132,2.246-1.176,3.237-2.052.9-.8-2.694,6.219-2.137,5.962.724-.334,8.359-8.764,8.717-9.476a21.679,21.679,0,0,0,2.463-10.506,15.322,15.322,0,0,0-3.981-9.9c-1.7-1.79-4.052-2.1-5.785-3.59-.682-.585-.685-1.043-1.622-1.384A27.331,27.331,0,0,0,883.58,156.3Z" transform="translate(-812.959 -155.685)" fill="#2f2e41"/>
      <path id="Path_5499" data-name="Path 5499" d="M707.859,349.238l-3.265-1.4-26.119,42.91s-4.664,11.194,3.731,16.325S710.192,427.6,710.192,427.6l11.194-17.257s-22.854-10.728-21.455-14.925,8.862-15.392,8.862-15.392Z" transform="translate(-677.183 -296.72)" fill="#3f3d56"/>
      <path id="Path_5500" data-name="Path 5500" d="M1018.406,361.865l6.063.933s25.187,49.44,19.123,58.769-30.783,22.388-30.783,22.388-.467-15.392-4.664-20.989l14.459-5.6-7.929-30.784Z" transform="translate(-923.783 -307.015)" fill="#3f3d56"/>
    </g>
    <g id="Group_7644" data-name="Group 7644" transform="translate(1455 2638.428)">
      <path id="Path_6212" data-name="Path 6212" d="M1023,442.026l3.837-3.494s22.207-.864,23.932,6.124-9.816,6.347-9.816,6.347Z" transform="translate(-984.261 -383.036)" fill="#d0cde1"/>
      <path id="Path_6213" data-name="Path 6213" d="M1023,442.026l3.837-3.494s22.207-.864,23.932,6.124-9.816,6.347-9.816,6.347Z" transform="translate(-984.261 -383.036)" opacity="0.1"/>
      <path id="Path_6214" data-name="Path 6214" d="M1072.494,454.36h4.136l12.822,4.136s8.686,14.476,4.55,16.131-5.377,2.482-10.34,1.241-7.031-1.654-7.031-1.654Z" transform="translate(-1002.02 -388.727)" fill="#d0cde1"/>
      <path id="Path_6215" data-name="Path 6215" d="M937.617,475.554l9.927,14.476,2.068-12.408-7.445-4.136Z" transform="translate(-910.987 -338.366)" fill="#bc9676"/>
      <path id="Path_6216" data-name="Path 6216" d="M1082.189,415.782s-4.963-24.4-8.686-22.749,0,16.131,0,16.131l5.791,9.513Z" transform="translate(-1001.788 -366.695)" fill="#bc9676"/>
      <path id="Path_6217" data-name="Path 6217" d="M986.733,458.23l-5.377,4.55s-26.471,33.5-16.544,43.843,25.644,23.99,25.644,23.99,6.618-4.136,6.2-4.963-6.2-7.859-7.031-9.513-6.2-7.445-6.2-9.927.827-2.482-1.241-3.309-2.482-4.55-2.482-4.55l11.167-21.094Z" transform="translate(-962.584 -390.115)" fill="#d0cde1"/>
      <path id="Path_6218" data-name="Path 6218" d="M1083.709,458.19s.414-3.723,0-4.963.414-3.723,0-4.136-4.55-10.754-4.136-12.408,0-9.513,0-9.513l5.791-2.482,2.9,7.445s6.2,6.2,4.963,7.031,1.241,3.309,1.241,3.309l1.241,3.723,3.309,6.2s1.406,8.113-1.365,10.26S1083.709,458.19,1083.709,458.19Z" transform="translate(-1004.549 -378.08)" fill="#d0cde1"/>
      <ellipse id="Ellipse_466" data-name="Ellipse 466" cx="20.46" cy="20.46" rx="20.46" ry="20.46" transform="translate(34.801 11.746)" fill="#2f2e41"/>
      <path id="Path_6219" data-name="Path 6219" d="M1034.872,419.994s.827,13.649-1.241,15.717,7.859,5.791,7.859,5.791h9.1s0-18.2,2.068-21.508S1034.872,419.994,1034.872,419.994Z" transform="translate(-987.975 -375.869)" fill="#bc9676"/>
      <path id="Path_6220" data-name="Path 6220" d="M1034.872,419.994s.827,13.649-1.241,15.717,7.859,5.791,7.859,5.791h9.1s0-18.2,2.068-21.508S1034.872,419.994,1034.872,419.994Z" transform="translate(-987.975 -375.869)" opacity="0.1"/>
      <ellipse id="Ellipse_467" data-name="Ellipse 467" cx="8.466" cy="8.466" rx="8.466" ry="8.466" transform="translate(48.205 4.587)" fill="#2f2e41"/>
      <path id="Path_6221" data-name="Path 6221" d="M1032.376,360.466a8.467,8.467,0,0,1,7.584-8.421,8.565,8.565,0,0,0-.881-.046,8.466,8.466,0,1,0,.88,16.887A8.467,8.467,0,0,1,1032.376,360.466Z" transform="translate(-986.994 -352)" fill="#2f2e41"/>
      <ellipse id="Ellipse_468" data-name="Ellipse 468" cx="15.304" cy="15.304" rx="15.304" ry="15.304" transform="translate(40.073 21.17)" fill="#bc9676"/>
      <ellipse id="Ellipse_469" data-name="Ellipse 469" cx="14.111" cy="8.466" rx="14.111" ry="8.466" transform="translate(41.15 19.403)" fill="#2f2e41"/>
      <path id="Path_6222" data-name="Path 6222" d="M1028.211,445.792s-11.581-8.686-14.063-7.031-20.68,8.686-22.335,16.958,21.094,46.325,21.094,46.325l26.885-2.9,8.272-9.1,2.068-9.927s.827-8.272,0-9.927-.827-21.094-2.482-21.508-9.1-5.377-9.927-4.136S1028.211,445.792,1028.211,445.792Z" transform="translate(-973.04 -383.055)" fill="#d0cde1"/>
      <path id="Subtraction_69" data-name="Subtraction 69" d="M72.826,78.7H35.957c-.5-9.318-.773-15.445-.775-15.506,0,.01-.021.171-.059.465-.619,4.794-1.282,9.854-1.971,15.041H0l.321-2.444C1.739,65.459,3.345,53.219,4.8,43.3,6.483,31.81,7.627,25.736,8.3,24.731,9,23.669,9.92,21.454,10.262,16.924a46.855,46.855,0,0,0,.1-5.015l5.377-2.9A65.608,65.608,0,0,0,27.61,7.256,84.8,84.8,0,0,0,37.589,4.2,77.306,77.306,0,0,0,47.026,0l3.459,5.7a10.934,10.934,0,0,1,3.286,3.124,33.1,33.1,0,0,1,3.163,5.464,110.382,110.382,0,0,1,5.92,16.7c3.379,11.949,6.734,28,9.972,47.713Z" transform="translate(28.262 107.08)" fill="#2f2e41"/>
    </g>
  </g>
</svg>
