<svg xmlns="http://www.w3.org/2000/svg" width="31" height="31" viewBox="0 0 31 31">
  <g id="Group_2931" data-name="Group 2931" transform="translate(17244 11062)">
    <g id="Group_2932" data-name="Group 2932">
      <path id="Path_5" data-name="Path 5" d="M12.275,9.3A7.163,7.163,0,0,0,9.542,7.583a4.157,4.157,0,1,0-4.7,0A7.2,7.2,0,0,0,0,14.381H1.123a6.067,6.067,0,0,1,12.134,0h1.124A7.144,7.144,0,0,0,12.275,9.3ZM7.19,7.19a3.033,3.033,0,1,1,3.033-3.033A3.037,3.037,0,0,1,7.19,7.19Z" transform="translate(-17236 -11054)" fill="#fff"/>
      <path id="Subtraction_66" data-name="Subtraction 66" d="M14.5,30A15.5,15.5,0,0,1,3.54,3.54,15.5,15.5,0,0,1,25.46,25.46,15.4,15.4,0,0,1,14.5,30Zm0-30A14.5,14.5,0,0,0,4.247,24.753,14.5,14.5,0,0,0,24.753,4.247,14.405,14.405,0,0,0,14.5,0Z" transform="translate(-17243 -11061)" fill="#fff"/>
    </g>
  </g>
</svg>
