<svg xmlns="http://www.w3.org/2000/svg" xmlns:xlink="http://www.w3.org/1999/xlink" width="22" height="16" viewBox="0 0 22 16">
  <defs>
    <clipPath id="clip-path">
      <rect width="22" height="16" fill="none"/>
    </clipPath>
  </defs>
  <g id="Repeat_Grid_23" data-name="Repeat Grid 23" transform="translate(0 0)" clip-path="url(#clip-path)">
    <g transform="translate(-52 -84.4)">
      <path id="path" d="M486.5,983.4h3v2h-3v3h-2v-3h-3v-2h3v-3h2Zm3.7,5.1a14.793,14.793,0,0,1,5.3-1.1,15.237,15.237,0,0,1,5.3,1.1c1.9.7,2.7,1.7,2.7,2.9v2h-16v-2C487.5,990.2,488.4,989.3,490.2,988.5Zm8.1-4.3a3.867,3.867,0,1,1,1.2-2.8A3.631,3.631,0,0,1,498.3,984.2Z" transform="translate(-429.5 -893)"/>
    </g>
  </g>
</svg>
