<svg xmlns="http://www.w3.org/2000/svg" width="35.614" height="30.688" viewBox="0 0 35.614 30.688">
  <g id="tickets" transform="translate(0 -35.414)">
    <g id="Group_158" data-name="Group 158" transform="translate(0 35.415)">
      <g id="Group_157" data-name="Group 157" transform="translate(0 0)">
        <path id="Path_676" data-name="Path 676" d="M35.579,48.525l-4.1-12.63a.7.7,0,0,0-.877-.447L.481,45.236a.7.7,0,0,0-.447.877l1.943,5.978c0,.012,0,.023,0,.035v13.28a.7.7,0,0,0,.7.7H34.339a.7.7,0,0,0,.7-.7V52.126a.7.7,0,0,0-.7-.7H28.891L35.133,49.4A.7.7,0,0,0,35.579,48.525Zm-1.936,4.3V64.71H3.366V52.821H7.219v7.749a.7.7,0,1,0,1.391,0V52.821H33.643ZM24.39,51.43H3.225L1.572,46.344l3.666-1.191,1.4,4.262a.7.7,0,0,0,1.321-.435l-1.4-4.257,23.805-7.736,3.674,11.307Z" transform="translate(0 -35.415)"/>
        <path id="Path_677" data-name="Path 677" d="M160.656,95.419a.7.7,0,0,0-.877-.447l-18.135,5.893a.7.7,0,1,0,.43,1.323L160.209,96.3A.7.7,0,0,0,160.656,95.419Z" transform="translate(-131.344 -90.798)"/>
        <path id="Path_678" data-name="Path 678" d="M365.251,133.726l3.433-1.115a.7.7,0,0,0-.43-1.323l-3.433,1.116a.7.7,0,1,0,.43,1.323Z" transform="translate(-338.998 -124.587)"/>
        <path id="Path_679" data-name="Path 679" d="M418.685,195.836a.695.695,0,0,0,.877.447l1.086-.353a.7.7,0,1,0-.43-1.323l-1.086.353A.7.7,0,0,0,418.685,195.836Z" transform="translate(-389.531 -183.502)"/>
        <path id="Path_680" data-name="Path 680" d="M369.722,211.016l-1.086.353a.7.7,0,1,0,.43,1.323l1.086-.353a.7.7,0,1,0-.43-1.323Z" transform="translate(-342.547 -198.77)"/>
        <path id="Path_681" data-name="Path 681" d="M159.793,186.36l-6.347,2.063a.7.7,0,1,0,.43,1.323l6.347-2.063a.7.7,0,1,0-.43-1.323Z" transform="translate(-142.325 -175.829)"/>
        <path id="Path_682" data-name="Path 682" d="M104.484,420.364a.7.7,0,0,0-.7.7v.272a.7.7,0,0,0,1.391,0v-.272A.7.7,0,0,0,104.484,420.364Z" transform="translate(-96.569 -393.588)"/>
        <path id="Path_683" data-name="Path 683" d="M161.554,313.359a.7.7,0,0,0,.7.7h19.069a.7.7,0,1,0,0-1.391H162.25A.7.7,0,0,0,161.554,313.359Z" transform="translate(-150.317 -293.378)"/>
        <path id="Path_684" data-name="Path 684" d="M388.115,350.847h-3.609a.7.7,0,1,0,0,1.391h3.609a.7.7,0,0,0,0-1.391Z" transform="translate(-357.113 -328.906)"/>
        <path id="Path_685" data-name="Path 685" d="M421.119,417.427h-1.142a.7.7,0,0,0,0,1.391h1.142a.7.7,0,0,0,0-1.391Z" transform="translate(-390.117 -390.855)"/>
        <path id="Path_686" data-name="Path 686" d="M368.025,417.427h-1.142a.7.7,0,0,0,0,1.391h1.142a.7.7,0,1,0,0-1.391Z" transform="translate(-340.716 -390.855)"/>
        <path id="Path_687" data-name="Path 687" d="M168.925,350.847h-6.674a.7.7,0,0,0,0,1.391h6.674a.7.7,0,1,0,0-1.391Z" transform="translate(-150.318 -328.906)"/>
      </g>
    </g>
  </g>
</svg>
