<svg xmlns="http://www.w3.org/2000/svg" width="22" height="14" viewBox="0 0 22 14">
  <path id="path" d="M374.8,986.8a15.5,15.5,0,0,1,2.9-.4,10.6,10.6,0,0,1,2.9.4,10.277,10.277,0,0,1,2.8,1.2,2.412,2.412,0,0,1,1.3,1.9v2.5h-14v-2.5A2.2,2.2,0,0,1,372,988,8.79,8.79,0,0,1,374.8,986.8Zm4.9-3.3a2.9,2.9,0,1,1,.9-2.1A2.878,2.878,0,0,1,379.7,983.5Zm8,0a2.9,2.9,0,1,1,.9-2.1A2.878,2.878,0,0,1,387.7,983.5Zm-2.1,2.9a10.6,10.6,0,0,1,2.9.4,12.609,12.609,0,0,1,2.9,1.2,2.2,2.2,0,0,1,1.3,1.9v2.5h-6v-2.5a4.319,4.319,0,0,0-2-3.5Z" transform="translate(-370.7 -978.4)"/>
</svg>
