<svg xmlns="http://www.w3.org/2000/svg" width="23.333" height="25" viewBox="0 0 23.333 25">
  <g id="calendar" transform="translate(-2)">
    <path id="Path_667" data-name="Path 667" d="M24.917,1.667H22V.417A.416.416,0,0,0,21.583,0H18.667a.416.416,0,0,0-.417.417v1.25H9.083V.417A.416.416,0,0,0,8.667,0H5.75a.416.416,0,0,0-.417.417v1.25H2.417A.416.416,0,0,0,2,2.083v22.5A.416.416,0,0,0,2.417,25h22.5a.416.416,0,0,0,.417-.417V2.083A.416.416,0,0,0,24.917,1.667ZM19.083.833h2.083v2.5H19.083V.833ZM6.167.833H8.25v2.5H6.167V.833ZM2.833,2.5h2.5V3.75a.416.416,0,0,0,.417.417H8.667a.416.416,0,0,0,.417-.417V2.5H18.25V3.75a.416.416,0,0,0,.417.417h2.917A.416.416,0,0,0,22,3.75V2.5h2.5V6.25H2.833Zm0,21.667V7.083H24.5V24.167Z"/>
    <path id="Path_668" data-name="Path 668" d="M22.25,23H11V35.083H26.833V23H22.25Zm-2.917.833H22.25V26.75H19.333ZM22.25,30.5H19.333V27.583H22.25Zm-6.667-2.917H18.5V30.5H15.583Zm0-3.75H18.5V26.75H15.583Zm-3.75,0H14.75V26.75H11.833Zm0,3.75H14.75V30.5H11.833ZM14.75,34.25H11.833V31.333H14.75Zm3.75,0H15.583V31.333H18.5Zm3.75,0H19.333V31.333H22.25Zm3.75,0H23.083V31.333H26Zm0-3.75H23.083V27.583H26Zm0-6.667V26.75H23.083V23.833Z" transform="translate(-5.25 -13.417)"/>
  </g>
</svg>
