<svg xmlns="http://www.w3.org/2000/svg" width="79.75" height="36.835" viewBox="0 0 79.75 36.835">
  <g id="Group_2823" data-name="Group 2823" transform="translate(-211.25 -239.979)">
    <g id="Rectangle_2357" data-name="Rectangle 2357" transform="translate(211.25 245.607)" fill="none" stroke="#3fb583" stroke-width="1">
      <rect width="79.75" height="31.207" rx="6" stroke="none"/>
      <rect x="0.5" y="0.5" width="78.75" height="30.207" rx="5.5" fill="none"/>
    </g>
    <rect id="Rectangle_2359" data-name="Rectangle 2359" width="30.552" height="26.532" transform="translate(227.483 239.979)" fill="#fff"/>
    <text id="Edit" transform="translate(271.055 264.863)" fill="#3fb583" font-size="11" font-family="DIN-Light, DIN Light" font-weight="300"><tspan x="-9.397" y="0">Edit</tspan></text>
    <g id="edit-2" data-name="edit" transform="translate(234.633 244.258)">
      <g id="Group_2812" data-name="Group 2812" transform="translate(0 0)">
        <path id="Path_1827" data-name="Path 1827" d="M24.865,114.3H6.392a.7.7,0,0,0-.692.692.707.707,0,0,0,.692.692h18.49a.7.7,0,0,0,.692-.692A.71.71,0,0,0,24.865,114.3Z" transform="translate(-5.683 -96.165)"/>
        <path id="Path_1828" data-name="Path 1828" d="M5.617,18.906,5.6,22.2a.715.715,0,0,0,.2.507.676.676,0,0,0,.49.2l3.276-.017a.676.676,0,0,0,.49-.2L21.371,11.375a.714.714,0,0,0,0-1L18.129,7.1a.714.714,0,0,0-1,0L14.87,9.382,5.82,18.416a.752.752,0,0,0-.2.49ZM17.639,8.589l2.28,2.28-1.283,1.283-2.28-2.28ZM7.018,19.209l8.341-8.341,2.28,2.28L9.3,21.472,7,21.489l.017-2.28Z" transform="translate(-5.6 -6.9)"/>
      </g>
    </g>
  </g>
</svg>
