<svg xmlns="http://www.w3.org/2000/svg" width="19.328" height="27.596" viewBox="0 0 19.328 27.596">
  <g id="placeholder" transform="translate(-8.203)">
    <path id="Path_665" data-name="Path 665" d="M24.085,12a3.528,3.528,0,1,0,3.528,3.528A3.532,3.532,0,0,0,24.085,12Zm0,6.048a2.52,2.52,0,1,1,2.52-2.52A2.523,2.523,0,0,1,24.085,18.048Z" transform="translate(-6.128 -5.952)"/>
    <path id="Path_666" data-name="Path 666" d="M24.7,2.831a9.664,9.664,0,0,0-13.668,0,11.008,11.008,0,0,0-.909,13.583L17.868,27.6,25.6,16.43A11.012,11.012,0,0,0,24.7,2.831Zm.08,13.01-6.914,9.985-6.925-10a9.946,9.946,0,0,1,.8-12.282,8.656,8.656,0,0,1,12.242,0A9.95,9.95,0,0,1,24.782,15.841Z" transform="translate(0 0)"/>
  </g>
</svg>
