<svg xmlns="http://www.w3.org/2000/svg" width="20.207" height="20.6" viewBox="0 0 20.207 20.6">
  <path id="path" d="M56.919,1160.73l2.163,1.648a.61.61,0,0,1,.1.721l-2.06,3.6a.458.458,0,0,1-.618.206l-2.575-1.03a8.4,8.4,0,0,1-1.751,1.03l-.412,2.678c-.1.309-.206.412-.515.412h-4.12a.526.526,0,0,1-.515-.412l-.412-2.678a6.026,6.026,0,0,1-1.751-1.03l-2.575,1.03a.458.458,0,0,1-.618-.206l-2.06-3.6a.5.5,0,0,1,.1-.721l2.163-1.648v-2.06l-2.163-1.648a.61.61,0,0,1-.1-.721l2.06-3.605a.458.458,0,0,1,.618-.206l2.575,1.03a8.4,8.4,0,0,1,1.751-1.03l.412-2.678c.1-.309.206-.412.515-.412h4.12a.526.526,0,0,1,.515.412l.412,2.678a6.029,6.029,0,0,1,1.751,1.03l2.575-1.03a.459.459,0,0,1,.618.206l2.06,3.605a.5.5,0,0,1-.1.721l-2.163,1.648v2.06Zm-10.2,1.545a3.734,3.734,0,1,0-1.03-2.575A3.417,3.417,0,0,0,46.722,1162.275Z" transform="translate(-39.091 -1149.4)" fill="#fff"/>
</svg>
