<svg xmlns="http://www.w3.org/2000/svg" width="34.994" height="22.269" viewBox="0 0 34.994 22.269">
  <path id="path" d="M432.255,991.125a18.839,18.839,0,0,1,6.84,1.432c2.386.954,3.5,2.227,3.5,3.818v4.295H407.6v-4.295c0-1.591,1.272-2.863,3.5-3.818a17.592,17.592,0,0,1,6.84-1.432,16.683,16.683,0,0,1,7.158,1.591A16.682,16.682,0,0,1,432.255,991.125Zm-6.363,7.158v-1.909c0-.477-.954-1.114-2.7-1.75a15.631,15.631,0,0,0-5.408-1.114,13.186,13.186,0,0,0-5.408,1.114c-1.909.8-2.7,1.272-2.7,1.75v1.909Zm-4.136-10.339a5.766,5.766,0,1,1,1.591-3.977A5.277,5.277,0,0,1,421.757,987.944Zm-1.591-6.2a3.075,3.075,0,1,0,.954,2.227A3.14,3.14,0,0,0,420.166,981.74Zm15.906,6.2a5.766,5.766,0,1,1,1.591-3.977A5.276,5.276,0,0,1,436.073,987.944Zm4.136,10.339v-1.909c0-.477-.954-1.114-2.7-1.75a13.058,13.058,0,0,0-10.18-.159,3.3,3.3,0,0,1,.8,1.909v1.909Zm-5.726-16.543a3.075,3.075,0,1,0,.954,2.227A3.14,3.14,0,0,0,434.482,981.74Z" transform="translate(-407.599 -978.4)"/>
</svg>
