<svg xmlns="http://www.w3.org/2000/svg" width="116.478" height="146.741" viewBox="0 0 116.478 146.741">
  <g id="Group_43" data-name="Group 43" transform="translate(1.034 1.019)">
    <g id="Group_41" data-name="Group 41" transform="translate(7.816)">
      <path id="Path_628" data-name="Path 628" d="M32.026,89.2,23.114,72.786a2.075,2.075,0,0,1,.529-2.732L77.98,33.275a2.076,2.076,0,0,0,.576-2.649h0L71.889,17.859a2.078,2.078,0,0,1,2.324-3.009L127.854,28.8a2.078,2.078,0,0,1,1.5,2.592L114.31,79.637" transform="translate(-22.815 -14.787)" fill="none" stroke="#0079bd" stroke-miterlimit="10" stroke-width="2" fill-rule="evenodd"/>
    </g>
    <g id="Group_42" data-name="Group 42" transform="translate(0 50.985)">
      <path id="Path_629" data-name="Path 629" d="M43.821,62.785l-10-13.3c-1.229-1.687-3.731-1.3-4.059.624L20.392,109.38a2.565,2.565,0,0,0,1.964,2.837l59.511,12.238a2.11,2.11,0,0,0,2.184-3.33L73.01,106.014a2.217,2.217,0,0,1,.315-2.907L126.3,57.37a2.225,2.225,0,0,0,.283-2.955L110.75,31.954A2.437,2.437,0,0,0,107.757,31l-61,32.656a2.433,2.433,0,0,1-2.932-.869Z" transform="translate(-20.36 -30.801)" fill="none" stroke="#0079bd" stroke-miterlimit="10" stroke-width="2" fill-rule="evenodd"/>
    </g>
    <path id="Path_630" data-name="Path 630" d="M20.94,68.931H75.59L82.6,34.3" transform="translate(-15.643 27.823)" fill="none" stroke="#0079bd" stroke-miterlimit="10" stroke-width="2"/>
    <line id="Line_17" data-name="Line 17" x1="12.909" y2="42.872" transform="translate(37.132 96.753)" fill="none" stroke="#0079bd" stroke-miterlimit="10" stroke-width="2"/>
    <line id="Line_18" data-name="Line 18" y1="2.013" x2="37.464" transform="translate(61.984 83.157)" fill="none" stroke="#0079bd" stroke-miterlimit="10" stroke-width="2"/>
    <path id="Path_631" data-name="Path 631" d="M87.792,16.282l-30.7,53.281L24.866,63.231" transform="translate(-10.52 -11.522)" fill="none" stroke="#0079bd" stroke-miterlimit="10" stroke-width="2"/>
    <line id="Line_19" data-name="Line 19" x1="10.829" y2="27.548" transform="translate(23.243 56.124)" fill="none" stroke="#0079bd" stroke-miterlimit="10" stroke-width="2"/>
    <line id="Line_20" data-name="Line 20" x2="25.505" y2="6.763" transform="translate(53.325 49.004)" fill="none" stroke="#0079bd" stroke-miterlimit="10" stroke-width="2"/>
  </g>
</svg>
