<svg xmlns="http://www.w3.org/2000/svg" width="60.654" height="55.843" viewBox="0 0 60.654 55.843">
  <g id="Group_2" data-name="Group 2" transform="translate(1.536 1.807)">
    <path id="Path_31" data-name="Path 31" d="M217.9,52.87a9.39,9.39,0,0,0,18.283,0" transform="translate(-212.649 -7.078)" fill="none" stroke="#9b9da0" stroke-miterlimit="10" stroke-width="2"/>
    <path id="Path_32" data-name="Path 32" d="M260.818,45.348a8.786,8.786,0,1,1-13.486,7.8" transform="translate(-206.956 -8.533)" fill="none" stroke="#9b9da0" stroke-miterlimit="10" stroke-width="2"/>
    <path id="Path_33" data-name="Path 33" d="M218.529,32.533a4.858,4.858,0,0,1-.036-.6,6.572,6.572,0,0,1,13.144,0,4.858,4.858,0,0,1-.036.6" transform="translate(-212.534 -12.399)" fill="none" stroke="#9b9da0" stroke-miterlimit="10" stroke-width="2"/>
    <line id="Line_10" data-name="Line 10" y2="14.918" transform="translate(5.959 19.691)" fill="none" stroke="#9b9da0" stroke-miterlimit="10" stroke-width="2"/>
    <line id="Line_11" data-name="Line 11" x1="21.482" transform="translate(1.193 20.288)" fill="none" stroke="#9b9da0" stroke-miterlimit="10" stroke-width="2"/>
    <path id="Path_34" data-name="Path 34" d="M222.5,46.5h8.354l1.79,1.79" transform="translate(-211.759 -8.311)" fill="none" stroke="#9b9da0" stroke-miterlimit="10" stroke-width="2"/>
    <line id="Line_12" data-name="Line 12" x1="5.967" transform="translate(32.222)" fill="none" stroke="#9b9da0" stroke-miterlimit="10" stroke-width="2"/>
    <path id="Path_35" data-name="Path 35" d="M258.85,39.368V15.5l-7.161,9.547V50.587h-10.7V43.712H224.074l-.979,1.062a47.835,47.835,0,0,0-8.581,13.032L213.5,60.1h37.509l2.192-2.192,17.583-8.99Z" transform="translate(-213.5 -14.307)" fill="none" stroke="#9b9da0" stroke-miterlimit="10" stroke-width="2"/>
    <path id="Path_36" data-name="Path 36" d="M253.8,48" transform="translate(-205.705 -8.02)" fill="none" stroke="#9b9da0" stroke-miterlimit="10" stroke-width="2"/>
    <line id="Line_13" data-name="Line 13" x1="1.78" y1="2.609" transform="translate(47.691 42.172)" fill="none" stroke="#9b9da0" stroke-miterlimit="10" stroke-width="2"/>
    <line id="Line_14" data-name="Line 14" y2="4.774" transform="translate(51.317 1.193)" fill="none" stroke="#9b9da0" stroke-miterlimit="10" stroke-width="2"/>
    <line id="Line_15" data-name="Line 15" y1="2.387" transform="translate(12.531 10.144)" fill="none" stroke="#9b9da0" stroke-miterlimit="10" stroke-width="2"/>
  </g>
</svg>
