<svg xmlns="http://www.w3.org/2000/svg" width="7.145" height="10.202" viewBox="0 0 7.145 10.202">
  <g id="placeholder" transform="translate(-8.203)">
    <path id="Path_665" data-name="Path 665" d="M21.861,12a1.3,1.3,0,1,0,1.3,1.3A1.306,1.306,0,0,0,21.861,12Zm0,2.236a.932.932,0,1,1,.932-.932A.933.933,0,0,1,21.861,14.236Z" transform="translate(-10.053 -9.764)"/>
    <path id="Path_666" data-name="Path 666" d="M14.3,1.046a3.573,3.573,0,0,0-5.053,0,4.069,4.069,0,0,0-.336,5.021L11.775,10.2l2.858-4.128A4.071,4.071,0,0,0,14.3,1.046Zm.03,4.809L11.775,9.547l-2.56-3.7a3.677,3.677,0,0,1,.3-4.54,3.2,3.2,0,0,1,4.526,0A3.678,3.678,0,0,1,14.331,5.856Z" transform="translate(0 0)"/>
  </g>
</svg>
