<svg xmlns="http://www.w3.org/2000/svg" xmlns:xlink="http://www.w3.org/1999/xlink" width="235.031" height="95.849" viewBox="0 0 235.031 95.849">
  <defs>
    <filter id="Subtraction_64" x="0" y="0" width="235.031" height="95.849" filterUnits="userSpaceOnUse">
      <feOffset dy="3" input="SourceAlpha"/>
      <feGaussianBlur stdDeviation="3" result="blur"/>
      <feFlood flood-opacity="0.161"/>
      <feComposite operator="in" in2="blur"/>
      <feComposite in="SourceGraphic"/>
    </filter>
    <clipPath id="clip-path">
      <rect width="4.2" height="69.032" fill="none"/>
    </clipPath>
  </defs>
  <g id="Group_2744" data-name="Group 2744" transform="translate(8052 700)">
    <g transform="matrix(1, 0, 0, 1, -8052, -700)" filter="url(#Subtraction_64)">
      <g id="Subtraction_64-2" data-name="Subtraction 64" transform="translate(9 6)" fill="#fff">
        <path d="M217.031,77.849H0V62.907H0a23.827,23.827,0,0,0,9.332-1.884,24,24,0,0,0,4.073-2.211,24.153,24.153,0,0,0,3.549-2.929,24.108,24.108,0,0,0,2.928-3.549A23.991,23.991,0,0,0,22.1,48.259a23.838,23.838,0,0,0,1.885-9.335A23.841,23.841,0,0,0,22.1,29.588a23.985,23.985,0,0,0-2.211-4.074,24.125,24.125,0,0,0-2.928-3.549,24.178,24.178,0,0,0-3.549-2.929,23.978,23.978,0,0,0-4.073-2.211A23.838,23.838,0,0,0,0,14.94V0H217.031V14.944c-.129,0-.257,0-.394,0a23.862,23.862,0,0,0-13.408,4.1,24.052,24.052,0,0,0-8.689,10.552,23.952,23.952,0,0,0,2.211,22.745A24.053,24.053,0,0,0,207.3,61.022a23.834,23.834,0,0,0,9.335,1.885c.127,0,.257,0,.394,0V77.849Z" stroke="none"/>
        <path d="M 216.0312652587891 76.84861755371094 L 216.0312652587891 63.8999137878418 C 212.8734436035156 63.82538223266602 209.8087921142578 63.1681022644043 206.9127960205078 61.94328308105469 C 205.4317932128906 61.31683731079102 204.0040740966797 60.54186630249023 202.6695709228516 59.64006042480469 C 201.3470153808594 58.7469482421875 200.1031646728516 57.72067260742188 198.9727783203125 56.5899772644043 C 197.8424682617188 55.46011734008789 196.8162689208984 54.21628189086914 195.9228057861328 52.89325332641602 C 195.0191345214844 51.5560302734375 194.2440490722656 50.12794876098633 193.6192474365234 48.649169921875 C 192.3159942626953 45.56936645507812 191.6551818847656 42.29747772216797 191.6551818847656 38.92436599731445 C 191.6551818847656 35.55108642578125 192.3159942626953 32.27894973754883 193.6190185546875 29.19933700561523 C 194.2441864013672 27.7195873260498 195.0193023681641 26.29142189025879 195.9226531982422 24.95469856262207 C 196.8161926269531 23.63172721862793 197.8423614501953 22.38789367675781 198.9726257324219 21.25781059265137 C 200.1039886474609 20.12644958496094 201.3478240966797 19.10022735595703 202.6692657470703 18.20780944824219 C 204.0038299560547 17.30586624145508 205.4315185546875 16.53078269958496 206.9128570556641 15.90400409698486 C 209.808837890625 14.67931270599365 212.8734893798828 14.02206897735596 216.0312652587891 13.94753932952881 L 216.0312652587891 1.000004410743713 L 0.9999937415122986 1.000004410743713 L 0.9999937415122986 13.95986080169678 C 4.019225597381592 14.0776891708374 6.949630260467529 14.73021793365479 9.725438117980957 15.90408802032471 C 11.20660495758057 16.53080940246582 12.63429927825928 17.30589294433594 13.96868801116943 18.20769882202148 C 15.28985500335693 19.10025405883789 16.53360557556152 20.12642097473145 17.6654109954834 21.25775527954102 C 18.7956600189209 22.38780975341797 19.82182693481445 23.63161468505859 20.71543884277344 24.95469856262207 C 21.61846542358398 26.29172706604004 22.39349365234375 27.71975517272949 23.01896667480469 29.19906044006348 C 24.3221321105957 32.28116989135742 24.98291015625 35.55322647094727 24.98291015625 38.92436599731445 C 24.98291015625 42.29536437988281 24.3221321105957 45.56716918945312 23.01896667480469 48.64892196655273 C 22.3936595916748 50.12772750854492 21.61865997314453 51.55567169189453 20.7154655456543 52.89303207397461 C 19.82174301147461 54.21636581420898 18.7955493927002 55.46019744873047 17.66543769836426 56.58986663818359 C 16.53443908691406 57.72072601318359 15.2906608581543 58.74692153930664 13.96860504150391 59.63997650146484 C 12.63243865966797 60.54250335693359 11.20479965209961 61.31744766235352 9.725271224975586 61.94330978393555 C 6.949286937713623 63.11732482910156 4.018537044525146 63.76982116699219 0.9999937415122986 63.88737487792969 L 0.9999937415122986 76.84861755371094 L 216.0312652587891 76.84861755371094 M 217.0312652587891 77.84894561767578 L 217.0312652587891 77.84861755371094 L -6.259494512050878e-06 77.84861755371094 L -6.259494512050878e-06 62.90705871582031 L 0.003493740456178784 62.9067268371582 C 3.239354848861694 62.9067268371582 6.379104614257812 62.27269744873047 9.335771560668945 61.02228164672852 C 10.7553825378418 60.4217529296875 12.1258544921875 59.67792129516602 13.4088830947876 58.81130981445312 C 14.67888259887695 57.95342254638672 15.87277126312256 56.96820068359375 16.95835494995117 55.88272476196289 C 18.04393768310547 54.79756164550781 19.02904891967773 53.60336685180664 19.88674354553223 52.33336639404297 C 20.75310516357422 51.05053329467773 21.49727058410645 49.67997741699219 22.09790992736816 48.25947570800781 C 23.34832763671875 45.30250549316406 23.98291015625 42.16167068481445 23.98291015625 38.92436599731445 C 23.98291015625 35.6867561340332 23.34832763671875 32.54581069946289 22.09790992736816 29.58850479125977 C 21.49727058410645 28.16789245605469 20.75310516357422 26.79711532592773 19.88674354553223 25.5143928527832 C 19.02904891967773 24.24450492858887 18.04393768310547 23.0503101348877 16.95835494995117 21.96492195129395 C 15.87232685089111 20.87933731079102 14.67843818664551 19.89400482177734 13.4088830947876 19.03633689880371 C 12.12757682800293 18.1703929901123 10.7571325302124 17.42644882202148 9.335771560668945 16.82503128051758 C 6.378688335418701 15.57450485229492 3.237632513046265 14.94039344787598 -6.259494512050878e-06 14.94039344787598 L -6.259494512050878e-06 4.401313162816223e-06 L 217.0312652587891 4.401313162816223e-06 L 217.0312652587891 14.94364356994629 C 216.9025268554688 14.94158744812012 216.7738037109375 14.94039344787598 216.6376953125 14.94039344787598 C 213.4000549316406 14.94039344787598 210.2594146728516 15.57450485229492 207.3023529052734 16.82503128051758 C 205.8809661865234 17.42644882202148 204.5105285644531 18.1703929901123 203.2292175292969 19.03633689880371 C 201.9592132568359 19.89400482177734 200.7653198242188 20.87933731079102 199.6797485351562 21.96492195129395 C 198.5941619873047 23.0503101348877 197.6090240478516 24.24450492858887 196.7513580322266 25.5143928527832 C 195.8845520019531 26.79700469970703 195.1404113769531 28.16778182983398 194.5401916503906 29.58850479125977 C 193.2893218994141 32.5448112487793 192.6551818847656 35.68586730957031 192.6551818847656 38.92436599731445 C 192.6551818847656 42.16264343261719 193.2893218994141 45.3034782409668 194.5401916503906 48.25947570800781 C 195.1404113769531 49.68006134033203 195.8845520019531 51.05064392089844 196.7513580322266 52.33336639404297 C 197.6090240478516 53.60336685180664 198.5941619873047 54.79756164550781 199.6797485351562 55.88272476196289 C 200.7649078369141 56.96820068359375 201.9588012695312 57.95342254638672 203.2292175292969 58.81130981445312 C 204.5109710693359 59.67747497558594 205.8818206787109 60.42142105102539 207.3023529052734 61.02228164672852 C 210.2594146728516 62.27292251586914 213.4000549316406 62.90705871582031 216.6376953125 62.90705871582031 C 216.7651062011719 62.90705871582031 216.8942718505859 62.90594863891602 217.0312652587891 62.90378189086914 L 217.0312652587891 77.84861755371094 L 217.0312652587891 77.84894561767578 Z" stroke="none" fill="rgba(112,112,112,0.38)"/>
      </g>
    </g>
    <text id="ATTENDING_AN_EVENT_" data-name="ATTENDING AN EVENT ?" transform="translate(-7939.417 -653.973)" fill="#162438" font-size="7" font-family="DINPro, DIN Pro"><tspan x="-38.251" y="0">ATTENDING AN EVENT ?</tspan></text>
    <g id="Group_2743" data-name="Group 2743" transform="translate(-8007.37 -689.546)">
      <g id="Repeat_Grid_19" data-name="Repeat Grid 19" transform="translate(0 0)" clip-path="url(#clip-path)">
        <g transform="translate(-499 -1207)">
          <g id="Ellipse_197" data-name="Ellipse 197" transform="translate(499 1207)" fill="none" stroke="#707070" stroke-width="1">
            <circle cx="0.5" cy="0.5" r="0.5" stroke="none"/>
            <circle cx="0.5" cy="0.5" fill="none"/>
          </g>
        </g>
        <g transform="translate(-499 -1203)">
          <g id="Ellipse_197-2" data-name="Ellipse 197" transform="translate(499 1207)" fill="none" stroke="#707070" stroke-width="1">
            <circle cx="0.5" cy="0.5" r="0.5" stroke="none"/>
            <circle cx="0.5" cy="0.5" fill="none"/>
          </g>
        </g>
        <g transform="translate(-499 -1199)">
          <g id="Ellipse_197-3" data-name="Ellipse 197" transform="translate(499 1207)" fill="none" stroke="#707070" stroke-width="1">
            <circle cx="0.5" cy="0.5" r="0.5" stroke="none"/>
            <circle cx="0.5" cy="0.5" fill="none"/>
          </g>
        </g>
        <g transform="translate(-499 -1195)">
          <g id="Ellipse_197-4" data-name="Ellipse 197" transform="translate(499 1207)" fill="none" stroke="#707070" stroke-width="1">
            <circle cx="0.5" cy="0.5" r="0.5" stroke="none"/>
            <circle cx="0.5" cy="0.5" fill="none"/>
          </g>
        </g>
        <g transform="translate(-499 -1191)">
          <g id="Ellipse_197-5" data-name="Ellipse 197" transform="translate(499 1207)" fill="none" stroke="#707070" stroke-width="1">
            <circle cx="0.5" cy="0.5" r="0.5" stroke="none"/>
            <circle cx="0.5" cy="0.5" fill="none"/>
          </g>
        </g>
        <g transform="translate(-499 -1187)">
          <g id="Ellipse_197-6" data-name="Ellipse 197" transform="translate(499 1207)" fill="none" stroke="#707070" stroke-width="1">
            <circle cx="0.5" cy="0.5" r="0.5" stroke="none"/>
            <circle cx="0.5" cy="0.5" fill="none"/>
          </g>
        </g>
        <g transform="translate(-499 -1183)">
          <g id="Ellipse_197-7" data-name="Ellipse 197" transform="translate(499 1207)" fill="none" stroke="#707070" stroke-width="1">
            <circle cx="0.5" cy="0.5" r="0.5" stroke="none"/>
            <circle cx="0.5" cy="0.5" fill="none"/>
          </g>
        </g>
        <g transform="translate(-499 -1179)">
          <g id="Ellipse_197-8" data-name="Ellipse 197" transform="translate(499 1207)" fill="none" stroke="#707070" stroke-width="1">
            <circle cx="0.5" cy="0.5" r="0.5" stroke="none"/>
            <circle cx="0.5" cy="0.5" fill="none"/>
          </g>
        </g>
        <g transform="translate(-499 -1175)">
          <g id="Ellipse_197-9" data-name="Ellipse 197" transform="translate(499 1207)" fill="none" stroke="#707070" stroke-width="1">
            <circle cx="0.5" cy="0.5" r="0.5" stroke="none"/>
            <circle cx="0.5" cy="0.5" fill="none"/>
          </g>
        </g>
        <g transform="translate(-499 -1171)">
          <g id="Ellipse_197-10" data-name="Ellipse 197" transform="translate(499 1207)" fill="none" stroke="#707070" stroke-width="1">
            <circle cx="0.5" cy="0.5" r="0.5" stroke="none"/>
            <circle cx="0.5" cy="0.5" fill="none"/>
          </g>
        </g>
        <g transform="translate(-499 -1167)">
          <g id="Ellipse_197-11" data-name="Ellipse 197" transform="translate(499 1207)" fill="none" stroke="#707070" stroke-width="1">
            <circle cx="0.5" cy="0.5" r="0.5" stroke="none"/>
            <circle cx="0.5" cy="0.5" fill="none"/>
          </g>
        </g>
        <g transform="translate(-499 -1163)">
          <g id="Ellipse_197-12" data-name="Ellipse 197" transform="translate(499 1207)" fill="none" stroke="#707070" stroke-width="1">
            <circle cx="0.5" cy="0.5" r="0.5" stroke="none"/>
            <circle cx="0.5" cy="0.5" fill="none"/>
          </g>
        </g>
        <g transform="translate(-499 -1159)">
          <g id="Ellipse_197-13" data-name="Ellipse 197" transform="translate(499 1207)" fill="none" stroke="#707070" stroke-width="1">
            <circle cx="0.5" cy="0.5" r="0.5" stroke="none"/>
            <circle cx="0.5" cy="0.5" fill="none"/>
          </g>
        </g>
        <g transform="translate(-499 -1155)">
          <g id="Ellipse_197-14" data-name="Ellipse 197" transform="translate(499 1207)" fill="none" stroke="#707070" stroke-width="1">
            <circle cx="0.5" cy="0.5" r="0.5" stroke="none"/>
            <circle cx="0.5" cy="0.5" fill="none"/>
          </g>
        </g>
        <g transform="translate(-499 -1151)">
          <g id="Ellipse_197-15" data-name="Ellipse 197" transform="translate(499 1207)" fill="none" stroke="#707070" stroke-width="1">
            <circle cx="0.5" cy="0.5" r="0.5" stroke="none"/>
            <circle cx="0.5" cy="0.5" fill="none"/>
          </g>
        </g>
        <g transform="translate(-499 -1147)">
          <g id="Ellipse_197-16" data-name="Ellipse 197" transform="translate(499 1207)" fill="none" stroke="#707070" stroke-width="1">
            <circle cx="0.5" cy="0.5" r="0.5" stroke="none"/>
            <circle cx="0.5" cy="0.5" fill="none"/>
          </g>
        </g>
        <g transform="translate(-499 -1143)">
          <g id="Ellipse_197-17" data-name="Ellipse 197" transform="translate(499 1207)" fill="none" stroke="#707070" stroke-width="1">
            <circle cx="0.5" cy="0.5" r="0.5" stroke="none"/>
            <circle cx="0.5" cy="0.5" fill="none"/>
          </g>
        </g>
        <g transform="translate(-499 -1139)">
          <g id="Ellipse_197-18" data-name="Ellipse 197" transform="translate(499 1207)" fill="none" stroke="#707070" stroke-width="1">
            <circle cx="0.5" cy="0.5" r="0.5" stroke="none"/>
            <circle cx="0.5" cy="0.5" fill="none"/>
          </g>
        </g>
      </g>
      <g id="Repeat_Grid_20" data-name="Repeat Grid 20" transform="translate(145.19 0)" clip-path="url(#clip-path)">
        <g transform="translate(-499 -1207)">
          <g id="Ellipse_197-19" data-name="Ellipse 197" transform="translate(499 1207)" fill="none" stroke="#707070" stroke-width="1">
            <circle cx="0.5" cy="0.5" r="0.5" stroke="none"/>
            <circle cx="0.5" cy="0.5" fill="none"/>
          </g>
        </g>
        <g transform="translate(-499 -1203)">
          <g id="Ellipse_197-20" data-name="Ellipse 197" transform="translate(499 1207)" fill="none" stroke="#707070" stroke-width="1">
            <circle cx="0.5" cy="0.5" r="0.5" stroke="none"/>
            <circle cx="0.5" cy="0.5" fill="none"/>
          </g>
        </g>
        <g transform="translate(-499 -1199)">
          <g id="Ellipse_197-21" data-name="Ellipse 197" transform="translate(499 1207)" fill="none" stroke="#707070" stroke-width="1">
            <circle cx="0.5" cy="0.5" r="0.5" stroke="none"/>
            <circle cx="0.5" cy="0.5" fill="none"/>
          </g>
        </g>
        <g transform="translate(-499 -1195)">
          <g id="Ellipse_197-22" data-name="Ellipse 197" transform="translate(499 1207)" fill="none" stroke="#707070" stroke-width="1">
            <circle cx="0.5" cy="0.5" r="0.5" stroke="none"/>
            <circle cx="0.5" cy="0.5" fill="none"/>
          </g>
        </g>
        <g transform="translate(-499 -1191)">
          <g id="Ellipse_197-23" data-name="Ellipse 197" transform="translate(499 1207)" fill="none" stroke="#707070" stroke-width="1">
            <circle cx="0.5" cy="0.5" r="0.5" stroke="none"/>
            <circle cx="0.5" cy="0.5" fill="none"/>
          </g>
        </g>
        <g transform="translate(-499 -1187)">
          <g id="Ellipse_197-24" data-name="Ellipse 197" transform="translate(499 1207)" fill="none" stroke="#707070" stroke-width="1">
            <circle cx="0.5" cy="0.5" r="0.5" stroke="none"/>
            <circle cx="0.5" cy="0.5" fill="none"/>
          </g>
        </g>
        <g transform="translate(-499 -1183)">
          <g id="Ellipse_197-25" data-name="Ellipse 197" transform="translate(499 1207)" fill="none" stroke="#707070" stroke-width="1">
            <circle cx="0.5" cy="0.5" r="0.5" stroke="none"/>
            <circle cx="0.5" cy="0.5" fill="none"/>
          </g>
        </g>
        <g transform="translate(-499 -1179)">
          <g id="Ellipse_197-26" data-name="Ellipse 197" transform="translate(499 1207)" fill="none" stroke="#707070" stroke-width="1">
            <circle cx="0.5" cy="0.5" r="0.5" stroke="none"/>
            <circle cx="0.5" cy="0.5" fill="none"/>
          </g>
        </g>
        <g transform="translate(-499 -1175)">
          <g id="Ellipse_197-27" data-name="Ellipse 197" transform="translate(499 1207)" fill="none" stroke="#707070" stroke-width="1">
            <circle cx="0.5" cy="0.5" r="0.5" stroke="none"/>
            <circle cx="0.5" cy="0.5" fill="none"/>
          </g>
        </g>
        <g transform="translate(-499 -1171)">
          <g id="Ellipse_197-28" data-name="Ellipse 197" transform="translate(499 1207)" fill="none" stroke="#707070" stroke-width="1">
            <circle cx="0.5" cy="0.5" r="0.5" stroke="none"/>
            <circle cx="0.5" cy="0.5" fill="none"/>
          </g>
        </g>
        <g transform="translate(-499 -1167)">
          <g id="Ellipse_197-29" data-name="Ellipse 197" transform="translate(499 1207)" fill="none" stroke="#707070" stroke-width="1">
            <circle cx="0.5" cy="0.5" r="0.5" stroke="none"/>
            <circle cx="0.5" cy="0.5" fill="none"/>
          </g>
        </g>
        <g transform="translate(-499 -1163)">
          <g id="Ellipse_197-30" data-name="Ellipse 197" transform="translate(499 1207)" fill="none" stroke="#707070" stroke-width="1">
            <circle cx="0.5" cy="0.5" r="0.5" stroke="none"/>
            <circle cx="0.5" cy="0.5" fill="none"/>
          </g>
        </g>
        <g transform="translate(-499 -1159)">
          <g id="Ellipse_197-31" data-name="Ellipse 197" transform="translate(499 1207)" fill="none" stroke="#707070" stroke-width="1">
            <circle cx="0.5" cy="0.5" r="0.5" stroke="none"/>
            <circle cx="0.5" cy="0.5" fill="none"/>
          </g>
        </g>
        <g transform="translate(-499 -1155)">
          <g id="Ellipse_197-32" data-name="Ellipse 197" transform="translate(499 1207)" fill="none" stroke="#707070" stroke-width="1">
            <circle cx="0.5" cy="0.5" r="0.5" stroke="none"/>
            <circle cx="0.5" cy="0.5" fill="none"/>
          </g>
        </g>
        <g transform="translate(-499 -1151)">
          <g id="Ellipse_197-33" data-name="Ellipse 197" transform="translate(499 1207)" fill="none" stroke="#707070" stroke-width="1">
            <circle cx="0.5" cy="0.5" r="0.5" stroke="none"/>
            <circle cx="0.5" cy="0.5" fill="none"/>
          </g>
        </g>
        <g transform="translate(-499 -1147)">
          <g id="Ellipse_197-34" data-name="Ellipse 197" transform="translate(499 1207)" fill="none" stroke="#707070" stroke-width="1">
            <circle cx="0.5" cy="0.5" r="0.5" stroke="none"/>
            <circle cx="0.5" cy="0.5" fill="none"/>
          </g>
        </g>
        <g transform="translate(-499 -1143)">
          <g id="Ellipse_197-35" data-name="Ellipse 197" transform="translate(499 1207)" fill="none" stroke="#707070" stroke-width="1">
            <circle cx="0.5" cy="0.5" r="0.5" stroke="none"/>
            <circle cx="0.5" cy="0.5" fill="none"/>
          </g>
        </g>
        <g transform="translate(-499 -1139)">
          <g id="Ellipse_197-36" data-name="Ellipse 197" transform="translate(499 1207)" fill="none" stroke="#707070" stroke-width="1">
            <circle cx="0.5" cy="0.5" r="0.5" stroke="none"/>
            <circle cx="0.5" cy="0.5" fill="none"/>
          </g>
        </g>
      </g>
    </g>
  </g>
</svg>
