<svg xmlns="http://www.w3.org/2000/svg" width="70.963" height="70.964" viewBox="0 0 70.963 70.964">
  <g id="Group_3070" data-name="Group 3070" transform="translate(-275.984 -398.025)">
    <g id="Group_2599" data-name="Group 2599" transform="translate(283.08 405.121)">
      <g id="Group_2598" data-name="Group 2598">
        <rect id="Rectangle_2193" data-name="Rectangle 2193" width="7.096" height="7.096" fill="#88989b"/>
      </g>
    </g>
    <g id="Group_2601" data-name="Group 2601" transform="translate(322.11 398.025)">
      <g id="Group_2600" data-name="Group 2600">
        <path id="Path_1767" data-name="Path 1767" d="M336.348,0V3.548H332.8V7.1h3.548V21.289H339.9v3.548h-3.548v3.548h7.1v-7.1h10.645v3.548h3.548V0Zm17.741,17.741H339.9V3.548h14.193Z" transform="translate(-332.8)" fill="#88989b"/>
      </g>
    </g>
    <g id="Group_2603" data-name="Group 2603" transform="translate(332.755 405.121)">
      <g id="Group_2602" data-name="Group 2602">
        <rect id="Rectangle_2194" data-name="Rectangle 2194" width="7.096" height="7.096" fill="#88989b"/>
      </g>
    </g>
    <g id="Group_2605" data-name="Group 2605" transform="translate(283.08 454.796)">
      <g id="Group_2604" data-name="Group 2604">
        <rect id="Rectangle_2195" data-name="Rectangle 2195" width="7.096" height="7.096" fill="#88989b"/>
      </g>
    </g>
    <g id="Group_2607" data-name="Group 2607" transform="translate(325.658 447.7)">
      <g id="Group_2606" data-name="Group 2606">
        <rect id="Rectangle_2196" data-name="Rectangle 2196" width="3.548" height="3.548" fill="#88989b"/>
      </g>
    </g>
    <g id="Group_2609" data-name="Group 2609" transform="translate(307.917 465.441)">
      <g id="Group_2608" data-name="Group 2608">
        <rect id="Rectangle_2197" data-name="Rectangle 2197" width="3.548" height="3.548" fill="#88989b"/>
      </g>
    </g>
    <g id="Group_2611" data-name="Group 2611" transform="translate(311.466 451.248)">
      <g id="Group_2610" data-name="Group 2610">
        <rect id="Rectangle_2198" data-name="Rectangle 2198" width="3.548" height="3.548" fill="#88989b"/>
      </g>
    </g>
    <g id="Group_2613" data-name="Group 2613" transform="translate(311.466 458.344)">
      <g id="Group_2612" data-name="Group 2612">
        <rect id="Rectangle_2199" data-name="Rectangle 2199" width="3.548" height="3.548" fill="#88989b"/>
      </g>
    </g>
    <g id="Group_2615" data-name="Group 2615" transform="translate(343.399 440.603)">
      <g id="Group_2614" data-name="Group 2614">
        <rect id="Rectangle_2200" data-name="Rectangle 2200" width="3.548" height="3.548" fill="#88989b"/>
      </g>
    </g>
    <g id="Group_2617" data-name="Group 2617" transform="translate(275.984 440.603)">
      <g id="Group_2616" data-name="Group 2616">
        <rect id="Rectangle_2201" data-name="Rectangle 2201" width="3.548" height="3.548" fill="#88989b"/>
      </g>
    </g>
    <g id="Group_2619" data-name="Group 2619" transform="translate(275.984 422.862)">
      <g id="Group_2618" data-name="Group 2618">
        <rect id="Rectangle_2202" data-name="Rectangle 2202" width="3.548" height="3.548" fill="#88989b"/>
      </g>
    </g>
    <g id="Group_2621" data-name="Group 2621" transform="translate(307.917 401.573)">
      <g id="Group_2620" data-name="Group 2620">
        <path id="Path_1768" data-name="Path 1768" d="M237.5,25.6v3.548h-7.1V32.7h10.645V25.6Z" transform="translate(-230.4 -25.6)" fill="#88989b"/>
      </g>
    </g>
    <g id="Group_2623" data-name="Group 2623" transform="translate(300.821 426.411)">
      <g id="Group_2622" data-name="Group 2622">
        <path id="Path_1769" data-name="Path 1769" d="M221.778,204.8v3.548h-7.1V211.9H204.037v-3.548h-3.548V211.9h-7.1v3.548h10.645v3.548H193.393v-3.548h-3.548v3.548H186.3v-3.548h-3.548v3.548H179.2v3.548h7.1v3.548h3.548v-3.548h7.1v3.548h-3.548v3.548h3.548v7.1h3.548v3.548h3.548v-3.548h10.645v-7.1h3.548v-3.548h-3.548v-7.1h-7.1v-3.548h7.1v3.548h3.548v-3.548h3.548V211.9h3.548v-7.1Zm-10.645,17.741v10.645H200.489V222.541Z" transform="translate(-179.2 -204.8)" fill="#88989b"/>
      </g>
    </g>
    <g id="Group_2625" data-name="Group 2625" transform="translate(315.014 419.314)">
      <g id="Group_2624" data-name="Group 2624">
        <path id="Path_1770" data-name="Path 1770" d="M288.7,153.6h-3.548v3.548H281.6v7.1h3.548V160.7H288.7v-3.548h3.548V153.6Z" transform="translate(-281.6 -153.6)" fill="#88989b"/>
      </g>
    </g>
    <g id="Group_2627" data-name="Group 2627" transform="translate(315.014 465.441)">
      <g id="Group_2626" data-name="Group 2626">
        <rect id="Rectangle_2203" data-name="Rectangle 2203" width="7.096" height="3.548" fill="#88989b"/>
      </g>
    </g>
    <g id="Group_2629" data-name="Group 2629" transform="translate(304.369 401.573)">
      <g id="Group_2628" data-name="Group 2628">
        <rect id="Rectangle_2204" data-name="Rectangle 2204" width="3.548" height="3.548" fill="#88989b"/>
      </g>
    </g>
    <g id="Group_2631" data-name="Group 2631" transform="translate(332.755 426.411)">
      <g id="Group_2630" data-name="Group 2630">
        <rect id="Rectangle_2205" data-name="Rectangle 2205" width="3.548" height="3.548" fill="#88989b"/>
      </g>
    </g>
    <g id="Group_2633" data-name="Group 2633" transform="translate(336.303 422.862)">
      <g id="Group_2632" data-name="Group 2632">
        <rect id="Rectangle_2206" data-name="Rectangle 2206" width="3.548" height="3.548" fill="#88989b"/>
      </g>
    </g>
    <g id="Group_2635" data-name="Group 2635" transform="translate(290.176 440.603)">
      <g id="Group_2634" data-name="Group 2634">
        <rect id="Rectangle_2207" data-name="Rectangle 2207" width="3.548" height="3.548" fill="#88989b"/>
      </g>
    </g>
    <g id="Group_2637" data-name="Group 2637" transform="translate(275.984 444.152)">
      <g id="Group_2636" data-name="Group 2636">
        <path id="Path_1771" data-name="Path 1771" d="M21.289,354.089V339.9h3.548v-7.1H21.289v3.548H10.645V332.8h-7.1v3.548H0v21.289H28.386v-3.548Zm-3.548,0H3.548V339.9H17.741Z" transform="translate(0 -332.8)" fill="#88989b"/>
      </g>
    </g>
    <g id="Group_2639" data-name="Group 2639" transform="translate(297.273 419.314)">
      <g id="Group_2638" data-name="Group 2638">
        <rect id="Rectangle_2208" data-name="Rectangle 2208" width="3.548" height="3.548" fill="#88989b"/>
      </g>
    </g>
    <g id="Group_2641" data-name="Group 2641" transform="translate(275.984 398.025)">
      <g id="Group_2640" data-name="Group 2640">
        <path id="Path_1772" data-name="Path 1772" d="M24.837,0H0V21.289H3.548v3.548H7.1V21.289h3.548v3.548h3.548V21.289h7.1v-7.1h3.548V10.645H21.289v-7.1h7.1V0Zm-7.1,17.741H3.548V3.548H17.741Z" fill="#88989b"/>
      </g>
    </g>
    <g id="Group_2643" data-name="Group 2643" transform="translate(318.562 408.669)">
      <g id="Group_2642" data-name="Group 2642">
        <rect id="Rectangle_2209" data-name="Rectangle 2209" width="3.548" height="3.548" fill="#88989b"/>
      </g>
    </g>
    <g id="Group_2645" data-name="Group 2645" transform="translate(311.466 398.025)">
      <g id="Group_2644" data-name="Group 2644">
        <rect id="Rectangle_2210" data-name="Rectangle 2210" width="3.548" height="3.548" fill="#88989b"/>
      </g>
    </g>
    <g id="Group_2647" data-name="Group 2647" transform="translate(275.984 412.218)">
      <g id="Group_2646" data-name="Group 2646">
        <path id="Path_1773" data-name="Path 1773" d="M42.578,109.5v-3.548H39.03V102.4H35.482v3.548h-7.1V102.4H24.837v7.1h3.548v7.1H17.741v-3.548H14.193v3.548H3.548v3.548h7.1v3.548H0v3.548H10.645v3.548h3.548v-3.548h3.548v3.548h3.548v-3.548h7.1v-3.548H24.837v-3.548h7.1v3.548h7.1v-3.548H35.482v-3.548H31.934v-7.1ZM21.289,123.689h-7.1v-3.548h7.1Z" transform="translate(0 -102.4)" fill="#88989b"/>
      </g>
    </g>
    <g id="Group_2649" data-name="Group 2649" transform="translate(300.821 447.7)">
      <g id="Group_2648" data-name="Group 2648">
        <path id="Path_1774" data-name="Path 1774" d="M186.3,365.5v-7.1h-3.548v3.548H179.2V365.5h3.548v3.548H179.2v3.548h7.1v-3.548h3.548V365.5Z" transform="translate(-179.2 -358.4)" fill="#88989b"/>
      </g>
    </g>
    <g id="Group_2651" data-name="Group 2651" transform="translate(325.658 458.344)">
      <g id="Group_2650" data-name="Group 2650">
        <path id="Path_1775" data-name="Path 1775" d="M372.593,438.748V435.2h-3.548v3.548H358.4V442.3h7.1v3.548h3.548V442.3h7.1v3.548h3.548v-7.1Z" transform="translate(-358.4 -435.2)" fill="#88989b"/>
      </g>
    </g>
    <g id="Group_2653" data-name="Group 2653" transform="translate(339.851 447.7)">
      <g id="Group_2652" data-name="Group 2652">
        <path id="Path_1776" data-name="Path 1776" d="M464.348,358.4v3.548H460.8V365.5h7.1v-7.1Z" transform="translate(-460.8 -358.4)" fill="#88989b"/>
      </g>
    </g>
  </g>
</svg>
