<svg xmlns="http://www.w3.org/2000/svg" width="213" height="115" viewBox="0 0 213 115">
  <g id="Group_2793" data-name="Group 2793" transform="translate(-170 -928)">
    <circle id="Ellipse_21" data-name="Ellipse 21" cx="1.5" cy="1.5" r="1.5" transform="translate(170 928)" fill="#c2c5ca"/>
    <circle id="Ellipse_21-2" data-name="Ellipse 21" cx="1.5" cy="1.5" r="1.5" transform="translate(191 928)" fill="#c2c5ca"/>
    <circle id="Ellipse_21-3" data-name="Ellipse 21" cx="1.5" cy="1.5" r="1.5" transform="translate(212 928)" fill="#c2c5ca"/>
    <circle id="Ellipse_21-4" data-name="Ellipse 21" cx="1.5" cy="1.5" r="1.5" transform="translate(233 928)" fill="#c2c5ca"/>
    <circle id="Ellipse_21-5" data-name="Ellipse 21" cx="1.5" cy="1.5" r="1.5" transform="translate(254 928)" fill="#c2c5ca"/>
    <circle id="Ellipse_21-6" data-name="Ellipse 21" cx="1.5" cy="1.5" r="1.5" transform="translate(275 928)" fill="#c2c5ca"/>
    <circle id="Ellipse_21-7" data-name="Ellipse 21" cx="1.5" cy="1.5" r="1.5" transform="translate(296 928)" fill="#c2c5ca"/>
    <circle id="Ellipse_21-8" data-name="Ellipse 21" cx="1.5" cy="1.5" r="1.5" transform="translate(317 928)" fill="#c2c5ca"/>
    <circle id="Ellipse_21-9" data-name="Ellipse 21" cx="1.5" cy="1.5" r="1.5" transform="translate(338 928)" fill="#c2c5ca"/>
    <circle id="Ellipse_21-10" data-name="Ellipse 21" cx="1.5" cy="1.5" r="1.5" transform="translate(359 928)" fill="#c2c5ca"/>
    <circle id="Ellipse_21-11" data-name="Ellipse 21" cx="1.5" cy="1.5" r="1.5" transform="translate(380 928)" fill="#c2c5ca"/>
    <circle id="Ellipse_21-12" data-name="Ellipse 21" cx="1.5" cy="1.5" r="1.5" transform="translate(170 942)" fill="#c2c5ca"/>
    <circle id="Ellipse_21-13" data-name="Ellipse 21" cx="1.5" cy="1.5" r="1.5" transform="translate(191 942)" fill="#c2c5ca"/>
    <circle id="Ellipse_21-14" data-name="Ellipse 21" cx="1.5" cy="1.5" r="1.5" transform="translate(212 942)" fill="#c2c5ca"/>
    <circle id="Ellipse_21-15" data-name="Ellipse 21" cx="1.5" cy="1.5" r="1.5" transform="translate(233 942)" fill="#c2c5ca"/>
    <circle id="Ellipse_21-16" data-name="Ellipse 21" cx="1.5" cy="1.5" r="1.5" transform="translate(254 942)" fill="#c2c5ca"/>
    <circle id="Ellipse_21-17" data-name="Ellipse 21" cx="1.5" cy="1.5" r="1.5" transform="translate(275 942)" fill="#c2c5ca"/>
    <circle id="Ellipse_21-18" data-name="Ellipse 21" cx="1.5" cy="1.5" r="1.5" transform="translate(296 942)" fill="#c2c5ca"/>
    <circle id="Ellipse_21-19" data-name="Ellipse 21" cx="1.5" cy="1.5" r="1.5" transform="translate(317 942)" fill="#c2c5ca"/>
    <circle id="Ellipse_21-20" data-name="Ellipse 21" cx="1.5" cy="1.5" r="1.5" transform="translate(338 942)" fill="#c2c5ca"/>
    <circle id="Ellipse_21-21" data-name="Ellipse 21" cx="1.5" cy="1.5" r="1.5" transform="translate(359 942)" fill="#c2c5ca"/>
    <circle id="Ellipse_21-22" data-name="Ellipse 21" cx="1.5" cy="1.5" r="1.5" transform="translate(380 942)" fill="#c2c5ca"/>
    <circle id="Ellipse_21-23" data-name="Ellipse 21" cx="1.5" cy="1.5" r="1.5" transform="translate(170 956)" fill="#c2c5ca"/>
    <circle id="Ellipse_21-24" data-name="Ellipse 21" cx="1.5" cy="1.5" r="1.5" transform="translate(191 956)" fill="#c2c5ca"/>
    <circle id="Ellipse_21-25" data-name="Ellipse 21" cx="1.5" cy="1.5" r="1.5" transform="translate(212 956)" fill="#c2c5ca"/>
    <circle id="Ellipse_21-26" data-name="Ellipse 21" cx="1.5" cy="1.5" r="1.5" transform="translate(233 956)" fill="#c2c5ca"/>
    <circle id="Ellipse_21-27" data-name="Ellipse 21" cx="1.5" cy="1.5" r="1.5" transform="translate(254 956)" fill="#c2c5ca"/>
    <circle id="Ellipse_21-28" data-name="Ellipse 21" cx="1.5" cy="1.5" r="1.5" transform="translate(275 956)" fill="#c2c5ca"/>
    <circle id="Ellipse_21-29" data-name="Ellipse 21" cx="1.5" cy="1.5" r="1.5" transform="translate(296 956)" fill="#c2c5ca"/>
    <circle id="Ellipse_21-30" data-name="Ellipse 21" cx="1.5" cy="1.5" r="1.5" transform="translate(317 956)" fill="#c2c5ca"/>
    <circle id="Ellipse_21-31" data-name="Ellipse 21" cx="1.5" cy="1.5" r="1.5" transform="translate(338 956)" fill="#c2c5ca"/>
    <circle id="Ellipse_21-32" data-name="Ellipse 21" cx="1.5" cy="1.5" r="1.5" transform="translate(359 956)" fill="#c2c5ca"/>
    <circle id="Ellipse_21-33" data-name="Ellipse 21" cx="1.5" cy="1.5" r="1.5" transform="translate(380 956)" fill="#c2c5ca"/>
    <circle id="Ellipse_21-34" data-name="Ellipse 21" cx="1.5" cy="1.5" r="1.5" transform="translate(170 970)" fill="#c2c5ca"/>
    <circle id="Ellipse_21-35" data-name="Ellipse 21" cx="1.5" cy="1.5" r="1.5" transform="translate(191 970)" fill="#c2c5ca"/>
    <circle id="Ellipse_21-36" data-name="Ellipse 21" cx="1.5" cy="1.5" r="1.5" transform="translate(212 970)" fill="#c2c5ca"/>
    <circle id="Ellipse_21-37" data-name="Ellipse 21" cx="1.5" cy="1.5" r="1.5" transform="translate(233 970)" fill="#c2c5ca"/>
    <circle id="Ellipse_21-38" data-name="Ellipse 21" cx="1.5" cy="1.5" r="1.5" transform="translate(254 970)" fill="#c2c5ca"/>
    <circle id="Ellipse_21-39" data-name="Ellipse 21" cx="1.5" cy="1.5" r="1.5" transform="translate(275 970)" fill="#c2c5ca"/>
    <circle id="Ellipse_21-40" data-name="Ellipse 21" cx="1.5" cy="1.5" r="1.5" transform="translate(296 970)" fill="#c2c5ca"/>
    <circle id="Ellipse_21-41" data-name="Ellipse 21" cx="1.5" cy="1.5" r="1.5" transform="translate(317 970)" fill="#c2c5ca"/>
    <circle id="Ellipse_21-42" data-name="Ellipse 21" cx="1.5" cy="1.5" r="1.5" transform="translate(338 970)" fill="#c2c5ca"/>
    <circle id="Ellipse_21-43" data-name="Ellipse 21" cx="1.5" cy="1.5" r="1.5" transform="translate(359 970)" fill="#c2c5ca"/>
    <circle id="Ellipse_21-44" data-name="Ellipse 21" cx="1.5" cy="1.5" r="1.5" transform="translate(380 970)" fill="#c2c5ca"/>
    <circle id="Ellipse_21-45" data-name="Ellipse 21" cx="1.5" cy="1.5" r="1.5" transform="translate(170 984)" fill="#c2c5ca"/>
    <circle id="Ellipse_21-46" data-name="Ellipse 21" cx="1.5" cy="1.5" r="1.5" transform="translate(191 984)" fill="#c2c5ca"/>
    <circle id="Ellipse_21-47" data-name="Ellipse 21" cx="1.5" cy="1.5" r="1.5" transform="translate(212 984)" fill="#c2c5ca"/>
    <circle id="Ellipse_21-48" data-name="Ellipse 21" cx="1.5" cy="1.5" r="1.5" transform="translate(233 984)" fill="#c2c5ca"/>
    <circle id="Ellipse_21-49" data-name="Ellipse 21" cx="1.5" cy="1.5" r="1.5" transform="translate(254 984)" fill="#c2c5ca"/>
    <circle id="Ellipse_21-50" data-name="Ellipse 21" cx="1.5" cy="1.5" r="1.5" transform="translate(275 984)" fill="#c2c5ca"/>
    <circle id="Ellipse_21-51" data-name="Ellipse 21" cx="1.5" cy="1.5" r="1.5" transform="translate(296 984)" fill="#c2c5ca"/>
    <circle id="Ellipse_21-52" data-name="Ellipse 21" cx="1.5" cy="1.5" r="1.5" transform="translate(317 984)" fill="#c2c5ca"/>
    <circle id="Ellipse_21-53" data-name="Ellipse 21" cx="1.5" cy="1.5" r="1.5" transform="translate(338 984)" fill="#c2c5ca"/>
    <circle id="Ellipse_21-54" data-name="Ellipse 21" cx="1.5" cy="1.5" r="1.5" transform="translate(359 984)" fill="#c2c5ca"/>
    <circle id="Ellipse_21-55" data-name="Ellipse 21" cx="1.5" cy="1.5" r="1.5" transform="translate(380 984)" fill="#c2c5ca"/>
    <circle id="Ellipse_21-56" data-name="Ellipse 21" cx="1.5" cy="1.5" r="1.5" transform="translate(170 998)" fill="#c2c5ca"/>
    <circle id="Ellipse_21-57" data-name="Ellipse 21" cx="1.5" cy="1.5" r="1.5" transform="translate(191 998)" fill="#c2c5ca"/>
    <circle id="Ellipse_21-58" data-name="Ellipse 21" cx="1.5" cy="1.5" r="1.5" transform="translate(212 998)" fill="#c2c5ca"/>
    <circle id="Ellipse_21-59" data-name="Ellipse 21" cx="1.5" cy="1.5" r="1.5" transform="translate(233 998)" fill="#c2c5ca"/>
    <circle id="Ellipse_21-60" data-name="Ellipse 21" cx="1.5" cy="1.5" r="1.5" transform="translate(254 998)" fill="#c2c5ca"/>
    <circle id="Ellipse_21-61" data-name="Ellipse 21" cx="1.5" cy="1.5" r="1.5" transform="translate(275 998)" fill="#c2c5ca"/>
    <circle id="Ellipse_21-62" data-name="Ellipse 21" cx="1.5" cy="1.5" r="1.5" transform="translate(296 998)" fill="#c2c5ca"/>
    <circle id="Ellipse_21-63" data-name="Ellipse 21" cx="1.5" cy="1.5" r="1.5" transform="translate(317 998)" fill="#c2c5ca"/>
    <circle id="Ellipse_21-64" data-name="Ellipse 21" cx="1.5" cy="1.5" r="1.5" transform="translate(338 998)" fill="#c2c5ca"/>
    <circle id="Ellipse_21-65" data-name="Ellipse 21" cx="1.5" cy="1.5" r="1.5" transform="translate(359 998)" fill="#c2c5ca"/>
    <circle id="Ellipse_21-66" data-name="Ellipse 21" cx="1.5" cy="1.5" r="1.5" transform="translate(380 998)" fill="#c2c5ca"/>
    <circle id="Ellipse_21-67" data-name="Ellipse 21" cx="1.5" cy="1.5" r="1.5" transform="translate(170 1012)" fill="#c2c5ca"/>
    <circle id="Ellipse_21-68" data-name="Ellipse 21" cx="1.5" cy="1.5" r="1.5" transform="translate(191 1012)" fill="#c2c5ca"/>
    <circle id="Ellipse_21-69" data-name="Ellipse 21" cx="1.5" cy="1.5" r="1.5" transform="translate(212 1012)" fill="#c2c5ca"/>
    <circle id="Ellipse_21-70" data-name="Ellipse 21" cx="1.5" cy="1.5" r="1.5" transform="translate(233 1012)" fill="#c2c5ca"/>
    <circle id="Ellipse_21-71" data-name="Ellipse 21" cx="1.5" cy="1.5" r="1.5" transform="translate(254 1012)" fill="#c2c5ca"/>
    <circle id="Ellipse_21-72" data-name="Ellipse 21" cx="1.5" cy="1.5" r="1.5" transform="translate(275 1012)" fill="#c2c5ca"/>
    <circle id="Ellipse_21-73" data-name="Ellipse 21" cx="1.5" cy="1.5" r="1.5" transform="translate(296 1012)" fill="#c2c5ca"/>
    <circle id="Ellipse_21-74" data-name="Ellipse 21" cx="1.5" cy="1.5" r="1.5" transform="translate(317 1012)" fill="#c2c5ca"/>
    <circle id="Ellipse_21-75" data-name="Ellipse 21" cx="1.5" cy="1.5" r="1.5" transform="translate(338 1012)" fill="#c2c5ca"/>
    <circle id="Ellipse_21-76" data-name="Ellipse 21" cx="1.5" cy="1.5" r="1.5" transform="translate(359 1012)" fill="#c2c5ca"/>
    <circle id="Ellipse_21-77" data-name="Ellipse 21" cx="1.5" cy="1.5" r="1.5" transform="translate(380 1012)" fill="#c2c5ca"/>
    <circle id="Ellipse_21-78" data-name="Ellipse 21" cx="1.5" cy="1.5" r="1.5" transform="translate(170 1026)" fill="#c2c5ca"/>
    <circle id="Ellipse_21-79" data-name="Ellipse 21" cx="1.5" cy="1.5" r="1.5" transform="translate(191 1026)" fill="#c2c5ca"/>
    <circle id="Ellipse_21-80" data-name="Ellipse 21" cx="1.5" cy="1.5" r="1.5" transform="translate(212 1026)" fill="#c2c5ca"/>
    <circle id="Ellipse_21-81" data-name="Ellipse 21" cx="1.5" cy="1.5" r="1.5" transform="translate(233 1026)" fill="#c2c5ca"/>
    <circle id="Ellipse_21-82" data-name="Ellipse 21" cx="1.5" cy="1.5" r="1.5" transform="translate(254 1026)" fill="#c2c5ca"/>
    <circle id="Ellipse_21-83" data-name="Ellipse 21" cx="1.5" cy="1.5" r="1.5" transform="translate(275 1026)" fill="#c2c5ca"/>
    <circle id="Ellipse_21-84" data-name="Ellipse 21" cx="1.5" cy="1.5" r="1.5" transform="translate(296 1026)" fill="#c2c5ca"/>
    <circle id="Ellipse_21-85" data-name="Ellipse 21" cx="1.5" cy="1.5" r="1.5" transform="translate(317 1026)" fill="#c2c5ca"/>
    <circle id="Ellipse_21-86" data-name="Ellipse 21" cx="1.5" cy="1.5" r="1.5" transform="translate(338 1026)" fill="#c2c5ca"/>
    <circle id="Ellipse_21-87" data-name="Ellipse 21" cx="1.5" cy="1.5" r="1.5" transform="translate(359 1026)" fill="#c2c5ca"/>
    <circle id="Ellipse_21-88" data-name="Ellipse 21" cx="1.5" cy="1.5" r="1.5" transform="translate(380 1026)" fill="#c2c5ca"/>
    <circle id="Ellipse_21-89" data-name="Ellipse 21" cx="1.5" cy="1.5" r="1.5" transform="translate(170 1040)" fill="#c2c5ca"/>
    <circle id="Ellipse_21-90" data-name="Ellipse 21" cx="1.5" cy="1.5" r="1.5" transform="translate(191 1040)" fill="#c2c5ca"/>
    <circle id="Ellipse_21-91" data-name="Ellipse 21" cx="1.5" cy="1.5" r="1.5" transform="translate(212 1040)" fill="#c2c5ca"/>
    <circle id="Ellipse_21-92" data-name="Ellipse 21" cx="1.5" cy="1.5" r="1.5" transform="translate(233 1040)" fill="#c2c5ca"/>
    <circle id="Ellipse_21-93" data-name="Ellipse 21" cx="1.5" cy="1.5" r="1.5" transform="translate(254 1040)" fill="#c2c5ca"/>
    <circle id="Ellipse_21-94" data-name="Ellipse 21" cx="1.5" cy="1.5" r="1.5" transform="translate(275 1040)" fill="#c2c5ca"/>
    <circle id="Ellipse_21-95" data-name="Ellipse 21" cx="1.5" cy="1.5" r="1.5" transform="translate(296 1040)" fill="#c2c5ca"/>
    <circle id="Ellipse_21-96" data-name="Ellipse 21" cx="1.5" cy="1.5" r="1.5" transform="translate(317 1040)" fill="#c2c5ca"/>
    <circle id="Ellipse_21-97" data-name="Ellipse 21" cx="1.5" cy="1.5" r="1.5" transform="translate(338 1040)" fill="#c2c5ca"/>
    <circle id="Ellipse_21-98" data-name="Ellipse 21" cx="1.5" cy="1.5" r="1.5" transform="translate(359 1040)" fill="#c2c5ca"/>
    <circle id="Ellipse_21-99" data-name="Ellipse 21" cx="1.5" cy="1.5" r="1.5" transform="translate(380 1040)" fill="#c2c5ca"/>
  </g>
</svg>
