<svg xmlns="http://www.w3.org/2000/svg" width="11.269" height="11.268" viewBox="0 0 11.269 11.268">
  <path id="icons8-rocket" d="M14.268,3.021A11.542,11.542,0,0,0,6.76,6.3a3.623,3.623,0,0,0-.4.488,2.612,2.612,0,0,0-1.933.426A6.378,6.378,0,0,0,3,10.061l2.35-.336v.806l1.41,1.41h.806l-.336,2.35a6.378,6.378,0,0,0,2.845-1.423,2.612,2.612,0,0,0,.426-1.933,3.624,3.624,0,0,0,.488-.4A11.542,11.542,0,0,0,14.268,3.021Zm-3.749,2.81a.94.94,0,1,1-.94.94A.94.94,0,0,1,10.519,5.831ZM4.973,11a1.067,1.067,0,0,0-.487.276,3.166,3.166,0,0,0-.54,2.068,3.119,3.119,0,0,0,2.067-.54,1.07,1.07,0,0,0,.276-.488L6.075,12.1a.59.59,0,0,1-.061.092,1.2,1.2,0,0,1-1.145.229A1.2,1.2,0,0,1,5.1,11.276a.643.643,0,0,1,.091-.061Z" transform="translate(-3 -3.021)" fill="#adb5b5"/>
</svg>
