<svg xmlns="http://www.w3.org/2000/svg" xmlns:xlink="http://www.w3.org/1999/xlink" width="184.442" height="191.122" viewBox="0 0 184.442 191.122">
  <defs>
    <linearGradient id="linear-gradient" x1="0.5" y1="1" x2="0.5" gradientUnits="objectBoundingBox">
      <stop offset="0" stop-color="gray" stop-opacity="0.251"/>
      <stop offset="0.54" stop-color="gray" stop-opacity="0.122"/>
      <stop offset="1" stop-color="gray" stop-opacity="0.102"/>
    </linearGradient>
    <linearGradient id="linear-gradient-2" x1="6.341" y1="1" x2="6.341" y2="0" xlink:href="#linear-gradient"/>
  </defs>
  <g id="Group_2789" data-name="Group 2789" transform="translate(-399.074 -1932.194)">
    <path id="Path_1707" data-name="Path 1707" d="M910.742,237.87l-11.532-2.6S901.931,247.433,910.742,237.87Z" transform="translate(-344.678 1737.172)" fill="#4a94e9"/>
    <path id="Path_1709" data-name="Path 1709" d="M930.7,204.578l-10.54-1.848S926.78,212.8,930.7,204.578Z" transform="translate(-360.098 1761.123)" fill="#4a94e9"/>
    <rect id="Rectangle_2161" data-name="Rectangle 2161" width="150.616" height="174.878" transform="translate(399.074 1932.194)" fill="url(#linear-gradient)"/>
    <rect id="Rectangle_2162" data-name="Rectangle 2162" width="147.108" height="170.803" transform="translate(400.828 1934.229)" fill="#f7f7fd"/>
    <rect id="Rectangle_2163" data-name="Rectangle 2163" width="37.189" height="2.962" transform="translate(409.713 1953.482)" fill="#e2e2ec"/>
    <rect id="Rectangle_2164" data-name="Rectangle 2164" width="63.516" height="2.962" transform="translate(409.713 1960.723)" fill="#e2e2ec"/>
    <rect id="Rectangle_2165" data-name="Rectangle 2165" width="26.393" height="22.774" transform="translate(514.498 1950.652)" fill="#fff"/>
    <path id="Path_1715" data-name="Path 1715" d="M773.4,152.484v22.51H747.264v-22.51H773.4m.264-.264H747v23.038h26.659Z" transform="translate(-232.645 1798.301)" fill="#e2e2ec"/>
    <rect id="Rectangle_2166" data-name="Rectangle 2166" width="26.393" height="22.774" transform="translate(487.842 1950.652)" fill="#fff"/>
    <path id="Path_1716" data-name="Path 1716" d="M672.4,152.484v22.51H646.264v-22.51H672.4m.264-.264H646v23.038h26.659Z" transform="translate(-158.305 1798.301)" fill="#e2e2ec"/>
    <rect id="Rectangle_2167" data-name="Rectangle 2167" width="26.393" height="22.774" transform="translate(514.498 1973.69)" fill="#fff"/>
    <path id="Path_1717" data-name="Path 1717" d="M773.4,239.764v22.51H747.264v-22.51H773.4m.264-.264H747v23.038h26.659Z" transform="translate(-232.645 1734.059)" fill="#e2e2ec"/>
    <rect id="Rectangle_2168" data-name="Rectangle 2168" width="26.393" height="22.774" transform="translate(487.842 1973.69)" fill="#fff"/>
    <path id="Path_1718" data-name="Path 1718" d="M672.4,239.764v22.51H646.264v-22.51H672.4m.264-.264H646v23.038h26.659Z" transform="translate(-158.305 1734.059)" fill="#e2e2ec"/>
    <rect id="Rectangle_2169" data-name="Rectangle 2169" width="26.393" height="22.774" transform="translate(461.184 1973.69)" fill="#fff"/>
    <path id="Path_1719" data-name="Path 1719" d="M571.445,239.764v22.51H545.314v-22.51h26.132m.264-.264H545.05v23.038h26.659Z" transform="translate(-84 1734.059)" fill="#e2e2ec"/>
    <rect id="Rectangle_2170" data-name="Rectangle 2170" width="26.393" height="22.774" transform="translate(434.527 1973.69)" fill="#fff"/>
    <path id="Path_1720" data-name="Path 1720" d="M470.456,239.764v22.51H444.324v-22.51h26.132m.264-.264H444.06v23.038h26.659Z" transform="translate(-9.666 1734.059)" fill="#e2e2ec"/>
    <rect id="Rectangle_2171" data-name="Rectangle 2171" width="26.393" height="22.774" transform="translate(407.871 1973.69)" fill="#fff"/>
    <path id="Path_1721" data-name="Path 1721" d="M369.466,239.764v22.51H343.334v-22.51h26.132m.264-.264H343.07v23.038h26.659Z" transform="translate(64.666 1734.059)" fill="#e2e2ec"/>
    <rect id="Rectangle_2172" data-name="Rectangle 2172" width="26.393" height="22.774" transform="translate(514.498 1996.726)" fill="#fff"/>
    <path id="Path_1722" data-name="Path 1722" d="M773.4,327.044v22.51H747.264v-22.51H773.4m.264-.264H747v23.038h26.659Z" transform="translate(-232.645 1669.816)" fill="#e2e2ec"/>
    <rect id="Rectangle_2173" data-name="Rectangle 2173" width="26.393" height="22.774" transform="translate(487.842 1996.726)" fill="#fff"/>
    <path id="Path_1723" data-name="Path 1723" d="M672.4,327.044v22.51H646.264v-22.51H672.4m.264-.264H646v23.038h26.659Z" transform="translate(-158.305 1669.816)" fill="#e2e2ec"/>
    <rect id="Rectangle_2174" data-name="Rectangle 2174" width="26.393" height="22.774" transform="translate(461.184 1996.726)" fill="#fff"/>
    <path id="Path_1724" data-name="Path 1724" d="M571.445,327.044v22.51H545.314v-22.51h26.132m.264-.264H545.05v23.038h26.659Z" transform="translate(-84 1669.816)" fill="#e2e2ec"/>
    <rect id="Rectangle_2175" data-name="Rectangle 2175" width="26.393" height="22.774" transform="translate(434.527 1996.726)" fill="#fff"/>
    <path id="Path_1725" data-name="Path 1725" d="M470.456,327.044v22.51H444.324v-22.51h26.132m.264-.264H444.06v23.038h26.659Z" transform="translate(-9.666 1669.816)" fill="#e2e2ec"/>
    <rect id="Rectangle_2176" data-name="Rectangle 2176" width="26.393" height="22.774" transform="translate(407.871 1996.726)" fill="#fff"/>
    <path id="Path_1726" data-name="Path 1726" d="M369.466,327.044v22.51H343.334v-22.51h26.132m.264-.264H343.07v23.038h26.659Z" transform="translate(64.666 1669.816)" fill="#e2e2ec"/>
    <rect id="Rectangle_2177" data-name="Rectangle 2177" width="26.393" height="22.774" transform="translate(514.498 2019.764)" fill="#fff"/>
    <path id="Path_1727" data-name="Path 1727" d="M773.4,414.314v22.51H747.264v-22.51H773.4m.264-.264H747v23.038h26.659Z" transform="translate(-232.645 1605.582)" fill="#e2e2ec"/>
    <rect id="Rectangle_2178" data-name="Rectangle 2178" width="26.393" height="22.774" transform="translate(487.842 2019.764)" fill="#fff"/>
    <path id="Path_1728" data-name="Path 1728" d="M672.4,414.314v22.51H646.264v-22.51H672.4m.264-.264H646v23.038h26.659Z" transform="translate(-158.305 1605.582)" fill="#e2e2ec"/>
    <rect id="Rectangle_2179" data-name="Rectangle 2179" width="26.393" height="22.774" transform="translate(461.184 2019.764)" fill="#fff"/>
    <path id="Path_1729" data-name="Path 1729" d="M571.445,414.314v22.51H545.314v-22.51h26.132m.264-.264H545.05v23.038h26.659Z" transform="translate(-84 1605.582)" fill="#e2e2ec"/>
    <rect id="Rectangle_2180" data-name="Rectangle 2180" width="26.393" height="22.774" transform="translate(434.527 2019.764)" fill="#fff"/>
    <path id="Path_1730" data-name="Path 1730" d="M470.456,414.314v22.51H444.324v-22.51h26.132m.264-.264H444.06v23.038h26.659Z" transform="translate(-9.666 1605.582)" fill="#e2e2ec"/>
    <rect id="Rectangle_2181" data-name="Rectangle 2181" width="26.393" height="22.774" transform="translate(407.871 2019.764)" fill="#fff"/>
    <path id="Path_1731" data-name="Path 1731" d="M369.466,414.314v22.51H343.334v-22.51h26.132m.264-.264H343.07v23.038h26.659Z" transform="translate(64.666 1605.582)" fill="#e2e2ec"/>
    <rect id="Rectangle_2182" data-name="Rectangle 2182" width="26.393" height="22.774" transform="translate(514.498 2042.8)" fill="#fff"/>
    <path id="Path_1732" data-name="Path 1732" d="M773.4,501.594V524.1H747.264V501.594H773.4m.264-.264H747v23.035h26.659Z" transform="translate(-232.645 1541.34)" fill="#e2e2ec"/>
    <rect id="Rectangle_2183" data-name="Rectangle 2183" width="26.393" height="22.774" transform="translate(487.842 2042.8)" fill="#fff"/>
    <path id="Path_1733" data-name="Path 1733" d="M672.4,501.594V524.1H646.264V501.594H672.4m.264-.264H646v23.035h26.659Z" transform="translate(-158.305 1541.34)" fill="#e2e2ec"/>
    <rect id="Rectangle_2184" data-name="Rectangle 2184" width="26.393" height="22.774" transform="translate(461.184 2042.8)" fill="#fff"/>
    <path id="Path_1734" data-name="Path 1734" d="M571.445,501.594V524.1H545.314V501.594h26.132m.264-.264H545.05v23.035h26.659Z" transform="translate(-84 1541.34)" fill="#e2e2ec"/>
    <rect id="Rectangle_2185" data-name="Rectangle 2185" width="26.393" height="22.774" transform="translate(434.527 2042.8)" fill="#fff"/>
    <path id="Path_1735" data-name="Path 1735" d="M470.456,501.594V524.1H444.324V501.594h26.132m.264-.264H444.06v23.035h26.659Z" transform="translate(-9.666 1541.34)" fill="#e2e2ec"/>
    <rect id="Rectangle_2186" data-name="Rectangle 2186" width="26.393" height="22.774" transform="translate(407.871 2042.8)" fill="#fff"/>
    <path id="Path_1736" data-name="Path 1736" d="M369.466,501.594V524.1H343.334V501.594h26.132m.264-.264H343.07v23.035h26.659Z" transform="translate(64.666 1541.34)" fill="#e2e2ec"/>
    <rect id="Rectangle_2187" data-name="Rectangle 2187" width="26.393" height="22.774" transform="translate(514.498 2065.838)" fill="#fff"/>
    <path id="Path_1737" data-name="Path 1737" d="M773.4,588.864v22.51H747.264v-22.51H773.4m.264-.264H747v23.038h26.659Z" transform="translate(-232.645 1477.105)" fill="#e2e2ec"/>
    <rect id="Rectangle_2188" data-name="Rectangle 2188" width="26.393" height="22.774" transform="translate(487.842 2065.838)" fill="#fff"/>
    <path id="Path_1738" data-name="Path 1738" d="M672.4,588.864v22.51H646.264v-22.51H672.4m.264-.264H646v23.038h26.659Z" transform="translate(-158.305 1477.105)" fill="#e2e2ec"/>
    <rect id="Rectangle_2189" data-name="Rectangle 2189" width="26.393" height="22.774" transform="translate(461.184 2065.838)" fill="#fff"/>
    <path id="Path_1739" data-name="Path 1739" d="M571.445,588.864v22.51H545.314v-22.51h26.132m.264-.264H545.05v23.038h26.659Z" transform="translate(-84 1477.105)" fill="#e2e2ec"/>
    <rect id="Rectangle_2190" data-name="Rectangle 2190" width="26.393" height="22.774" transform="translate(434.527 2065.838)" fill="#fff"/>
    <path id="Path_1740" data-name="Path 1740" d="M470.456,588.864v22.51H444.324v-22.51h26.132m.264-.264H444.06v23.038h26.659Z" transform="translate(-9.666 1477.105)" fill="#e2e2ec"/>
    <rect id="Rectangle_2191" data-name="Rectangle 2191" width="26.393" height="22.774" transform="translate(407.871 2065.838)" fill="#fff"/>
    <path id="Path_1741" data-name="Path 1741" d="M369.466,588.864v22.51H343.334v-22.51h26.132m.264-.264H343.07v23.038h26.659Z" transform="translate(64.666 1477.105)" fill="#e2e2ec"/>
    <circle id="Ellipse_168" data-name="Ellipse 168" cx="1.505" cy="1.505" r="1.505" transform="translate(409.848 1975.649)" fill="#fc6681"/>
    <circle id="Ellipse_169" data-name="Ellipse 169" cx="1.505" cy="1.505" r="1.505" transform="translate(413.607 1975.649)" fill="#ffd037"/>
    <circle id="Ellipse_170" data-name="Ellipse 170" cx="1.505" cy="1.505" r="1.505" transform="translate(462.977 1997.953)" fill="#4a94e9"/>
    <circle id="Ellipse_171" data-name="Ellipse 171" cx="1.505" cy="1.505" r="1.505" transform="translate(466.738 1997.953)" fill="#4a94e9"/>
    <circle id="Ellipse_172" data-name="Ellipse 172" cx="1.505" cy="1.505" r="1.505" transform="translate(543.422 2041.058)" fill="#4a94e9"/>
    <circle id="Ellipse_173" data-name="Ellipse 173" cx="1.505" cy="1.505" r="1.505" transform="translate(544.176 2039.305)" fill="#4a94e9"/>
    <circle id="Ellipse_174" data-name="Ellipse 174" cx="1.505" cy="1.505" r="1.505" transform="translate(544.928 2037.8)" fill="#4a94e9"/>
    <circle id="Ellipse_175" data-name="Ellipse 175" cx="1.505" cy="1.505" r="1.505" transform="translate(516.859 1975.649)" fill="#4a94e9"/>
    <circle id="Ellipse_176" data-name="Ellipse 176" cx="1.505" cy="1.505" r="1.505" transform="translate(520.617 1975.649)" fill="#4a94e9"/>
    <circle id="Ellipse_177" data-name="Ellipse 177" cx="1.505" cy="1.505" r="1.505" transform="translate(524.379 1975.649)" fill="#4a94e9"/>
    <circle id="Ellipse_178" data-name="Ellipse 178" cx="1.505" cy="1.505" r="1.505" transform="translate(528.137 1975.649)" fill="#4a94e9"/>
    <circle id="Ellipse_179" data-name="Ellipse 179" cx="1.505" cy="1.505" r="1.505" transform="translate(516.859 2022.261)" fill="#4a94e9"/>
    <circle id="Ellipse_180" data-name="Ellipse 180" cx="1.505" cy="1.505" r="1.505" transform="translate(520.617 2022.261)" fill="#4a94e9"/>
    <circle id="Ellipse_181" data-name="Ellipse 181" cx="1.505" cy="1.505" r="1.505" transform="translate(524.379 2022.261)" fill="#4a94e9"/>
    <circle id="Ellipse_182" data-name="Ellipse 182" cx="1.505" cy="1.505" r="1.505" transform="translate(528.137 2022.261)" fill="#4a94e9"/>
    <circle id="Ellipse_183" data-name="Ellipse 183" cx="1.505" cy="1.505" r="1.505" transform="translate(436.412 1997.953)" fill="#ffd037"/>
    <circle id="Ellipse_184" data-name="Ellipse 184" cx="1.505" cy="1.505" r="1.505" transform="translate(409.848 2020.759)" fill="#fc6681"/>
    <path id="Path_1743" data-name="Path 1743" d="M855.407,279.514c1.65.974,4.223,1.608,7.483-.486l-.032,4.635c.232,3.167,4.163,14.758,4.163,14.758l2.771,9.529a74.557,74.557,0,0,1,3.046,20.728,19.838,19.838,0,0,0,.884,6.525c1.476,3.988-.581,9.128-1.473,11.041a46.393,46.393,0,0,1-4.574,1.288,3.112,3.112,0,0,0-.409.124l-.019-.026s-4.16,1.65-6.008,1.423a1.621,1.621,0,0,0-1.161,2.814,8.445,8.445,0,0,1-2.769.364c-1.848-.227-2.774,2.951.694,3.859s23.12,0,23.12,0a2.787,2.787,0,0,0,1.478-3.078c1.51-.058,2.452-.1,2.452-.1s3.468-1.584,0-5.9l-.185.14-.742-2.183v-2.948s4.392-21.116,3.006-23.613-2.08-15.212-2.08-15.212l.47-13.85c1.254-2.587,1.9-6.641,2.22-9.811a20.818,20.818,0,0,0,.887-4.654c.055-.744.1-1.526.129-2.336a15.66,15.66,0,0,0-.86-5.224,51.844,51.844,0,0,1,5.237-6.575,6.747,6.747,0,0,0,2.08-5.9l-1.156-7.721-2.774-13.169c.348-3.653-.414-5.757-1.256-6.945.2-1.18.388-2.36.528-3.545a45.368,45.368,0,0,0-.81-15.436,10.457,10.457,0,0,0-2.186-4.915c-1.4-1.515-3.677-2.439-4.2-4.424a12.865,12.865,0,0,0-.322-1.494c-.507-1.3-2.112-1.771-3.516-1.94-2.5-.3-6.121-.528-8.526.449a10.343,10.343,0,0,0-4.91,4.6,3.461,3.461,0,0,0-.151,3.8,8.713,8.713,0,0,0-.538,3.033,8.858,8.858,0,0,0,5.654,8.217c.055.174.105.346.148.515a8.838,8.838,0,0,1,.227,1.238c-.045.792-.095,1.607-.132,2.413q-.04.166-.084.327a59.483,59.483,0,0,0-5.807,2.962c1.388,2.043-.232,10.672-.232,10.672-3.468,2.043-6.937,7.267-3.236,12.715a13.594,13.594,0,0,1,1.618,11.35l-.578,8.877h0v.016l-.116,1.776h.045l-.045.673.1.018v.723a10.781,10.781,0,0,0-5.411,4.025,14.209,14.209,0,0,1-2.42,2.97,1.784,1.784,0,0,0,.277,2.9Zm27.916-23.587a8.445,8.445,0,0,1,.821-4.466q.815.016,1.634.018c.055.383.121.747.2,1.08.47,2-1.407,2.959-2.658,3.365Z" transform="translate(-311.777 1766.822)" fill="url(#linear-gradient-2)"/>
    <path id="Path_1744" data-name="Path 1744" d="M913.867,754.318l.89,2.669-2.9,2.9-9.566,2.225-6.9-.668.446-2.447h0a2.951,2.951,0,0,1,2.191-2.156c2.835-.665,8.241-2.186,9.375-4.295Z" transform="translate(-341.865 1356.431)" fill="#db8b8b"/>
    <path id="Path_1745" data-name="Path 1745" d="M913.867,754.318l.89,2.669-2.9,2.9-9.566,2.225-6.9-.668.446-2.447h0a2.951,2.951,0,0,1,2.191-2.156c2.835-.665,8.241-2.186,9.375-4.295Z" transform="translate(-341.865 1356.431)" opacity="0.1"/>
    <path id="Path_1746" data-name="Path 1746" d="M883.313,771.288l1.336-1.779-1.336-2.062s-4,1.615-5.783,1.394-2.669,2.9.668,3.783,22.246,0,22.246,0,3.336-1.557,0-5.783l-2.9,2.225s-4.894,2.669-7.341,2.225Z" transform="translate(-327.553 1345.913)" fill="#2e3037"/>
    <path id="Path_1747" data-name="Path 1747" d="M881.1,773.166l6.9.668,9.566-2.225,2.9-2.9-.235-.707-.333-.992-.333-.966-6.451-1.779a4,4,0,0,1-1.32,1.32c-2.1,1.433-5.86,2.468-8.069,2.985a2.345,2.345,0,0,0-.264.082,2.941,2.941,0,0,0-1.916,2.075Z" transform="translate(-331.348 1347.812)" fill="#db8b8b"/>
    <path id="Path_1748" data-name="Path 1748" d="M881.1,783.588l6.9.668,9.566-2.225,2.9-2.9-.235-.707-2.655,2.043s-4.894,2.669-7.341,2.225h-6.91l1.336-1.779-1.2-1.848a2.941,2.941,0,0,0-1.917,2.075Z" transform="translate(-331.348 1337.39)" opacity="0.1"/>
    <path id="Path_1749" data-name="Path 1749" d="M868.983,783.088l1.336-1.779-1.336-2.061s-4,1.615-5.783,1.394-2.669,2.9.668,3.782,22.246,0,22.246,0,3.336-1.557,0-5.783l-2.9,2.225s-4.894,2.669-7.341,2.225Z" transform="translate(-317.006 1337.228)" fill="#2e3037"/>
    <path id="Path_1750" data-name="Path 1750" d="M910.6,273.788s10.68,1.111,9.122-3.336a8.009,8.009,0,0,1-.33-3.928A10.889,10.889,0,0,1,921.28,262l-10.012,1.557a12.536,12.536,0,0,1,1.357,3.215A6.547,6.547,0,0,1,910.6,273.788Z" transform="translate(-353.061 1717.498)" fill="#db8b8b"/>
    <path id="Path_1751" data-name="Path 1751" d="M943.7,498.82s-.222,9.566-2.447,14.238l-.446,13.57s.668,12.459,2,14.906-2.9,23.136-2.9,23.136v3.561s-7.127,2.669-9.122-.446l2-26.475-.89-36.706Z" transform="translate(-367.914 1543.188)" fill="#474463"/>
    <path id="Path_1752" data-name="Path 1752" d="M943.7,498.82s-.222,9.566-2.447,14.238l-.446,13.57s.668,12.459,2,14.906-2.9,23.136-2.9,23.136v3.561s-7.127,2.669-9.122-.446l2-26.475-.89-36.706Z" transform="translate(-367.914 1543.188)" opacity="0.1"/>
    <path id="Path_1753" data-name="Path 1753" d="M968.659,382.51l1.336,3.561,1.111,7.565a6.691,6.691,0,0,1-2,5.783,63.69,63.69,0,0,0-6.229,8.23l-4.223-12.67s4.223-.668,3.561-3.561a42.048,42.048,0,0,1-.449-8.251Z" transform="translate(-388.428 1628.797)" fill="#fc6681"/>
    <path id="Path_1754" data-name="Path 1754" d="M968.659,382.51l1.336,3.561,1.111,7.565a6.691,6.691,0,0,1-2,5.783,63.69,63.69,0,0,0-6.229,8.23l-4.223-12.67s4.223-.668,3.561-3.561a42.048,42.048,0,0,1-.449-8.251Z" transform="translate(-388.428 1628.797)" opacity="0.05"/>
    <path id="Path_1755" data-name="Path 1755" d="M921.66,765.582c2.853,4.487,7.3,1.945,8.082,1.439l-.322-.982-6.451-1.779A4,4,0,0,1,921.66,765.582Z" transform="translate(-361.201 1347.812)" opacity="0.1"/>
    <path id="Path_1756" data-name="Path 1756" d="M887.85,462.8c.222,3.115,4,14.459,4,14.459l2.669,9.336a74.3,74.3,0,0,1,2.933,20.309,19.723,19.723,0,0,0,.853,6.393c1.779,4.894-1.779,11.569-1.779,11.569,3.115,5.562,8.447,1.779,8.447,1.779v-3.558s4.223-19.356,3.115-23.136-1.557-14.016-1.557-14.016V467.462a20.953,20.953,0,0,0,6.105-13.282c.053-.729.095-1.494.124-2.289.179-5.015-3.252-10.9-4.593-13-.322-.507-.528-.792-.528-.792L888,445.892l-.045.018v2.442Z" transform="translate(-336.316 1587.88)" fill="#474463"/>
    <path id="Path_1757" data-name="Path 1757" d="M913.13,263.555a12.543,12.543,0,0,1,1.357,3.215,8.71,8.71,0,0,0,6.768-.248A10.888,10.888,0,0,1,923.142,262Z" transform="translate(-354.924 1717.498)" opacity="0.1"/>
    <circle id="Ellipse_185" data-name="Ellipse 185" cx="8.676" cy="8.676" r="8.676" transform="translate(553.98 1967.033)" fill="#db8b8b"/>
    <path id="Path_1758" data-name="Path 1758" d="M887.85,448.374l.095.018c9.328,1.919,21.04-7.805,21.04-7.805a11.537,11.537,0,0,1-.81-1.655c-.322-.507-.528-.792-.528-.792L888,445.932l-.05.779Z" transform="translate(-336.316 1587.851)" opacity="0.1"/>
    <path id="Path_1759" data-name="Path 1759" d="M883.554,291.3s12.459-7.565,16.463-4.45l5.562,7.127s3.561,1.111,2.9,8.23l2.658,12.9-8.009,2s-4.672,4.45-.889,10.9c0,0-11.791,9.787-21.135,7.787l.668-10.455a13.54,13.54,0,0,0-1.557-11.123c-3.561-5.34-.222-10.455,3.115-12.459C883.333,301.761,884.887,293.306,883.554,291.3Z" transform="translate(-329.574 1699.759)" fill="#fc6681"/>
    <path id="Path_1760" data-name="Path 1760" d="M867.249,477.75s-4.672.889-6.9,4.45a13.86,13.86,0,0,1-2.328,2.9,1.766,1.766,0,0,0,.264,2.814c1.766,1.056,4.646,1.713,8.283-1.275C872.811,481.532,867.249,477.75,867.249,477.75Z" transform="translate(-313.936 1558.696)" fill="#db8b8b"/>
    <path id="Path_1761" data-name="Path 1761" d="M899.662,321.364s4.45-.446,5.562,11.123,2.9,14.238,2.9,14.238,1.111,6.008-1.557,9.566-7.787,11.123-7.787,11.123-5.562,1.557-6.673-4l6.9-12.9s1.111-4.45-1.557-7.565S892.765,319.139,899.662,321.364Z" transform="translate(-339.451 1673.926)" opacity="0.1"/>
    <path id="Path_1762" data-name="Path 1762" d="M897.942,318.834s4.45-.446,5.562,11.123,2.9,14.238,2.9,14.238,1.111,6.008-1.557,9.566-7.787,11.123-7.787,11.123-5.561,1.557-6.673-4l6.9-12.9s1.111-4.45-1.557-7.565S891.052,316.609,897.942,318.834Z" transform="translate(-338.186 1675.788)" fill="#fc6681"/>
    <path id="Path_1763" data-name="Path 1763" d="M905,350.9s-.443,6.889,1.552,10.68,2,8.676,0,11.35" transform="translate(-348.91 1652.063)" opacity="0.1"/>
    <path id="Path_1764" data-name="Path 1764" d="M900.91,308.332s1.779-1.779,6.9-2,7.341-1.779,7.341-1.779" transform="translate(-345.93 1686.179)" opacity="0.1"/>
    <path id="Path_1765" data-name="Path 1765" d="M910.754,204.466c1.351.166,2.9.631,3.384,1.9a13.033,13.033,0,0,1,.309,1.465c.5,1.943,2.692,2.848,4.041,4.334a10.5,10.5,0,0,1,2.112,4.815,45.244,45.244,0,0,1,.792,15.114c-.433,3.7-1.32,7.322-1.568,11.028s.206,7.6,2.23,10.719a26.748,26.748,0,0,1,2.64,3.988,7.7,7.7,0,0,1-4.68,1.238q-2.869.1-5.741,0a6.124,6.124,0,0,1-2.917-.607,4.5,4.5,0,0,1-1.531-1.644,11.693,11.693,0,0,1-1.32-6.245c.05-2.154.388-4.3.428-6.454a5.645,5.645,0,0,0-.747-3.384,11.023,11.023,0,0,0-1.864-1.724c-2.376-2.112-3.2-5.5-3.278-8.676s.446-6.367.177-9.537c-.106-1.241-.57-2.732-1.79-2.972a6.3,6.3,0,0,1-1.161-.148c-.979-.377-.884-1.758-1.164-2.769-.314-1.135-1.283-2.011-1.555-3.167-.641-2.692,2.785-5.9,5.031-6.842C904.865,203.944,908.346,204.171,910.754,204.466Z" transform="translate(-343.398 1760.033)" opacity="0.1"/>
    <path id="Path_1766" data-name="Path 1766" d="M911.594,202.781c1.351.166,2.9.631,3.384,1.9a12.978,12.978,0,0,1,.309,1.465c.5,1.943,2.692,2.848,4.041,4.334a10.5,10.5,0,0,1,2.112,4.815,45.244,45.244,0,0,1,.792,15.114c-.433,3.7-1.32,7.322-1.568,11.028s.206,7.6,2.23,10.719a26.758,26.758,0,0,1,2.64,3.988,7.7,7.7,0,0,1-4.68,1.238q-2.869.1-5.741,0a6.123,6.123,0,0,1-2.917-.607,4.5,4.5,0,0,1-1.531-1.644,11.691,11.691,0,0,1-1.32-6.245c.05-2.154.388-4.3.428-6.454a5.645,5.645,0,0,0-.747-3.384,11.026,11.026,0,0,0-1.864-1.724c-2.376-2.112-3.2-5.5-3.278-8.676s.446-6.367.177-9.537c-.106-1.241-.57-2.732-1.79-2.972a6.3,6.3,0,0,1-1.161-.148c-.979-.377-.884-1.758-1.164-2.769-.314-1.135-1.283-2.011-1.555-3.167-.641-2.692,2.785-5.9,5.031-6.842C905.7,202.255,909.186,202.482,911.594,202.781Z" transform="translate(-344.016 1761.275)" fill="#472727"/>
  </g>
</svg>
