<svg xmlns="http://www.w3.org/2000/svg" width="20.529" height="12.869" viewBox="0 0 20.529 12.869">
  <g id="Group_2784" data-name="Group 2784" transform="translate(-167.471 -1004.253)">
    <circle id="Ellipse_21" data-name="Ellipse 21" cx="0.46" cy="0.46" r="0.46" transform="translate(167.47 1004.253)" fill="#c2c5ca"/>
    <circle id="Ellipse_21-2" data-name="Ellipse 21" cx="0.46" cy="0.46" r="0.46" transform="translate(172.373 1004.253)" fill="#c2c5ca"/>
    <circle id="Ellipse_21-3" data-name="Ellipse 21" cx="0.46" cy="0.46" r="0.46" transform="translate(177.275 1004.253)" fill="#c2c5ca"/>
    <circle id="Ellipse_21-4" data-name="Ellipse 21" cx="0.46" cy="0.46" r="0.46" transform="translate(182.178 1004.253)" fill="#c2c5ca"/>
    <circle id="Ellipse_21-5" data-name="Ellipse 21" cx="0.46" cy="0.46" r="0.46" transform="translate(187.081 1004.253)" fill="#c2c5ca"/>
    <circle id="Ellipse_21-6" data-name="Ellipse 21" cx="0.46" cy="0.46" r="0.46" transform="translate(167.47 1008.236)" fill="#c2c5ca"/>
    <circle id="Ellipse_21-7" data-name="Ellipse 21" cx="0.46" cy="0.46" r="0.46" transform="translate(172.373 1008.236)" fill="#c2c5ca"/>
    <circle id="Ellipse_21-8" data-name="Ellipse 21" cx="0.46" cy="0.46" r="0.46" transform="translate(177.275 1008.236)" fill="#c2c5ca"/>
    <circle id="Ellipse_21-9" data-name="Ellipse 21" cx="0.46" cy="0.46" r="0.46" transform="translate(182.178 1008.236)" fill="#c2c5ca"/>
    <circle id="Ellipse_21-10" data-name="Ellipse 21" cx="0.46" cy="0.46" r="0.46" transform="translate(187.081 1008.236)" fill="#c2c5ca"/>
    <circle id="Ellipse_21-11" data-name="Ellipse 21" cx="0.46" cy="0.46" r="0.46" transform="translate(167.47 1012.219)" fill="#c2c5ca"/>
    <circle id="Ellipse_21-12" data-name="Ellipse 21" cx="0.46" cy="0.46" r="0.46" transform="translate(172.373 1012.219)" fill="#c2c5ca"/>
    <circle id="Ellipse_21-13" data-name="Ellipse 21" cx="0.46" cy="0.46" r="0.46" transform="translate(177.275 1012.219)" fill="#c2c5ca"/>
    <circle id="Ellipse_21-14" data-name="Ellipse 21" cx="0.46" cy="0.46" r="0.46" transform="translate(182.178 1012.219)" fill="#c2c5ca"/>
    <circle id="Ellipse_21-15" data-name="Ellipse 21" cx="0.46" cy="0.46" r="0.46" transform="translate(187.081 1012.219)" fill="#c2c5ca"/>
    <circle id="Ellipse_21-16" data-name="Ellipse 21" cx="0.46" cy="0.46" r="0.46" transform="translate(167.47 1016.203)" fill="#c2c5ca"/>
    <circle id="Ellipse_21-17" data-name="Ellipse 21" cx="0.46" cy="0.46" r="0.46" transform="translate(172.373 1016.203)" fill="#c2c5ca"/>
    <circle id="Ellipse_21-18" data-name="Ellipse 21" cx="0.46" cy="0.46" r="0.46" transform="translate(177.275 1016.203)" fill="#c2c5ca"/>
    <circle id="Ellipse_21-19" data-name="Ellipse 21" cx="0.46" cy="0.46" r="0.46" transform="translate(182.178 1016.203)" fill="#c2c5ca"/>
    <circle id="Ellipse_21-20" data-name="Ellipse 21" cx="0.46" cy="0.46" r="0.46" transform="translate(187.081 1016.203)" fill="#c2c5ca"/>
  </g>
</svg>
