<svg xmlns="http://www.w3.org/2000/svg" width="17.736" height="19.232" viewBox="0 0 17.736 19.232">
  <g id="surface1" transform="translate(0 0)" opacity="0.5">
    <path id="Path_5314" data-name="Path 5314" d="M15.822,10.966a.575.575,0,0,0-.062.015.494.494,0,0,0-.385.493V21.605l-3.095-3.095a.5.5,0,0,0-.462-.139.49.49,0,0,0-.385.346.5.5,0,0,0,.139.5l3.942,3.941.354.339.354-.339,3.941-3.941a.5.5,0,0,0-.708-.708l-3.095,3.095V11.475a.493.493,0,0,0-.539-.508ZM7,13.445V30.2H24.737V13.445H19.81a.493.493,0,1,0,0,.985h3.941V29.211H7.985V14.431h3.941a.493.493,0,1,0,0-.985Z" transform="translate(-7 -10.964)" fill="#88989b"/>
  </g>
</svg>
