<svg xmlns="http://www.w3.org/2000/svg" width="139.843" height="28.356" viewBox="0 0 139.843 28.356">
  <path id="Path_5318" data-name="Path 5318" d="M17.034-7.48V-9.35c0-5.032-2.788-8.568-7.718-8.568-4.59,0-7.718,3.264-7.718,9.044C1.6-1.7,5.61.2,9.792.2a8.329,8.329,0,0,0,6.732-2.788L13.838-5.2A5.006,5.006,0,0,1,9.826-3.536,3.625,3.625,0,0,1,5.95-7.48Zm-4.352-3.026H5.95a4.344,4.344,0,0,1,.408-1.9,3.077,3.077,0,0,1,2.958-1.836,3.077,3.077,0,0,1,2.958,1.836A4.344,4.344,0,0,1,12.682-10.506ZM33.49,0V-11.662c0-4.148-2.55-6.256-7.548-6.256-2.958,0-4.624.612-6.358,2.516l2.788,2.754a3.919,3.919,0,0,1,3.4-1.53c2.346,0,3.3.85,3.3,2.788v.884H24.956c-4.182,0-6.12,2.312-6.12,5.134A5.676,5.676,0,0,0,20.3-1.394,6.126,6.126,0,0,0,24.82.17a5.383,5.383,0,0,0,4.352-1.7V0ZM29.07-6.528a2.74,2.74,0,0,1-.68,2.244,3.366,3.366,0,0,1-2.618.85c-1.836,0-2.686-.782-2.686-2.006,0-1.326.85-2.04,2.618-2.04H29.07Zm21.488.952c0-3.026-1.768-4.862-5.27-5.2L42.5-11.05c-1.326-.136-1.836-.646-1.836-1.53s.748-1.7,2.516-1.7a6.1,6.1,0,0,1,4.114,1.19l2.72-2.754c-1.7-1.564-3.978-2.074-6.766-2.074-3.6,0-6.834,1.938-6.834,5.644,0,3.264,1.972,4.658,5.1,4.964l2.856.272c1.428.136,1.87.748,1.87,1.632,0,1.326-1.6,1.836-3.128,1.836a6.387,6.387,0,0,1-4.726-1.666L35.5-2.346C37.774-.1,40.256.2,43.044.2,47.226.2,50.558-1.666,50.558-5.576ZM67.252-17.714H62.594L59.058-6.766,55.386-17.714H50.728L56.78-1.258,56.032.918a1.911,1.911,0,0,1-2.21,1.6H52.8V6.494h1.734a5.121,5.121,0,0,0,3.808-1.36A6.3,6.3,0,0,0,59.67,2.856Zm14.994,10V-8.806c0-5.032-2.516-8.126-6.868-8.126-4.25,0-6.868,3.128-6.868,8.568C68.51-2.448,71.366.2,75.82.2A7.71,7.71,0,0,0,81.94-2.38L80.274-3.842a5.493,5.493,0,0,1-4.386,1.9c-3.23,0-4.93-2.108-4.93-5.78ZM79.832-9.554H70.958a6.38,6.38,0,0,1,.51-2.788,4.193,4.193,0,0,1,3.91-2.516,4.193,4.193,0,0,1,3.91,2.516A6.865,6.865,0,0,1,79.832-9.554Zm18.02-7.174H95.2L90.61-3.3l-4.556-13.43H83.4L89.522,0H91.7Zm14.892,9.01V-8.806c0-5.032-2.516-8.126-6.868-8.126-4.25,0-6.868,3.128-6.868,8.568,0,5.916,2.856,8.568,7.31,8.568a7.71,7.71,0,0,0,6.12-2.584l-1.666-1.462a5.493,5.493,0,0,1-4.386,1.9c-3.23,0-4.93-2.108-4.93-5.78ZM110.33-9.554h-8.874a6.381,6.381,0,0,1,.51-2.788,4.193,4.193,0,0,1,3.91-2.516,4.193,4.193,0,0,1,3.91,2.516A6.865,6.865,0,0,1,110.33-9.554ZM130.084,0V-10.71a6.18,6.18,0,0,0-1.734-4.658,5.862,5.862,0,0,0-4.284-1.564,6.031,6.031,0,0,0-4.692,2.04v-1.836h-2.448V0h2.448V-10.3c0-2.924,1.632-4.454,4.148-4.454s4.114,1.5,4.114,4.454V0ZM141.44,0V-2.108h-1.292c-1.564,0-2.278-.918-2.278-2.448v-10.3h3.57v-1.87h-3.57v-5.134h-2.448v5.134h-2.108v1.87h2.108v10.37c0,2.482,1.428,4.488,4.284,4.488Z" transform="translate(-1.598 21.862)" fill="#fff"/>
</svg>
