<svg id="Layer_2" data-name="Layer 2" xmlns="http://www.w3.org/2000/svg" width="106.957" height="36.534" viewBox="0 0 106.957 36.534">
  <g id="Layer_1" data-name="Layer 1" transform="translate(0 0)">
    <path id="Path_28" data-name="Path 28" d="M40.941,27.976v-2.63a8.328,8.328,0,0,1-6.731,2.63c-3.152,0-5.42-.8-7-2.413A8.846,8.846,0,0,1,24.93,19.4c0-4.367,2.992-7.945,9.465-7.945h6.369V10.091c0-3-1.472-4.31-5.107-4.31-2.469,0-4.158-.273-6.208,3.788L24.93,6.287C27.648.3,31.363-.01,35.947-.01c7.736,0,11.677,3.265,11.677,9.65V27.976Zm-.153-11.838H35.577c-2.734,0-4.021,1.11-4.021,3.16,0,1.89,1.319,3.1,4.158,3.1a5.089,5.089,0,0,0,4.021-1.319c.8-.684,1.053-1.729,1.053-3.466Zm23.627-5.1L60.1,10.614c-2.051-.169-2.839-.973-2.839-2.364s1.158-2.63,3.86-2.63c2.413,0,4.785.41,6.361,1.842l4.238-4.254C69.1.794,65.566-.01,61.263-.01c-5.581,0-10.6,3-10.6,8.733,0,5.05,3.056,7.238,7.889,7.68l4.423.426c2.2.209,2.9,1.15,2.9,2.525,0,2.043-2.469,2.839-4.825,2.839A12.505,12.505,0,0,1,56.7,21.51a7.769,7.769,0,0,1-2.533-1.5l-4.254,4.672a12.642,12.642,0,0,0,6.168,2.967,25.315,25.315,0,0,0,4.873.378c6.434,0,11.621-2.887,11.621-8.951C72.562,14.4,69.828,11.563,64.416,11.04ZM86.4,30.976a9.739,9.739,0,0,1-2.051,3.53c-1.608,1.608-3.627,1.978-5.895,1.978H74.83V30.292h2.525c1.946,0,2.911-.314,3.595-2.316l.981-2.525L72.562-.01H79.8l5.678,16.944L90.93-.01h7.238ZM103.483,6.85a1.426,1.426,0,1,1,0,.032Zm0-6.385a2.919,2.919,0,0,0-2.9,2.935,2.9,2.9,0,1,0,5.8,0,2.927,2.927,0,0,0-2.9-2.9Zm.8,4.825-.869-1.544h-.571V5.322h-.523V1.542h1.287a1.15,1.15,0,0,1,1.19,1.134,1.054,1.054,0,0,1-.8,1.037l.909,1.608Zm-.732-3.313h-.708V3.328h.708a.659.659,0,0,0,.716-.651.667.667,0,0,0-.684-.667ZM6.651,15.945c0,3.53,1.793,6.3,5.629,6.3a7.664,7.664,0,0,0,6.128-2.541l4.1,4.021c-2.75,2.807-5.4,4.262-10.286,4.262C5.846,27.968,0,24.775,0,13.814,0,4.984,4.777-.01,11.789-.01c7.511,0,10.9,5.412,10.9,13.1v2.855ZM16.3,8.418a4.7,4.7,0,0,0-4.512-2.8,4.7,4.7,0,0,0-4.552,2.8,6.57,6.57,0,0,0-.619,2.9h10.31a6.57,6.57,0,0,0-.619-2.9Z" transform="translate(0 0.05)" fill="#fff"/>
  </g>
</svg>
