<svg xmlns="http://www.w3.org/2000/svg" xmlns:xlink="http://www.w3.org/1999/xlink" width="388" height="102" viewBox="0 0 388 102">
  <defs>
    <filter id="Rectangle_2117" x="0" y="0" width="388" height="102" filterUnits="userSpaceOnUse">
      <feOffset dy="3" input="SourceAlpha"/>
      <feGaussianBlur stdDeviation="3" result="blur"/>
      <feFlood flood-opacity="0.161"/>
      <feComposite operator="in" in2="blur"/>
      <feComposite in="SourceGraphic"/>
    </filter>
  </defs>
  <g id="Group_2790" data-name="Group 2790" transform="translate(-790 -1925)">
    <g transform="matrix(1, 0, 0, 1, 790, 1925)" filter="url(#Rectangle_2117)">
      <rect id="Rectangle_2117-2" data-name="Rectangle 2117" width="370" height="84" rx="5" transform="translate(9 6)" fill="#fff"/>
    </g>
    <g id="Ellipse_163" data-name="Ellipse 163" transform="translate(901 1970.999)" stroke="#000" stroke-width="1">
      <circle cx="1.5" cy="1.5" r="1.5" stroke="none"/>
      <circle cx="1.5" cy="1.5" r="1" fill="none"/>
    </g>
    <g id="Ellipse_163-2" data-name="Ellipse 163" transform="translate(906 1970.999)" stroke="#000" stroke-width="1">
      <circle cx="1.5" cy="1.5" r="1.5" stroke="none"/>
      <circle cx="1.5" cy="1.5" r="1" fill="none"/>
    </g>
    <g id="Ellipse_163-3" data-name="Ellipse 163" transform="translate(911 1970.999)" stroke="#000" stroke-width="1">
      <circle cx="1.5" cy="1.5" r="1.5" stroke="none"/>
      <circle cx="1.5" cy="1.5" r="1" fill="none"/>
    </g>
    <g id="Ellipse_163-4" data-name="Ellipse 163" transform="translate(916 1970.999)" stroke="#000" stroke-width="1">
      <circle cx="1.5" cy="1.5" r="1.5" stroke="none"/>
      <circle cx="1.5" cy="1.5" r="1" fill="none"/>
    </g>
    <g id="Ellipse_163-5" data-name="Ellipse 163" transform="translate(941 1970.999)" stroke="#000" stroke-width="1">
      <circle cx="1.5" cy="1.5" r="1.5" stroke="none"/>
      <circle cx="1.5" cy="1.5" r="1" fill="none"/>
    </g>
    <g id="Ellipse_163-6" data-name="Ellipse 163" transform="translate(946 1970.999)" stroke="#000" stroke-width="1">
      <circle cx="1.5" cy="1.5" r="1.5" stroke="none"/>
      <circle cx="1.5" cy="1.5" r="1" fill="none"/>
    </g>
    <g id="Ellipse_163-7" data-name="Ellipse 163" transform="translate(951 1970.999)" stroke="#000" stroke-width="1">
      <circle cx="1.5" cy="1.5" r="1.5" stroke="none"/>
      <circle cx="1.5" cy="1.5" r="1" fill="none"/>
    </g>
    <g id="Ellipse_163-8" data-name="Ellipse 163" transform="translate(956 1970.999)" stroke="#000" stroke-width="1">
      <circle cx="1.5" cy="1.5" r="1.5" stroke="none"/>
      <circle cx="1.5" cy="1.5" r="1" fill="none"/>
    </g>
    <g id="Ellipse_163-9" data-name="Ellipse 163" transform="translate(991 1970.999)" stroke="#000" stroke-width="1">
      <circle cx="1.5" cy="1.5" r="1.5" stroke="none"/>
      <circle cx="1.5" cy="1.5" r="1" fill="none"/>
    </g>
    <g id="Ellipse_163-10" data-name="Ellipse 163" transform="translate(996 1970.999)" stroke="#000" stroke-width="1">
      <circle cx="1.5" cy="1.5" r="1.5" stroke="none"/>
      <circle cx="1.5" cy="1.5" r="1" fill="none"/>
    </g>
    <g id="Ellipse_163-11" data-name="Ellipse 163" transform="translate(1001 1970.999)" stroke="#000" stroke-width="1">
      <circle cx="1.5" cy="1.5" r="1.5" stroke="none"/>
      <circle cx="1.5" cy="1.5" r="1" fill="none"/>
    </g>
    <g id="Ellipse_163-12" data-name="Ellipse 163" transform="translate(1006 1970.999)" stroke="#000" stroke-width="1">
      <circle cx="1.5" cy="1.5" r="1.5" stroke="none"/>
      <circle cx="1.5" cy="1.5" r="1" fill="none"/>
    </g>
    <text id="_5621" data-name="5621" transform="translate(1044 1977.999)" font-size="15" font-family="Helvetica"><tspan x="0" y="0">5621</tspan></text>
    <path id="path" d="M266.184,882.33l7.73-7.73,1.021,1.021-8.751,8.751-4.084-4.084,1.021-1.021Z" transform="translate(882 1093.4)"/>
    <path id="Path_24" data-name="Path 24" d="M18.376,19.476V18.143a3.539,3.539,0,0,1-3.028,1.332,3.985,3.985,0,0,1-3.141-1.224,4.8,4.8,0,0,1-1.016-3.116c0-2.21,1.346-4.02,4.25-4.02H18.3v-.692c0-1.516-.661-2.182-2.29-2.182-1.109,0-1.865-.135-2.786,1.917L11.2,8.5C12.41,5.471,14.078,5.31,16.133,5.31c3.471,0,5.242,1.651,5.242,4.9v9.267ZM18.3,13.487h-2.34c-1.228,0-1.818.56-1.818,1.6,0,.958.59,1.571,1.865,1.571a2.171,2.171,0,0,0,1.818-.666,2.325,2.325,0,0,0,.472-1.757Zm10.6-2.581-1.934-.213c-.922-.1-1.274-.5-1.274-1.2s.517-1.328,1.744-1.328A3.9,3.9,0,0,1,30.3,9.1l1.887-2.157a6.1,6.1,0,0,0-4.7-1.623c-2.5,0-4.745,1.515-4.745,4.418,0,2.554,1.369,3.649,3.54,3.88l1.983.216c.992.107,1.3.584,1.3,1.28,0,1.034-1.109,1.436-2.175,1.436a5.007,5.007,0,0,1-1.953-.348,3.42,3.42,0,0,1-1.14-.756l-1.91,2.364a5.437,5.437,0,0,0,2.77,1.5,9.984,9.984,0,0,0,2.188.191c2.9,0,5.213-1.462,5.213-4.527A3.708,3.708,0,0,0,28.909,10.9Zm9.869,10.088a5.064,5.064,0,0,1-.922,1.783,3.272,3.272,0,0,1-2.644,1H33.581V20.646h1.134c.873,0,1.306-.155,1.613-1.17l.44-1.279-4.2-12.881H35.8l2.55,8.574L40.808,5.31h3.233Zm-35.794-7.6c0,1.788.805,3.192,2.53,3.192a3.266,3.266,0,0,0,2.753-1.288l1.841,2.018a5.428,5.428,0,0,1-4.615,2.156C2.623,19.468,0,17.853,0,12.308,0,7.84,2.144,5.324,5.29,5.324c3.38-.008,4.894,2.731,4.894,6.611V13.38Zm4.335-3.81A2.11,2.11,0,0,0,5.29,8.159a2.109,2.109,0,0,0-2.027,1.42,3.653,3.653,0,0,0-.275,1.471H7.6a3.832,3.832,0,0,0-.279-1.476Z" transform="translate(829.068 1961.689)" fill="#162438"/>
    <g id="Group_2594" data-name="Group 2594" transform="translate(877.078 1967.15)">
      <path id="Path_25" data-name="Path 25" d="M342.46,6.261V3.817A.817.817,0,0,1,343.277,3H351.7" transform="translate(-342.46 -3)" fill="none" stroke="#df8406" stroke-miterlimit="10" stroke-width="1"/>
      <path id="Path_26" data-name="Path 26" d="M342.46,18.256V15.817a.817.817,0,0,1,.817-.817h10.868" transform="translate(-342.46 -13.365)" fill="none" stroke="#df8406" stroke-miterlimit="10" stroke-width="1"/>
      <path id="Path_27" data-name="Path 27" d="M410.348,52.87H407.5A1.226,1.226,0,0,0,406.27,54.1h0a1.226,1.226,0,0,0,1.226,1.226h2.852" transform="translate(-397.578 -42.955)" fill="none" stroke="#df8406" stroke-miterlimit="10" stroke-width="1"/>
      <rect id="Rectangle_3" data-name="Rectangle 3" width="12.771" height="14.251" rx="5.98" transform="translate(0 3.261)" fill="none" stroke="#df8406" stroke-miterlimit="10" stroke-width="1"/>
    </g>
  </g>
</svg>
