<svg xmlns="http://www.w3.org/2000/svg" width="62.006" height="19.577" viewBox="0 0 62.006 19.577">
  <g id="Group_2595" data-name="Group 2595" transform="translate(0 0.848)">
    <path id="Path_24" data-name="Path 24" d="M18.445,19.529V18.191a3.552,3.552,0,0,1-3.039,1.337A4,4,0,0,1,12.253,18.3a4.816,4.816,0,0,1-1.019-3.128c0-2.218,1.351-4.035,4.266-4.035h2.873v-.695c0-1.522-.663-2.19-2.3-2.19-1.113,0-1.872-.136-2.8,1.924L11.239,8.508c1.217-3.036,2.891-3.2,4.954-3.2,3.484,0,5.262,1.657,5.262,4.918v9.3Zm-.072-6.011H16.025c-1.232,0-1.825.562-1.825,1.6,0,.961.593,1.576,1.872,1.576A2.179,2.179,0,0,0,17.9,16.03a2.334,2.334,0,0,0,.474-1.763Zm10.644-2.591-1.941-.213c-.926-.1-1.279-.506-1.279-1.2s.519-1.333,1.75-1.333a3.915,3.915,0,0,1,2.868.935l1.894-2.165A6.127,6.127,0,0,0,27.6,5.319c-2.51,0-4.763,1.52-4.763,4.435,0,2.564,1.375,3.662,3.553,3.894l1.991.217c1,.107,1.305.586,1.305,1.285,0,1.037-1.113,1.441-2.183,1.441a5.026,5.026,0,0,1-1.96-.349,3.432,3.432,0,0,1-1.144-.759l-1.917,2.372a5.457,5.457,0,0,0,2.781,1.506,10.021,10.021,0,0,0,2.2.192c2.911,0,5.233-1.467,5.233-4.544a3.722,3.722,0,0,0-3.67-4.086Zm9.906,10.125A5.083,5.083,0,0,1,38,22.842a3.284,3.284,0,0,1-2.654,1.006H33.707V20.7h1.138c.876,0,1.311-.156,1.619-1.175l.442-1.284L32.687,5.316h3.248l2.56,8.606L40.961,5.31h3.245ZM2.995,13.42c0,1.795.808,3.2,2.539,3.2A3.278,3.278,0,0,0,8.3,15.331l1.848,2.025A5.448,5.448,0,0,1,5.513,19.52C2.633,19.521,0,17.9,0,12.334c0-4.485,2.152-7.01,5.31-7.01,3.393-.008,4.912,2.742,4.912,6.636v1.45ZM7.346,9.6A2.118,2.118,0,0,0,5.31,8.17,2.117,2.117,0,0,0,3.275,9.6,3.666,3.666,0,0,0,3,11.072H7.627a3.846,3.846,0,0,0-.28-1.481Z" transform="translate(0 -5.31)" fill="#162438"/>
    <g id="Group_2594" data-name="Group 2594" transform="translate(48.188 0.152)">
      <path id="Path_25" data-name="Path 25" d="M342.46,6.273V3.82a.82.82,0,0,1,.82-.82h8.454" transform="translate(-342.46 -3)" fill="none" stroke="#df8406" stroke-miterlimit="10" stroke-width="2"/>
      <path id="Path_26" data-name="Path 26" d="M342.46,18.268V15.82a.82.82,0,0,1,.82-.82h10.908" transform="translate(-342.46 -13.359)" fill="none" stroke="#df8406" stroke-miterlimit="10" stroke-width="2"/>
      <path id="Path_27" data-name="Path 27" d="M410.364,52.87H407.5A1.231,1.231,0,0,0,406.27,54.1h0a1.231,1.231,0,0,0,1.231,1.231h2.863" transform="translate(-397.545 -42.918)" fill="none" stroke="#df8406" stroke-miterlimit="10" stroke-width="2"/>
      <rect id="Rectangle_3" data-name="Rectangle 3" width="12.819" height="14.304" rx="5.98" transform="translate(0 3.273)" fill="none" stroke="#df8406" stroke-miterlimit="10" stroke-width="2"/>
    </g>
  </g>
</svg>
