<svg xmlns="http://www.w3.org/2000/svg" width="145.482" height="41" viewBox="0 0 145.482 41">
  <g id="Group_2823" data-name="Group 2823" transform="translate(114 -36)">
    <g id="Group_2900" data-name="Group 2900" transform="translate(-114 20.592)">
      <g id="Layer_2" data-name="Layer 2" transform="translate(0 31.058)">
        <g id="Layer_1" data-name="Layer 1" transform="translate(0 0)">
          <path id="Path_28" data-name="Path 28" d="M27.009,18.465V16.73a5.494,5.494,0,0,1-4.44,1.735,6.12,6.12,0,0,1-4.616-1.592,5.836,5.836,0,0,1-1.507-4.064c0-2.881,1.974-5.242,6.244-5.242h4.2v-.9c0-1.979-.971-2.844-3.369-2.844-1.629,0-2.743-.18-4.1,2.5L16.446,4.157C18.239.21,20.69,0,23.714,0c5.1,0,7.7,2.154,7.7,6.366v12.1Zm-.1-7.809H23.47c-1.8,0-2.653.732-2.653,2.085,0,1.247.87,2.048,2.743,2.048a3.357,3.357,0,0,0,2.653-.87,2.753,2.753,0,0,0,.695-2.287ZM42.495,7.292l-2.849-.281c-1.353-.111-1.873-.642-1.873-1.56s.764-1.735,2.547-1.735a6.186,6.186,0,0,1,4.2,1.215l2.8-2.806C45.582.534,43.253,0,40.415,0c-3.682,0-6.992,1.979-6.992,5.761,0,3.332,2.016,4.775,5.2,5.066l2.918.281c1.454.138,1.91.759,1.91,1.666,0,1.348-1.629,1.873-3.183,1.873A8.25,8.25,0,0,1,37.4,14.2a5.125,5.125,0,0,1-1.671-.987L32.924,16.3a8.34,8.34,0,0,0,4.069,1.958,16.7,16.7,0,0,0,3.215.249c4.244,0,7.666-1.9,7.666-5.9C47.869,9.51,46.065,7.637,42.495,7.292ZM57,20.444a6.425,6.425,0,0,1-1.353,2.329,5.115,5.115,0,0,1-3.889,1.305H49.365V19.993h1.666c1.284,0,1.92-.207,2.371-1.528L54.05,16.8,47.869,0h4.775l3.745,11.178L59.986,0h4.775ZM4.387,10.529c0,2.329,1.183,4.159,3.714,4.159a5.056,5.056,0,0,0,4.043-1.676l2.706,2.653a8.392,8.392,0,0,1-6.785,2.812C3.857,18.46,0,16.354,0,9.123,0,3.3,3.151,0,7.777,0c4.955,0,7.189,3.57,7.189,8.642v1.883Zm6.366-4.966A3.1,3.1,0,0,0,7.777,3.717a3.1,3.1,0,0,0-3,1.846,4.334,4.334,0,0,0-.409,1.915h6.8a4.334,4.334,0,0,0-.409-1.915Z" transform="translate(0 -0.003)" fill="#fff"/>
        </g>
      </g>
      <text id="event" transform="translate(64.482 48.408)" fill="#fff" font-size="34" font-family="DINPro, DIN Pro"><tspan x="0" y="0">event</tspan></text>
    </g>
  </g>
</svg>
