<svg xmlns="http://www.w3.org/2000/svg" width="17.98" height="17.387" viewBox="0 0 17.98 17.387">
  <path id="icons8-database_clocks" d="M2,2V5.952H16.819V2ZM2,7.532v4.742H9.38A6.29,6.29,0,0,1,16.819,8.53v-1ZM15.238,9.9a4.742,4.742,0,1,0,4.742,4.742A4.754,4.754,0,0,0,15.238,9.9Zm0,1.581a3.161,3.161,0,1,1-3.161,3.161A3.149,3.149,0,0,1,15.238,11.484Zm.338.883-1.264,2.388,1.658,1.658.838-.838-1.039-1.039.855-1.615ZM2,13.855v3.952H9.768a6.287,6.287,0,0,1-.852-3.161,6.36,6.36,0,0,1,.054-.79Z" transform="translate(-2 -2)" fill="#dfe3e3"/>
</svg>
