<svg xmlns="http://www.w3.org/2000/svg" width="32.615" height="32.614" viewBox="0 0 32.615 32.614">
  <path id="Exclusion_2" data-name="Exclusion 2" d="M29.372,31.114H1.738A1.742,1.742,0,0,1,0,29.374V1.74A1.742,1.742,0,0,1,1.738,0H29.372a1.742,1.742,0,0,1,1.741,1.74V29.374A1.742,1.742,0,0,1,29.372,31.114ZM13.16,13.066v3.822H15.5v9.7H20V16.841h3.138l.337-3.775H20V10.918c0-.859.15-1.243,1.038-1.243h2.438V5.761H20.36c-3.27,0-4.86,1.406-4.86,4.3v3.007Z" transform="translate(0.753 0.75)" fill="rgba(0,0,0,0)" stroke="#bfbfbf" stroke-miterlimit="10" stroke-width="1.5"/>
</svg>
