<svg xmlns="http://www.w3.org/2000/svg" xmlns:xlink="http://www.w3.org/1999/xlink" width="135.072" height="141.153" viewBox="0 0 135.072 141.153">
  <defs>
    <filter id="Rectangle_2267" x="0" y="0" width="135.072" height="141.153" filterUnits="userSpaceOnUse">
      <feOffset dy="3" input="SourceAlpha"/>
      <feGaussianBlur stdDeviation="3" result="blur"/>
      <feFlood flood-opacity="0.161"/>
      <feComposite operator="in" in2="blur"/>
      <feComposite in="SourceGraphic"/>
    </filter>
    <linearGradient id="linear-gradient" x1="0.5" y1="1" x2="0.5" gradientUnits="objectBoundingBox">
      <stop offset="0" stop-color="gray" stop-opacity="0.251"/>
      <stop offset="0.54" stop-color="gray" stop-opacity="0.122"/>
      <stop offset="1" stop-color="gray" stop-opacity="0.102"/>
    </linearGradient>
  </defs>
  <g id="Group_2778" data-name="Group 2778" transform="translate(-45.002 -254)">
    <g transform="matrix(1, 0, 0, 1, 45, 254)" filter="url(#Rectangle_2267)">
      <rect id="Rectangle_2267-2" data-name="Rectangle 2267" width="117.071" height="123.153" transform="translate(9 6)" fill="#fff"/>
    </g>
    <circle id="Ellipse_212" data-name="Ellipse 212" cx="24.13" cy="24.13" r="24.13" transform="translate(56.572 261.74)" fill="#4a94e9" opacity="0.331"/>
    <text id="_1" data-name="1" transform="translate(80.572 292.306)" font-size="21" font-family="Helvetica"><tspan x="-5.84" y="0">1</tspan></text>
    <g id="Group_2704" data-name="Group 2704" transform="translate(-16.428 6)">
      <ellipse id="Ellipse_213" data-name="Ellipse 213" cx="33.863" cy="4.732" rx="33.863" ry="4.732" transform="translate(107.611 343.341)" fill="#30374e"/>
      <path id="Path_1797" data-name="Path 1797" d="M963.836,690.851c.568.942,3.923,2.643,3.923,2.643s.055-3.763-.513-4.7a1.992,1.992,0,1,0-3.41,2.061Z" transform="translate(-804.022 -354.564)"/>
      <path id="Path_1785" data-name="Path 1785" d="M991.287,733.48c-1.067.268-4.647-.885-4.647-.885s2.608-2.71,3.675-2.978a1.992,1.992,0,1,1,.972,3.863Z" transform="translate(-824.218 -391.059)"/>
      <path id="Path_1798" data-name="Path 1798" d="M963.836,690.851c.568.942,3.923,2.643,3.923,2.643s.055-3.763-.513-4.7a1.992,1.992,0,1,0-3.41,2.061Z" transform="translate(-804.022 -354.564)" opacity="0.25"/>
      <path id="Path_1786" data-name="Path 1786" d="M991.287,733.48c-1.067.268-4.647-.885-4.647-.885s2.608-2.71,3.675-2.978a1.992,1.992,0,1,1,.972,3.863Z" transform="translate(-824.218 -391.059)" opacity="0.25"/>
      <path id="Path_1799" data-name="Path 1799" d="M995.948,699.79c.138,1.092,2.516,4.006,2.516,4.006s1.575-3.415,1.436-4.508a1.992,1.992,0,1,0-3.952.5Z" transform="translate(-832.344 -363.064)"/>
      <path id="Path_1780" data-name="Path 1780" d="M695.815,390.064l-6.445-9.348a8.964,8.964,0,0,0-.542-2.855c-.416-.541-.09-1.743-.09-1.743s.452-.661.06-.721-.06-1.534-.06-1.534l-.03-2.344a8.224,8.224,0,0,0,.06-2.794.887.887,0,0,1,.03-.962s.361-1.293,0-1.623-.271-2.345-.181-3.938a5.978,5.978,0,0,0-.633-2.735c0-.241-2.383-2.585-2.383-2.794a5.959,5.959,0,0,0-2.409-1.323c-.9-.241-1.356-.42-1.326-.541s-1.416-.6-1.416-.6a2.848,2.848,0,0,1-1.748-.722c-.483-.632-1.955-.813-2-.819-.009-.041-.019-.084-.028-.125s-.019-.09-.028-.135c.114-.192.219-.388.315-.589.029-.061.056-.125.083-.183a2.572,2.572,0,0,0,1.484-.46,2.02,2.02,0,0,0,.721-1.441,3.16,3.16,0,0,0-.352-1.6,2.725,2.725,0,0,1-.518-1.689c.059-.251.211-.477.288-.725a1.909,1.909,0,0,0-.217-1.424c-.228-.436-.546-.82-.8-1.243a4.853,4.853,0,0,1-.636-1.756,2.746,2.746,0,0,0-.236-.957,1.782,1.782,0,0,0-.528-.533,5.276,5.276,0,0,0-3.238-.982,15.517,15.517,0,0,1-2.452.149,8.821,8.821,0,0,1-1.432-.376,3.7,3.7,0,0,0-3.057.157c-.88.578-1.23,1.716-1.826,2.605a21.18,21.18,0,0,0-1.7,2.28.18.18,0,0,1,.013-.048,2.729,2.729,0,0,0-.225.607,4.327,4.327,0,0,0,.134,1.993,1.383,1.383,0,0,0,.487.891,2.9,2.9,0,0,0,1.052.207c-.013.056-.028.114-.04.172a6.886,6.886,0,0,0,4.777,8.027v.183a4.556,4.556,0,0,1-.031.517h0s-3.029-.627-3.843-.2-2.411.753-2.651.991-.843.06-1.38,1.474-.6,2.855-1.3,3.512-1.054,1.112-1.084,1.594.09.6-.182.753-.662.781-.542,1.022a.855.855,0,0,1-.331.9,1.007,1.007,0,0,0-.423.9s-.181.662-.6.811-.694,1.143-.694,1.143l-1.371,1.574-2.708-3a1.141,1.141,0,0,0-1.612-.083l-1.329,1.2a2.626,2.626,0,0,0-1.331.793,3.431,3.431,0,0,0-.689,1.026l-.729.655a1.85,1.85,0,0,0-.187,2.042l1.735,1.918.011.016a3.064,3.064,0,0,0-1.678.684c-2.59,2.284-2.621,4.39-2.229,5.349a40.459,40.459,0,0,0,3.675,4.659,14.684,14.684,0,0,0,4.662,3.8h0l-.021.021c-.054.058-.108.125-.161.188l-.045.058-.041.058-.049.073c-.014.019-.026.039-.039.059s-.035.056-.051.087l-.034.058c-.02.038-.041.077-.061.117l-.02.039c-.025.053-.05.107-.074.163-.009.02-.016.041-.025.061-.015.039-.031.079-.046.125s-.019.051-.028.078-.026.078-.039.118-.018.056-.025.084-.025.088-.036.133-.014.053-.021.082c-.016.069-.033.14-.046.216a.532.532,0,0,1-.015.085q-.015.075-.026.154c-.006.036-.01.073-.015.109s-.013.1-.019.149l-.011.115c0,.055-.01.113-.014.171a.593.593,0,0,1-.006.105c0,.1-.01.191-.011.291a16.707,16.707,0,0,0,.146,4.027,1.951,1.951,0,0,0,1.6,1.2,2.045,2.045,0,0,0,.515-.028c1.567-.271,5.241-.9,6.537-.661a11.167,11.167,0,0,0,3.248-.263l.27-.051.188.6.6-.163.5.292.32.183c.595,2.017,3.01,1.329,3.01,1.329l.567.329,5.815.151a11.912,11.912,0,0,0,2.058.988,1.912,1.912,0,0,0,.292.064,13.2,13.2,0,0,0,1.62.03c.445-.011.79-.03.79-.03s-.059-1.579-.144-3.346a47.645,47.645,0,0,0,5.386-.442c3.105-.546,4.4-3.369,4.878-4.878a14.178,14.178,0,0,1,.3,1.873,13.413,13.413,0,0,0,.483,1.623,5.485,5.485,0,0,0,.662,1.2c2.29-.781.9-1.953.421-2.465s.332-.932.332-.932.627-.42.572-.811-.09-.811,1.958-.781S695.815,390.064,695.815,390.064ZM664,370.875a13.934,13.934,0,0,0,.571,2.508,3.31,3.31,0,0,1,.068.99c-1.214-.1-2.478-.148-2.478-.148a.29.29,0,0,1,.065.154l-.191-.043-.277-.068,2.236-3.4Zm-4.43,7.049,2.1.334.177.028a6.906,6.906,0,0,0-.109.992c0,.031.048.069.115.113a2.705,2.705,0,0,0-.041.5,5.792,5.792,0,0,0,2.142.824c-.015.06-.03.118-.045.172h0c-.995-.523-2.562-.768-2.743-1.156s-5.519-2.258-5.519-2.258-.194-.1-.531-.266l1.4.266.386-.039a21.06,21.06,0,0,0,2.661.487Z" transform="translate(-524.018 -48.912)" fill="url(#linear-gradient)"/>
      <path id="Path_1787" data-name="Path 1787" d="M742.032,682.422s-.835,5.046-5.076,5.792-18.395.6-18.395.6-8.092-1.164-11.018-8-4.807-9.556-2.3-9.675,16.035,4.569,16.807,4.628S742.779,665.371,742.032,682.422Z" transform="translate(-577.093 -339.962)" fill="#434175"/>
      <path id="Path_1788" data-name="Path 1788" d="M742.032,682.422s-.835,5.046-5.076,5.792-18.395.6-18.395.6-8.092-1.164-11.018-8-4.807-9.556-2.3-9.675,16.035,4.569,16.807,4.628S742.779,665.371,742.032,682.422Z" transform="translate(-577.093 -339.962)" opacity="0.05"/>
      <path id="Path_1789" data-name="Path 1789" d="M702.984,752.586a1.936,1.936,0,0,0,1.585,1.193,2.059,2.059,0,0,0,.51-.028c1.553-.268,5.2-.9,6.479-.657a11.04,11.04,0,0,0,3.218-.261c.677-.125,1.171-.251,1.171-.251s-1.194-3.971-1.344-4.09-5.374-3.255-5.374-3.255l-4.139-.3h-.013a2.176,2.176,0,0,0-1.4.824,4.4,4.4,0,0,0-.838,2.818A16.681,16.681,0,0,0,702.984,752.586Z" transform="translate(-576.002 -404.513)" fill="#565387"/>
      <path id="Path_1790" data-name="Path 1790" d="M702.987,752.612a1.936,1.936,0,0,0,1.585,1.193,17,17,0,0,1-1.129-1.641l.021-2.9a5.09,5.09,0,0,1,1.631-4.3h-.013s-2.18.148-2.24,3.637A16.648,16.648,0,0,0,702.987,752.612Z" transform="translate(-576.005 -404.54)" opacity="0.05"/>
      <path id="Path_1800" data-name="Path 1800" d="M830.391,692.277l3.852-3.01,6.062-5.973s-.655-.031-1.642-.074c-.251.157-.934.65-.959,1.254-.03.73-1.639.05-2.475.468s-4.927,5.654-5.644,5.62-1.283-.364-1.583.144c0,.011-.014.021-.021.033Z" transform="translate(-685.457 -350.534)" opacity="0.1"/>
      <path id="Path_1791" data-name="Path 1791" d="M709.6,745.767c.137.066.275.125.416.191a26.607,26.607,0,0,1,6.809,4.36,28.179,28.179,0,0,0,3.874,2.516c.677-.125,1.171-.251,1.171-.251s-1.194-3.971-1.345-4.09-5.374-3.255-5.374-3.255l-4.139-.3H711A2.185,2.185,0,0,0,709.6,745.767Z" transform="translate(-581.925 -404.513)" opacity="0.1"/>
      <path id="Path_1792" data-name="Path 1792" d="M643.559,641.282a39.848,39.848,0,0,0,3.637,4.629,14.276,14.276,0,0,0,4.987,3.941,26.565,26.565,0,0,1,6.808,4.36,31.617,31.617,0,0,0,4.149,2.678l.367.214.815.473.432.251s1-.8,2-1.61,1.96-1.6,1.977-1.644c.029-.089.417-1.105.327-1.164-.046-.031-.251-.445-.627-.924a4.239,4.239,0,0,0-1.521-1.254,4.286,4.286,0,0,1-1.97-2.054s-.125-.1-.33-.221a3.994,3.994,0,0,0-1.342-.6c-.658-.083-1.881-1.426-1.881-1.426a3.687,3.687,0,0,1-1.165-1.224c-.314-.655-4.944-3.835-5.373-4.129l11.227,7.209,2.687,1.727,3.852-3.01,6.063-5.973s-.815-.04-2.007-.09c-2.946-.125-8.179-.327-8.84-.178a5.041,5.041,0,0,1-1.643.107,5.753,5.753,0,0,1-2.476-.453c-.986-.521-2.54-.764-2.719-1.149s-5.465-2.239-5.465-2.239-7.2-3.822-9.764-1.551S643.17,640.327,643.559,641.282Z" transform="translate(-524.006 -308.588)" fill="#434175"/>
      <path id="Path_1812" data-name="Path 1812" d="M829.82,446.776l.926,3.075,1.194,6.927,4.39.3,1.271-2.107,1.273-2.1s.79-2.8,1.358-5.507c.5-2.4.83-4.721.283-4.973-.484-.225-.8-1.031-1-1.9-.026-.107-.05-.216-.073-.325a16.879,16.879,0,0,1-.291-2.226s-9.2-.477-7.913,3.315a6.043,6.043,0,0,1,.346,2.017,4.772,4.772,0,0,1-.031.513A4.3,4.3,0,0,1,829.82,446.776Z" transform="translate(-687.067 -135.997)" fill="#ee8e9e"/>
      <path id="Path_1801" data-name="Path 1801" d="M814.58,487.1l.329,5.225.746,4.449.837,2.061.746,11.273s7.2.833,8.951-.015a.771.771,0,0,0,.317-.251c2.115-3.189,1.421-12.441,1.421-12.441l.806-5.974-.538-3.1-1.3-.138-1-.107s-.226.278-.552.709c-.885,1.169-2.508,3.468-2.4,4.427.148,1.314-.179,2.658-.687,2.867s-.926.567-1.015.209a1.624,1.624,0,0,1-.09-.956,7.867,7.867,0,0,0-.389-2.061,8.821,8.821,0,0,1-.753-2.6,3.1,3.1,0,0,0-.329-1.881c-.24-.208-.567-.419-.3-1.38S818.2,484.6,818.2,484.6Z" transform="translate(-673.738 -176.826)" fill="#e3e8f4"/>
      <path id="Path_1805" data-name="Path 1805" d="M890.321,476.812l.3,8.929,1.725.956a.772.772,0,0,0,.317-.251c2.116-3.195,1.422-12.444,1.422-12.444l.806-5.973-.538-3.1-1.3-.138c.5-2.4.83-4.721.285-4.973-.485-.224-.8-1.031-1.011-1.9h0l-.928,6.321s.078.569.105,1.156a3.317,3.317,0,0,1-.075,1.112,3.714,3.714,0,0,0-.06,1.494,12.165,12.165,0,0,0-.938,4.4C890.253,474.663,890.321,476.812,890.321,476.812Z" transform="translate(-739.968 -153.492)" opacity="0.1"/>
      <path id="Path_1793" data-name="Path 1793" d="M893.5,456.82s1.505.187,1.982.814a2.806,2.806,0,0,0,1.732.714s1.434.478,1.4.6.418.3,1.315.538a5.844,5.844,0,0,1,2.383,1.314c0,.209,2.359,2.537,2.359,2.777a5.915,5.915,0,0,1,.627,2.717c-.09,1.588-.179,3.583.179,3.912s0,1.613,0,1.613a.878.878,0,0,0-.019.956,8.2,8.2,0,0,1-.059,2.778l.029,2.329s-.329,1.462.06,1.523-.06.716-.06.716-.329,1.2.09,1.732a8.754,8.754,0,0,1,.537,2.837l6.4,9.281s.09,1.7-1.94,1.672-2.007.389-1.942.776-.567.806-.567.806-.806.418-.328.926,1.851,1.672-.418,2.448a5.416,5.416,0,0,1-.657-1.194,13.523,13.523,0,0,1-.478-1.612s-.209-2.27-.627-2.569-.359-1.732-.359-1.732.6-1.164-.238-1.642-12.972-7.19-12.972-7.19l-.3-8.929s-.209-6.6,1.045-8.808a3.707,3.707,0,0,1,.06-1.493,7.732,7.732,0,0,0-.03-2.27Z" transform="translate(-741.111 -152.53)" fill="#565387"/>
      <path id="Path_1806" data-name="Path 1806" d="M768.128,482.971s-3-.618-3.808-.2-2.383.753-2.634.986-.837.06-1.373,1.464-.6,2.836-1.284,3.493-1.045,1.1-1.075,1.583.089.6-.179.753-.657.776-.538,1.016,6.222,5.487,6.222,5.487a14.266,14.266,0,0,0,.568,2.508c.268.5-.3,7.5-.9,7.973s4.031.434,4.031.434.208-4.584.388-4.824a47.608,47.608,0,0,0-.125-5.142,29.187,29.187,0,0,1,.359-5.285,24.059,24.059,0,0,0,.345-4.774,9.87,9.87,0,0,1,.761-2.718C769.307,485.209,768.128,482.971,768.128,482.971Z" transform="translate(-623.567 -175.098)" opacity="0.1"/>
      <path id="Path_1807" data-name="Path 1807" d="M767.418,482.261s-3-.618-3.809-.2-2.383.746-2.628.986-.835.059-1.38,1.462-.6,2.837-1.284,3.494-1.045,1.105-1.075,1.583.09.6-.178.746-.657.776-.538,1.015,6.211,5.495,6.211,5.495a14.245,14.245,0,0,0,.567,2.508c.268.5-.3,7.494-.9,7.972s4.031.434,4.031.434.209-4.584.389-4.823a47.633,47.633,0,0,0-.125-5.142,29.292,29.292,0,0,1,.359-5.285,24.2,24.2,0,0,0,.345-4.779,9.885,9.885,0,0,1,.76-2.717C768.583,484.5,767.418,482.261,767.418,482.261Z" transform="translate(-622.946 -174.476)" fill="#565387"/>
      <path id="Path_1815" data-name="Path 1815" d="M840.144,441.251a6.041,6.041,0,0,1,.346,2.017,6.852,6.852,0,0,0,7.858-3.105,16.9,16.9,0,0,1-.291-2.226S838.861,437.459,840.144,441.251Z" transform="translate(-695.988 -135.997)" opacity="0.1"/>
      <path id="Path_1816" data-name="Path 1816" d="M804.82,379.15a6.838,6.838,0,1,0,.148-1.421A6.838,6.838,0,0,0,804.82,379.15Z" transform="translate(-665.202 -78.614)" fill="#ee8e9e"/>
      <path id="Path_1808" data-name="Path 1808" d="M727.971,553.06l-1.642.508a.851.851,0,0,1-.329.9,1,1,0,0,0-.418.9s-.179.656-.6.805-.687,1.129-.687,1.129l-1.373,1.583s-.508.418-.418.627-.538.268-.538.268l.329,5.32,2.837.538,1.756-.179,1.434-.538,1.254-.753.572-1.451,2.509-3.822Z" transform="translate(-592.743 -236.699)" fill="#565387"/>
      <path id="Path_1813" data-name="Path 1813" d="M674.239,587.27s-3.637-5.256-6.36-2.419,1.1,7.435,2,7.286,5.166-.388,5.166-.388Z" transform="translate(-544.595 -263.767)" fill="#ee8e9e"/>
      <rect id="Rectangle_2268" data-name="Rectangle 2268" width="7.703" height="8.755" rx="3.852" transform="translate(120.937 323.94) rotate(-42.05)" fill="#30374e"/>
      <rect id="Rectangle_2269" data-name="Rectangle 2269" width="7.703" height="8.755" rx="3.852" transform="translate(120.937 323.94) rotate(-42.05)" opacity="0.1"/>
      <rect id="Rectangle_2270" data-name="Rectangle 2270" width="7.703" height="8.755" rx="3.852" transform="translate(121.039 323.506) rotate(-42.05)" fill="#30374e"/>
      <circle id="Ellipse_214" data-name="Ellipse 214" cx="1.702" cy="1.702" r="1.702" transform="translate(125.034 322.691)"/>
      <circle id="Ellipse_215" data-name="Ellipse 215" cx="1.702" cy="1.702" r="1.702" transform="translate(125.034 322.691)" opacity="0.1"/>
      <circle id="Ellipse_216" data-name="Ellipse 216" cx="1.702" cy="1.702" r="1.702" transform="translate(125.129 322.476)"/>
      <path id="Path_1809" data-name="Path 1809" d="M706.5,605.874c-.03,3.942,8.122,4.777,8.122,4.777l2.082.331.933.148.389-3.848s-.428-.064-.962-.188c-.789-.184-1.811-.5-2.026-.947C714.681,605.4,706.528,601.933,706.5,605.874Z" transform="translate(-579.213 -281.272)" fill="#ee8e9e"/>
      <path id="Path_1817" data-name="Path 1817" d="M806,377.926a.812.812,0,0,1,.5.223c.231.245.243.679.543.829a.617.617,0,0,0,.356.041c.794-.113,1.254-1,2.016-1.254a2.032,2.032,0,0,1,1.336.114,1,1,0,0,1,.443.285c.251.33.076.815.194,1.215.164.554.826.775,1.4.848a2.446,2.446,0,0,1,1.6.546,1.453,1.453,0,0,1,.285,1.155.916.916,0,0,0,0,.428c.158.448.933.376,1.135.028.148-.257.1-.47.452-.542a1.487,1.487,0,0,1,.731.125,5.358,5.358,0,0,0,1.891.291A6.839,6.839,0,1,0,806,377.926Z" transform="translate(-666.234 -78.813)" opacity="0.1"/>
      <path id="Path_1818" data-name="Path 1818" d="M802.957,356.629a.916.916,0,0,1,0-.428,1.454,1.454,0,0,0-.285-1.155,2.428,2.428,0,0,0-1.6-.546c-.573-.071-1.235-.292-1.4-.847-.118-.4.06-.887-.194-1.217a.978.978,0,0,0-.442-.284,2.061,2.061,0,0,0-1.337-.115c-.761.251-1.222,1.144-2.016,1.254a.617.617,0,0,1-.356-.041c-.3-.151-.312-.584-.543-.828-.362-.384-1.051-.137-1.495-.421a1.374,1.374,0,0,1-.482-.884,4.307,4.307,0,0,1-.133-1.98c.26-1.111,1.254-1.872,1.881-2.821.591-.884.922-2.007,1.81-2.589a3.634,3.634,0,0,1,3.029-.156,9.36,9.36,0,0,0,1.419.376,16.343,16.343,0,0,0,2.431-.148,5.22,5.22,0,0,1,3.21.974,1.776,1.776,0,0,1,.524.531,2.713,2.713,0,0,1,.232.951,4.859,4.859,0,0,0,.627,1.747c.251.42.566.8.793,1.235a1.9,1.9,0,0,1,.214,1.414c-.076.251-.228.468-.285.72a2.7,2.7,0,0,0,.513,1.678,3.149,3.149,0,0,1,.349,1.592,2.007,2.007,0,0,1-.715,1.431,2.569,2.569,0,0,1-1.514.459,5.366,5.366,0,0,1-1.929-.29,1.5,1.5,0,0,0-.731-.125c-.349.072-.3.285-.452.542C803.889,357.01,803.115,357.077,802.957,356.629Z" transform="translate(-654.52 -53.266)" fill="#434175"/>
      <path id="Path_1802" data-name="Path 1802" d="M826.993,693.593l3.852-3.01,6.063-5.973s-.815-.04-2.007-.09a1.3,1.3,0,0,0-.423.815c-.03.73-1.639.052-2.475.469s-4.927,5.653-5.644,5.619-1.283-.364-1.583.144a.3.3,0,0,1-.021.034.849.849,0,0,1-.455.27Z" transform="translate(-682.239 -351.67)" opacity="0.1"/>
      <path id="Path_1794" data-name="Path 1794" d="M783.87,678.9l1.935,6.178.3.971.922-.251,2.032-.558,9.051-2.486a7.885,7.885,0,0,0,3.261-.869A9.864,9.864,0,0,1,807,680.662c1.2.112,2.527-.4,3.637-2.443,0,0,2.508-7.4-3.823-9.532s-6.632,1.129-6.632,1.129-.033.018-.085.053c-.251.157-.934.65-.959,1.254-.03.73-1.639.05-2.475.468s-4.927,5.654-5.644,5.62-1.283-.364-1.583.144c0,.011-.014.021-.021.033-.221.3-.886.376-1.326.388-.24.008-.414,0-.414,0l-.056.018-.469.13Z" transform="translate(-646.88 -337.19)" fill="#434175"/>
      <path id="Path_1810" data-name="Path 1810" d="M787.86,632.388l.933.148.389-3.848s-.428-.064-.962-.188A19.75,19.75,0,0,1,787.86,632.388Z" transform="translate(-650.369 -302.678)" opacity="0.1"/>
      <path id="Path_1803" data-name="Path 1803" d="M813.235,515.358s2.777-.806,2.09,7.078A22.013,22.013,0,0,1,809.5,535.3s-5.912,2.6-8.57,2.18a45.554,45.554,0,0,0-4.6-.5,6.747,6.747,0,0,0-2.688-.716c-1.494-.06-4.628-.986-4.688-1.284s.776-4.688.418-5.017c0,0,4.18.172,4.6.474s1.015.085,1.462,0a5.091,5.091,0,0,1,4.539-.235,2.752,2.752,0,0,0,1.284-.149,1.283,1.283,0,0,1,.933-.06,2.446,2.446,0,0,0,.65-.335c.087-.125.805,0,.805,0a.318.318,0,0,0,.449-.209,1.95,1.95,0,0,1,.418-.656s.806-4.539,2.329-6.241a.975.975,0,0,0,.329-.867C807.054,521.2,809.656,514.4,813.235,515.358Z" transform="translate(-651.327 -203.645)" opacity="0.1"/>
      <path id="Path_1811" data-name="Path 1811" d="M812.651,510.52s2.777-.806,2.091,7.078a22.013,22.013,0,0,1-5.83,12.87s-5.912,2.6-8.57,2.18-4.6-.508-4.6-.508a6.738,6.738,0,0,0-2.688-.716c-1.493-.06-4.628-.986-4.688-1.284s.776-4.688.419-5.017c0,0,4.18.172,4.6.474s1.016.085,1.464,0a5.1,5.1,0,0,1,4.539-.235,2.746,2.746,0,0,0,1.283-.149,1.287,1.287,0,0,1,.934-.06,2.631,2.631,0,0,0,.648-.329c.089-.119.806,0,.806,0a.317.317,0,0,0,.448-.208,1.949,1.949,0,0,1,.418-.657s.806-4.539,2.329-6.241a.974.974,0,0,0,.329-.865C806.464,516.375,809.062,509.564,812.651,510.52Z" transform="translate(-650.811 -199.413)" fill="#565387"/>
      <path id="Path_1795" data-name="Path 1795" d="M810,746.373l3.943,4.766c.015-.014.025-.024.025-.028.03-.09.418-1.1.329-1.165a5.549,5.549,0,0,0-2.15-2.18,4.042,4.042,0,0,1-1.688-1.536Z" transform="translate(-669.732 -405.64)" opacity="0.1"/>
      <path id="Path_1796" data-name="Path 1796" d="M809.845,776.455l.431.251s1-.8,2-1.61,1.96-1.6,1.977-1.644c.029-.089.416-1.1.327-1.164-.046-.031-.251-.445-.627-.924-2.674-.753-.972,1.107-.745,1.193a2.72,2.72,0,0,0-3.434,2.8A4.188,4.188,0,0,0,809.845,776.455Z" transform="translate(-669.524 -427.465)" opacity="0.1"/>
      <path id="Path_1781" data-name="Path 1781" d="M815.068,777.983l.568.329,5.769.149a11.145,11.145,0,0,0,2.039.981,1.736,1.736,0,0,0,.29.064,12.964,12.964,0,0,0,1.605.03c.442-.011.784-.03.784-.03s-.273-7.274-.479-8.027c-.1-.366-.581-.286-1.057-.1a6.918,6.918,0,0,0-1.032.523,18.458,18.458,0,0,0-2.837.448c-.389.211-1.493-.125-2.18,0s-1.91-.809-1.91-.809c-3.345-1.1-1.464.956-1.225,1.046a2.72,2.72,0,0,0-3.433,2.8C811.791,778.933,815.068,777.983,815.068,777.983Z" transform="translate(-671.449 -427.49)" fill="#565387"/>
      <path id="Path_1782" data-name="Path 1782" d="M903.131,775.232a9.72,9.72,0,0,0,1.934,4.36c.441-.011.784-.03.784-.03s-.273-7.274-.479-8.027c-.1-.366-.581-.286-1.057-.1A8.431,8.431,0,0,0,903.131,775.232Z" transform="translate(-751.18 -427.547)" fill="#565387"/>
      <path id="Path_1783" data-name="Path 1783" d="M903.131,775.232a9.72,9.72,0,0,0,1.934,4.36c.441-.011.784-.03.784-.03s-.273-7.274-.479-8.027c-.1-.366-.581-.286-1.057-.1A8.431,8.431,0,0,0,903.131,775.232Z" transform="translate(-751.18 -427.547)" opacity="0.1"/>
      <path id="Path_1784" data-name="Path 1784" d="M894.613,775.431c.4,1.452.393,3.082,1.025,4.066a1.736,1.736,0,0,0,.29.064,12.929,12.929,0,0,0,1.605.03c.442-.011.784-.03.784-.03s-.273-7.274-.479-8.027c-.1-.366-.581-.286-1.057-.1a6.921,6.921,0,0,0-1.032.523A4,4,0,0,0,894.613,775.431Z" transform="translate(-743.648 -427.547)" opacity="0.05"/>
      <path id="Path_1804" data-name="Path 1804" d="M736.77,686.94a11.919,11.919,0,0,1,5.288,4.23Z" transform="translate(-605.687 -353.787)" opacity="0.1"/>
      <path id="Path_1820" data-name="Path 1820" d="M921.417,401.26a.586.586,0,0,1-.018.063,2.012,2.012,0,0,1-.1.251A1.886,1.886,0,0,1,921.417,401.26Z" transform="translate(-767.073 -103.938)"/>
      <path id="Path_1819" data-name="Path 1819" d="M792.628,385.5a2.693,2.693,0,0,1,.222-.6c-.015.051-.031.1-.044.156a4.305,4.305,0,0,0,.133,1.98,1.379,1.379,0,0,0,.482.884c.445.285,1.129.036,1.495.42.231.245.243.679.544.829a.616.616,0,0,0,.356.041c.793-.113,1.254-1,2.016-1.254a2.025,2.025,0,0,1,1.336.115.979.979,0,0,1,.441.283c.251.33.077.817.194,1.215.164.554.827.775,1.4.847a2.434,2.434,0,0,1,1.6.547,1.452,1.452,0,0,1,.285,1.155.931.931,0,0,0,0,.428c.158.448.933.376,1.129.028.148-.257.1-.47.453-.542a1.486,1.486,0,0,1,.73.125,5.363,5.363,0,0,0,1.929.29,2.557,2.557,0,0,0,1.514-.459,1.755,1.755,0,0,0,.464-.564,1.9,1.9,0,0,1-.64,1.013,2.563,2.563,0,0,1-1.514.459,5.353,5.353,0,0,1-1.928-.29,1.5,1.5,0,0,0-.731-.125c-.349.071-.3.285-.452.542-.2.354-.977.42-1.136-.028a.931.931,0,0,1,0-.428,1.449,1.449,0,0,0-.283-1.155,2.446,2.446,0,0,0-1.6-.546c-.573-.071-1.235-.292-1.4-.847-.119-.4.06-.887-.194-1.217a.988.988,0,0,0-.443-.283,2.058,2.058,0,0,0-1.336-.115c-.763.251-1.223,1.144-2.016,1.254a.616.616,0,0,1-.356-.041c-.3-.151-.314-.584-.544-.828-.362-.384-1.05-.137-1.494-.421a1.375,1.375,0,0,1-.483-.884A4.328,4.328,0,0,1,792.628,385.5Z" transform="translate(-654.478 -89.63)"/>
      <path id="Path_1814" data-name="Path 1814" d="M909.2,570.282c-.547.739-1.171,1.422-1.656,2.2a4.181,4.181,0,0,0-.725,2.606,6.815,6.815,0,0,0,1.046-1.869,26.849,26.849,0,0,1,2.007-3.02c.125-.192.954-1.3.537-1.351C910.061,568.808,909.382,570.03,909.2,570.282Z" transform="translate(-754.389 -250.509)" opacity="0.1"/>
    </g>
  </g>
</svg>
