<svg xmlns="http://www.w3.org/2000/svg" xmlns:xlink="http://www.w3.org/1999/xlink" width="135.072" height="141.153" viewBox="0 0 135.072 141.153">
  <defs>
    <filter id="Rectangle_2272" x="0" y="0" width="135.072" height="141.153" filterUnits="userSpaceOnUse">
      <feOffset dy="3" input="SourceAlpha"/>
      <feGaussianBlur stdDeviation="3" result="blur"/>
      <feFlood flood-opacity="0.161"/>
      <feComposite operator="in" in2="blur"/>
      <feComposite in="SourceGraphic"/>
    </filter>
    <linearGradient id="linear-gradient" x1="0.5" y1="1" x2="0.5" gradientUnits="objectBoundingBox">
      <stop offset="0" stop-color="gray" stop-opacity="0.251"/>
      <stop offset="0.54" stop-color="gray" stop-opacity="0.122"/>
      <stop offset="1" stop-color="gray" stop-opacity="0.102"/>
    </linearGradient>
  </defs>
  <g id="Group_2782" data-name="Group 2782" transform="translate(-45 -781)">
    <g transform="matrix(1, 0, 0, 1, 45, 781)" filter="url(#Rectangle_2272)">
      <rect id="Rectangle_2272-2" data-name="Rectangle 2272" width="117.071" height="123.153" transform="translate(9 6)" fill="#fff"/>
    </g>
    <circle id="Ellipse_218" data-name="Ellipse 218" cx="24.13" cy="24.13" r="24.13" transform="translate(56.572 788.74)" fill="#4a94e9" opacity="0.331"/>
    <text id="_4" data-name="4" transform="translate(80.57 819.307)" font-size="21" font-family="Helvetica"><tspan x="-5.84" y="0">4</tspan></text>
    <g id="Group_2717" data-name="Group 2717" transform="translate(-1322 -321)">
      <ellipse id="Ellipse_134" data-name="Ellipse 134" cx="22.759" cy="3.18" rx="22.759" ry="3.18" transform="translate(1441.709 1209.002)" fill="#30374e"/>
      <path id="Path_1439" data-name="Path 1439" d="M178.46,642.683a2.118,2.118,0,0,1,1.842.495s-.469.422-1.571-.045Z" transform="translate(1231.961 555.78)"/>
      <path id="Path_1440" data-name="Path 1440" d="M172.872,643a2.109,2.109,0,0,0-.241,1.892s.57-.274.554-1.471Z" transform="translate(1237.426 555.451)"/>
      <path id="Path_1441" data-name="Path 1441" d="M168.2,622.689s.4-.856,2.276.179a1.012,1.012,0,0,1-1,.58A1.224,1.224,0,0,1,168.2,622.689Z" transform="translate(1241.356 574.354)"/>
      <path id="Path_1443" data-name="Path 1443" d="M159,596.38s.421-1.49,2.4-.58c0,0-.346,1.365-2.175,1.065Z" transform="translate(1249.781 598.942)"/>
      <path id="Path_1475" data-name="Path 1475" d="M223.53,558.185a1.277,1.277,0,0,1,1.114.3s-.284.253-.95-.028Z" transform="translate(1190.69 633.14)"/>
      <path id="Path_1476" data-name="Path 1476" d="M220.171,558.39a1.275,1.275,0,0,0-.145,1.144s.344-.169.337-.889Z" transform="translate(1193.976 632.928)"/>
      <path id="Path_1477" data-name="Path 1477" d="M217.34,546.1s.239-.517,1.374.109a.612.612,0,0,1-.605.35A.739.739,0,0,1,217.34,546.1Z" transform="translate(1196.359 644.365)"/>
      <path id="Path_1478" data-name="Path 1478" d="M210.624,547.91s-.57-.026-.538,1.27a.612.612,0,0,0,.59-.376A.739.739,0,0,0,210.624,547.91Z" transform="translate(1203.002 642.526)"/>
      <path id="Path_1479" data-name="Path 1479" d="M211.75,530.188s.259-.9,1.452-.352c0,0-.208.825-1.314.644Z" transform="translate(1201.477 659.239)"/>
      <path id="Path_1480" data-name="Path 1480" d="M206.51,515.521s.539-.927,1.656-.175c0,0-.316.86-1.543.486Z" transform="translate(1206.276 672.614)"/>
      <path id="Path_1493" data-name="Path 1493" d="M197.644,534.9s-.828-.44-1.264.8c0,0,.739.421,1.377-.5Z" transform="translate(1215.552 654.511)"/>
      <path id="Path_1511" data-name="Path 1511" d="M168.905,493.644a3.228,3.228,0,0,0-.632.18c-4.547,1.816-4.471,13.7-4.471,13.7h-1.339a84.508,84.508,0,0,0-2.258-12.378c-1.655-6.547,5.132-12.415,6.51-13.528.155-.124.241-.19.241-.19C173.792,483.942,168.905,493.644,168.905,493.644Z" transform="translate(1248.914 703.402)" fill="#afc0e0"/>
      <path id="Path_1512" data-name="Path 1512" d="M167.5,481.655c-.158-.073-.32-.142-.493-.2l-.241.19c-1.378,1.113-8.165,6.98-6.51,13.528a84.086,84.086,0,0,1,2.254,12.376h.753A83.811,83.811,0,0,0,161,495.166C159.356,488.649,166.077,482.8,167.5,481.655Z" transform="translate(1248.868 703.384)" fill="#fff" opacity="0.2"/>
      <path id="Path_1513" data-name="Path 1513" d="M420.858,495.149a83.564,83.564,0,0,0-2.256,12.376h-1.341s.084-12.422-4.782-13.808a2.65,2.65,0,0,0-.321-.075s-4.889-9.7,1.949-12.212c0,0,.069.051.194.152C415.567,482.6,422.531,488.526,420.858,495.149Z" transform="translate(1019.514 703.402)" fill="#afc0e0"/>
      <path id="Path_1514" data-name="Path 1514" d="M242.43,493.662a3.226,3.226,0,0,0-.632.18,82.545,82.545,0,0,1-1.558-12.2c.155-.124.241-.19.241-.19C247.317,483.96,242.43,493.662,242.43,493.662Z" transform="translate(1175.389 703.384)" opacity="0.1"/>
      <path id="Path_1515" data-name="Path 1515" d="M414.33,481.637a75.952,75.952,0,0,1-1.822,12.139,2.661,2.661,0,0,0-.321-.075s-4.889-9.7,1.949-12.212C414.134,481.485,414.2,481.536,414.33,481.637Z" transform="translate(1019.486 703.349)" opacity="0.1"/>
      <path id="Path_1516" data-name="Path 1516" d="M257.568,106.244q-.708,2.794-1.66,5.732s-3.011,3.137-10.284,0a55.166,55.166,0,0,1-1.526-5.531c-1.759-7.657-3.869-22.247.626-37.234a55.783,55.783,0,0,1,5.663-12.852s3.84,4.409,6.659,12.849S261.66,90.12,257.568,106.244Z" transform="translate(1173.746 1092.641)" fill="#e3e8f4"/>
      <circle id="Ellipse_135" data-name="Ellipse 135" cx="6.038" cy="6.038" r="6.038" transform="translate(1418.707 1167.711)" fill="#afc0e0"/>
      <path id="Path_1517" data-name="Path 1517" d="M306.154,303.491a4.282,4.282,0,0,1-7,3.312,4.327,4.327,0,0,1-.8-.871,4.214,4.214,0,0,1-.276-.454,4.274,4.274,0,0,1-.488-1.987v-.1a4.287,4.287,0,0,1,3.119-4.023,4.429,4.429,0,0,1,1.032-.157h.128A4.282,4.282,0,0,1,306.154,303.491Z" transform="translate(1122.873 870.261)"/>
      <path id="Path_1518" data-name="Path 1518" d="M286.226,69.209a13.616,13.616,0,0,1-12.326,0,55.782,55.782,0,0,1,5.667-12.849S283.408,60.769,286.226,69.209Z" transform="translate(1144.566 1092.641)" fill="#afc0e0"/>
      <path id="Path_1519" data-name="Path 1519" d="M279.953,648.14q-.48,1.892-1.071,3.848-.28.933-.59,1.881s-3.011,3.137-10.284,0c0,0-.236-.665-.59-1.881-.265-.919-.594-2.15-.938-3.649a18.248,18.248,0,0,0,6.551,1.156,18.046,18.046,0,0,0,6.922-1.355Z" transform="translate(1151.361 550.745)" fill="#afc0e0"/>
      <path id="Path_1520" data-name="Path 1520" d="M289.074,693.79q-.28.933-.59,1.881s-3.011,3.137-10.284,0c0,0-.236-.665-.59-1.881C277.609,693.79,285.022,695.923,289.074,693.79Z" transform="translate(1141.169 508.942)" fill="#e3e8f4"/>
      <path id="Path_1521" data-name="Path 1521" d="M300.73,299.3l-.009.007-3.111,4.016v.1a4.274,4.274,0,0,0,.488,1.987l3.665-6.268Z" transform="translate(1122.855 870.325)" fill="#fff" opacity="0.2"/>
      <path id="Path_1522" data-name="Path 1522" d="M310.01,340.594l-2.547,3.814a4.327,4.327,0,0,1-.8-.871l3.035-3.257Z" transform="translate(1114.568 832.654)" fill="#fff" opacity="0.2"/>
      <path id="Path_1523" data-name="Path 1523" d="M247.205,111.984a55.245,55.245,0,0,1-1.526-5.531c-1.759-7.657-3.869-22.248.626-37.235a55.987,55.987,0,0,1,4.961-11.64c-.571-.8-.927-1.208-.927-1.208a55.777,55.777,0,0,0-5.665,12.848c-4.5,14.987-2.386,29.577-.626,37.235a55.256,55.256,0,0,0,1.526,5.531,14,14,0,0,0,6.7,1.36A15.965,15.965,0,0,1,247.205,111.984Z" transform="translate(1173.792 1092.631)" fill="#fff" opacity="0.2"/>
      <path id="Path_1528" data-name="Path 1528" d="M963.742,689.86a10.6,10.6,0,0,0,2.637,1.776,10.626,10.626,0,0,0-.345-3.161,1.339,1.339,0,1,0-2.292,1.385Z" transform="translate(513.052 514.402)"/>
      <path id="Path_1531" data-name="Path 1531" d="M989.763,732.193a10.609,10.609,0,0,1-3.123-.6,10.585,10.585,0,0,1,2.47-2,1.339,1.339,0,0,1,.653,2.6Z" transform="translate(491.907 476.191)"/>
      <path id="Path_1535" data-name="Path 1535" d="M963.742,689.86a10.6,10.6,0,0,0,2.637,1.776,10.626,10.626,0,0,0-.345-3.161,1.339,1.339,0,1,0-2.292,1.385Z" transform="translate(513.052 514.402)" opacity="0.25"/>
      <path id="Path_1538" data-name="Path 1538" d="M989.763,732.193a10.609,10.609,0,0,1-3.123-.6,10.585,10.585,0,0,1,2.47-2,1.339,1.339,0,0,1,.653,2.6Z" transform="translate(491.907 476.191)" opacity="0.25"/>
      <path id="Path_1543" data-name="Path 1543" d="M995.943,699.054a10.592,10.592,0,0,0,1.691,2.692,10.591,10.591,0,0,0,.965-3.029,1.339,1.339,0,1,0-2.656.337Z" transform="translate(483.398 505.502)"/>
      <path id="Path_1547" data-name="Path 1547" d="M678.624,373.1l-4.332-6.282a6.025,6.025,0,0,0-.364-1.919c-.28-.363-.061-1.172-.061-1.172s.3-.444.041-.485-.041-1.031-.041-1.031l-.02-1.576a5.527,5.527,0,0,0,.04-1.878.6.6,0,0,1,.02-.647s.243-.869,0-1.091-.182-1.576-.121-2.647a4.017,4.017,0,0,0-.426-1.838c0-.162-1.6-1.737-1.6-1.878a4.006,4.006,0,0,0-1.619-.889c-.608-.162-.911-.282-.891-.363s-.952-.4-.952-.4a1.915,1.915,0,0,1-1.175-.486c-.325-.425-1.314-.546-1.343-.55-.006-.028-.013-.056-.018-.084s-.013-.061-.019-.091c.077-.129.148-.26.212-.4.019-.041.038-.084.056-.123a1.729,1.729,0,0,0,1-.309,1.358,1.358,0,0,0,.485-.969,2.125,2.125,0,0,0-.237-1.076,1.832,1.832,0,0,1-.348-1.135c.04-.169.142-.32.194-.487a1.283,1.283,0,0,0-.146-.957c-.153-.293-.367-.551-.537-.835a3.261,3.261,0,0,1-.427-1.18,1.846,1.846,0,0,0-.159-.643,1.2,1.2,0,0,0-.355-.358,3.546,3.546,0,0,0-2.177-.66,10.426,10.426,0,0,1-1.648.1,5.929,5.929,0,0,1-.963-.253,2.489,2.489,0,0,0-2.054.105c-.592.389-.827,1.153-1.227,1.751a14.228,14.228,0,0,0-1.143,1.532.121.121,0,0,1,.008-.032,1.835,1.835,0,0,0-.151.408,2.907,2.907,0,0,0,.09,1.339.929.929,0,0,0,.327.6,1.947,1.947,0,0,0,.707.139c-.008.038-.019.077-.027.116a4.628,4.628,0,0,0,3.211,5.395v.123a3.059,3.059,0,0,1-.021.347h0a6.978,6.978,0,0,0-2.583-.135c-.547.287-1.62.506-1.782.666s-.566.04-.927.99-.4,1.919-.871,2.36-.708.748-.728,1.071.061.4-.122.506-.445.525-.364.687a.574.574,0,0,1-.222.605.677.677,0,0,0-.284.606s-.121.445-.4.545-.466.768-.466.768l-.921,1.058-1.82-2.015a.767.767,0,0,0-1.083-.056l-.893.806a1.765,1.765,0,0,0-.894.533,2.306,2.306,0,0,0-.463.69l-.49.44a1.243,1.243,0,0,0-.126,1.372l1.166,1.289.008.011a2.058,2.058,0,0,0-1.128.459c-1.741,1.535-1.762,2.95-1.5,3.6a27.2,27.2,0,0,0,2.47,3.132,9.869,9.869,0,0,0,3.133,2.553h0l-.014.014c-.036.039-.073.084-.108.126l-.03.039-.028.039-.033.049c-.009.013-.018.026-.026.04s-.024.038-.035.058l-.023.039c-.014.025-.028.051-.041.078l-.014.026c-.017.035-.034.072-.05.11-.006.013-.011.028-.017.041s-.021.053-.031.084-.013.035-.019.052-.018.052-.026.079-.012.038-.017.056-.017.059-.024.089-.009.035-.014.055c-.011.046-.022.094-.031.145a.357.357,0,0,1-.01.057q-.01.051-.018.1c0,.024-.007.049-.01.073s-.008.067-.013.1l-.008.078c0,.037-.007.076-.009.115a.4.4,0,0,1,0,.071c0,.064-.007.128-.008.2a11.223,11.223,0,0,0,.1,2.707,1.311,1.311,0,0,0,1.075.807,1.373,1.373,0,0,0,.346-.019,20.105,20.105,0,0,1,4.393-.444,7.506,7.506,0,0,0,2.183-.177l.181-.035.126.4.4-.11.337.2.215.123c.4,1.355,2.023.894,2.023.894l.381.221,3.908.1a8.006,8.006,0,0,0,1.383.664,1.283,1.283,0,0,0,.2.043,8.865,8.865,0,0,0,1.089.02c.3-.008.531-.02.531-.02s-.04-1.061-.1-2.249a32.041,32.041,0,0,0,3.62-.3,4.458,4.458,0,0,0,3.278-3.278,9.547,9.547,0,0,1,.2,1.259,9.009,9.009,0,0,0,.325,1.091,3.691,3.691,0,0,0,.445.808c1.539-.525.608-1.312.283-1.656s.223-.626.223-.626.421-.282.384-.545-.061-.545,1.316-.525S678.624,373.1,678.624,373.1Zm-21.382-12.9a9.367,9.367,0,0,0,.383,1.686,2.222,2.222,0,0,1,.046.665c-.816-.065-1.666-.1-1.666-.1a.2.2,0,0,1,.044.1l-.128-.029-.186-.046,1.5-2.286Zm-2.977,4.737,1.412.224.119.019a4.641,4.641,0,0,0-.073.667c0,.021.032.046.078.076a1.815,1.815,0,0,0-.028.337,3.892,3.892,0,0,0,1.44.554c-.01.04-.02.079-.03.116h0c-.669-.352-1.722-.516-1.844-.777a27.319,27.319,0,0,0-3.709-1.517s-.131-.069-.357-.179l.944.179.26-.026a14.156,14.156,0,0,0,1.789.327Z" transform="translate(806.224 834.427)" fill="url(#linear-gradient)"/>
      <path id="Path_1548" data-name="Path 1548" d="M729.586,678.72s-.561,3.391-3.411,3.893-12.363.4-12.363.4-5.439-.782-7.405-5.378-3.231-6.422-1.545-6.5,10.777,3.071,11.3,3.111S730.087,667.26,729.586,678.72Z" transform="translate(750.653 529.69)" fill="#434175"/>
      <path id="Path_1549" data-name="Path 1549" d="M729.586,678.72s-.561,3.391-3.411,3.893-12.363.4-12.363.4-5.439-.782-7.405-5.378-3.231-6.422-1.545-6.5,10.777,3.071,11.3,3.111S730.087,667.26,729.586,678.72Z" transform="translate(750.653 529.69)" opacity="0.05"/>
      <path id="Path_1550" data-name="Path 1550" d="M702.933,750.079a1.3,1.3,0,0,0,1.065.8,1.387,1.387,0,0,0,.343-.019,19.952,19.952,0,0,1,4.355-.442,7.42,7.42,0,0,0,2.163-.175c.455-.084.787-.169.787-.169s-.8-2.669-.9-2.749-3.612-2.187-3.612-2.187l-2.782-.2h-.008a1.462,1.462,0,0,0-.942.554,2.96,2.96,0,0,0-.563,1.894A11.213,11.213,0,0,0,702.933,750.079Z" transform="translate(751.795 462.104)" fill="#565387"/>
      <path id="Path_1551" data-name="Path 1551" d="M702.936,750.106a1.3,1.3,0,0,0,1.066.8,11.431,11.431,0,0,1-.759-1.1l.014-1.946a3.421,3.421,0,0,1,1.1-2.889h-.008s-1.465.1-1.506,2.445A11.188,11.188,0,0,0,702.936,750.106Z" transform="translate(751.792 462.076)" opacity="0.05"/>
      <path id="Path_1552" data-name="Path 1552" d="M829.6,689.307l2.589-2.023,4.074-4.014s-.44-.021-1.1-.05c-.169.105-.628.437-.645.843-.02.491-1.1.034-1.663.314s-3.311,3.8-3.793,3.777-.862-.245-1.064.1c0,.008-.009.014-.014.022Z" transform="translate(637.193 518.621)" opacity="0.1"/>
      <path id="Path_1553" data-name="Path 1553" d="M709.6,745.5c.092.045.185.084.28.128a17.881,17.881,0,0,1,4.576,2.93,18.934,18.934,0,0,0,2.6,1.691c.455-.084.787-.169.787-.169s-.8-2.669-.9-2.749-3.612-2.187-3.612-2.187l-2.782-.2h-.008A1.469,1.469,0,0,0,709.6,745.5Z" transform="translate(745.594 462.104)" opacity="0.1"/>
      <path id="Path_1554" data-name="Path 1554" d="M643.5,639.306a26.777,26.777,0,0,0,2.445,3.111,9.594,9.594,0,0,0,3.352,2.648A17.856,17.856,0,0,1,653.87,648a21.23,21.23,0,0,0,2.788,1.8l.247.144.548.318.29.169s.674-.54,1.341-1.082,1.318-1.075,1.329-1.105c.019-.06.28-.743.22-.782-.031-.021-.169-.3-.421-.621a2.851,2.851,0,0,0-1.023-.843,2.88,2.88,0,0,1-1.324-1.381s-.084-.064-.222-.148a2.685,2.685,0,0,0-.9-.4c-.443-.056-1.264-.958-1.264-.958a2.479,2.479,0,0,1-.783-.823,28.864,28.864,0,0,0-3.611-2.775l7.545,4.845,1.806,1.161,2.589-2.023,4.075-4.014s-.548-.027-1.349-.061c-1.98-.084-5.5-.22-5.941-.12a3.386,3.386,0,0,1-1.1.072,3.868,3.868,0,0,1-1.664-.3c-.663-.35-1.707-.513-1.828-.772a27.1,27.1,0,0,0-3.673-1.5s-4.836-2.568-6.562-1.043S643.237,638.665,643.5,639.306Z" transform="translate(806.236 562.542)" fill="#434175"/>
      <path id="Path_1555" data-name="Path 1555" d="M829.82,443.871l.622,2.067.8,4.656,2.95.2.854-1.416.856-1.414s.531-1.881.913-3.7c.337-1.61.558-3.173.191-3.342-.325-.151-.54-.693-.674-1.276-.018-.072-.034-.145-.049-.218a11.347,11.347,0,0,1-.2-1.5s-6.181-.32-5.318,2.228a4.06,4.06,0,0,1,.233,1.355,3.222,3.222,0,0,1-.021.345A2.891,2.891,0,0,1,829.82,443.871Z" transform="translate(635.508 743.247)" fill="#ee8e9e"/>
      <path id="Path_1556" data-name="Path 1556" d="M814.58,486.278l.221,3.512.5,2.99.562,1.385.5,7.576s4.839.56,6.016-.01a.518.518,0,0,0,.213-.169c1.421-2.144.955-8.361.955-8.361l.542-4.015-.362-2.084-.872-.093-.674-.072s-.152.187-.371.476c-.6.786-1.686,2.331-1.616,2.976.1.883-.121,1.786-.462,1.927s-.622.381-.682.141a1.092,1.092,0,0,1-.061-.642,5.287,5.287,0,0,0-.261-1.385,5.928,5.928,0,0,1-.506-1.746A2.086,2.086,0,0,0,818,487.42c-.161-.14-.381-.282-.2-.927s-.791-1.892-.791-1.892Z" transform="translate(649.463 700.499)" fill="#e3e8f4"/>
      <path id="Path_1557" data-name="Path 1557" d="M890.317,470.617l.2,6,1.159.642a.518.518,0,0,0,.213-.169c1.422-2.147.956-8.364.956-8.364l.542-4.014-.362-2.083-.873-.093c.337-1.61.558-3.173.191-3.342-.326-.151-.54-.693-.68-1.276h0l-.624,4.248s.052.383.071.777a2.228,2.228,0,0,1-.05.748,2.5,2.5,0,0,0-.041,1,8.176,8.176,0,0,0-.631,2.959C890.271,469.173,890.317,470.617,890.317,470.617Z" transform="translate(580.118 724.93)" opacity="0.1"/>
      <path id="Path_1558" data-name="Path 1558" d="M892.881,456.82s1.012.126,1.332.547a1.886,1.886,0,0,0,1.164.48s.964.321.943.4.281.2.883.362a3.927,3.927,0,0,1,1.6.883c0,.141,1.586,1.705,1.586,1.866a3.976,3.976,0,0,1,.422,1.826,6.474,6.474,0,0,0,.121,2.629c.241.221,0,1.084,0,1.084a.59.59,0,0,0-.013.642,5.508,5.508,0,0,1-.04,1.867l.019,1.565s-.221.983.041,1.023-.041.481-.041.481-.221.8.061,1.164a5.882,5.882,0,0,1,.361,1.907l4.3,6.238s.061,1.144-1.3,1.124-1.349.261-1.3.522-.381.542-.381.542-.542.281-.221.622,1.244,1.124-.281,1.645a3.638,3.638,0,0,1-.442-.8,9.09,9.09,0,0,1-.321-1.083s-.141-1.526-.422-1.726-.241-1.164-.241-1.164.4-.782-.16-1.1-8.719-4.833-8.719-4.833l-.2-6s-.141-4.435.7-5.92a2.491,2.491,0,0,1,.04-1,5.194,5.194,0,0,0-.02-1.526Z" transform="translate(578.921 725.937)" fill="#565387"/>
      <path id="Path_1559" data-name="Path 1559" d="M764.549,482.857a6.981,6.981,0,0,0-2.559-.135c-.542.281-1.6.506-1.77.663s-.562.04-.923.984-.4,1.906-.863,2.348-.7.743-.722,1.064.06.4-.12.506-.442.522-.362.683,4.182,3.688,4.182,3.688a9.583,9.583,0,0,0,.382,1.686c.18.337-.2,5.037-.6,5.359s2.709.292,2.709.292.14-3.081.26-3.242a31.986,31.986,0,0,0-.084-3.456,19.61,19.61,0,0,1,.241-3.552,16.169,16.169,0,0,0,.232-3.208,6.632,6.632,0,0,1,.512-1.827C765.341,484.362,764.549,482.857,764.549,482.857Z" transform="translate(701.993 702.307)" opacity="0.1"/>
      <path id="Path_1560" data-name="Path 1560" d="M763.839,482.147a6.986,6.986,0,0,0-2.56-.135c-.542.281-1.6.5-1.766.663s-.561.04-.927.983-.4,1.907-.863,2.348-.7.743-.722,1.064.061.4-.12.5-.442.522-.362.682,4.174,3.693,4.174,3.693a9.564,9.564,0,0,0,.381,1.686c.18.337-.2,5.037-.6,5.358s2.709.292,2.709.292.141-3.081.261-3.241a32.008,32.008,0,0,0-.084-3.456,19.69,19.69,0,0,1,.241-3.552,16.266,16.266,0,0,0,.232-3.212,6.641,6.641,0,0,1,.511-1.826C764.622,483.65,763.839,482.147,763.839,482.147Z" transform="translate(702.644 702.957)" fill="#565387"/>
      <path id="Path_1561" data-name="Path 1561" d="M840.1,440.158a4.064,4.064,0,0,1,.233,1.355,4.6,4.6,0,0,0,5.281-2.087,11.337,11.337,0,0,1-.2-1.5S839.241,437.609,840.1,440.158Z" transform="translate(626.166 743.247)" opacity="0.1"/>
      <path id="Path_1562" data-name="Path 1562" d="M804.82,376.905a4.6,4.6,0,1,0,.1-.955A4.6,4.6,0,0,0,804.82,376.905Z" transform="translate(658.4 803.327)" fill="#ee8e9e"/>
      <path id="Path_1563" data-name="Path 1563" d="M726,553.06l-1.1.341a.572.572,0,0,1-.221.6.672.672,0,0,0-.281.6s-.12.441-.4.541-.462.759-.462.759l-.923,1.064s-.341.281-.281.422-.362.18-.362.18l.221,3.576,1.907.362,1.18-.12.964-.362.843-.506.384-.975,1.686-2.568Z" transform="translate(734.266 637.809)" fill="#565387"/>
      <path id="Path_1564" data-name="Path 1564" d="M671.838,586.2s-2.445-3.533-4.275-1.626.743,5,1.345,4.9,3.472-.26,3.472-.26Z" transform="translate(784.679 609.468)" fill="#ee8e9e"/>
      <rect id="Rectangle_2066" data-name="Rectangle 2066" width="5.177" height="5.884" rx="2.589" transform="translate(1450.665 1195.964) rotate(-42.05)" fill="#30374e"/>
      <rect id="Rectangle_2067" data-name="Rectangle 2067" width="5.177" height="5.884" rx="2.589" transform="translate(1450.665 1195.964) rotate(-42.05)" opacity="0.1"/>
      <rect id="Rectangle_2068" data-name="Rectangle 2068" width="5.177" height="5.884" rx="2.589" transform="translate(1450.734 1195.672) rotate(-42.05)" fill="#30374e"/>
      <circle id="Ellipse_136" data-name="Ellipse 136" cx="1.144" cy="1.144" r="1.144" transform="translate(1453.418 1195.124)"/>
      <circle id="Ellipse_137" data-name="Ellipse 137" cx="1.144" cy="1.144" r="1.144" transform="translate(1453.418 1195.124)" opacity="0.1"/>
      <circle id="Ellipse_138" data-name="Ellipse 138" cx="1.144" cy="1.144" r="1.144" transform="translate(1453.483 1194.98)"/>
      <path id="Path_1565" data-name="Path 1565" d="M706.5,605.267c-.02,2.649,5.459,3.211,5.459,3.211l1.4.223.627.1.261-2.586s-.287-.043-.647-.126c-.53-.124-1.217-.337-1.361-.636C712,604.949,706.519,602.619,706.5,605.267Z" transform="translate(748.433 591.141)" fill="#ee8e9e"/>
      <path id="Path_1566" data-name="Path 1566" d="M806,376.157a.546.546,0,0,1,.337.15c.155.164.163.456.365.557a.414.414,0,0,0,.239.028c.534-.076.843-.674,1.355-.843a1.365,1.365,0,0,1,.9.077.669.669,0,0,1,.3.191c.169.222.051.548.131.817.11.373.556.521.941.57a1.644,1.644,0,0,1,1.076.367.977.977,0,0,1,.191.776.615.615,0,0,0,0,.287c.106.3.627.253.763.019.1-.173.069-.316.3-.364a1,1,0,0,1,.491.084,3.6,3.6,0,0,0,1.271.2,4.6,4.6,0,1,0-8.66-2.912Z" transform="translate(657.32 803.122)" opacity="0.1"/>
      <path id="Path_1567" data-name="Path 1567" d="M799.563,352.265a.613.613,0,0,1,0-.287.977.977,0,0,0-.191-.776,1.632,1.632,0,0,0-1.076-.367c-.385-.048-.83-.2-.941-.569-.079-.269.04-.6-.131-.818a.658.658,0,0,0-.3-.191,1.385,1.385,0,0,0-.9-.078c-.512.169-.821.769-1.355.843a.415.415,0,0,1-.239-.028c-.2-.1-.21-.393-.365-.556-.244-.258-.706-.092-1-.283a.923.923,0,0,1-.324-.594,2.9,2.9,0,0,1-.089-1.331c.174-.747.843-1.259,1.265-1.9.4-.594.619-1.349,1.216-1.74a2.442,2.442,0,0,1,2.036-.1,6.286,6.286,0,0,0,.953.253,10.984,10.984,0,0,0,1.634-.1,3.508,3.508,0,0,1,2.157.655,1.192,1.192,0,0,1,.352.357,1.824,1.824,0,0,1,.156.639,3.266,3.266,0,0,0,.421,1.174c.169.282.38.539.533.83a1.274,1.274,0,0,1,.144.95c-.051.169-.154.314-.191.484a1.812,1.812,0,0,0,.345,1.128,2.116,2.116,0,0,1,.234,1.07,1.349,1.349,0,0,1-.48.962,1.726,1.726,0,0,1-1.018.309,3.6,3.6,0,0,1-1.3-.195,1.01,1.01,0,0,0-.492-.084c-.234.048-.2.191-.3.364C800.189,352.521,799.669,352.566,799.563,352.265Z" transform="translate(669.585 829.869)" fill="#434175"/>
      <path id="Path_1568" data-name="Path 1568" d="M826.11,690.618l2.589-2.023,4.075-4.014s-.548-.027-1.349-.061a.871.871,0,0,0-.284.548c-.02.491-1.1.034-1.663.315s-3.311,3.8-3.793,3.776-.862-.244-1.064.1a.2.2,0,0,1-.014.023.571.571,0,0,1-.306.181Z" transform="translate(640.562 517.431)" opacity="0.1"/>
      <path id="Path_1569" data-name="Path 1569" d="M783.87,675.316l1.3,4.152.2.652.62-.169,1.366-.375,6.083-1.671a5.3,5.3,0,0,0,2.192-.584,6.63,6.63,0,0,1,3.78-.824c.8.075,1.7-.271,2.445-1.642,0,0,1.686-4.973-2.569-6.406s-4.458.759-4.458.759-.022.012-.057.035c-.169.105-.628.437-.645.843-.02.491-1.1.034-1.663.314s-3.311,3.8-3.793,3.777-.862-.245-1.064.1c0,.008-.009.014-.014.022-.148.2-.6.253-.891.26-.161.005-.278,0-.278,0l-.038.012-.315.088Z" transform="translate(677.584 532.592)" fill="#434175"/>
      <path id="Path_1570" data-name="Path 1570" d="M787.86,631.113l.627.1.261-2.586s-.287-.043-.647-.126A13.266,13.266,0,0,1,787.86,631.113Z" transform="translate(673.931 568.728)" opacity="0.1"/>
      <path id="Path_1571" data-name="Path 1571" d="M805.273,515.328s1.866-.542,1.4,4.757a14.8,14.8,0,0,1-3.913,8.646s-3.974,1.746-5.76,1.465a30.6,30.6,0,0,0-3.09-.337,4.534,4.534,0,0,0-1.806-.481,8.421,8.421,0,0,1-3.151-.863c-.041-.2.522-3.151.281-3.372a18.515,18.515,0,0,1,3.091.319c.281.2.682.057.983,0a3.422,3.422,0,0,1,3.051-.158,1.85,1.85,0,0,0,.863-.1.863.863,0,0,1,.627-.04,1.644,1.644,0,0,0,.437-.225c.058-.084.541,0,.541,0a.214.214,0,0,0,.3-.141,1.312,1.312,0,0,1,.281-.441s.542-3.051,1.565-4.195a.655.655,0,0,0,.221-.582C801.119,519.257,802.868,514.684,805.273,515.328Z" transform="translate(672.928 672.418)" opacity="0.1"/>
      <path id="Path_1572" data-name="Path 1572" d="M804.688,510.49s1.866-.542,1.405,4.757a14.8,14.8,0,0,1-3.918,8.649s-3.974,1.746-5.76,1.465-3.09-.341-3.09-.341a4.529,4.529,0,0,0-1.807-.481,8.428,8.428,0,0,1-3.151-.863c-.04-.2.522-3.151.282-3.372a18.5,18.5,0,0,1,3.09.319c.281.2.683.057.984,0a3.424,3.424,0,0,1,3.051-.158,1.845,1.845,0,0,0,.862-.1.865.865,0,0,1,.628-.041,1.768,1.768,0,0,0,.436-.221c.06-.08.542,0,.542,0a.213.213,0,0,0,.3-.14,1.308,1.308,0,0,1,.281-.442s.542-3.051,1.565-4.195a.655.655,0,0,0,.221-.582C800.529,514.425,802.275,509.847,804.688,510.49Z" transform="translate(673.468 676.847)" fill="#565387"/>
      <path id="Path_1573" data-name="Path 1573" d="M810,746.326l2.65,3.2c.01-.009.017-.016.017-.019.02-.061.281-.743.221-.783a3.731,3.731,0,0,0-1.445-1.465,2.716,2.716,0,0,1-1.135-1.033Z" transform="translate(653.657 460.922)" opacity="0.1"/>
      <path id="Path_1574" data-name="Path 1574" d="M809.818,774.726l.29.169s.674-.539,1.341-1.082,1.318-1.075,1.328-1.105c.019-.06.28-.743.22-.782-.031-.021-.169-.3-.421-.621-1.8-.506-.653.744-.5.8a1.828,1.828,0,0,0-2.308,1.881A2.812,2.812,0,0,0,809.818,774.726Z" transform="translate(653.875 438.072)" opacity="0.1"/>
      <path id="Path_1575" data-name="Path 1575" d="M814.05,775.764l.382.221,3.878.1a7.483,7.483,0,0,0,1.371.659,1.17,1.17,0,0,0,.195.043,8.7,8.7,0,0,0,1.079.02c.3-.008.527-.02.527-.02s-.184-4.889-.322-5.395c-.066-.246-.39-.192-.711-.069a4.65,4.65,0,0,0-.694.352,12.392,12.392,0,0,0-1.907.3c-.261.142-1-.084-1.465,0s-1.284-.544-1.284-.544c-2.248-.742-.984.642-.823.7a1.828,1.828,0,0,0-2.307,1.881A1.544,1.544,0,0,0,814.05,775.764Z" transform="translate(651.859 438.045)" fill="#565387"/>
      <path id="Path_1576" data-name="Path 1576" d="M903.13,773.935a6.532,6.532,0,0,0,1.3,2.93c.3-.008.527-.02.527-.02s-.184-4.889-.322-5.395c-.066-.246-.39-.192-.711-.069A5.667,5.667,0,0,0,903.13,773.935Z" transform="translate(568.379 437.988)" fill="#565387"/>
      <path id="Path_1577" data-name="Path 1577" d="M903.13,773.935a6.532,6.532,0,0,0,1.3,2.93c.3-.008.527-.02.527-.02s-.184-4.889-.322-5.395c-.066-.246-.39-.192-.711-.069A5.667,5.667,0,0,0,903.13,773.935Z" transform="translate(568.379 437.988)" opacity="0.1"/>
      <path id="Path_1578" data-name="Path 1578" d="M894.581,774.069a11.473,11.473,0,0,0,.689,2.733,1.176,1.176,0,0,0,.195.043,8.72,8.72,0,0,0,1.079.02c.3-.008.527-.02.527-.02s-.184-4.889-.322-5.395c-.066-.246-.39-.192-.711-.069a4.653,4.653,0,0,0-.694.351A2.687,2.687,0,0,0,894.581,774.069Z" transform="translate(576.265 437.988)" opacity="0.05"/>
      <path id="Path_1579" data-name="Path 1579" d="M736.77,686.94a8.01,8.01,0,0,1,3.554,2.843Z" transform="translate(720.714 515.215)" opacity="0.1"/>
      <g id="Group_2548" data-name="Group 2548" transform="translate(1462.187 1176.695)" opacity="0.1">
        <path id="Path_1580" data-name="Path 1580" d="M921.378,401.26a.372.372,0,0,1-.012.042,1.378,1.378,0,0,1-.067.169A1.258,1.258,0,0,1,921.378,401.26Z" transform="translate(-910.448 -399.881)"/>
        <path id="Path_1581" data-name="Path 1581" d="M792.6,385.305a1.807,1.807,0,0,1,.149-.405c-.01.035-.021.069-.029.1a2.894,2.894,0,0,0,.089,1.331.927.927,0,0,0,.324.594c.3.191.759.024,1,.282.155.164.164.456.366.557a.414.414,0,0,0,.239.028c.533-.076.843-.674,1.355-.843a1.361,1.361,0,0,1,.9.078.658.658,0,0,1,.3.191c.169.222.051.549.131.817.11.373.555.521.941.569a1.635,1.635,0,0,1,1.076.368.976.976,0,0,1,.191.776.625.625,0,0,0,0,.287c.106.3.627.253.759.019.1-.173.07-.316.3-.364a1,1,0,0,1,.491.084,3.607,3.607,0,0,0,1.3.195,1.719,1.719,0,0,0,1.017-.309,1.18,1.18,0,0,0,.312-.379,1.276,1.276,0,0,1-.43.681,1.723,1.723,0,0,1-1.017.309,3.6,3.6,0,0,1-1.3-.195,1.009,1.009,0,0,0-.491-.084c-.234.048-.2.191-.3.364-.137.238-.657.282-.764-.019a.625.625,0,0,1,0-.287.974.974,0,0,0-.191-.776,1.644,1.644,0,0,0-1.077-.367c-.385-.048-.83-.2-.94-.569-.08-.269.04-.6-.131-.818a.665.665,0,0,0-.3-.19,1.383,1.383,0,0,0-.9-.078c-.513.169-.822.769-1.355.843a.414.414,0,0,1-.239-.028c-.2-.1-.211-.393-.366-.556-.244-.258-.706-.092-1-.283a.924.924,0,0,1-.325-.594A2.91,2.91,0,0,1,792.6,385.305Z" transform="translate(-792.558 -384.9)"/>
      </g>
      <path id="Path_1582" data-name="Path 1582" d="M908.409,569.813c-.368.5-.787.956-1.113,1.481a2.811,2.811,0,0,0-.487,1.752,4.579,4.579,0,0,0,.7-1.256,18.038,18.038,0,0,1,1.349-2.03c.084-.129.641-.872.361-.908C908.991,568.822,908.535,569.643,908.409,569.813Z" transform="translate(565.019 623.349)" opacity="0.1"/>
    </g>
  </g>
</svg>
