<svg xmlns="http://www.w3.org/2000/svg" width="137.804" height="45.342" viewBox="0 0 137.804 45.342">
  <g id="Group_61" data-name="Group 61" transform="translate(-177.138 -831)">
    <g id="Group_13" data-name="Group 13" transform="translate(225.105 842.768)">
      <g id="Group_12" data-name="Group 12">
        <g id="Group_11" data-name="Group 11">
          <g id="Group_10" data-name="Group 10">
            <path id="Path_608" data-name="Path 608" d="M698.19,466.711a2.515,2.515,0,0,1,1.264-4.7,2.645,2.645,0,0,1,1.014.195,2.2,2.2,0,0,1,.786.543l-.524.529a1.568,1.568,0,0,0-.561-.4,1.852,1.852,0,0,0-1.588.08,1.671,1.671,0,0,0-.647.633,1.953,1.953,0,0,0,0,1.883,1.712,1.712,0,0,0,.647.631,1.761,1.761,0,0,0,2.106-.248,1.313,1.313,0,0,0,.252-.371,1.588,1.588,0,0,0,.139-.483h-1.631v-.672h2.344a2.234,2.234,0,0,1,.033.387,2.728,2.728,0,0,1-.143.879,1.819,1.819,0,0,1-.447.729,2.338,2.338,0,0,1-1.78.719,2.524,2.524,0,0,1-1.264-.33m4.5.221h2.924v-.717h-2.17v-1.332H705.4v-.713h-1.957v-1.328h2.17v-.725h-2.924Zm4.831,0h.752v-4.091h1.346v-.723h-3.44v.721h1.344Zm4.395,0h.752V462.12h-.752Zm2.821,0h.752v-4.091h1.344v-.723h-3.44v.721h1.344Zm5.245-.223a2.6,2.6,0,0,0,2.538,0,2.443,2.443,0,0,0,.9-.912,2.626,2.626,0,0,0,0-2.536,2.493,2.493,0,0,0-4.311-.031l-.018.031a2.61,2.61,0,0,0,0,2.536,2.392,2.392,0,0,0,.9.912m2.143-.615a1.792,1.792,0,0,1-1.748,0,1.671,1.671,0,0,1-.627-.637,1.981,1.981,0,0,1,0-1.86,1.661,1.661,0,0,1,.627-.633,1.772,1.772,0,0,1,1.748,0,1.641,1.641,0,0,1,.625.633,2.016,2.016,0,0,1,0,1.86,1.652,1.652,0,0,1-.625.637m2.479.84h.748v-2.756l-.041-.928h.041l2.258,3.682h.785V462.12h-.746v2.573l.041.928h-.041l-2.149-3.5h-.9Zm-26.273,11.572a5.3,5.3,0,0,0,2.612.668,5.524,5.524,0,0,0,2.1-.381,4.336,4.336,0,0,0,1.6-1.1,4.053,4.053,0,0,0,.9-1.473,5.455,5.455,0,0,0,.3-1.821,3.659,3.659,0,0,0-.094-.869H700.9v1.588H704a3.113,3.113,0,0,1-.305.838,2.215,2.215,0,0,1-.481.635,3.2,3.2,0,0,1-2.26.815,3.394,3.394,0,0,1-1.674-.422,3.134,3.134,0,0,1-1.221-1.2,3.7,3.7,0,0,1-.006-3.542,3.112,3.112,0,0,1,1.2-1.2,3.392,3.392,0,0,1,1.67-.42,3.435,3.435,0,0,1,1.4.262,3.315,3.315,0,0,1,1.1.787l1.281-1.254a4.664,4.664,0,0,0-1.645-1.151,5.364,5.364,0,0,0-2.118-.408,5.241,5.241,0,0,0-2.61.668,5.15,5.15,0,0,0,0,8.976m9.836.178a4.072,4.072,0,0,0,3.874,0,3.49,3.49,0,0,0,1.33-1.338,4.054,4.054,0,0,0,0-3.813,3.521,3.521,0,0,0-1.33-1.344,4.1,4.1,0,0,0-3.874,0,3.493,3.493,0,0,0-1.33,1.344,4.042,4.042,0,0,0,0,3.813,3.449,3.449,0,0,0,1.33,1.338m2.909-1.428a2,2,0,0,1-1.93,0,1.811,1.811,0,0,1-.709-.723,2.143,2.143,0,0,1-.268-1.1,2.1,2.1,0,0,1,.268-1.088,1.834,1.834,0,0,1,.709-.717,2,2,0,0,1,1.93,0,1.833,1.833,0,0,1,.7.717,2.213,2.213,0,0,1,.262,1.088,2.259,2.259,0,0,1-.262,1.1,1.833,1.833,0,0,1-.7.717m5.017,1.426a4.072,4.072,0,0,0,3.874,0,3.47,3.47,0,0,0,1.33-1.336,4.069,4.069,0,0,0,0-3.815,3.506,3.506,0,0,0-1.33-1.344,4.1,4.1,0,0,0-3.874,0,3.5,3.5,0,0,0-1.332,1.344,4.069,4.069,0,0,0,0,3.815,3.461,3.461,0,0,0,1.332,1.336M719,477.261a2.006,2.006,0,0,1-1.93,0,1.855,1.855,0,0,1-.709-.725,2.177,2.177,0,0,1-.269-1.1,2.142,2.142,0,0,1,.269-1.088,1.877,1.877,0,0,1,.709-.717,2.006,2.006,0,0,1,1.93,0,1.836,1.836,0,0,1,.7.717,2.191,2.191,0,0,1,.262,1.088,2.23,2.23,0,0,1-.262,1.1,1.837,1.837,0,0,1-.7.717m4.618,4.292a4.324,4.324,0,0,0,4.122.154A3.06,3.06,0,0,0,729,480.43a4.047,4.047,0,0,0,.443-1.955v-6.55H727.7v.742h-.109a2.166,2.166,0,0,0-.871-.717,2.931,2.931,0,0,0-1.225-.244,3.108,3.108,0,0,0-1.621.447,3.308,3.308,0,0,0-1.207,1.268,4.222,4.222,0,0,0,0,3.819,3.307,3.307,0,0,0,1.207,1.268,3.111,3.111,0,0,0,1.621.449,2.957,2.957,0,0,0,1.225-.246,2.164,2.164,0,0,0,.871-.717h.109v.549a2.068,2.068,0,0,1-.5,1.492,1.8,1.8,0,0,1-1.358.522,1.843,1.843,0,0,1-1.035-.305,1.8,1.8,0,0,1-.672-.828l-1.7.69a3,3,0,0,0,1.186,1.44m3.542-4.77a1.876,1.876,0,0,1-2.606.008,2.253,2.253,0,0,1,0-2.922,1.9,1.9,0,0,1,2.61-.008,2.26,2.26,0,0,1,0,2.922m3.487,2.172h1.809v-9.875h-1.809Zm4.37-.262a3.705,3.705,0,0,0,1.887.483,3.521,3.521,0,0,0,3.268-1.877l-1.461-.715a1.975,1.975,0,0,1-.711.723,2.015,2.015,0,0,1-1.07.268,1.941,1.941,0,0,1-1.272-.432,1.991,1.991,0,0,1-.67-1.276h5.28a4.3,4.3,0,0,0,.043-.606,4.017,4.017,0,0,0-.4-1.8,3.083,3.083,0,0,0-1.194-1.283,3.6,3.6,0,0,0-1.875-.467,3.441,3.441,0,0,0-1.848.51,3.617,3.617,0,0,0-1.295,1.371,4.021,4.021,0,0,0,.006,3.78,3.461,3.461,0,0,0,1.317,1.328m.055-4.108a2.094,2.094,0,0,1,.67-1.026,1.676,1.676,0,0,1,1.108-.381,1.788,1.788,0,0,1,.887.215,1.68,1.68,0,0,1,.592.539,1.406,1.406,0,0,1,.244.656Zm9,4.37h1.862v-3.624h1.612a3.708,3.708,0,0,0,1.709-.393,3.079,3.079,0,0,0,0-5.46,3.708,3.708,0,0,0-1.709-.393h-3.475Zm1.862-5.39v-2.721h1.668a1.456,1.456,0,0,1,1.082.393,1.306,1.306,0,0,1,.393.957,1.339,1.339,0,0,1-.393.965,1.442,1.442,0,0,1-1.082.4Zm5.819,5.39h1.8v-9.877h-1.807Zm3.278-.434a2.885,2.885,0,0,0,3.026.393,2.445,2.445,0,0,0,.836-.672h.108v.717h1.778v-4.331a2.764,2.764,0,0,0-.84-2.178,3.6,3.6,0,0,0-2.454-.744,3.925,3.925,0,0,0-1.68.358,3.387,3.387,0,0,0-1.283,1.02l1.158.912a2.281,2.281,0,0,1,.764-.611,2.162,2.162,0,0,1,.959-.225,1.787,1.787,0,0,1,1.164.359,1.168,1.168,0,0,1,.434.938v.3a4.936,4.936,0,0,0-1.862-.316,3.516,3.516,0,0,0-1.432.287,2.4,2.4,0,0,0-1.02.83,2.118,2.118,0,0,0-.373,1.24,2.217,2.217,0,0,0,.717,1.717m3.51-1.256a1.608,1.608,0,0,1-1.248.5,1.257,1.257,0,0,1-.869-.268.876.876,0,0,1-.3-.7q0-1.048,1.4-1.047a3.4,3.4,0,0,1,1.475.33,1.686,1.686,0,0,1-.461,1.18m3.907,4.665H764.4l4.343-10.008h-2.012l-1.752,4.372h-.111l-1.819-4.372h-2.053l2.962,6.7Z" transform="translate(-695.706 -462.007)" fill="#6d7176"/>
          </g>
        </g>
      </g>
    </g>
    <g id="Group_20" data-name="Group 20" transform="translate(193.376 839.161)">
      <g id="Group_16" data-name="Group 16">
        <path id="Path_610" data-name="Path 610" d="M684.5,488.173a4.294,4.294,0,0,1-4.282-4.29V464.536a4.283,4.283,0,0,1,6.351-3.751l17.552,9.674a4.284,4.284,0,0,1,0,7.5l-17.552,9.674A4.281,4.281,0,0,1,684.5,488.173Zm0-26.632a3,3,0,0,0-2.991,3v19.347a2.991,2.991,0,0,0,4.435,2.621L703.5,476.83a2.993,2.993,0,0,0,0-5.241l-17.552-9.672A2.962,2.962,0,0,0,684.5,461.54Z" transform="translate(-680.219 -460.246)" fill="#6d7176"/>
      </g>
      <g id="Group_19" data-name="Group 19" transform="translate(2.226 0.291)">
        <g id="Group_17" data-name="Group 17" transform="translate(0.983 7.878)">
          <path id="Path_611" data-name="Path 611" d="M682.43,483.964a.646.646,0,0,1-.483-1.074l16.173-18.437a.646.646,0,0,1,.971.852l-16.175,18.437A.643.643,0,0,1,682.43,483.964Z" transform="translate(-681.786 -464.234)" fill="#6d7176"/>
        </g>
        <g id="Group_18" data-name="Group 18">
          <path id="Path_612" data-name="Path 612" d="M698.287,480.306a.641.641,0,0,1-.485-.219l-16.335-18.627a.645.645,0,1,1,.971-.85l16.335,18.625a.645.645,0,0,1-.486,1.072Z" transform="translate(-681.306 -460.389)" fill="#6d7176"/>
        </g>
      </g>
    </g>
    <g id="Rectangle_23" data-name="Rectangle 23" transform="translate(177.138 831)" fill="none" stroke="#c2c5ca" stroke-width="1">
      <rect width="137.804" height="45.342" rx="3" stroke="none"/>
      <rect x="0.5" y="0.5" width="136.804" height="44.342" rx="2.5" fill="none"/>
    </g>
  </g>
</svg>
