<svg xmlns="http://www.w3.org/2000/svg" width="32.615" height="32.614" viewBox="0 0 32.615 32.614">
  <path id="Exclusion_1" data-name="Exclusion 1" d="M29.372,31.114H1.738A1.742,1.742,0,0,1,0,29.374V1.74A1.742,1.742,0,0,1,1.738,0H29.372a1.742,1.742,0,0,1,1.741,1.74V29.374A1.742,1.742,0,0,1,29.372,31.114ZM15.553,10.369a5.439,5.439,0,1,0,5.439,5.44A5.445,5.445,0,0,0,15.553,10.369Zm9.863-4.607A1.958,1.958,0,1,0,27.374,7.72,1.961,1.961,0,0,0,25.416,5.762Z" transform="translate(0.753 0.75)" fill="rgba(0,0,0,0)" stroke="#bfbfbf" stroke-miterlimit="10" stroke-width="1.5"/>
</svg>
