<svg xmlns="http://www.w3.org/2000/svg" width="35.225" height="21.136" viewBox="0 0 35.225 21.136">
  <g id="mastercard-2" transform="translate(0)">
    <path id="Path_1143" data-name="Path 1143" d="M17.612,119.2a10.568,10.568,0,0,0-7.045-18.4,10.54,10.54,0,1,0,0,21.079,10.233,10.233,0,0,0,7.045-2.684Z" transform="translate(0 -100.8)" fill="#07a9e2"/>
    <path id="Path_1144" data-name="Path 1144" d="M0,111.367a10.547,10.547,0,0,0,10.567,10.512,10.179,10.179,0,0,0,7.045-2.74h0A10.54,10.54,0,0,0,10.567,100.8" transform="translate(0 -100.8)" fill="#009ddd"/>
    <path id="Path_1145" data-name="Path 1145" d="M79.372,103.54a10.547,10.547,0,0,0-7.045-2.74h-.5a12.992,12.992,0,0,0-.056,21.079h.5a10.179,10.179,0,0,0,7.045-2.74,10.566,10.566,0,0,0,.056-15.6Z" transform="translate(-61.759 -100.8)" fill="#0284cc"/>
    <path id="Path_1146" data-name="Path 1146" d="M215.944,100.8a10.42,10.42,0,0,0-7.1,2.74,10.049,10.049,0,0,0-1.062,1.118h2.125a7.99,7.99,0,0,1,.783,1.118h-3.746a11.092,11.092,0,0,0-.615,1.118H211.3a9.326,9.326,0,0,1,.447,1.118h-5.815c-.112.391-.224.727-.335,1.118h6.486a9.794,9.794,0,0,1,.224,2.236,9.608,9.608,0,0,1-.559,3.355h-5.815a9.328,9.328,0,0,0,.447,1.118h4.976a7.163,7.163,0,0,1-.615,1.118H207a7.993,7.993,0,0,0,.783,1.118h2.125a10.046,10.046,0,0,1-1.062,1.118,10.691,10.691,0,0,0,7.1,2.74,10.568,10.568,0,0,0,0-21.135Z" transform="translate(-191.231 -100.8)" fill="#ff2957"/>
    <path id="Path_1147" data-name="Path 1147" d="M215.944,100.8h0a10.42,10.42,0,0,0-7.1,2.74,10.049,10.049,0,0,0-1.062,1.118h2.125a7.99,7.99,0,0,1,.783,1.118h-3.746a11.092,11.092,0,0,0-.615,1.118H211.3a9.326,9.326,0,0,1,.447,1.118h-5.815c-.112.391-.224.727-.335,1.118h6.486a9.794,9.794,0,0,1,.224,2.236,9.608,9.608,0,0,1-.559,3.355h-5.815a9.328,9.328,0,0,0,.447,1.118h4.976a7.163,7.163,0,0,1-.615,1.118H207a7.993,7.993,0,0,0,.783,1.118h2.125a10.046,10.046,0,0,1-1.062,1.118,10.691,10.691,0,0,0,7.1,2.74,10.5,10.5,0,0,0,10.512-10.512" transform="translate(-191.231 -100.8)" fill="#ed1c2e"/>
    <path id="Path_1148" data-name="Path 1148" d="M252,155.655A10.571,10.571,0,0,0,252,140v15.655Z" transform="translate(-234.388 -137.26)" fill="#0466b5"/>
    <path id="Path_1149" data-name="Path 1149" d="M452,280.335a.335.335,0,1,1,.335.335.361.361,0,0,1-.335-.335Zm.335.28c.168,0,.224-.112.224-.28a.2.2,0,0,0-.224-.224.256.256,0,0,0-.28.224.359.359,0,0,0,.28.28Zm0-.168h-.056v-.28h.168l.056.056c0,.056,0,.056-.056.056l.056.112h-.056l-.056-.112h-.056v.168Zm0-.168h.056v-.056h-.056v.056Z" transform="translate(-420.41 -267.476)" fill="#fff"/>
    <path id="Path_1150" data-name="Path 1150" d="M208.843,104.921a10.049,10.049,0,0,0-1.062,1.118h2.125a7.99,7.99,0,0,1,.783,1.118h-3.746a11.091,11.091,0,0,0-.615,1.118H211.3a9.325,9.325,0,0,1,.447,1.118h-5.815c-.112.391-.224.727-.335,1.118h6.486a9.8,9.8,0,0,1,.224,2.236,9.608,9.608,0,0,1-.559,3.355h-5.815a9.328,9.328,0,0,0,.447,1.118h4.976a7.165,7.165,0,0,1-.615,1.118H207a7.991,7.991,0,0,0,.783,1.118h2.125a10.047,10.047,0,0,1-1.062,1.118,10.691,10.691,0,0,0,7.1,2.74h.5a12.976,12.976,0,0,0,0-21.023h-.5A10.072,10.072,0,0,0,208.843,104.921Z" transform="translate(-191.231 -102.181)" fill="#d1094b"/>
    <path id="Path_1151" data-name="Path 1151" d="M56.1,218.168H54.761l.783-4.082-1.789,4.082H52.581l-.224-4.082-.783,4.082H50.4l1.006-5.368h2.069l.112,3.355,1.454-3.355h2.125Z" transform="translate(-46.878 -204.972)" fill="#fff"/>
    <g id="Group_214" data-name="Group 214" transform="translate(7.884 7.884)">
      <path id="Path_1152" data-name="Path 1152" d="M112.856,216.563l.783-1.733-.615,3.243a5.233,5.233,0,0,0,.224.895h.895l1.006-5.368h-1.957a10.8,10.8,0,0,0-.391,2.74C112.856,216.4,112.856,216.452,112.856,216.563Z" transform="translate(-112.8 -213.6)" fill="#dce5e5"/>
      <path id="Path_1153" data-name="Path 1153" d="M315.557,218.856a3.1,3.1,0,0,1-.951.168c-.671,0-1.006-.335-1.006-.951a1.092,1.092,0,0,1,.056-.391l.056-.447.056-.336.615-3.3h1.286l-.168,1.006h.671L316,215.613h-.671L315,217.4a.563.563,0,0,1-.056.168c0,.224.168.335.447.335.168,0,.28,0,.335-.056l-.168,1.006Z" transform="translate(-299.566 -213.6)" fill="#dce5e5"/>
      <path id="Path_1154" data-name="Path 1154" d="M351.411,226.512c-.112-.056-.112-.056-.168-.056s-.112,0-.112-.056h-.168c-.447,0-.727.168-1.118.727l.112-.671h-1.174L348,230.817h1.342c.447-2.684.671-3.131,1.286-3.131h.168l.168.056.447-1.23Z" transform="translate(-331.562 -225.505)" fill="#dce5e5"/>
      <path id="Path_1155" data-name="Path 1155" d="M260.5,227.854q0,.839,1.006,1.174c.559.224.615.28.615.5,0,.28-.224.391-.783.391a4.256,4.256,0,0,1-1.174-.168L260,230.761h.056l.224.056h.335a4.012,4.012,0,0,0,.727.056c1.4,0,2.069-.447,2.069-1.454,0-.615-.28-.951-.951-1.23-.559-.224-.615-.28-.615-.447q0-.335.671-.335a6.094,6.094,0,0,1,.951.056l.168-1.006a8.261,8.261,0,0,0-1.174-.056c-1.454,0-1.957.671-1.957,1.454Z" transform="translate(-249.712 -225.505)" fill="#dce5e5"/>
      <path id="Path_1156" data-name="Path 1156" d="M144.434,230.073h-1.062v-.447a1.86,1.86,0,0,1-1.4.5,1.115,1.115,0,0,1-1.174-1.174c0-1.062.839-1.677,2.292-1.677h.559a.748.748,0,0,0,.056-.28c0-.28-.224-.391-.839-.391a5.632,5.632,0,0,0-1.062.112l-.168.056h-.112l.168-.951a5.837,5.837,0,0,1,1.566-.224c1.118,0,1.733.447,1.733,1.286a3.359,3.359,0,0,1-.112.895l-.28,1.566-.056.28-.056.224v.168l-.056.056Zm-.951-1.957h-.28c-.727,0-1.118.224-1.118.671a.412.412,0,0,0,.447.447.992.992,0,0,0,.951-1.118Z" transform="translate(-138.843 -224.761)" fill="#dce5e5"/>
      <path id="Path_1157" data-name="Path 1157" d="M206.778,229.961a5.514,5.514,0,0,1-1.342.168c-1.454,0-2.236-.671-2.236-1.957a2.345,2.345,0,0,1,2.292-2.572,1.547,1.547,0,0,1,1.733,1.566,4.13,4.13,0,0,1-.168,1.062H204.43v.168c0,.5.391.783,1.118.783a2.762,2.762,0,0,0,1.342-.28l-.112,1.062Zm-.671-2.572v-.224a.545.545,0,0,0-.615-.559.885.885,0,0,0-.839.783Z" transform="translate(-196.882 -224.761)" fill="#dce5e5"/>
    </g>
    <g id="Group_215" data-name="Group 215" transform="translate(27.173 8.722)">
      <path id="Path_1158" data-name="Path 1158" d="M393.441,228.116a2.324,2.324,0,0,1-2.572,2.069,1.866,1.866,0,0,1-2.069-2.013,2.436,2.436,0,0,1,2.572-2.572,1.909,1.909,0,0,1,2.069,1.957v.559Zm-1.4-.559c0-.447-.168-.839-.727-.839-.671,0-1.062.783-1.062,1.51,0,.559.28.951.727.951a1.3,1.3,0,0,0,1.006-1.062,2.1,2.1,0,0,0,.056-.559Z" transform="translate(-388.8 -225.6)" fill="#fff"/>
      <path id="Path_1159" data-name="Path 1159" d="M389.042,251.742a9.148,9.148,0,0,0,.112-1.23V250.4a4.343,4.343,0,0,0-.112.895A.613.613,0,0,0,389.042,251.742Z" transform="translate(-388.986 -248.667)" fill="#fff"/>
    </g>
  </g>
</svg>
