<svg xmlns="http://www.w3.org/2000/svg" width="35.225" height="21.135" viewBox="0 0 35.225 21.135">
  <g id="mastercard" transform="translate(0)">
    <path id="Path_1160" data-name="Path 1160" d="M222.735,111.367a10.567,10.567,0,1,1-21.135,0h0a10.567,10.567,0,1,1,21.135,0Z" transform="translate(-187.51 -100.8)" fill="#ffb600"/>
    <path id="Path_1161" data-name="Path 1161" d="M212.167,100.8a10.6,10.6,0,0,1,10.567,10.567h0a10.567,10.567,0,0,1-21.135,0" transform="translate(-187.51 -100.8)" fill="#f7981d"/>
    <path id="Path_1162" data-name="Path 1162" d="M352.8,100.8a10.6,10.6,0,0,1,10.567,10.567h0A10.559,10.559,0,0,1,352.8,121.935" transform="translate(-328.143 -100.8)" fill="#ff8500"/>
    <path id="Path_1163" data-name="Path 1163" d="M10.456,100.8a10.568,10.568,0,0,0,.112,21.135,10.69,10.69,0,0,0,7.1-2.74h0a10.046,10.046,0,0,0,1.062-1.118H16.55a12.9,12.9,0,0,1-.783-1.062h3.746a7.162,7.162,0,0,0,.615-1.118H15.152a6.664,6.664,0,0,1-.447-1.118H20.52a11.1,11.1,0,0,0,.559-3.355,14.432,14.432,0,0,0-.224-2.236H14.369a8.175,8.175,0,0,1,.28-1.118h5.815a6.664,6.664,0,0,0-.447-1.118H15.1a11.089,11.089,0,0,1,.615-1.118h3.746a5.317,5.317,0,0,0-.839-1.118H16.55a9.529,9.529,0,0,1,1.062-1.062,10.317,10.317,0,0,0-7.1-2.74C10.511,100.8,10.511,100.8,10.456,100.8Z" transform="translate(0 -100.8)" fill="#ff5050"/>
    <path id="Path_1164" data-name="Path 1164" d="M0,112.856a10.559,10.559,0,0,0,10.567,10.567,10.69,10.69,0,0,0,7.1-2.74h0a10.048,10.048,0,0,0,1.062-1.118H16.55a12.9,12.9,0,0,1-.783-1.062h3.746a7.162,7.162,0,0,0,.615-1.118H15.152a6.664,6.664,0,0,1-.447-1.118H20.52a11.1,11.1,0,0,0,.559-3.355,14.432,14.432,0,0,0-.224-2.236H14.369a8.174,8.174,0,0,1,.28-1.118h5.815a6.664,6.664,0,0,0-.447-1.118H15.1a11.089,11.089,0,0,1,.615-1.118h3.746a5.317,5.317,0,0,0-.839-1.118H16.55a9.529,9.529,0,0,1,1.062-1.062,10.317,10.317,0,0,0-7.1-2.74h-.056" transform="translate(0 -102.288)" fill="#e52836"/>
    <path id="Path_1165" data-name="Path 1165" d="M149.712,123.423a10.69,10.69,0,0,0,7.1-2.74h0a10.049,10.049,0,0,0,1.062-1.118h-2.181a12.894,12.894,0,0,1-.783-1.062h3.746a7.162,7.162,0,0,0,.615-1.118H154.3a6.663,6.663,0,0,1-.447-1.118h5.815a11.1,11.1,0,0,0,.559-3.355,14.435,14.435,0,0,0-.224-2.236h-6.486a8.181,8.181,0,0,1,.28-1.118h5.815a6.666,6.666,0,0,0-.447-1.118h-4.92a11.092,11.092,0,0,1,.615-1.118H158.6a5.316,5.316,0,0,0-.839-1.118h-2.069a9.53,9.53,0,0,1,1.062-1.062,10.317,10.317,0,0,0-7.1-2.74H149.6" transform="translate(-139.145 -102.288)" fill="#cb2026"/>
    <g id="Group_216" data-name="Group 216" transform="translate(1.006 7.828)">
      <path id="Path_1166" data-name="Path 1166" d="M183.221,224.92l.168-.951a2.422,2.422,0,0,1-.28.056c-.391,0-.447-.224-.391-.335l.335-1.957h.615l.168-1.062h-.559l.112-.671h-1.118s-.671,3.69-.671,4.137a.839.839,0,0,0,.895.951A1.717,1.717,0,0,0,183.221,224.92Z" transform="translate(-169.914 -219.497)" fill="#fff"/>
      <path id="Path_1167" data-name="Path 1167" d="M210.4,231.222a1.778,1.778,0,0,0,1.957,1.957,2.9,2.9,0,0,0,1.174-.168l.224-1.062a3.352,3.352,0,0,1-1.174.28c-1.23,0-1.006-.895-1.006-.895h2.292a7.249,7.249,0,0,0,.168-1.006,1.515,1.515,0,0,0-1.621-1.621C211.239,228.594,210.4,229.824,210.4,231.222Zm1.957-1.621c.615,0,.5.727.5.783h-1.23C211.63,230.327,211.742,229.6,212.357,229.6Z" transform="translate(-196.702 -227.588)" fill="#fff"/>
      <path id="Path_1168" data-name="Path 1168" d="M299.075,218.223l.224-1.23a2.748,2.748,0,0,1-.951.28c-.783,0-1.118-.615-1.118-1.286,0-1.342.671-2.069,1.454-2.069a1.867,1.867,0,0,1,1.006.335l.168-1.174a3.931,3.931,0,0,0-1.286-.28c-1.286,0-2.572,1.118-2.572,3.243,0,1.4.671,2.348,2.013,2.348A5.018,5.018,0,0,0,299.075,218.223Z" transform="translate(-276.319 -212.8)" fill="#fff"/>
      <path id="Path_1169" data-name="Path 1169" d="M88.525,227.2a3.96,3.96,0,0,0-1.342.224l-.168.951a3.3,3.3,0,0,1,1.23-.224c.391,0,.727.056.727.391,0,.224-.056.28-.056.28h-.5c-.951,0-2.013.391-2.013,1.677,0,1.006.671,1.23,1.062,1.23a1.68,1.68,0,0,0,1.174-.5l-.056.447h1.006l.447-3.075A1.325,1.325,0,0,0,88.525,227.2Zm.224,2.516c0,.168-.112,1.062-.783,1.062a.436.436,0,0,1-.447-.447c0-.28.168-.671,1.006-.671A.882.882,0,0,0,88.748,229.716Z" transform="translate(-81.368 -226.194)" fill="#fff"/>
      <path id="Path_1170" data-name="Path 1170" d="M136.486,230.985a1.433,1.433,0,0,0,1.677-1.454c0-1.4-1.342-1.118-1.342-1.677,0-.28.224-.391.615-.391.168,0,.783.056.783.056l.168-1.006a4.247,4.247,0,0,0-1.062-.112c-.839,0-1.677.335-1.677,1.454,0,1.286,1.4,1.174,1.4,1.677,0,.335-.391.391-.671.391a3.656,3.656,0,0,1-1.006-.168l-.168,1.006C135.256,230.873,135.535,230.985,136.486,230.985Z" transform="translate(-126.757 -225.45)" fill="#fff"/>
      <path id="Path_1171" data-name="Path 1171" d="M430.387,214.4l-.224,1.51a1.55,1.55,0,0,0-1.062-.559c-1.006,0-1.9,1.23-1.9,2.684,0,.895.447,1.845,1.4,1.845a1.492,1.492,0,0,0,1.062-.447l-.056.391h1.118l.839-5.368Zm-.5,2.963c0,.615-.28,1.4-.895,1.4-.391,0-.615-.335-.615-.895,0-.895.391-1.454.895-1.454C429.66,216.413,429.884,216.692,429.884,217.363Z" transform="translate(-398.349 -214.288)" fill="#fff"/>
      <path id="Path_1172" data-name="Path 1172" d="M15.462,219.768l.671-4.026.112,4.026h.783l1.454-4.026-.615,4.026h1.174l.895-5.368H18.09l-1.118,3.3-.056-3.3H15.295l-.895,5.368Z" transform="translate(-14.4 -214.288)" fill="#fff"/>
      <path id="Path_1173" data-name="Path 1173" d="M261.23,233.161c.335-1.845.391-3.355,1.174-3.075a4.389,4.389,0,0,1,.391-1.286h-.224c-.5,0-.895.671-.895.671l.112-.615h-1.062L260,233.217h1.23Z" transform="translate(-242.835 -227.682)" fill="#fff"/>
      <path id="Path_1174" data-name="Path 1174" d="M348.525,227.2a3.96,3.96,0,0,0-1.342.224l-.168.951a3.3,3.3,0,0,1,1.23-.224c.391,0,.727.056.727.391,0,.224-.056.28-.056.28h-.5c-.951,0-2.013.391-2.013,1.677,0,1.006.671,1.23,1.062,1.23a1.68,1.68,0,0,0,1.174-.5l-.056.447h1.006l.447-3.075A1.306,1.306,0,0,0,348.525,227.2Zm.28,2.516c0,.168-.112,1.062-.783,1.062a.436.436,0,0,1-.447-.447c0-.28.168-.671,1.006-.671C348.748,229.716,348.748,229.716,348.8,229.716Z" transform="translate(-323.197 -226.194)" fill="#fff"/>
      <path id="Path_1175" data-name="Path 1175" d="M395.63,233.161c.335-1.845.391-3.355,1.174-3.075a4.385,4.385,0,0,1,.391-1.286h-.224c-.5,0-.895.671-.895.671l.112-.615h-1.062l-.727,4.361h1.23Z" transform="translate(-367.842 -227.682)" fill="#fff"/>
    </g>
    <g id="Group_217" data-name="Group 217" transform="translate(1.006 7.828)">
      <path id="Path_1176" data-name="Path 1176" d="M180,224.138a.839.839,0,0,0,.895.95,2.128,2.128,0,0,0,.839-.168l.168-.951a2.421,2.421,0,0,1-.28.056c-.391,0-.447-.224-.391-.335l.335-1.957h.615l.168-1.062h-.559L181.9,220" transform="translate(-168.426 -219.497)" fill="#dce5e5"/>
      <path id="Path_1177" data-name="Path 1177" d="M218.4,231.222c0,1.566.5,1.957,1.4,1.957a2.9,2.9,0,0,0,1.174-.168l.224-1.062a3.352,3.352,0,0,1-1.174.28c-1.23,0-1.006-.895-1.006-.895h2.292a7.249,7.249,0,0,0,.168-1.006,1.515,1.515,0,0,0-1.621-1.621C218.68,228.594,218.4,229.824,218.4,231.222Zm1.4-1.621c.615,0,.727.727.727.783h-1.454C219.071,230.327,219.183,229.6,219.8,229.6Z" transform="translate(-204.143 -227.588)" fill="#dce5e5"/>
      <path id="Path_1178" data-name="Path 1178" d="M306.516,218.223l.224-1.23a2.748,2.748,0,0,1-.95.28c-.783,0-1.118-.615-1.118-1.286,0-1.342.671-2.069,1.454-2.069a1.867,1.867,0,0,1,1.006.335l.168-1.174a3.931,3.931,0,0,0-1.286-.28c-1.286,0-2.013,1.118-2.013,3.243,0,1.4.112,2.348,1.454,2.348A5.017,5.017,0,0,0,306.516,218.223Z" transform="translate(-283.76 -212.8)" fill="#dce5e5"/>
      <path id="Path_1179" data-name="Path 1179" d="M87.015,229.918a3.3,3.3,0,0,1,1.23-.224c.391,0,.727.056.727.391,0,.224-.056.28-.056.28h-.5c-.951,0-2.013.391-2.013,1.677,0,1.006.671,1.23,1.062,1.23a1.68,1.68,0,0,0,1.174-.5l-.056.447h1.006l.447-3.075c0-1.286-1.118-1.342-1.566-1.342m.839,2.4a1.831,1.831,0,0,1-1.342,1.062.436.436,0,0,1-.447-.447c0-.28.168-.671,1.006-.671A4.567,4.567,0,0,0,89.307,231.2Z" transform="translate(-81.368 -227.682)" fill="#dce5e5"/>
      <path id="Path_1180" data-name="Path 1180" d="M136,230.873a4.733,4.733,0,0,0,1.286.112,1.433,1.433,0,0,0,1.677-1.454c0-1.4-1.342-1.118-1.342-1.677,0-.28.224-.391.615-.391.168,0,.783.056.783.056l.168-1.006a4.247,4.247,0,0,0-1.062-.112c-.839,0-1.118.335-1.118,1.454,0,1.286.839,1.174.839,1.677,0,.335-.391.391-.671.391" transform="translate(-127.501 -225.45)" fill="#dce5e5"/>
      <path id="Path_1181" data-name="Path 1181" d="M437.55,216.654a1.55,1.55,0,0,0-1.062-.559c-1.006,0-1.342,1.23-1.342,2.684,0,.895-.112,1.845.839,1.845a1.493,1.493,0,0,0,1.062-.447l-.056.391h1.118l.839-5.368m-1.454,2.907c0,.615-.5,1.4-1.118,1.4-.391,0-.615-.335-.615-.895,0-.895.391-1.454.895-1.454A.854.854,0,0,1,437.494,218.107Z" transform="translate(-405.736 -215.032)" fill="#dce5e5"/>
      <path id="Path_1182" data-name="Path 1182" d="M15.462,219.768l.671-4.026.112,4.026h.783l1.454-4.026-.615,4.026h1.174l.895-5.368h-1.4l-1.566,3.3-.056-3.3H16.3l-1.9,5.368Z" transform="translate(-14.4 -214.288)" fill="#dce5e5"/>
      <path id="Path_1183" data-name="Path 1183" d="M260.8,233.161h1.174c.335-1.845.391-3.355,1.174-3.075a4.391,4.391,0,0,1,.391-1.286h-.224c-.5,0-.895.671-.895.671l.112-.615" transform="translate(-243.579 -227.682)" fill="#dce5e5"/>
      <path id="Path_1184" data-name="Path 1184" d="M347.015,229.918a3.3,3.3,0,0,1,1.23-.224c.391,0,.727.056.727.391,0,.224-.056.28-.056.28h-.5c-.951,0-2.013.391-2.013,1.677,0,1.006.671,1.23,1.062,1.23a1.68,1.68,0,0,0,1.174-.5l-.056.447h1.006l.447-3.075c0-1.286-1.118-1.342-1.566-1.342m.839,2.4a1.831,1.831,0,0,1-1.342,1.062.436.436,0,0,1-.447-.447c0-.28.168-.671,1.006-.671A4.917,4.917,0,0,0,349.307,231.2Z" transform="translate(-323.197 -227.682)" fill="#dce5e5"/>
      <path id="Path_1185" data-name="Path 1185" d="M395.2,233.161h1.174c.335-1.845.391-3.355,1.174-3.075a4.391,4.391,0,0,1,.391-1.286h-.224c-.5,0-.895.671-.895.671l.112-.615" transform="translate(-368.586 -227.682)" fill="#dce5e5"/>
    </g>
  </g>
</svg>
