<svg xmlns="http://www.w3.org/2000/svg" xmlns:xlink="http://www.w3.org/1999/xlink" width="388" height="102" viewBox="0 0 388 102">
  <defs>
    <filter id="Rectangle_2117" x="0" y="0" width="388" height="102" filterUnits="userSpaceOnUse">
      <feOffset dy="3" input="SourceAlpha"/>
      <feGaussianBlur stdDeviation="3" result="blur"/>
      <feFlood flood-opacity="0.161"/>
      <feComposite operator="in" in2="blur"/>
      <feComposite in="SourceGraphic"/>
    </filter>
    <clipPath id="clip-path">
      <rect width="19" height="3" fill="none"/>
    </clipPath>
  </defs>
  <g id="Group_2788" data-name="Group 2788" transform="translate(-588 -3595)">
    <g transform="matrix(1, 0, 0, 1, 588, 3595)" filter="url(#Rectangle_2117)">
      <rect id="Rectangle_2117-2" data-name="Rectangle 2117" width="370" height="84" rx="5" transform="translate(9 6)" fill="#fff"/>
    </g>
    <g id="Group_2585" data-name="Group 2585" transform="translate(-20 75)">
      <g id="mastercard" transform="translate(650 3457.199)">
        <path id="Path_1593" data-name="Path 1593" d="M221.021,110.51a9.71,9.71,0,0,1-19.421,0h0a9.71,9.71,0,1,1,19.421,0Z" transform="translate(-188.653 0)" fill="#ffb600"/>
        <path id="Path_1594" data-name="Path 1594" d="M211.31,100.8a9.736,9.736,0,0,1,9.71,9.71h0a9.71,9.71,0,1,1-19.421,0" transform="translate(-188.653)" fill="#f7981d"/>
        <path id="Path_1595" data-name="Path 1595" d="M352.8,100.8a9.736,9.736,0,0,1,9.71,9.71h0a9.7,9.7,0,0,1-9.71,9.71" transform="translate(-330.143)" fill="#ff8500"/>
        <path id="Path_1596" data-name="Path 1596" d="M9.608,100.8a9.711,9.711,0,0,0,.1,19.421,9.823,9.823,0,0,0,6.525-2.517h0a9.233,9.233,0,0,0,.976-1.028h-2a11.852,11.852,0,0,1-.719-.976h3.442a6.581,6.581,0,0,0,.565-1.028H13.923a6.123,6.123,0,0,1-.411-1.028h5.343a10.2,10.2,0,0,0,.514-3.083,13.262,13.262,0,0,0-.206-2.055H13.2a7.511,7.511,0,0,1,.257-1.028H18.8a6.124,6.124,0,0,0-.411-1.028H13.872a10.189,10.189,0,0,1,.565-1.028h3.442a4.886,4.886,0,0,0-.771-1.028h-1.9a8.757,8.757,0,0,1,.976-.976A9.481,9.481,0,0,0,9.659,100.9C9.659,100.8,9.659,100.8,9.608,100.8Z" fill="#ff5050"/>
        <path id="Path_1597" data-name="Path 1597" d="M0,112.008a9.7,9.7,0,0,0,9.71,9.71,9.823,9.823,0,0,0,6.525-2.518h0a9.231,9.231,0,0,0,.976-1.028h-2a11.851,11.851,0,0,1-.719-.976h3.442a6.582,6.582,0,0,0,.565-1.028H13.923a6.124,6.124,0,0,1-.411-1.028h5.343a10.2,10.2,0,0,0,.514-3.083A13.261,13.261,0,0,0,19.164,110H13.2a7.511,7.511,0,0,1,.257-1.028H18.8a6.123,6.123,0,0,0-.411-1.028H13.872a10.189,10.189,0,0,1,.565-1.028h3.442a4.886,4.886,0,0,0-.771-1.028h-1.9a8.757,8.757,0,0,1,.976-.976A9.481,9.481,0,0,0,9.659,102.4H9.608" transform="translate(0 -1.497)" fill="#e52836"/>
        <path id="Path_1598" data-name="Path 1598" d="M149.7,121.718a9.823,9.823,0,0,0,6.525-2.518h0a9.23,9.23,0,0,0,.976-1.028h-2a11.855,11.855,0,0,1-.719-.976h3.442a6.583,6.583,0,0,0,.565-1.028h-4.573a6.128,6.128,0,0,1-.411-1.028h5.343a10.2,10.2,0,0,0,.514-3.083,13.262,13.262,0,0,0-.206-2.055H153.2a7.514,7.514,0,0,1,.257-1.028H158.8a6.125,6.125,0,0,0-.411-1.028h-4.521a10.192,10.192,0,0,1,.565-1.028h3.442a4.884,4.884,0,0,0-.771-1.028h-1.9a8.756,8.756,0,0,1,.976-.976,9.481,9.481,0,0,0-6.525-2.517H149.6" transform="translate(-139.992 -1.497)" fill="#cb2026"/>
        <g id="Group_2583" data-name="Group 2583" transform="translate(0.925 107.993)">
          <path id="Path_1599" data-name="Path 1599" d="M183.09,224.521l.154-.873a2.226,2.226,0,0,1-.257.051c-.36,0-.411-.206-.36-.308l.308-1.8h.565l.154-.976h-.514l.1-.617h-1.028s-.617,3.391-.617,3.8a.771.771,0,0,0,.822.873A1.577,1.577,0,0,0,183.09,224.521Z" transform="translate(-170.862 -219.538)" fill="#fff"/>
          <path id="Path_1600" data-name="Path 1600" d="M210.4,231.017a1.634,1.634,0,0,0,1.8,1.8,2.668,2.668,0,0,0,1.079-.154l.206-.976a3.08,3.08,0,0,1-1.079.257c-1.13,0-.925-.822-.925-.822h2.106a6.661,6.661,0,0,0,.154-.925,1.392,1.392,0,0,0-1.49-1.49C211.171,228.6,210.4,229.733,210.4,231.017Zm1.8-1.49c.565,0,.462.668.462.719h-1.13C211.53,230.2,211.633,229.527,212.2,229.527Z" transform="translate(-197.813 -227.678)" fill="#fff"/>
          <path id="Path_1601" data-name="Path 1601" d="M298.826,217.784l.206-1.13a2.525,2.525,0,0,1-.873.257c-.719,0-1.028-.565-1.028-1.182,0-1.233.617-1.9,1.336-1.9a1.716,1.716,0,0,1,.925.308l.154-1.079a3.612,3.612,0,0,0-1.182-.257c-1.182,0-2.363,1.028-2.363,2.98,0,1.284.617,2.158,1.85,2.158A4.611,4.611,0,0,0,298.826,217.784Z" transform="translate(-277.915 -212.8)" fill="#fff"/>
          <path id="Path_1602" data-name="Path 1602" d="M88.352,227.2a3.639,3.639,0,0,0-1.233.206l-.154.873a3.037,3.037,0,0,1,1.13-.206c.36,0,.668.051.668.36,0,.206-.051.257-.051.257H88.25c-.873,0-1.85.36-1.85,1.541,0,.925.617,1.13.976,1.13a1.544,1.544,0,0,0,1.079-.462l-.051.411h.925l.411-2.826A1.218,1.218,0,0,0,88.352,227.2Zm.206,2.312c0,.154-.1.976-.719.976a.4.4,0,0,1-.411-.411c0-.257.154-.617.925-.617A.81.81,0,0,0,88.558,229.512Z" transform="translate(-81.776 -226.275)" fill="#fff"/>
          <path id="Path_1603" data-name="Path 1603" d="M136.382,230.613a1.317,1.317,0,0,0,1.541-1.336c0-1.284-1.233-1.028-1.233-1.541,0-.257.206-.36.565-.36.154,0,.719.051.719.051l.154-.925a3.9,3.9,0,0,0-.976-.1c-.771,0-1.541.308-1.541,1.336,0,1.182,1.284,1.079,1.284,1.541,0,.308-.36.36-.617.36a3.36,3.36,0,0,1-.925-.154l-.154.925C135.251,230.51,135.508,230.613,136.382,230.613Z" transform="translate(-127.442 -225.527)" fill="#fff"/>
          <path id="Path_1604" data-name="Path 1604" d="M430.128,214.4l-.205,1.387a1.425,1.425,0,0,0-.976-.514c-.925,0-1.747,1.13-1.747,2.466,0,.822.411,1.7,1.284,1.7a1.371,1.371,0,0,0,.976-.411l-.051.36h1.028l.771-4.932Zm-.462,2.723c0,.565-.257,1.284-.822,1.284-.36,0-.565-.308-.565-.822,0-.822.36-1.336.822-1.336C429.461,216.25,429.666,216.506,429.666,217.123Z" transform="translate(-400.689 -214.297)" fill="#fff"/>
          <path id="Path_1605" data-name="Path 1605" d="M15.376,219.332l.617-3.7.1,3.7h.719l1.336-3.7-.565,3.7h1.079l.822-4.932h-1.7l-1.028,3.031-.051-3.031h-1.49l-.822,4.932Z" transform="translate(-14.4 -214.297)" fill="#fff"/>
          <path id="Path_1606" data-name="Path 1606" d="M261.13,232.807c.308-1.7.36-3.083,1.079-2.826a4.033,4.033,0,0,1,.36-1.182h-.206c-.462,0-.822.617-.822.617l.1-.565h-.976L260,232.859h1.13Z" transform="translate(-244.227 -227.772)" fill="#fff"/>
          <path id="Path_1607" data-name="Path 1607" d="M348.352,227.2a3.638,3.638,0,0,0-1.233.206l-.154.873a3.037,3.037,0,0,1,1.13-.206c.36,0,.668.051.668.36,0,.206-.051.257-.051.257h-.462c-.873,0-1.85.36-1.85,1.541,0,.925.617,1.13.976,1.13a1.544,1.544,0,0,0,1.079-.462l-.051.411h.925l.411-2.826A1.2,1.2,0,0,0,348.352,227.2Zm.257,2.312c0,.154-.1.976-.719.976a.4.4,0,0,1-.411-.411c0-.257.154-.617.925-.617C348.558,229.512,348.558,229.512,348.609,229.512Z" transform="translate(-325.078 -226.275)" fill="#fff"/>
          <path id="Path_1608" data-name="Path 1608" d="M395.53,232.807c.308-1.7.36-3.083,1.079-2.826a4.031,4.031,0,0,1,.36-1.182h-.206c-.462,0-.822.617-.822.617l.1-.565h-.976l-.668,4.007h1.13Z" transform="translate(-369.996 -227.772)" fill="#fff"/>
        </g>
        <g id="Group_2584" data-name="Group 2584" transform="translate(0.925 107.993)">
          <path id="Path_1609" data-name="Path 1609" d="M180,223.8a.771.771,0,0,0,.822.873,1.955,1.955,0,0,0,.771-.154l.154-.873a2.226,2.226,0,0,1-.257.051c-.36,0-.411-.206-.36-.308l.308-1.8H182l.154-.976h-.514l.1-.617" transform="translate(-169.365 -219.538)" fill="#dce5e5"/>
          <path id="Path_1610" data-name="Path 1610" d="M218.4,231.017c0,1.439.462,1.8,1.284,1.8a2.667,2.667,0,0,0,1.079-.154l.206-.976a3.08,3.08,0,0,1-1.079.257c-1.13,0-.925-.822-.925-.822h2.106a6.661,6.661,0,0,0,.154-.925,1.392,1.392,0,0,0-1.49-1.49C218.657,228.6,218.4,229.733,218.4,231.017Zm1.284-1.49c.565,0,.668.668.668.719h-1.336C219.017,230.2,219.119,229.527,219.684,229.527Z" transform="translate(-205.299 -227.678)" fill="#dce5e5"/>
          <path id="Path_1611" data-name="Path 1611" d="M306.312,217.784l.206-1.13a2.525,2.525,0,0,1-.873.257c-.719,0-1.028-.565-1.028-1.182,0-1.233.617-1.9,1.336-1.9a1.716,1.716,0,0,1,.925.308l.154-1.079a3.612,3.612,0,0,0-1.182-.257c-1.182,0-1.85,1.028-1.85,2.98,0,1.284.1,2.158,1.336,2.158A4.611,4.611,0,0,0,306.312,217.784Z" transform="translate(-285.401 -212.8)" fill="#dce5e5"/>
          <path id="Path_1612" data-name="Path 1612" d="M86.965,229.828a3.037,3.037,0,0,1,1.13-.206c.36,0,.668.051.668.36,0,.206-.051.257-.051.257H88.25c-.873,0-1.85.36-1.85,1.541,0,.925.617,1.13.976,1.13a1.544,1.544,0,0,0,1.079-.462l-.051.411h.925l.411-2.826c0-1.182-1.028-1.233-1.439-1.233m.771,2.209a1.682,1.682,0,0,1-1.233.976.4.4,0,0,1-.411-.411c0-.257.154-.617.925-.617A4.2,4.2,0,0,0,89.072,231.009Z" transform="translate(-81.776 -227.772)" fill="#dce5e5"/>
          <path id="Path_1613" data-name="Path 1613" d="M136,230.51a4.348,4.348,0,0,0,1.182.1,1.317,1.317,0,0,0,1.541-1.336c0-1.284-1.233-1.028-1.233-1.541,0-.257.206-.36.565-.36.154,0,.719.051.719.051l.154-.925a3.9,3.9,0,0,0-.976-.1c-.771,0-1.028.308-1.028,1.336,0,1.182.771,1.079.771,1.541,0,.308-.36.36-.617.36" transform="translate(-128.191 -225.527)" fill="#dce5e5"/>
          <path id="Path_1614" data-name="Path 1614" d="M437.355,216.536a1.425,1.425,0,0,0-.976-.514c-.925,0-1.233,1.13-1.233,2.466,0,.822-.1,1.7.771,1.7a1.371,1.371,0,0,0,.976-.411l-.051.36h1.028l.771-4.932m-1.336,2.672c0,.565-.462,1.284-1.028,1.284-.36,0-.565-.308-.565-.822,0-.822.36-1.336.822-1.336A.785.785,0,0,1,437.3,217.872Z" transform="translate(-408.121 -215.046)" fill="#dce5e5"/>
          <path id="Path_1615" data-name="Path 1615" d="M15.376,219.332l.617-3.7.1,3.7h.719l1.336-3.7-.565,3.7h1.079l.822-4.932H18.2l-1.439,3.031-.051-3.031h-.565L14.4,219.332Z" transform="translate(-14.4 -214.297)" fill="#dce5e5"/>
          <path id="Path_1616" data-name="Path 1616" d="M260.8,232.807h1.079c.308-1.7.36-3.083,1.079-2.826a4.033,4.033,0,0,1,.36-1.182h-.205c-.462,0-.822.617-.822.617l.1-.565" transform="translate(-244.976 -227.772)" fill="#dce5e5"/>
          <path id="Path_1617" data-name="Path 1617" d="M346.965,229.828a3.037,3.037,0,0,1,1.13-.206c.36,0,.668.051.668.36,0,.206-.051.257-.051.257h-.462c-.873,0-1.85.36-1.85,1.541,0,.925.617,1.13.976,1.13a1.544,1.544,0,0,0,1.079-.462l-.051.411h.925l.411-2.826c0-1.182-1.028-1.233-1.439-1.233m.771,2.209a1.682,1.682,0,0,1-1.233.976.4.4,0,0,1-.411-.411c0-.257.154-.617.925-.617A4.52,4.52,0,0,0,349.072,231.009Z" transform="translate(-325.078 -227.772)" fill="#dce5e5"/>
          <path id="Path_1618" data-name="Path 1618" d="M395.2,232.807h1.079c.308-1.7.36-3.083,1.079-2.826a4.032,4.032,0,0,1,.36-1.182h-.206c-.462,0-.822.617-.822.617l.1-.565" transform="translate(-370.744 -227.772)" fill="#dce5e5"/>
        </g>
      </g>
      <g id="Repeat_Grid_15" data-name="Repeat Grid 15" transform="translate(719 3565.999)" clip-path="url(#clip-path)">
        <g transform="translate(-1032 -3641)">
          <g id="Ellipse_163" data-name="Ellipse 163" transform="translate(1032 3641)" stroke="#000" stroke-width="1">
            <circle cx="1.5" cy="1.5" r="1.5" stroke="none"/>
            <circle cx="1.5" cy="1.5" r="1" fill="none"/>
          </g>
        </g>
        <g transform="translate(-1027 -3641)">
          <g id="Ellipse_163-2" data-name="Ellipse 163" transform="translate(1032 3641)" stroke="#000" stroke-width="1">
            <circle cx="1.5" cy="1.5" r="1.5" stroke="none"/>
            <circle cx="1.5" cy="1.5" r="1" fill="none"/>
          </g>
        </g>
        <g transform="translate(-1022 -3641)">
          <g id="Ellipse_163-3" data-name="Ellipse 163" transform="translate(1032 3641)" stroke="#000" stroke-width="1">
            <circle cx="1.5" cy="1.5" r="1.5" stroke="none"/>
            <circle cx="1.5" cy="1.5" r="1" fill="none"/>
          </g>
        </g>
        <g transform="translate(-1017 -3641)">
          <g id="Ellipse_163-4" data-name="Ellipse 163" transform="translate(1032 3641)" stroke="#000" stroke-width="1">
            <circle cx="1.5" cy="1.5" r="1.5" stroke="none"/>
            <circle cx="1.5" cy="1.5" r="1" fill="none"/>
          </g>
        </g>
      </g>
      <g id="Repeat_Grid_16" data-name="Repeat Grid 16" transform="translate(759 3565.999)" clip-path="url(#clip-path)">
        <g transform="translate(-1032 -3641)">
          <g id="Ellipse_163-5" data-name="Ellipse 163" transform="translate(1032 3641)" stroke="#000" stroke-width="1">
            <circle cx="1.5" cy="1.5" r="1.5" stroke="none"/>
            <circle cx="1.5" cy="1.5" r="1" fill="none"/>
          </g>
        </g>
        <g transform="translate(-1027 -3641)">
          <g id="Ellipse_163-6" data-name="Ellipse 163" transform="translate(1032 3641)" stroke="#000" stroke-width="1">
            <circle cx="1.5" cy="1.5" r="1.5" stroke="none"/>
            <circle cx="1.5" cy="1.5" r="1" fill="none"/>
          </g>
        </g>
        <g transform="translate(-1022 -3641)">
          <g id="Ellipse_163-7" data-name="Ellipse 163" transform="translate(1032 3641)" stroke="#000" stroke-width="1">
            <circle cx="1.5" cy="1.5" r="1.5" stroke="none"/>
            <circle cx="1.5" cy="1.5" r="1" fill="none"/>
          </g>
        </g>
        <g transform="translate(-1017 -3641)">
          <g id="Ellipse_163-8" data-name="Ellipse 163" transform="translate(1032 3641)" stroke="#000" stroke-width="1">
            <circle cx="1.5" cy="1.5" r="1.5" stroke="none"/>
            <circle cx="1.5" cy="1.5" r="1" fill="none"/>
          </g>
        </g>
      </g>
      <g id="Repeat_Grid_17" data-name="Repeat Grid 17" transform="translate(809 3565.999)" clip-path="url(#clip-path)">
        <g transform="translate(-1032 -3641)">
          <g id="Ellipse_163-9" data-name="Ellipse 163" transform="translate(1032 3641)" stroke="#000" stroke-width="1">
            <circle cx="1.5" cy="1.5" r="1.5" stroke="none"/>
            <circle cx="1.5" cy="1.5" r="1" fill="none"/>
          </g>
        </g>
        <g transform="translate(-1027 -3641)">
          <g id="Ellipse_163-10" data-name="Ellipse 163" transform="translate(1032 3641)" stroke="#000" stroke-width="1">
            <circle cx="1.5" cy="1.5" r="1.5" stroke="none"/>
            <circle cx="1.5" cy="1.5" r="1" fill="none"/>
          </g>
        </g>
        <g transform="translate(-1022 -3641)">
          <g id="Ellipse_163-11" data-name="Ellipse 163" transform="translate(1032 3641)" stroke="#000" stroke-width="1">
            <circle cx="1.5" cy="1.5" r="1.5" stroke="none"/>
            <circle cx="1.5" cy="1.5" r="1" fill="none"/>
          </g>
        </g>
        <g transform="translate(-1017 -3641)">
          <g id="Ellipse_163-12" data-name="Ellipse 163" transform="translate(1032 3641)" stroke="#000" stroke-width="1">
            <circle cx="1.5" cy="1.5" r="1.5" stroke="none"/>
            <circle cx="1.5" cy="1.5" r="1" fill="none"/>
          </g>
        </g>
      </g>
      <text id="_5621" data-name="5621" transform="translate(862 3572.999)" font-size="15" font-family="Helvetica"><tspan x="0" y="0">5621</tspan></text>
    </g>
    <path id="path" d="M266.184,882.33l7.73-7.73,1.021,1.021-8.751,8.751-4.084-4.084,1.021-1.021Z" transform="translate(680 2763.4)"/>
  </g>
</svg>
