<svg xmlns="http://www.w3.org/2000/svg" width="70.695" height="64.055" viewBox="0 0 70.695 64.055">
  <g id="notes" transform="translate(0 -24.045)">
    <g id="Group_2492" data-name="Group 2492" transform="translate(0 24.045)">
      <g id="Group_2491" data-name="Group 2491" transform="translate(0 0)">
        <path id="Path_1181" data-name="Path 1181" d="M39.411,67.94a6.568,6.568,0,0,0-1.1,1.455l-3.537,6.366a1.036,1.036,0,0,0,1.408,1.408l6.367-3.537a6.57,6.57,0,0,0,1.455-1.1L70.069,46.473a2.145,2.145,0,0,0,0-3.03L68.5,41.878a2.142,2.142,0,0,0-3.03,0l-14.7,14.7V29.508a5.469,5.469,0,0,0-5.463-5.463H5.463A5.469,5.469,0,0,0,0,29.508V73.782a1.036,1.036,0,0,0,1.036,1.036H4.427V87.064A1.036,1.036,0,0,0,5.463,88.1H49.737a1.036,1.036,0,0,0,1.036-1.036V71.96a1.036,1.036,0,1,0-2.071,0V86.029H10.926V84.851a1.036,1.036,0,1,0-2.071,0v1.178H6.5v-53.2a.071.071,0,0,1,.071-.071H8.855V80.423a1.036,1.036,0,1,0,2.071,0V32.757H43.1a1.036,1.036,0,0,0,0-2.071H10.926V29.508a5.435,5.435,0,0,0-1.185-3.392H45.31A3.4,3.4,0,0,1,48.7,29.508v1.178H47.523a1.036,1.036,0,1,0,0,2.071H48.7V58.65ZM8.855,30.686H6.57a2.145,2.145,0,0,0-2.142,2.142V72.747H2.071V29.508a3.392,3.392,0,0,1,6.784,0v1.178Zm32.69,41.136-3.2,1.777,1.777-3.2a4.517,4.517,0,0,1,.295-.458L42,71.528A4.5,4.5,0,0,1,41.545,71.822Zm25.393-28.48a.071.071,0,0,1,.1,0L68.6,44.907a.071.071,0,0,1,0,.1l-1.616,1.616-1.666-1.666Zm-3.08,3.08,1.666,1.666L43.508,70.1l-1.666-1.666Z" transform="translate(0 -24.045)"/>
      </g>
    </g>
    <g id="Group_2494" data-name="Group 2494" transform="translate(16.603 41.755)">
      <g id="Group_2493" data-name="Group 2493" transform="translate(0 0)">
        <path id="Path_1182" data-name="Path 1182" d="M145.63,152.3H121.28a1.036,1.036,0,1,0,0,2.071H145.63a1.036,1.036,0,0,0,0-2.071Z" transform="translate(-120.244 -152.305)"/>
      </g>
    </g>
    <g id="Group_2496" data-name="Group 2496" transform="translate(16.603 47.289)">
      <g id="Group_2495" data-name="Group 2495">
        <path id="Path_1183" data-name="Path 1183" d="M145.63,192.387H121.28a1.036,1.036,0,1,0,0,2.071H145.63a1.036,1.036,0,0,0,0-2.071Z" transform="translate(-120.244 -192.387)"/>
      </g>
    </g>
    <g id="Group_2498" data-name="Group 2498" transform="translate(16.603 52.823)">
      <g id="Group_2497" data-name="Group 2497">
        <path id="Path_1184" data-name="Path 1184" d="M145.63,232.467H121.28a1.036,1.036,0,1,0,0,2.071H145.63a1.036,1.036,0,0,0,0-2.071Z" transform="translate(-120.244 -232.467)"/>
      </g>
    </g>
    <g id="Group_2500" data-name="Group 2500" transform="translate(16.603 58.358)">
      <g id="Group_2499" data-name="Group 2499">
        <path id="Path_1185" data-name="Path 1185" d="M145.63,272.549H121.28a1.036,1.036,0,0,0,0,2.071H145.63a1.036,1.036,0,0,0,0-2.071Z" transform="translate(-120.244 -272.549)"/>
      </g>
    </g>
    <g id="Group_2502" data-name="Group 2502" transform="translate(16.603 63.892)">
      <g id="Group_2501" data-name="Group 2501">
        <path id="Path_1186" data-name="Path 1186" d="M138.989,312.629H121.28a1.036,1.036,0,1,0,0,2.071h17.71a1.036,1.036,0,1,0,0-2.071Z" transform="translate(-120.244 -312.629)"/>
      </g>
    </g>
  </g>
</svg>
