<?xml version="1.0" encoding="UTF-8"?>
<svg width="22px" height="22px" viewBox="0 0 22 22" version="1.1" xmlns="http://www.w3.org/2000/svg" xmlns:xlink="http://www.w3.org/1999/xlink">
    <title>Shape</title>
    <g id="Page-1" stroke="none" stroke-width="1" fill="none" fill-rule="evenodd">
        <g id="Easy-event" transform="translate(-212.000000, -679.000000)" fill="#88989B" fill-rule="nonzero">
            <g id="Group-3" transform="translate(115.000000, 638.000000)">
                <path d="M118.695928,61.08933 L114.624526,57.0223325 C117.739559,53.146402 117.438985,47.4143921 113.886755,43.8933002 C112.028666,42.0372208 109.542105,41 106.891595,41 C104.241084,41 101.781848,42.0372208 99.8964338,43.8933002 C98.0383442,45.7493797 97,48.2332506 97,50.8808933 C97,53.528536 98.0383442,55.9851117 99.8964338,57.8684864 C101.754523,59.7245658 104.241084,60.7617866 106.891595,60.7617866 C109.132232,60.7617866 111.31822,59.9975186 113.06701,58.6054591 L117.138412,62.6724566 C117.357011,62.8908189 117.630259,63 117.903508,63 C118.204081,63 118.47733,62.8908189 118.668604,62.6724566 C119.105801,62.2084367 119.105801,61.5260546 118.695928,61.08933 Z M114.597201,50.853598 C114.597201,52.9007444 113.804781,54.8387097 112.356564,56.2853598 C110.908347,57.7320099 108.968283,58.5235732 106.918919,58.5235732 C104.869556,58.5235732 102.929492,57.7320099 101.481275,56.2853598 C100.033058,54.8387097 99.2406374,52.9007444 99.2406374,50.853598 C99.2406374,48.8064516 100.033058,46.8684864 101.481275,45.4218362 C102.929492,43.9751861 104.869556,43.1836228 106.918919,43.1836228 C108.968283,43.1836228 110.908347,43.9751861 112.356564,45.4218362 C113.804781,46.8684864 114.597201,48.8064516 114.597201,50.853598 Z" id="Shape"></path>
            </g>
        </g>
    </g>
</svg>