<?xml version="1.0" encoding="UTF-8"?>
<svg width="22px" height="23px" viewBox="0 0 22 23" version="1.1" xmlns="http://www.w3.org/2000/svg" xmlns:xlink="http://www.w3.org/1999/xlink">
    <title>surface1-2</title>
    <g id="Page-1" stroke="none" stroke-width="1" fill="none" fill-rule="evenodd">
        <g id="Easy-event" transform="translate(-752.000000, -679.000000)" fill="#88989B" fill-rule="nonzero">
            <g id="Group-3" transform="translate(115.000000, 638.000000)">
                <g id="surface1-2" transform="translate(637.000000, 41.250000)">
                    <path d="M10.8947143,0 C8.11751097,0 5.86614286,2.25136812 5.86614286,5.02857143 C5.86614286,7.8045 10.2394286,14.7022857 10.2394286,18.4375714 L11.55,18.4375714 C11.55,14.7156429 15.9232857,7.579 15.9232857,5.02857143 C15.9232857,2.25136812 13.6719176,0 10.8947143,0 Z M10.8947143,2.51428571 C12.2833159,2.51428571 13.409,3.63996977 13.409,5.02857143 C13.409,6.41717309 12.2833159,7.54285714 10.8947143,7.54285714 C9.50611263,7.54285714 8.38042857,6.41717309 8.38042857,5.02857143 C8.38042857,3.63996977 9.50611263,2.51428571 10.8947143,2.51428571 Z M5.73571429,14.4822857 C5.7175448,14.4896041 5.69994811,14.4982711 5.68307143,14.5082143 C4.35089436,14.704874 3.05414768,15.0931041 1.83307143,15.6608571 C1.36323113,15.8903113 0.937638741,16.2009938 0.575928571,16.5785714 C0.220153837,16.9439595 0.0146032595,17.4296533 0,17.9394286 C0.0563313058,18.7109583 0.486915164,19.4059975 1.15264286,19.8 C1.88407494,20.2834742 2.68879418,20.6456377 3.53571429,20.8725 C5.93384509,21.5203682 8.41092731,21.8290117 10.8947143,21.7894286 C13.3785013,21.8290117 15.8555835,21.5203682 18.2537143,20.8725 C19.1006344,20.6456377 19.9053536,20.2834742 20.6367857,19.8 C21.3022958,19.4061529 21.7328478,18.7114587 21.7894286,17.9402143 C21.7764032,17.4221426 21.5714381,16.9273703 21.2142857,16.5518571 C20.8514283,16.1828184 20.4257306,15.8813712 19.9571429,15.6616429 C18.7270464,15.0937593 17.4217314,14.7055783 16.0812143,14.509 C15.7799812,14.4422264 15.4664163,14.5463127 15.2649092,14.7799683 C15.063402,15.0136239 15.0065246,15.3390803 15.11684,15.6272306 C15.2271553,15.9153809 15.4868318,16.1196479 15.7928571,16.159 C16.9680839,16.3326313 18.1137251,16.667625 19.1973571,17.1545 C19.4881879,17.2925844 19.7537816,17.4785 19.9830714,17.7045 C20.1205714,17.8553571 20.1142857,17.9142857 20.1142857,17.9402143 C20.1142857,17.9795 20.0616429,18.1594286 19.6687857,18.4375714 C19.0775418,18.8117291 18.4330098,19.0941258 17.7571429,19.2751429 C15.5190183,19.8684729 13.2098614,20.1508384 10.8947143,20.1142857 C8.57986604,20.1510224 6.2709791,19.868922 4.03307143,19.2759286 C3.35711434,19.0944212 2.71257792,18.8114928 2.12142857,18.4367857 C1.72857143,18.1586429 1.67592857,17.9787143 1.67592857,17.9394286 C1.67592857,17.9135 1.66964286,17.8545714 1.80714286,17.7037143 C2.03707812,17.4784905 2.30253477,17.2926708 2.59285714,17.1537143 C3.66741191,16.6667521 4.8045091,16.3317051 5.97142857,16.1582143 C6.27138763,16.1167636 6.52633606,15.9181929 6.639967,15.6375123 C6.75359795,15.3568317 6.70859019,15.0368265 6.52194541,14.7983788 C6.33530063,14.559931 6.03546987,14.4393883 5.73571429,14.4822857 Z" id="Path_3197"></path>
                </g>
            </g>
        </g>
    </g>
</svg>