<svg xmlns="http://www.w3.org/2000/svg" width="30.234" height="30.234" viewBox="0 0 30.234 30.234">
  <path id="icons8-twitter" d="M29.875,3H6.359A3.358,3.358,0,0,0,3,6.359V29.875a3.358,3.358,0,0,0,3.359,3.359H29.875a3.358,3.358,0,0,0,3.359-3.359V6.359A3.358,3.358,0,0,0,29.875,3ZM26.6,13.941v.576A11.735,11.735,0,0,1,14.793,26.324a12.091,12.091,0,0,1-6.334-1.871H9.467a9.312,9.312,0,0,0,5.183-1.728,4.2,4.2,0,0,1-3.887-2.879,6.29,6.29,0,0,1,.721.144,3.163,3.163,0,0,0,1.152-.144,4.16,4.16,0,0,1-3.311-4.031,7.184,7.184,0,0,0,1.871.576,4.717,4.717,0,0,1-1.871-3.6A3.306,3.306,0,0,1,9.9,10.775,11.686,11.686,0,0,0,18.4,15.094c0-.287-.144-.576-.144-1.008A4.179,4.179,0,0,1,22.427,9.91a3.922,3.922,0,0,1,3.023,1.3A6.989,6.989,0,0,0,28.042,10.2a4.209,4.209,0,0,1-1.871,2.3,7.876,7.876,0,0,0,2.447-.721A9.723,9.723,0,0,1,26.6,13.941Z" transform="translate(-2.999 -3)" fill="#88989b"/>
</svg>
