<svg xmlns="http://www.w3.org/2000/svg" width="125.427" height="115.526" viewBox="0 0 125.427 115.526">
  <g id="icons8-checked_laptop" transform="translate(0 0)">
    <g id="Group_2987" data-name="Group 2987" transform="translate(2.986 19.963)">
      <path id="Path_5344" data-name="Path 5344" d="M113.5,110.636V40.954A9.984,9.984,0,0,0,103.545,31H23.909a9.984,9.984,0,0,0-9.954,9.954v69.681H4v2.986a9.984,9.984,0,0,0,9.954,9.955H113.5a9.984,9.984,0,0,0,9.955-9.955v-2.986Z" transform="translate(-4 -31)" fill="#fff"/>
    </g>
    <g id="Group_2988" data-name="Group 2988" transform="translate(84.663)">
      <path id="Path_5345" data-name="Path 5345" d="M91.873,44.945a19.929,19.929,0,0,1,27.574-28.769c.2.2-.7,2.489-.5,2.688a14.808,14.808,0,0,0,3.185,1.991c.3.1-.5,1-.2,1,.1,0,1.195-1.195,1.294-1a19.953,19.953,0,0,1-3.185,23.99A19.682,19.682,0,0,1,91.873,44.945Z" transform="translate(-86.05 -10.946)" fill="#1fd4af"/>
    </g>
    <g id="Group_2989" data-name="Group 2989" transform="translate(94.635 5.429)">
      <path id="Path_5346" data-name="Path 5346" d="M101.376,25.16A2.977,2.977,0,0,0,96.7,28.843l6.968,8.959A3.247,3.247,0,0,0,105.955,39h.1a2.852,2.852,0,0,0,2.19-1l15.031-16.923a17.368,17.368,0,0,0-3.783-4.679L106.154,31.332Z" transform="translate(-96.068 -16.4)" fill="#fff"/>
    </g>
    <g id="Group_2990" data-name="Group 2990" transform="translate(49.772 96.612)">
      <path id="Path_5347" data-name="Path 5347" d="M73.9,113.973H53.986a2.986,2.986,0,0,1,0-5.973H73.9a2.986,2.986,0,0,1,0,5.973Z" transform="translate(-51 -108)" fill="#88989b"/>
    </g>
    <g id="Group_2991" data-name="Group 2991" transform="translate(0 96.612)">
      <path id="Path_5348" data-name="Path 5348" d="M113.486,126.914H13.941A12.915,12.915,0,0,1,1,113.973v-2.986A2.933,2.933,0,0,1,3.986,108H38.827a2.986,2.986,0,0,1,0,5.973H6.973a6.925,6.925,0,0,0,6.968,6.968h99.545a6.925,6.925,0,0,0,6.968-6.968H88.6a2.986,2.986,0,1,1,0-5.973H123.44a2.933,2.933,0,0,1,2.986,2.986v2.986A12.915,12.915,0,0,1,113.486,126.914Z" transform="translate(-1 -108)" fill="#88989b"/>
    </g>
    <g id="Group_2992" data-name="Group 2992" transform="translate(9.954 16.976)">
      <path id="Path_5349" data-name="Path 5349" d="M13.986,102.659A2.933,2.933,0,0,1,11,99.672V40.941A12.915,12.915,0,0,1,23.941,28H75.7a2.986,2.986,0,0,1,0,5.973H23.941a6.925,6.925,0,0,0-6.968,6.968V99.672A2.933,2.933,0,0,1,13.986,102.659Z" transform="translate(-11 -28)" fill="#88989b"/>
    </g>
    <g id="Group_2993" data-name="Group 2993" transform="translate(109.499 46.84)">
      <path id="Path_5350" data-name="Path 5350" d="M113.986,102.8A2.933,2.933,0,0,1,111,99.809V60.986a2.986,2.986,0,1,1,5.973,0V99.809A2.933,2.933,0,0,1,113.986,102.8Z" transform="translate(-111 -58)" fill="#88989b"/>
    </g>
  </g>
</svg>
