<svg id="surface1-2" xmlns="http://www.w3.org/2000/svg" width="21.789" height="21.792" viewBox="0 0 21.789 21.792">
  <path id="Path_3197" d="M10.895,21.789a26.578,26.578,0,0,1-7.358-.916A8.14,8.14,0,0,1,1.153,19.8,2.363,2.363,0,0,1,0,17.94a2.033,2.033,0,0,1,.576-1.361,4.434,4.434,0,0,1,1.257-.918,13.968,13.968,0,0,1,3.85-1.153.471.471,0,0,1,.052-.026.847.847,0,1,1,.236,1.677,12.688,12.688,0,0,0-3.379,1,2.915,2.915,0,0,0-.786.55c-.138.15-.131.21-.131.236s.053.219.445.5a6.92,6.92,0,0,0,1.912.84,25.217,25.217,0,0,0,6.862.838,25.22,25.22,0,0,0,6.862-.839,6.916,6.916,0,0,0,1.912-.838c.393-.278.446-.458.446-.5s.006-.086-.131-.236a2.849,2.849,0,0,0-.786-.55,12.918,12.918,0,0,0-3.4-1,.838.838,0,1,1,.288-1.65,14.17,14.17,0,0,1,3.876,1.153,4.358,4.358,0,0,1,1.256.89,2.088,2.088,0,0,1,.575,1.389A2.36,2.36,0,0,1,20.637,19.8a8.15,8.15,0,0,1-2.383,1.073,26.584,26.584,0,0,1-6.934.92Q11.107,21.792,10.895,21.789Zm-.655-3.352C10.239,14.7,5.866,7.8,5.866,5.028a5.029,5.029,0,0,1,10.058,0c0,2.551-4.374,9.688-4.374,13.409Z" fill="#88989b"/>
</svg>
