<svg xmlns="http://www.w3.org/2000/svg" xmlns:xlink="http://www.w3.org/1999/xlink" width="135.072" height="141.153" viewBox="0 0 135.072 141.153">
  <defs>
    <filter id="Rectangle_2271" x="0" y="0" width="135.072" height="141.153" filterUnits="userSpaceOnUse">
      <feOffset dy="3" input="SourceAlpha"/>
      <feGaussianBlur stdDeviation="3" result="blur"/>
      <feFlood flood-opacity="0.161"/>
      <feComposite operator="in" in2="blur"/>
      <feComposite in="SourceGraphic"/>
    </filter>
    <linearGradient id="linear-gradient" x1="0.5" y1="1" x2="0.5" gradientUnits="objectBoundingBox">
      <stop offset="0" stop-color="gray" stop-opacity="0.251"/>
      <stop offset="0.54" stop-color="gray" stop-opacity="0.122"/>
      <stop offset="1" stop-color="gray" stop-opacity="0.102"/>
    </linearGradient>
  </defs>
  <g id="Group_2781" data-name="Group 2781" transform="translate(-45 -603)">
    <g transform="matrix(1, 0, 0, 1, 45, 603)" filter="url(#Rectangle_2271)">
      <rect id="Rectangle_2271-2" data-name="Rectangle 2271" width="117.071" height="123.153" transform="translate(9 6)" fill="#fff"/>
    </g>
    <circle id="Ellipse_217" data-name="Ellipse 217" cx="24.13" cy="24.13" r="24.13" transform="translate(56.572 610.74)" fill="#4a94e9" opacity="0.331"/>
    <text id="_3" data-name="3" transform="translate(80.57 641.307)" font-size="21" font-family="Helvetica"><tspan x="-5.84" y="0">3</tspan></text>
    <g id="Group_2714" data-name="Group 2714" transform="translate(-988.5 -359)">
      <path id="Path_1342" data-name="Path 1342" d="M284.27,427.505c-.641.643-3.66,1.344-3.66,1.344s.695-3.021,1.331-3.663a1.642,1.642,0,0,1,2.325,2.319Z" transform="translate(812.308 615.218)"/>
      <path id="Path_1343" data-name="Path 1343" d="M292.821,499.36c-.523.741-3.381,1.943-3.381,1.943s.174-3.1.7-3.836a1.642,1.642,0,0,1,2.684,1.893Z" transform="translate(804.318 550.001)"/>
      <path id="Path_1349" data-name="Path 1349" d="M284.27,427.505c-.641.643-3.66,1.344-3.66,1.344s.695-3.021,1.331-3.663a1.642,1.642,0,0,1,2.325,2.319Z" transform="translate(812.308 615.218)" opacity="0.25"/>
      <path id="Path_1350" data-name="Path 1350" d="M292.821,499.36c-.523.741-3.381,1.943-3.381,1.943s.174-3.1.7-3.836a1.642,1.642,0,0,1,2.684,1.893Z" transform="translate(804.318 550.001)" opacity="0.25"/>
      <ellipse id="Ellipse_127" data-name="Ellipse 127" cx="4.455" cy="0.811" rx="4.455" ry="0.811" transform="translate(1136.117 1077.797)" opacity="0.1"/>
      <path id="Path_1363" data-name="Path 1363" d="M515.17,651.89a5.935,5.935,0,0,0-3.276,3.929H500.946a5.935,5.935,0,0,0-3.276-3.929Z" transform="translate(615.883 409.629)" opacity="0.1"/>
      <path id="Path_1364" data-name="Path 1364" d="M276.21,619.22v3.422a3.269,3.269,0,0,0,3.09,3.422h53.047a3.269,3.269,0,0,0,3.09-3.422V619.22Z" transform="translate(816.29 439.193)" fill="#c8cad7"/>
      <path id="Path_1366" data-name="Path 1366" d="M335.437,195.31a3.09,3.09,0,0,0-3.09-3.09H279.3a3.09,3.09,0,0,0-3.09,3.09v38.169h59.227Z" transform="translate(816.29 825.6)" fill="#474157"/>
      <rect id="Rectangle_2047" data-name="Rectangle 2047" width="55.994" height="35.84" rx="16" transform="translate(1094.116 1020.767)" fill="#ededf4"/>
      <circle id="Ellipse_128" data-name="Ellipse 128" cx="0.713" cy="0.713" r="0.713" transform="translate(1121.4 1018.581)" fill="#fff"/>
      <circle id="Ellipse_129" data-name="Ellipse 129" cx="1.759" cy="1.759" r="1.759" transform="translate(1120.355 1060.22)" fill="#fff"/>
      <path id="Path_1367" data-name="Path 1367" d="M349.2,224.741H293.21a1.521,1.521,0,0,1,1.521-1.521h52.952A1.521,1.521,0,0,1,349.2,224.741Z" transform="translate(800.906 797.546)" fill="#c8cad7"/>
      <circle id="Ellipse_130" data-name="Ellipse 130" cx="0.38" cy="0.38" r="0.38" transform="translate(1095.257 1021.147)" fill="#ededf4"/>
      <circle id="Ellipse_131" data-name="Ellipse 131" cx="0.38" cy="0.38" r="0.38" transform="translate(1096.397 1021.147)" fill="#ededf4"/>
      <circle id="Ellipse_132" data-name="Ellipse 132" cx="0.38" cy="0.38" r="0.38" transform="translate(1097.538 1021.147)" fill="#ededf4"/>
      <rect id="Rectangle_2048" data-name="Rectangle 2048" width="14.355" height="0.856" transform="translate(1096.207 1023.572)"/>
      <rect id="Rectangle_2049" data-name="Rectangle 2049" width="14.355" height="0.856" transform="translate(1096.207 1048.574)"/>
      <rect id="Rectangle_2050" data-name="Rectangle 2050" width="26.619" height="0.856" transform="translate(1096.207 1050.475)" opacity="0.2"/>
      <rect id="Rectangle_2051" data-name="Rectangle 2051" width="26.619" height="0.856" transform="translate(1096.207 1051.712)" opacity="0.2"/>
      <rect id="Rectangle_2052" data-name="Rectangle 2052" width="26.619" height="0.856" transform="translate(1096.207 1052.948)" opacity="0.2"/>
      <rect id="Rectangle_2053" data-name="Rectangle 2053" width="26.429" height="14.355" transform="translate(1096.207 1025.854)" opacity="0.2"/>
      <rect id="Rectangle_2054" data-name="Rectangle 2054" width="6.179" height="5.704" transform="translate(1096.493 1041.539)" opacity="0.2"/>
      <rect id="Rectangle_2055" data-name="Rectangle 2055" width="6.179" height="5.704" transform="translate(1116.457 1041.539)" opacity="0.2"/>
      <rect id="Rectangle_2056" data-name="Rectangle 2056" width="6.179" height="5.704" transform="translate(1106.332 1041.539)" opacity="0.2"/>
      <rect id="Rectangle_2057" data-name="Rectangle 2057" width="18.189" height="13.388" transform="translate(1128.277 1030.029)" opacity="0.2"/>
      <rect id="Rectangle_2058" data-name="Rectangle 2058" width="14.355" height="0.856" transform="translate(1130.194 1032.745)" fill="#ededf4"/>
      <rect id="Rectangle_2059" data-name="Rectangle 2059" width="14.355" height="0.856" transform="translate(1130.194 1034.521)" fill="#ededf4"/>
      <rect id="Rectangle_2060" data-name="Rectangle 2060" width="14.355" height="0.856" transform="translate(1130.194 1036.295)" fill="#ededf4"/>
      <rect id="Rectangle_2061" data-name="Rectangle 2061" width="14.355" height="0.856" transform="translate(1130.194 1038.069)" fill="#ededf4"/>
      <rect id="Rectangle_2062" data-name="Rectangle 2062" width="14.355" height="0.856" transform="translate(1130.194 1039.845)" fill="#ededf4"/>
      <rect id="Rectangle_2063" data-name="Rectangle 2063" width="13.753" height="2.408" transform="translate(1130.495 1044.938)"/>
      <rect id="Rectangle_2064" data-name="Rectangle 2064" width="9.222" height="1.615" transform="translate(1129.76 1052.961)"/>
      <path id="Path_1386" data-name="Path 1386" d="M706.779,439.993a.672.672,0,0,1-.179-.475c0-.045-.007-.088-.009-.13a.477.477,0,0,0,.132-.12c.225-.319-.313-1.478-.313-1.478a1.833,1.833,0,0,0,0-1.126,2.461,2.461,0,0,0-.3-.622s-.7-1.445-.6-1.616a2.409,2.409,0,0,0-.658-2.128,1.957,1.957,0,0,0-.26-1.046,8.8,8.8,0,0,1-.625-1.73,10.585,10.585,0,0,0-.625-1.616,1.809,1.809,0,0,0-.38-.391,4.285,4.285,0,0,0-.135-1.933,3.433,3.433,0,0,1,.2-1.583,1.916,1.916,0,0,0-.323-1.763c-.434-.457-1.108-.543-1.648-.856-.475-.275-.9-.74-1.453-.731a1.5,1.5,0,0,0-.782.223c-.649.264-1.379.184-2.039.4-.593.2-1.347.843-1.167,1.529a.75.75,0,0,0,.219.407.492.492,0,0,0,.461.083.06.06,0,0,1-.007.033,1.771,1.771,0,0,0-.023.285,1.878,1.878,0,0,0,1.895,1.848c.006.022.01.045.016.068.014.061.028.122.041.184-.049.066-.1.131-.149.2a1.908,1.908,0,0,0-.285.507c-.549.112-1.471.294-1.616.531a6.573,6.573,0,0,0-.885,2.621c0,.04.009.1.012.152a9.107,9.107,0,0,0-.55,1.125c-.069.269-.225,1.277-.521,1.512s-.9.991-.816,1.141-.816.336-.816.336-.607.235-.57.42c.01.056-.032.109-.1.161a3.056,3.056,0,0,0-2.251-.034c-.951.482.717.814,1.711.959.164.025.308.044.42.057.008.032.039.061.119.088l.264.1.04-.124c.33.117,1.23.481,1.23.481s.781.127,1.007-.326a4.117,4.117,0,0,1,.637-.76l-.031.1-.658,2.17a7.887,7.887,0,0,0-.989,1.965,3.083,3.083,0,0,1-.416,1.331c-.087.087-.951,2.637-1.406,2.805s-1.059.756-.856.941,1.046.789,1.426.588,1.046.168,1.046.168a2.526,2.526,0,0,1,1.321.165c.007.066.014.137.022.212a8.278,8.278,0,0,0,.27,1.588,1.936,1.936,0,0,1,.19,1.277,31.974,31.974,0,0,0,.38,5.88,7.629,7.629,0,0,1,.434,2.359c-.028.412-.046.823-.048,1.236v.068c0,.023-.016.036-.024.055v.037a3.4,3.4,0,0,0-.151.438s-.448,1.126-.3,1.419a.263.263,0,0,0,.071.083,2.063,2.063,0,0,0,.951.218l-.008.285h.256s.007-.285.024-.641a1.75,1.75,0,0,0,.11-.625,2.558,2.558,0,0,1,.228-1.081s.006-.029.011-.077h0a1.915,1.915,0,0,0,.016-.3,1.047,1.047,0,0,0-.1-.5,1.13,1.13,0,0,1,.019-.307,16.348,16.348,0,0,0-.1-2.015l.295-3.243s.174-2.5.1-3.158a2.085,2.085,0,0,1,.012-.527,16.986,16.986,0,0,0,.19-2.15v-.2a4.445,4.445,0,0,0,1.7.039s.249-.006.58,0c.009.068.018.136.028.2a3.765,3.765,0,0,0,.172.8,1.941,1.941,0,0,1,.19,1.277,31.9,31.9,0,0,0,.38,5.88,7.6,7.6,0,0,1,.435,2.359c-.028.411-.046.822-.048,1.236v.076c-.009.018-.017.036-.025.055s0,.026,0,.037a3.441,3.441,0,0,0-.144.44s-.449,1.127-.3,1.42a.249.249,0,0,0,.071.082,2.05,2.05,0,0,0,.951.218l-.009.285h.256s.007-.285.024-.641a1.749,1.749,0,0,0,.11-.626,2.567,2.567,0,0,1,.224-1.081,1.97,1.97,0,0,0,.028-.371,1.039,1.039,0,0,0-.1-.506,1.168,1.168,0,0,1,.019-.306,16.4,16.4,0,0,0-.1-2.016l.295-3.242s.174-2.5.1-3.158a2.125,2.125,0,0,1,.013-.527,16.934,16.934,0,0,0,.19-2.043v-.2c.063-.077.19-.138.542-.256.608-.2,1.822-1.21,2.308-1.277s.919-.387.78-.639-.9-.42-.833-.806-.469-.622-.711-1.26-1.3-1.141-1.32-1.616a7.589,7.589,0,0,0-1-1.928A12.152,12.152,0,0,1,701,434.672a.36.36,0,0,0-.012-.065H701a1.8,1.8,0,0,1-.036-.228.35.35,0,0,1,.009-.065h-.013v-.043l.021-.013.057-.033-.019.008a1.883,1.883,0,0,0,.315-.257,1.4,1.4,0,0,0,.362-.506,2.563,2.563,0,0,0,.142-.665l.124-.19c.12.5.295,1.22.35,1.38a14.011,14.011,0,0,1,.626,2.088,7.09,7.09,0,0,0,.76,1.966s.885,1.159,1.562,1.209.3.235.4.269l.029.007.01.136.029.395s.694,2.823,1.475,2.419S707.038,440.178,706.779,439.993Z" transform="translate(442.387 618.888)" fill="url(#linear-gradient)"/>
      <path id="Path_1387" data-name="Path 1387" d="M858.951,616.8c-.751.4-1.418-2.4-1.418-2.4L857.5,614l-.054-.742.917.117a2.812,2.812,0,0,0,0,.482.679.679,0,0,0,.172.469C858.784,614.512,859.7,616.4,858.951,616.8Z" transform="translate(290.306 444.587)" fill="#a1616a"/>
      <path id="Path_1388" data-name="Path 1388" d="M754.21,822.138l.064-.048A.339.339,0,0,1,754.21,822.138Z" transform="translate(383.732 255.61)" fill="#a1616a"/>
      <path id="Path_1389" data-name="Path 1389" d="M747.576,660.64V662.8a17.513,17.513,0,0,1-.19,2.136,2.133,2.133,0,0,0-.012.522c.067.651-.095,3.137-.095,3.137l-.285,3.22a15.942,15.942,0,0,1,.095,2,1.212,1.212,0,0,0-.018.305c.01.285.059.651.075.76v.033l-.01.008-1.395,1.064a1.63,1.63,0,0,0,.279-1.111v-.143q0-.613.048-1.226a7.807,7.807,0,0,0-.418-2.342,32.678,32.678,0,0,1-.367-5.838,1.987,1.987,0,0,0-.183-1.268,8.742,8.742,0,0,1-.25-1.575c-.036-.346-.058-.608-.058-.608Z" transform="translate(392.256 401.711)" fill="#a1616a"/>
      <path id="Path_1390" data-name="Path 1390" d="M805.26,817.611l.068-.051A.4.4,0,0,1,805.26,817.611Z" transform="translate(337.535 259.708)" fill="#a1616a"/>
      <path id="Path_1391" data-name="Path 1391" d="M798.6,656.14v2.269a17.469,17.469,0,0,1-.184,2.03,2.137,2.137,0,0,0-.012.522c.067.651-.1,3.137-.1,3.137l-.285,3.22a16.788,16.788,0,0,1,.1,2,1.162,1.162,0,0,0-.018.3c.01.285.06.657.075.761a.083.083,0,0,0,0,.031l-.01.008h0l-1.4,1.064a1.665,1.665,0,0,0,.271-1.1v-.144c0-.409.019-.818.047-1.226a7.828,7.828,0,0,0-.418-2.341,32.582,32.582,0,0,1-.367-5.838,1.987,1.987,0,0,0-.183-1.268,3.81,3.81,0,0,1-.166-.794c-.088-.635-.151-1.391-.151-1.391Z" transform="translate(346.087 405.783)" fill="#a1616a"/>
      <path id="Path_1392" data-name="Path 1392" d="M781.108,451.1l-.014.022a1.831,1.831,0,0,1-1.269.761,1.577,1.577,0,0,1-.223.015c-.006-.023-.01-.046-.016-.067-.109-.475-.225-.856-.225-.856s.124-.18.306-.409c.493-.624,1.4-1.609,1.331-.292a2.262,2.262,0,0,0,.1.79A.108.108,0,0,1,781.108,451.1Z" transform="translate(360.973 592.667)" opacity="0.1"/>
      <path id="Path_1393" data-name="Path 1393" d="M766.25,436.035a1.834,1.834,0,0,1-1.609,1.821,1.793,1.793,0,0,1-.226.014H764.4a1.835,1.835,0,1,1,1.849-1.835Z" transform="translate(376.157 606.624)" fill="#a1616a"/>
      <path id="Path_1394" data-name="Path 1394" d="M783.178,455.329l-1.78,1.521s-1.94-2.768-1.711-3.336a1.911,1.911,0,0,0,.018-.845c-.026-.19-.063-.4-.1-.6-.012-.062-.026-.123-.039-.182-.006-.023-.01-.046-.016-.068-.109-.475-.225-.856-.225-.856s.125-.18.306-.409c.493-.624,1.4-1.609,1.331-.292a2.26,2.26,0,0,0,.1.79.128.128,0,0,0,.014.045,4.091,4.091,0,0,0,1.342,1.783,5.315,5.315,0,0,0,.613.435Z" transform="translate(361.009 592.677)" fill="#a1616a"/>
      <path id="Path_1395" data-name="Path 1395" d="M744.79,661.866l2.786-1.236v2.163a.965.965,0,0,1-.181-.085,1.685,1.685,0,0,0-1.284-.076,1.46,1.46,0,0,1-1.185-.117c-.026-.015-.051-.029-.076-.042C744.81,662.128,744.79,661.866,744.79,661.866Z" transform="translate(392.256 401.719)" opacity="0.1"/>
      <path id="Path_1396" data-name="Path 1396" d="M798.663,656.14v2.269a1.012,1.012,0,0,0-.1.21c-.1.234-.784.318-1.385.219a8.543,8.543,0,0,0-1.151-.072c-.088-.635-.151-1.391-.151-1.391Z" transform="translate(346.023 405.783)" opacity="0.1"/>
      <path id="Path_1397" data-name="Path 1397" d="M720.481,498.856c-.468.067-1.635,1.068-2.219,1.268s-.517.233-.617.467-.784.317-1.385.218a12.429,12.429,0,0,0-1.735-.068,3.493,3.493,0,0,1-1.818-.125,1.67,1.67,0,0,0-1.284-.076,1.461,1.461,0,0,1-1.185-.117,2.274,2.274,0,0,0-1.368-.217s-.634-.367-1-.166-1.167-.4-1.368-.584.38-.767.818-.934,1.268-2.7,1.351-2.785a3.081,3.081,0,0,0,.4-1.318,7.879,7.879,0,0,1,.951-1.953l.633-2.154.19-.665.008-.4c0-.179.009-.408.013-.665.017-1.065.035-2.644,0-3.358-.006-.11-.011-.2-.019-.264a6.62,6.62,0,0,1,.851-2.6c.137-.237,1.023-.416,1.551-.528a3.367,3.367,0,0,0,.373-.089.437.437,0,0,1,.146-.011c.5.02,1.967.328,1.967.328-.133,4.02.134,3.32.134,3.32.433-.334.166-3.286.166-3.286.217.1.438-.151.438-.151l.846.351a8.356,8.356,0,0,1,.746.5,2.252,2.252,0,0,1,.522.513,10.68,10.68,0,0,1,.6,1.6l-.3.475c-.262.421-.666,1.069-1.079,1.724l-.734,1.168c-.328.521-.6.944-.706,1.116a.415.415,0,0,0-.052.134.693.693,0,0,0-.012.1,1.5,1.5,0,0,0,.039.4,12.263,12.263,0,0,0,1.16,2.629,7.75,7.75,0,0,1,.968,1.917c.017.467,1.034.968,1.268,1.6s.75.867.683,1.251.666.55.8.8S720.947,498.789,720.481,498.856Z" transform="translate(426.942 563.613)" fill="#565387"/>
      <path id="Path_1398" data-name="Path 1398" d="M858.365,613.859a1.447,1.447,0,0,1-.861.144l-.054-.742.917.117A2.806,2.806,0,0,0,858.365,613.859Z" transform="translate(290.306 444.587)" opacity="0.1"/>
      <path id="Path_1399" data-name="Path 1399" d="M820.4,510.09l.684.484a8.884,8.884,0,0,0,.6,1.718,1.986,1.986,0,0,1,.25,1.034,3.627,3.627,0,0,1,.267.334,4.036,4.036,0,0,1,.367,1.78,6.383,6.383,0,0,0,.576,1.607,2.172,2.172,0,0,1,.292.617,1.905,1.905,0,0,1,0,1.118s.517,1.151.3,1.468-.918.285-1.018.25.267-.217-.38-.267-1.5-1.2-1.5-1.2a7.17,7.17,0,0,1-.734-1.952,14.36,14.36,0,0,0-.6-2.069c-.084-.25-.451-1.868-.451-1.868Z" transform="translate(325.056 537.949)" fill="#565387"/>
      <path id="Path_1400" data-name="Path 1400" d="M774.437,510.09s-.05,3.87-.517,4.637Z" transform="translate(365.896 537.949)" opacity="0.1"/>
      <path id="Path_1401" data-name="Path 1401" d="M799.786,524.48s-.434,3.87-.776,4.07S799.786,524.48,799.786,524.48Z" transform="translate(343.25 524.927)" opacity="0.1"/>
      <path id="Path_1402" data-name="Path 1402" d="M793.566,518.69s-.105,3.65-.656,4.01S793.566,518.69,793.566,518.69Z" transform="translate(348.841 530.166)" opacity="0.1"/>
      <path id="Path_1403" data-name="Path 1403" d="M744.874,591.33a10.863,10.863,0,0,0-.612,2.852C744.339,595.016,744.874,591.33,744.874,591.33Z" transform="translate(392.74 464.431)" opacity="0.1"/>
      <path id="Path_1404" data-name="Path 1404" d="M758.195,556.676a7.578,7.578,0,0,1-5.495-.771c0-.179.009-.408.013-.665.816.449,3.107,1.616,4.273,1.289.582-.166.951-.272,1.182-.34A1.254,1.254,0,0,0,758.195,556.676Z" transform="translate(385.098 497.09)" opacity="0.1"/>
      <path id="Path_1405" data-name="Path 1405" d="M758.195,554.576a7.588,7.588,0,0,1-5.495-.771c0-.179.009-.409.013-.665.816.449,3.107,1.616,4.273,1.289.582-.165.951-.272,1.182-.339A1.257,1.257,0,0,0,758.195,554.576Z" transform="translate(385.098 498.991)" opacity="0.1"/>
      <path id="Path_1406" data-name="Path 1406" d="M758.195,555.326a7.587,7.587,0,0,1-5.495-.771c0-.179.009-.408.013-.665.816.449,3.107,1.616,4.273,1.289.582-.165.951-.272,1.182-.339A1.256,1.256,0,0,0,758.195,555.326Z" transform="translate(385.098 498.313)" fill="#605d82"/>
      <path id="Path_1407" data-name="Path 1407" d="M758.195,555.326a7.587,7.587,0,0,1-5.495-.771c0-.179.009-.408.013-.665.816.449,3.107,1.616,4.273,1.289.582-.165.951-.272,1.182-.339A1.256,1.256,0,0,0,758.195,555.326Z" transform="translate(385.098 498.313)" opacity="0.1"/>
      <path id="Path_1408" data-name="Path 1408" d="M756.28,800.979a.152.152,0,0,1-.006.041l-1.395,1.064a1.63,1.63,0,0,0,.279-1.111v-.143a2.816,2.816,0,0,1,.515-.823.428.428,0,0,1,.475.107v.03a.446.446,0,0,1,.049.074A1.353,1.353,0,0,1,756.28,800.979Z" transform="translate(383.126 275.617)" opacity="0.1"/>
      <path id="Path_1409" data-name="Path 1409" d="M758.452,801.076l-1.052.722s.007-.085.016-.209a2.879,2.879,0,0,1,.539-.879.43.43,0,0,1,.475.107C758.439,800.973,758.452,801.076,758.452,801.076Z" transform="translate(380.845 274.979)" opacity="0.1"/>
      <path id="Path_1410" data-name="Path 1410" d="M754.284,802a2.625,2.625,0,0,0-.219,1.074,1.658,1.658,0,0,1-.223.866.743.743,0,0,1-.073.106,2.164,2.164,0,0,1-.987-.218.25.25,0,0,1-.07-.081c-.146-.292.285-1.41.285-1.41a3.1,3.1,0,0,1,.686-1.322C754.5,800.8,754.284,802,754.284,802Z" transform="translate(385.115 274.705)" fill="#5a5773"/>
      <path id="Path_1411" data-name="Path 1411" d="M754.8,816.783a.738.738,0,0,1-.073.106,2.164,2.164,0,0,1-.987-.218c.125-.416.528-1.676.715-1.462A4.834,4.834,0,0,1,754.8,816.783Z" transform="translate(384.157 261.859)" opacity="0.1"/>
      <path id="Path_1412" data-name="Path 1412" d="M763.35,815.309l-.05,1.888h.245a12.953,12.953,0,0,1,.149-1.888C763.8,815.077,763.35,815.309,763.35,815.309Z" transform="translate(375.506 261.839)" fill="#5a5773"/>
      <path id="Path_1413" data-name="Path 1413" d="M807.394,796.481l-.006.039h0L806,797.577a1.665,1.665,0,0,0,.271-1.1v-.144a2.812,2.812,0,0,1,.514-.822.44.44,0,0,1,.48.106v.031a.4.4,0,0,1,.049.073A1.381,1.381,0,0,1,807.394,796.481Z" transform="translate(336.865 279.689)" opacity="0.1"/>
      <path id="Path_1414" data-name="Path 1414" d="M809.5,796.568l-1.052.723s.007-.085.017-.209a2.852,2.852,0,0,1,.538-.879.432.432,0,0,1,.48.107C809.489,796.466,809.5,796.568,809.5,796.568Z" transform="translate(334.648 279.059)" opacity="0.1"/>
      <path id="Path_1415" data-name="Path 1415" d="M805.356,797.5a2.61,2.61,0,0,0-.22,1.074,1.656,1.656,0,0,1-.223.866.82.82,0,0,1-.073.105,2.164,2.164,0,0,1-.987-.218.262.262,0,0,1-.068-.082c-.145-.292.285-1.41.285-1.41a3.1,3.1,0,0,1,.686-1.322C805.574,796.3,805.356,797.5,805.356,797.5Z" transform="translate(338.897 278.779)" fill="#5a5773"/>
      <path id="Path_1416" data-name="Path 1416" d="M805.85,812.3a.836.836,0,0,1-.073.106,2.164,2.164,0,0,1-.987-.218c.125-.416.528-1.677.715-1.463A4.822,4.822,0,0,1,805.85,812.3Z" transform="translate(337.96 265.911)" opacity="0.1"/>
      <path id="Path_1417" data-name="Path 1417" d="M814.4,810.809l-.051,1.887h.245a12.931,12.931,0,0,1,.149-1.887C814.855,810.577,814.4,810.809,814.4,810.809Z" transform="translate(329.309 265.911)" fill="#5a5773"/>
      <path id="Path_1418" data-name="Path 1418" d="M769.983,442.873a1.181,1.181,0,0,1-.726,1.124c-.133.041-.275.05-.411.078a.879.879,0,0,0-.19.058,1.028,1.028,0,0,0-.5.782c-.021.108-.034.218-.047.328a2.357,2.357,0,0,1-.13.615,1.557,1.557,0,0,1-.641.73,4.126,4.126,0,0,1-1.064.445,2.391,2.391,0,0,0,.285-1.987c-.061-.195-.19-.413-.4-.407-.161,0-.276.147-.4.256-.589.53-1.512.294-2.258.027a4.8,4.8,0,0,0,.9-5.266,1.735,1.735,0,0,1-.164-.425.885.885,0,0,1,.041-.439,1.948,1.948,0,0,1,.27-.5c.047-.066.1-.13.145-.2.064-.086.127-.174.184-.264a1.453,1.453,0,0,0,.19-.412.7.7,0,0,0-.347-.842l-.017-.007a1.111,1.111,0,0,1-.689-.418c-.158-.184-.247-.475-.517-.53a1.555,1.555,0,0,0-.657.106,1.836,1.836,0,1,1,3.308,1.347,4.044,4.044,0,0,0,1.357,1.828l.846.351a8.39,8.39,0,0,1,.746.5,10.916,10.916,0,0,0,.538,1.739,6.136,6.136,0,0,1,.285.856A2.1,2.1,0,0,1,769.983,442.873Z" transform="translate(375.913 606.652)" opacity="0.1"/>
      <path id="Path_1419" data-name="Path 1419" d="M758.3,425.994a.7.7,0,0,1,.364.849,2.839,2.839,0,0,1-.516.872,1.3,1.3,0,0,0-.312.942,1.739,1.739,0,0,0,.164.425,4.81,4.81,0,0,1-.9,5.266c.746.267,1.669.5,2.258-.027.12-.108.235-.251.4-.256.2-.007.337.212.4.407a2.389,2.389,0,0,1-.285,1.986,2.4,2.4,0,0,0,1.705-1.174,5.024,5.024,0,0,0,.177-.944,1.026,1.026,0,0,1,.5-.781,4.933,4.933,0,0,1,.6-.136,1.18,1.18,0,0,0,.726-1.124,3.666,3.666,0,0,0-.342-1.378c-.951-2.472-.057-.492-.578-3.466a3.51,3.51,0,0,1,.2-1.571,1.955,1.955,0,0,0-.311-1.751c-.417-.454-1.066-.539-1.584-.847-.459-.274-.863-.735-1.4-.726a1.4,1.4,0,0,0-.752.221c-.625.262-1.325.184-1.96.4-.57.2-1.295.837-1.122,1.521.233.921.872.243,1.37.347.27.057.359.344.517.53A1.142,1.142,0,0,0,758.3,425.994Z" transform="translate(382.387 617.159)" fill="#4a4347"/>
      <path id="Path_1420" data-name="Path 1420" d="M695.738,565.118s-.27-.028-.633-.085c-.951-.144-2.558-.475-1.644-.951a3.343,3.343,0,0,1,2.673.232,5.926,5.926,0,0,1,.563.285Z" transform="translate(438.952 489.271)" fill="#a1616a"/>
      <path id="Path_1421" data-name="Path 1421" d="M752.7,493.735a25.535,25.535,0,0,1-.65,2.669c-.217.482-.57,1.752-.57,1.752s-.512.464-.935.914l.19-.665.008-.4c0-.179.009-.408.013-.666.017-1.065.035-2.644,0-3.358.037-.069.061-.112.061-.112l.338-.535a12.269,12.269,0,0,1,.867-1.885C752.333,491.035,752.7,493.735,752.7,493.735Z" transform="translate(387.053 554.854)" opacity="0.1"/>
      <path id="Path_1422" data-name="Path 1422" d="M715.433,567.089s-.049.19-.13.447c-.1-.042-.19-.075-.254-.1-.285-.1.05-.217-.033-.467-.071-.215-.2-.147-.356-.207a4.154,4.154,0,0,1,.322-.387Z" transform="translate(419.522 487.01)" opacity="0.1"/>
      <path id="Path_1423" data-name="Path 1423" d="M719.96,493.337l-.337.535a10.1,10.1,0,0,0-.53,1.112c-.071.263-.214,1.271-.5,1.5s-.868.984-.784,1.134-.784.334-.784.334-.584.234-.55.417-.484.334-.3.467.351,0,.434.25-.251.368.033.468,1.218.491,1.218.491.75.126.967-.324a10.076,10.076,0,0,1,1.452-1.568,18.025,18.025,0,0,1,.57-1.752,24.777,24.777,0,0,0,.651-2.669s-.351-2.7-.666-2.282A12.873,12.873,0,0,0,719.96,493.337Z" transform="translate(418.188 554.852)" fill="#565387"/>
      <path id="Path_1424" data-name="Path 1424" d="M736.589,556.94s-1.651.217-.767.584,1.185,0,1.185,0Z" transform="translate(400.608 495.552)" opacity="0.1"/>
      <path id="Path_1425" data-name="Path 1425" d="M724.79,566.445s.968-.2,1.218,0S724.79,566.445,724.79,566.445Z" transform="translate(410.355 487.031)" opacity="0.1"/>
      <path id="Path_1426" data-name="Path 1426" d="M723.74,571.852s.067-.167.4,0S723.74,571.852,723.74,571.852Z" transform="translate(411.305 482.127)" opacity="0.1"/>
      <path id="Path_1427" data-name="Path 1427" d="M838.58,589.32s.1,1.521.51,1.57S838.58,589.32,838.58,589.32Z" transform="translate(307.383 466.252)" opacity="0.1"/>
      <path id="Path_1428" data-name="Path 1428" d="M843.083,553.1a.475.475,0,0,1-.366.549C842.281,553.732,843.083,553.1,843.083,553.1Z" transform="translate(303.756 499.027)" opacity="0.1"/>
      <path id="Path_1429" data-name="Path 1429" d="M795.85,600.69s-.022,4.693.935,5.271Z" transform="translate(346.051 455.963)" opacity="0.1"/>
      <path id="Path_1430" data-name="Path 1430" d="M809.18,602.8s-.017,4.692.934,5.271Z" transform="translate(333.988 454.052)" opacity="0.1"/>
      <path id="Path_1431" data-name="Path 1431" d="M755.72,709.546a3.5,3.5,0,0,1,.651,0C756.733,709.576,755.72,709.546,755.72,709.546Z" transform="translate(382.365 357.468)" opacity="0.1"/>
      <path id="Path_1432" data-name="Path 1432" d="M755.72,713a3.506,3.506,0,0,1,.651,0C756.733,713.03,755.72,713,755.72,713Z" transform="translate(382.365 354.345)" opacity="0.1"/>
      <path id="Path_1433" data-name="Path 1433" d="M807.77,705.5a3.516,3.516,0,0,1,.651,0C808.783,705.53,807.77,705.5,807.77,705.5Z" transform="translate(335.264 361.134)" opacity="0.1"/>
      <path id="Path_1434" data-name="Path 1434" d="M808.94,708.256a3.517,3.517,0,0,1,.651,0C809.953,708.29,808.94,708.256,808.94,708.256Z" transform="translate(334.205 358.635)" opacity="0.1"/>
      <path id="Path_1435" data-name="Path 1435" d="M757.644,440.6a4.8,4.8,0,0,0,.9-5.266,1.736,1.736,0,0,1-.164-.425,1.3,1.3,0,0,1,.312-.942,2.8,2.8,0,0,0,.516-.872.694.694,0,0,0-.364-.848,1.113,1.113,0,0,1-.689-.419c-.158-.184-.247-.475-.517-.529-.5-.1-1.141.57-1.37-.348a1.3,1.3,0,0,1,.694-1.3c-.552.229-1.191.837-1.028,1.481.233.921.872.244,1.37.348.27.056.359.344.517.529a1.115,1.115,0,0,0,.689.419.693.693,0,0,1,.364.848,2.835,2.835,0,0,1-.516.872,1.3,1.3,0,0,0-.312.943,1.743,1.743,0,0,0,.164.424,4.81,4.81,0,0,1-.9,5.266,2.367,2.367,0,0,0,2.186.029A2.961,2.961,0,0,1,757.644,440.6Z" transform="translate(382.197 610.742)"/>
      <path id="Path_1436" data-name="Path 1436" d="M826.5,535.3a.655.655,0,0,0-.19.131c.15-.037.309-.042.456-.088a.856.856,0,0,0,.31-.173A3.767,3.767,0,0,0,826.5,535.3Z" transform="translate(318.486 515.254)"/>
      <path id="Path_1437" data-name="Path 1437" d="M799.949,543.991a5.27,5.27,0,0,1-.723.261,2.389,2.389,0,0,0,.285-1.986c-.06-.19-.19-.414-.4-.408a.507.507,0,0,0-.316.181c.19.007.32.218.38.407a2.389,2.389,0,0,1-.285,1.986A4.182,4.182,0,0,0,799.949,543.991Z" transform="translate(343.381 509.2)"/>
    </g>
  </g>
</svg>
