<svg xmlns="http://www.w3.org/2000/svg" xmlns:xlink="http://www.w3.org/1999/xlink" width="388" height="102" viewBox="0 0 388 102">
  <defs>
    <filter id="Rectangle_2114" x="0" y="0" width="388" height="102" filterUnits="userSpaceOnUse">
      <feOffset dy="3" input="SourceAlpha"/>
      <feGaussianBlur stdDeviation="3" result="blur"/>
      <feFlood flood-opacity="0.161"/>
      <feComposite operator="in" in2="blur"/>
      <feComposite in="SourceGraphic"/>
    </filter>
  </defs>
  <g id="Group_2787" data-name="Group 2787" transform="translate(-131 -3801)">
    <g transform="matrix(1, 0, 0, 1, 131, 3801)" filter="url(#Rectangle_2114)">
      <rect id="Rectangle_2114-2" data-name="Rectangle 2114" width="370" height="84" rx="5" transform="translate(9 6)" fill="#fff"/>
    </g>
    <g id="Group_2580" data-name="Group 2580" transform="translate(-1248 2845.699)">
      <path id="path" d="M58.335,1017.3l-5.247,4.567,1.555,6.8-6.025-3.693-6.025,3.693,1.555-6.8L38.9,1017.3l7-.583,2.721-6.414,2.721,6.414Zm-9.62,5.928,3.693,2.138-.972-4.178,3.207-2.818-4.276-.389-1.652-3.887-1.652,3.887-4.276.389,3.207,2.818-.972,4.178Z" transform="translate(1386.101 -16)"/>
    </g>
    <g id="Group_2579" data-name="Group 2579" transform="translate(-1218 2845.699)">
      <path id="path-2" data-name="path" d="M58.335,1017.3l-5.247,4.567,1.555,6.8-6.025-3.693-6.025,3.693,1.555-6.8L38.9,1017.3l7-.583,2.721-6.414,2.721,6.414Zm-9.62,5.928,3.693,2.138-.972-4.178,3.207-2.818-4.276-.389-1.652-3.887-1.652,3.887-4.276.389,3.207,2.818-.972,4.178Z" transform="translate(1386.101 -16)"/>
    </g>
    <g id="Group_2581" data-name="Group 2581" transform="translate(-1187 2845.699)">
      <path id="path-3" data-name="path" d="M58.335,1017.3l-5.247,4.567,1.555,6.8-6.025-3.693-6.025,3.693,1.555-6.8L38.9,1017.3l7-.583,2.721-6.414,2.721,6.414Zm-9.62,5.928,3.693,2.138-.972-4.178,3.207-2.818-4.276-.389-1.652-3.887-1.652,3.887-4.276.389,3.207,2.818-.972,4.178Z" transform="translate(1386.101 -16)"/>
    </g>
  </g>
</svg>
