<svg xmlns="http://www.w3.org/2000/svg" width="39.36" height="29.645" viewBox="0 0 39.36 29.645">
  <path id="Path_619" data-name="Path 619" d="M671.5,683.773a19.829,19.829,0,0,0,10.741,3.149c13.006,0,20.356-10.988,19.914-20.843a14.243,14.243,0,0,0,3.5-3.625,14.052,14.052,0,0,1-4.024,1.1,7.01,7.01,0,0,0,3.079-3.877,14.008,14.008,0,0,1-4.446,1.7,7.011,7.011,0,0,0-11.941,6.389,19.889,19.889,0,0,1-14.441-7.32,7.017,7.017,0,0,0,2.168,9.353,6.97,6.97,0,0,1-3.173-.876,7.014,7.014,0,0,0,5.618,6.958,7,7,0,0,1-3.161.12,7.006,7.006,0,0,0,6.544,4.865A14.08,14.08,0,0,1,671.5,683.773Z" transform="translate(-668.357 -658.026)" fill="none" stroke="#bfbfbf" stroke-miterlimit="10" stroke-width="1.5"/>
</svg>
