<svg id="surface1" xmlns="http://www.w3.org/2000/svg" width="65.082" height="46.487" viewBox="0 0 65.082 46.487">
  <path id="Path_5455" data-name="Path 5455" d="M34.541,7a20.615,20.615,0,0,0-15.326,7.118,7.6,7.6,0,0,0-.944-.145,9.327,9.327,0,0,0-9.3,9.3A13.716,13.716,0,0,0,2,34.892,13.985,13.985,0,0,0,15.946,48.838H27.568V44.19H15.946a9.3,9.3,0,0,1-3.632-17.868l1.6-.654-.218-1.743c-.045-.381-.073-.6-.073-.654a4.612,4.612,0,0,1,4.649-4.649,4.507,4.507,0,0,1,1.09.145l1.453.363.872-1.162A16.25,16.25,0,0,1,50.3,23.924l.436,1.816,1.961-.073c.49-.027.6-.073.436-.073a9.3,9.3,0,1,1,0,18.595H41.514v4.649H53.136a13.85,13.85,0,0,0,.944-27.674A20.76,20.76,0,0,0,34.541,7Zm0,18.595-9.3,9.3h6.973V53.487h4.649V34.892h6.973Z" transform="translate(-2 -7)" fill="#88989b"/>
</svg>
