<svg xmlns="http://www.w3.org/2000/svg" width="553.244" height="458.508" viewBox="0 0 553.244 458.508">
  <path id="Path_6241" data-name="Path 6241" d="M427.171,45.2c-18.767-21.093-48.232-25.413-75.055-23.71-84.237,5.286-160.268,56.538-226.056,114.524-23.814,21-47.26,43.615-62.714,72.529-31.467,58.844-22.13,140.37,21.622,188.845,14.886,16.519,32.931,29.143,51.455,40.35,32.941,19.93,68.484,35.928,105.869,40.483,26.659,3.247,53.647.6,80.151-3.926,74.053-12.656,146.742-40.661,207.663-88.546,26.719-20.979,51.9-47.116,62.918-81.1s3.986-77.046-23.321-97.155c-11.284-8.323-24.776-12.071-37.983-15.61-19.43-5.191-39.2-10.311-56.746-20.864-18.12-10.909-39.578-32-35.99-56.125C442.834,88.991,445.933,66.253,427.171,45.2Z" transform="translate(-44.761 -21.152)" fill="#eff1f1" opacity="0.562"/>
</svg>
