<svg id="Group_3085" data-name="Group 3085" xmlns="http://www.w3.org/2000/svg" width="286.814" height="169.27" viewBox="0 0 286.814 169.27">
  <g id="Group_3082" data-name="Group 3082" transform="translate(1.368 36.56)">
    <path id="Path_5425" data-name="Path 5425" d="M488.01,435.467c-.028-.111-.065-.214-.1-.325a27.639,27.639,0,0,0-5.446-9.393v-.009a27.294,27.294,0,0,0,4.208-7.643c.037-.112.075-.214.111-.326a27.725,27.725,0,0,0,.149-17.706c-.028-.112-.065-.215-.1-.326a27.764,27.764,0,0,0-17.492-17.37H414.719v70.8l-17.706-17.706-3.351-3.351a26.77,26.77,0,0,0-8.155-49.747H330.3v65.61a27.4,27.4,0,0,1-9.673,5.195,27.587,27.587,0,0,1-25.339-4.99V382.368H277.6v71.121a44.253,44.253,0,0,0,70.4-.1c.056-.074.112-.139.168-.214H348V400.065h42.924a13.381,13.381,0,0,1-.391,17.706H354.275l2.095,2.094.149.149,33.159,33.159,17.7,17.7h61.571a27.4,27.4,0,0,0,6.153-2.5,27.762,27.762,0,0,0,12.66-14.867c.037-.112.074-.214.112-.326A27.59,27.59,0,0,0,489.4,444.1,27.3,27.3,0,0,0,488.01,435.467Zm-55.594-35.4h39.024a13.868,13.868,0,0,1-.382,17.706H432.416Zm0,53.108V435.467h40.1a13.883,13.883,0,0,1-.372,17.706Z" transform="translate(-277.596 -379.836)" fill="#fff"/>
    <path id="Path_5426" data-name="Path 5426" d="M674.91,379.971v88.5h-5.139l-12.558-12.558-5.139-5.139L634.369,433.07l-11.822-11.823v47.225H604.841V378.509l1.461,1.461,17.7,17.7L641.7,415.373l15.509,15.509V379.971Z" transform="translate(-390.098 -378.509)" fill="#fff"/>
  </g>
  <g id="Group_3083" data-name="Group 3083" transform="translate(110.352 0)">
    <path id="Path_5427" data-name="Path 5427" d="M467.97,326.938h-7.864v-3.895h20.371v3.895h-7.864v22.319H467.97Z" transform="translate(-460.106 -323.043)" fill="#fff"/>
    <path id="Path_5428" data-name="Path 5428" d="M485.065,323.043h4.642v10.41h11.834v-10.41h4.644v26.213h-4.644V337.348H489.707v11.908h-4.642Z" transform="translate(-461.099 -323.043)" fill="#fff"/>
    <path id="Path_5429" data-name="Path 5429" d="M513.065,323.043h16.926v3.895H517.709v6.89h10.972v3.894H517.709v7.639h12.62v3.894H513.065Z" transform="translate(-462.214 -323.043)" fill="#fff"/>
  </g>
  <g id="Group_3084" data-name="Group 3084" transform="translate(0 149.268)">
    <path id="Path_5430" data-name="Path 5430" d="M275.511,550.77H288v2.874h-9.062v5.635h8.1v2.873h-8.1v7.956h-3.425Z" transform="translate(-275.511 -550.438)" fill="#fff"/>
    <path id="Path_5431" data-name="Path 5431" d="M306.01,550.77l7.1,19.339h-3.674l-1.519-4.42h-7.874l-1.492,4.42h-3.675l7.1-19.339Zm-4.973,12.046h5.912l-2.956-8.7Z" transform="translate(-282.168 -550.438)" fill="#fff"/>
    <path id="Path_5432" data-name="Path 5432" d="M336.205,564.852c0-1.768-.967-2.514-4.641-3.536-4.2-1.16-5.857-2.984-5.857-5.829,0-3.121,2.293-5.221,6.326-5.221a8.984,8.984,0,0,1,6.907,3.066l-2.375,1.824a5.771,5.771,0,0,0-4.282-1.961c-2.1,0-3.094.884-3.094,2.21,0,1.354.774,2.238,3.95,3.121,4.531,1.271,6.548,2.845,6.548,6.105,0,3.454-2.6,5.636-6.768,5.636a10.593,10.593,0,0,1-8.067-3.4l2.486-1.934a7.018,7.018,0,0,0,5.388,2.4C334.825,567.338,336.205,566.316,336.205,564.852Z" transform="translate(-292.474 -550.265)" fill="#fff"/>
    <path id="Path_5433" data-name="Path 5433" d="M352.469,550.77h3.425v7.68h8.73v-7.68h3.425v19.339h-3.425v-8.785h-8.73v8.785h-3.425Z" transform="translate(-301.968 -550.438)" fill="#fff"/>
    <path id="Path_5434" data-name="Path 5434" d="M386.332,550.77v19.339h-3.426V550.77Z" transform="translate(-312.432 -550.438)" fill="#fff"/>
    <path id="Path_5435" data-name="Path 5435" d="M402.285,570.267c-5.608,0-8.9-4.365-8.9-10s3.288-10,8.9-10,8.9,4.365,8.9,10S407.893,570.267,402.285,570.267Zm0-17.073c-3.315,0-5.414,2.735-5.414,7.072s2.1,7.073,5.414,7.073,5.415-2.735,5.415-7.073S405.6,553.194,402.285,553.194Z" transform="translate(-316.036 -550.265)" fill="#fff"/>
    <path id="Path_5436" data-name="Path 5436" d="M425.553,550.77h3.315l8.9,13.648V550.77h3.426v19.339h-3.315l-8.9-13.647v13.647h-3.426Z" transform="translate(-327.093 -550.438)" fill="#fff"/>
    <path id="Path_5437" data-name="Path 5437" d="M468.494,550.77h12.487v2.874h-9.062v5.083h8.1V561.6h-8.1v5.636h9.31v2.873H468.494Z" transform="translate(-341.856 -550.438)" fill="#fff"/>
    <path id="Path_5438" data-name="Path 5438" d="M498.615,562.733l-4.586,7.376h-3.813l6.3-10.028-5.8-9.31h3.813l4.088,6.6,4.089-6.6h3.813l-5.8,9.31,6.3,10.028H503.2Z" transform="translate(-349.324 -550.438)" fill="#fff"/>
    <path id="Path_5439" data-name="Path 5439" d="M526.1,563.174h-2.984v6.934h-3.426V550.77h6.41c4.641,0,7.487,2.072,7.487,6.216C533.583,561.1,530.737,563.174,526.1,563.174Zm-.193-9.531h-2.79V560.3h2.79c2.79,0,4.2-.995,4.2-3.315C530.1,554.638,528.693,553.644,525.9,553.644Z" transform="translate(-359.455 -550.438)" fill="#fff"/>
    <path id="Path_5440" data-name="Path 5440" d="M545.493,550.77H557.98v2.874h-9.062v5.083h8.095V561.6h-8.095v5.636h9.31v2.873H545.493Z" transform="translate(-368.327 -550.438)" fill="#fff"/>
    <path id="Path_5441" data-name="Path 5441" d="M579.938,561.959l5.194,8.15h-3.757L576.65,562.4h-3.4v7.708h-3.426V550.77h6.741c4.669,0,7.376,1.934,7.376,5.829A5.2,5.2,0,0,1,579.938,561.959Zm-3.343-8.315h-3.343v5.884h3.343c2.679,0,3.868-.884,3.868-2.928S579.274,553.644,576.595,553.644Z" transform="translate(-376.692 -550.438)" fill="#fff"/>
    <path id="Path_5442" data-name="Path 5442" d="M600.827,550.77v19.339H597.4V550.77Z" transform="translate(-386.173 -550.438)" fill="#fff"/>
    <path id="Path_5443" data-name="Path 5443" d="M609.315,550.77H621.8v2.874h-9.062v5.083h8.094V561.6h-8.094v5.636h9.311v2.873H609.315Z" transform="translate(-390.268 -550.438)" fill="#fff"/>
    <path id="Path_5444" data-name="Path 5444" d="M633.649,550.77h3.315l8.9,13.648V550.77h3.425v19.339H645.97l-8.9-13.647v13.647h-3.426Z" transform="translate(-398.634 -550.438)" fill="#fff"/>
    <path id="Path_5445" data-name="Path 5445" d="M671.728,550.265a8.8,8.8,0,0,1,7.873,4.2l-2.818,1.52a5.565,5.565,0,0,0-4.918-2.79c-3.315,0-5.857,2.459-5.857,7.072s2.541,7.073,5.857,7.073a5.564,5.564,0,0,0,4.918-2.79l2.818,1.519a8.8,8.8,0,0,1-7.873,4.2c-5.553,0-9.2-4.034-9.2-10S666.175,550.265,671.728,550.265Z" transform="translate(-408.562 -550.265)" fill="#fff"/>
    <path id="Path_5446" data-name="Path 5446" d="M693.177,550.77h12.487v2.874H696.6v5.083H704.7V561.6H696.6v5.636h9.31v2.873H693.177Z" transform="translate(-419.099 -550.438)" fill="#fff"/>
  </g>
</svg>
