<svg xmlns="http://www.w3.org/2000/svg" width="56.133" height="17.566" viewBox="0 0 56.133 17.566">
  <g id="visa" transform="translate(0.001 0)">
    <g id="Group_219" data-name="Group 219" transform="translate(5.245 0)">
      <g id="Group_218" data-name="Group 218">
        <path id="Path_1186" data-name="Path 1186" d="M44.962,100.23l-2.817,17.531h4.5l2.816-17.531Zm13.583,7.141c-1.574-.777-2.538-1.3-2.538-2.1.019-.723.816-1.463,2.594-1.463a7.836,7.836,0,0,1,3.354.649l.409.182.612-3.668a11.365,11.365,0,0,0-4.042-.723c-4.447,0-7.578,2.312-7.6,5.619-.037,2.44,2.242,3.794,3.947,4.607,1.742.833,2.335,1.374,2.335,2.114-.019,1.137-1.409,1.661-2.7,1.661a9.158,9.158,0,0,1-4.226-.9l-.593-.27-.63,3.812a14.063,14.063,0,0,0,5.022.905c4.726,0,7.8-2.277,7.84-5.8C62.342,110.062,61.141,108.582,58.544,107.371Zm15.975-7.087H71.036a2.231,2.231,0,0,0-2.354,1.41l-6.689,16.067h4.726l1.3-3.479h5.287l.675,3.493h4.168Zm-5.189,10.488c.091.009,1.814-5.678,1.814-5.678l1.372,5.678ZM38.382,100.23,33.97,112.141l-.481-2.349a13.089,13.089,0,0,0-6.227-7.118l4.04,15.07h4.764l7.08-17.512H38.382Z" transform="translate(-27.262 -100.23)" fill="#2394bc"/>
      </g>
    </g>
    <path id="Path_1187" data-name="Path 1187" d="M9.988,102.506a2.942,2.942,0,0,0-2.929-2.258H.072L0,100.572c5.45,1.344,10.025,5.478,11.509,9.367Z" transform="translate(0 -100.245)" fill="#efc75e"/>
  </g>
</svg>
