<svg xmlns="http://www.w3.org/2000/svg" width="23.15" height="16.605" viewBox="0 0 23.15 16.605">
  <g id="Group_71" data-name="Group 71" transform="translate(2111.041 -4809.886)">
    <g id="Group_27" data-name="Group 27" transform="translate(-2110.541 4810.386)">
      <path id="Path_617" data-name="Path 617" d="M712.319,662.256a2.787,2.787,0,0,0-1.959-1.972c-1.727-.466-8.653-.466-8.653-.466s-6.927,0-8.654.466a2.782,2.782,0,0,0-1.957,1.972,31.258,31.258,0,0,0,0,10.731,2.783,2.783,0,0,0,1.957,1.972c1.727.465,8.654.465,8.654.465s6.926,0,8.653-.465a2.788,2.788,0,0,0,1.959-1.972,31.359,31.359,0,0,0,0-10.731Z" transform="translate(-690.632 -659.819)" fill="none" stroke="#606060" stroke-miterlimit="10" stroke-width="1"/>
      <path id="Path_618" data-name="Path 618" d="M696.177,669.244v-6.587l5.789,3.293Z" transform="translate(-687.367 -658.148)" fill="none" stroke="#606060" stroke-miterlimit="10" stroke-width="1"/>
    </g>
  </g>
</svg>
